<svg xmlns="http://www.w3.org/2000/svg" xmlns:xlink="http://www.w3.org/1999/xlink" width="400" height="230.001" viewBox="0 0 400 230.001">
  <defs>
    <clipPath id="clip-path">
      <path id="Path_104390" data-name="Path 104390" d="M-707.14,3276.287h65.5c2.584,0,4.213,2.185,4.7,4.751l8.37,44.437h.112l.538,3.262c.292,1.768-1.47,3.261-3.262,3.261H-699.04a3.475,3.475,0,0,1-3.262-3.261l-.4-2.678-8.481-45.681c-.41-2.212,1.82-4.092,4.044-4.092" transform="translate(711.234 -3276.287)" fill="none" clip-rule="evenodd"/>
    </clipPath>
    <linearGradient id="linear-gradient" x1="0.5" y1="1.842" x2="0.5" y2="-0.602" gradientUnits="objectBoundingBox">
      <stop offset="0" stop-color="#1e9df8"/>
      <stop offset="1" stop-color="#b9e4ff"/>
    </linearGradient>
  </defs>
  <g id="t1-info1" transform="translate(-1020 -2449)">
    <rect id="Rectangle_7556" data-name="Rectangle 7556" width="400" height="230" transform="translate(1020 2449)" fill="#fff"/>
    <g id="Group_92354" data-name="Group 92354" transform="translate(1876.627 -662.436)">
      <path id="Path_104123" data-name="Path 104123" d="M-645.014,3122.384c19.095,6.6,37.246,20.737,51.544,33.917,29.772,27.443,34.215,33.212,70.946,56.253,21.407,13.43,38.284,24.786,46.6,39.975,23.359,42.667-4.464,88.751-62.766,88.751h-237s-27.879.586-48.223-22.219c-68.951-77.295,45.412-242.833,178.9-196.677" transform="translate(0 0.155)" fill="#d8e7ff" fill-rule="evenodd"/>
      <path id="Path_104124" data-name="Path 104124" d="M-695.2,3306.758h-32.125c-2.229,0-4.053,2.662-4.053,5.913h0c0,3.252,1.824,5.914,4.053,5.914H-695.2c2.229,0,4.053-2.662,4.053-5.914h0c0-3.253-1.824-5.913-4.053-5.913" transform="translate(5.933 10.233)" fill="#f7a12e" fill-rule="evenodd"/>
      <path id="Path_104125" data-name="Path 104125" d="M-705.295,3306.758h-11.52c2.229,0,4.053,2.662,4.053,5.913h0c0,3.253-1.824,5.914-4.053,5.914h11.52c2.229,0,4.053-2.662,4.053-5.914h0c0-3.253-1.824-5.913-4.053-5.913" transform="translate(6.696 10.233)" fill="#ef8200" fill-rule="evenodd"/>
      <path id="Path_104126" data-name="Path 104126" d="M-724.59,3316.693h-30.39a8,8,0,0,0,0-8.223h30.39c1.018,0,1.852,1.853,1.852,4.112s-.835,4.112-1.852,4.112" transform="translate(4.697 10.322)" fill="#edeeee" fill-rule="evenodd"/>
      <path id="Path_104127" data-name="Path 104127" d="M-753.844,3312.741a8.328,8.328,0,0,0-1.135-4.271h30.39c1.018,0,1.852,1.853,1.852,4.112,0,.052,0,.106,0,.159Z" transform="translate(4.697 10.322)" fill="#e0e0df" fill-rule="evenodd"/>
      <path id="Path_104128" data-name="Path 104128" d="M-755.882,3318.585h31.441c1.465,0,3.014-2.7,3.014-5.949s-1.549-5.877-3.014-5.877h-31.441l.014,1.771,31.325.03c1.018,0,1.852,1.854,1.852,4.112s-.835,4.112-1.852,4.112l-31.325-.031Z" transform="translate(4.649 10.233)" fill="#ef8200" fill-rule="evenodd"/>
      <path id="Path_104129" data-name="Path 104129" d="M-756.823,3318h33.59c2.33,0,4.237,2.661,4.237,5.913h0c0,3.252-1.907,5.913-4.237,5.913h-33.59c-2.33,0-4.238-2.66-4.238-5.913h0c0-3.253,1.907-5.913,4.238-5.913" transform="translate(4.378 10.821)" fill="#3d7dda" fill-rule="evenodd"/>
      <path id="Path_104130" data-name="Path 104130" d="M-747.551,3318h12.045c-2.331,0-4.238,2.661-4.238,5.913h0c0,3.253,1.907,5.913,4.238,5.913h-12.045c-2.33,0-4.238-2.66-4.238-5.913h0c0-3.253,1.907-5.913,4.238-5.913" transform="translate(4.864 10.821)" fill="#105dc4" fill-rule="evenodd"/>
      <path id="Path_104131" data-name="Path 104131" d="M-726.509,3327.932h31.776a7.7,7.7,0,0,1,0-8.223h-31.776c-1.064,0-1.936,1.853-1.936,4.112s.872,4.112,1.936,4.112" transform="translate(6.087 10.911)" fill="#edeeee" fill-rule="evenodd"/>
      <path id="Path_104132" data-name="Path 104132" d="M-695.92,3323.979a8.036,8.036,0,0,1,1.187-4.271h-31.776c-1.064,0-1.936,1.853-1.936,4.112,0,.053,0,.106,0,.159Z" transform="translate(6.087 10.911)" fill="#e0e0df" fill-rule="evenodd"/>
      <path id="Path_104133" data-name="Path 104133" d="M-693.675,3329.823h-32.875c-1.532,0-3.152-2.7-3.152-5.949s1.62-5.877,3.152-5.877h32.875l-.015,1.771-32.754.031c-1.064,0-1.936,1.853-1.936,4.112s.872,4.112,1.936,4.112l32.754-.031Z" transform="translate(6.021 10.821)" fill="#105dc4" fill-rule="evenodd"/>
      <path id="Path_104134" data-name="Path 104134" d="M-724.447,3321.423h3.637c1.4.732.992,3.636,1.821,5.538l-2.149-1.57-1.558,1.469c-1.208-1.724-.518-4.665-1.751-5.437" transform="translate(6.296 11.001)" fill="#71bdf8" fill-rule="evenodd"/>
      <path id="Path_104135" data-name="Path 104135" d="M-729.063,3310.3H-732.7c-1.4.733-.992,3.636-1.821,5.538l2.148-1.57,1.559,1.47c1.208-1.724.518-4.666,1.751-5.438" transform="translate(5.768 10.418)" fill="#ef8200" fill-rule="evenodd"/>
      <path id="Path_104136" data-name="Path 104136" d="M-828.895,3234.969h94.8a.022.022,0,0,1,.023.022v58.03a.024.024,0,0,1-.023.023h-94.8a.024.024,0,0,1-.023-.023v-58.03a.022.022,0,0,1,.023-.022" transform="translate(0.823 6.472)" fill="#1f3e7a" fill-rule="evenodd"/>
      <path id="Path_104137" data-name="Path 104137" d="M-791.874,3286.236h27.63a.567.567,0,0,0,.565-.565h0a.566.566,0,0,0-.565-.565h-27.63a.566.566,0,0,0-.565.565h0a.567.567,0,0,0,.565.565" transform="translate(2.734 9.098)" fill="#eb6502" fill-rule="evenodd"/>
      <path id="Path_104138" data-name="Path 104138" d="M-762.712,3286.236h6.783a.567.567,0,0,0,.565-.565h0a.566.566,0,0,0-.565-.565h-6.783a.566.566,0,0,0-.565.565h0a.567.567,0,0,0,.565.565" transform="translate(4.262 9.098)" fill="#fff" fill-rule="evenodd"/>
      <path id="Path_104139" data-name="Path 104139" d="M-794.717,3283.9h6.783a.567.567,0,0,0,.565-.565h0a.567.567,0,0,0-.565-.565h-6.783a.566.566,0,0,0-.565.565h0a.567.567,0,0,0,.565.565" transform="translate(2.585 8.976)" fill="#fff" fill-rule="evenodd"/>
      <path id="Path_104140" data-name="Path 104140" d="M-791.874,3281.56H-781.7a.567.567,0,0,0,.565-.565h0a.567.567,0,0,0-.565-.565h-10.174a.567.567,0,0,0-.565.565h0a.567.567,0,0,0,.565.565" transform="translate(2.734 8.853)" fill="#fff" fill-rule="evenodd"/>
      <path id="Path_104141" data-name="Path 104141" d="M-791.842,3279.222h8.345a.567.567,0,0,0,.565-.565h0a.566.566,0,0,0-.565-.565h-8.345a.566.566,0,0,0-.565.565h0a.567.567,0,0,0,.565.565" transform="translate(2.736 8.731)" fill="#fff" fill-rule="evenodd"/>
      <path id="Path_104142" data-name="Path 104142" d="M-791.842,3276.884h25.336a.567.567,0,0,0,.565-.565h0a.567.567,0,0,0-.565-.565h-25.336a.566.566,0,0,0-.565.565h0a.567.567,0,0,0,.565.565" transform="translate(2.736 8.608)" fill="#fff" fill-rule="evenodd"/>
      <path id="Path_104143" data-name="Path 104143" d="M-779.2,3281.56h6.649a.567.567,0,0,0,.565-.565h0a.566.566,0,0,0-.565-.565H-779.2a.567.567,0,0,0-.566.565h0a.567.567,0,0,0,.566.565" transform="translate(3.398 8.853)" fill="#fff" fill-rule="evenodd"/>
      <path id="Path_104144" data-name="Path 104144" d="M-781.59,3279.222h19.767a.567.567,0,0,0,.565-.565h0a.566.566,0,0,0-.565-.565H-781.59a.566.566,0,0,0-.565.565h0a.567.567,0,0,0,.565.565" transform="translate(3.273 8.731)" fill="#eb6502" fill-rule="evenodd"/>
      <path id="Path_104145" data-name="Path 104145" d="M-759.979,3279.222h5.3a.567.567,0,0,0,.565-.565h0a.566.566,0,0,0-.565-.565h-5.3a.566.566,0,0,0-.565.565h0a.567.567,0,0,0,.565.565" transform="translate(4.405 8.731)" fill="#6cd6ff" fill-rule="evenodd"/>
      <path id="Path_104146" data-name="Path 104146" d="M-752.3,3279.222h5.3a.567.567,0,0,0,.565-.565h0a.566.566,0,0,0-.565-.565h-5.3a.566.566,0,0,0-.565.565h0a.567.567,0,0,0,.565.565" transform="translate(4.807 8.731)" fill="#fccf00" fill-rule="evenodd"/>
      <path id="Path_104147" data-name="Path 104147" d="M-794.717,3274.531h6.783a.567.567,0,0,0,.565-.565h0a.567.567,0,0,0-.565-.565h-6.783a.566.566,0,0,0-.565.565h0a.567.567,0,0,0,.565.565" transform="translate(2.585 8.485)" fill="#fff" fill-rule="evenodd"/>
      <path id="Path_104148" data-name="Path 104148" d="M-791.874,3253.98H-781.7a.567.567,0,0,0,.565-.565h0a.567.567,0,0,0-.565-.565h-10.174a.567.567,0,0,0-.565.565h0a.567.567,0,0,0,.565.565" transform="translate(2.734 7.409)" fill="#fff" fill-rule="evenodd"/>
      <path id="Path_104149" data-name="Path 104149" d="M-791.842,3251.642h8.345a.567.567,0,0,0,.565-.565h0a.567.567,0,0,0-.565-.565h-8.345a.567.567,0,0,0-.565.565h0a.566.566,0,0,0,.565.565" transform="translate(2.736 7.286)" fill="#fff" fill-rule="evenodd"/>
      <path id="Path_104150" data-name="Path 104150" d="M-791.842,3249.3h25.336a.567.567,0,0,0,.565-.565h0a.567.567,0,0,0-.565-.565h-25.336a.567.567,0,0,0-.565.565h0a.566.566,0,0,0,.565.565" transform="translate(2.736 7.163)" fill="#6cd6ff" fill-rule="evenodd"/>
      <path id="Path_104151" data-name="Path 104151" d="M-779.2,3253.98h6.649a.566.566,0,0,0,.565-.565h0a.567.567,0,0,0-.565-.565H-779.2a.567.567,0,0,0-.566.565h0a.567.567,0,0,0,.566.565" transform="translate(3.398 7.409)" fill="#fff" fill-rule="evenodd"/>
      <path id="Path_104152" data-name="Path 104152" d="M-781.59,3251.642h19.767a.566.566,0,0,0,.565-.565h0a.567.567,0,0,0-.565-.565H-781.59a.567.567,0,0,0-.565.565h0a.567.567,0,0,0,.565.565" transform="translate(3.273 7.286)" fill="#c84e96" fill-rule="evenodd"/>
      <path id="Path_104153" data-name="Path 104153" d="M-759.979,3251.642h5.3a.566.566,0,0,0,.565-.565h0a.567.567,0,0,0-.565-.565h-5.3a.567.567,0,0,0-.565.565h0a.566.566,0,0,0,.565.565" transform="translate(4.405 7.286)" fill="#fccf00" fill-rule="evenodd"/>
      <path id="Path_104154" data-name="Path 104154" d="M-752.3,3251.642h5.3a.567.567,0,0,0,.565-.565h0a.567.567,0,0,0-.565-.565h-5.3a.567.567,0,0,0-.565.565h0a.567.567,0,0,0,.565.565" transform="translate(4.807 7.286)" fill="#fff" fill-rule="evenodd"/>
      <path id="Path_104155" data-name="Path 104155" d="M-791.716,3271.406h6.783a.567.567,0,0,0,.565-.565h0a.566.566,0,0,0-.565-.565h-6.783a.566.566,0,0,0-.565.565h0a.567.567,0,0,0,.565.565" transform="translate(2.742 8.322)" fill="#fff" fill-rule="evenodd"/>
      <path id="Path_104156" data-name="Path 104156" d="M-791.874,3269.068H-781.7a.567.567,0,0,0,.565-.565h0a.566.566,0,0,0-.565-.565h-10.174a.566.566,0,0,0-.565.565h0a.567.567,0,0,0,.565.565" transform="translate(2.734 8.199)" fill="#fff" fill-rule="evenodd"/>
      <path id="Path_104157" data-name="Path 104157" d="M-791.842,3266.73h8.345a.567.567,0,0,0,.565-.565h0a.567.567,0,0,0-.565-.565h-8.345a.566.566,0,0,0-.565.565h0a.567.567,0,0,0,.565.565" transform="translate(2.736 8.077)" fill="#fff" fill-rule="evenodd"/>
      <path id="Path_104158" data-name="Path 104158" d="M-791.842,3264.392h10.948a.567.567,0,0,0,.566-.565h0a.567.567,0,0,0-.566-.565h-10.948a.566.566,0,0,0-.565.565h0a.567.567,0,0,0,.565.565" transform="translate(2.736 7.954)" fill="#fccf00" fill-rule="evenodd"/>
      <path id="Path_104159" data-name="Path 104159" d="M-779.2,3269.068h6.649a.567.567,0,0,0,.565-.565h0a.566.566,0,0,0-.565-.565H-779.2a.567.567,0,0,0-.566.565h0a.567.567,0,0,0,.566.565" transform="translate(3.398 8.199)" fill="#fff" fill-rule="evenodd"/>
      <path id="Path_104160" data-name="Path 104160" d="M-781.59,3266.73h19.767a.567.567,0,0,0,.565-.565h0a.566.566,0,0,0-.565-.565H-781.59a.567.567,0,0,0-.565.565h0a.567.567,0,0,0,.565.565" transform="translate(3.273 8.077)" fill="#ef8200" fill-rule="evenodd"/>
      <path id="Path_104161" data-name="Path 104161" d="M-759.979,3266.73h5.3a.567.567,0,0,0,.565-.565h0a.566.566,0,0,0-.565-.565h-5.3a.566.566,0,0,0-.565.565h0a.567.567,0,0,0,.565.565" transform="translate(4.405 8.077)" fill="#fff" fill-rule="evenodd"/>
      <path id="Path_104162" data-name="Path 104162" d="M-752.3,3266.73h5.3a.567.567,0,0,0,.565-.565h0a.567.567,0,0,0-.565-.565h-5.3a.567.567,0,0,0-.565.565h0a.567.567,0,0,0,.565.565" transform="translate(4.807 8.077)" fill="#fff" fill-rule="evenodd"/>
      <path id="Path_104163" data-name="Path 104163" d="M-784.181,3246.885h19.767a.566.566,0,0,0,.565-.565h0a.567.567,0,0,0-.565-.565h-19.767a.567.567,0,0,0-.565.565h0a.567.567,0,0,0,.565.565" transform="translate(3.137 7.037)" fill="#fff" fill-rule="evenodd"/>
      <path id="Path_104164" data-name="Path 104164" d="M-762.57,3246.885h5.3a.566.566,0,0,0,.565-.565h0a.567.567,0,0,0-.565-.565h-5.3a.567.567,0,0,0-.565.565h0a.567.567,0,0,0,.565.565" transform="translate(4.269 7.037)" fill="#fff" fill-rule="evenodd"/>
      <path id="Path_104165" data-name="Path 104165" d="M-754.892,3246.885h5.3a.567.567,0,0,0,.565-.565h0a.567.567,0,0,0-.565-.565h-5.3a.568.568,0,0,0-.566.565h0a.567.567,0,0,0,.566.565" transform="translate(4.672 7.037)" fill="#fff" fill-rule="evenodd"/>
      <path id="Path_104166" data-name="Path 104166" d="M-784.181,3244.674h8.645a.567.567,0,0,0,.565-.565h0a.567.567,0,0,0-.565-.565h-8.645a.567.567,0,0,0-.565.565h0a.567.567,0,0,0,.565.565" transform="translate(3.137 6.921)" fill="#c84e96" fill-rule="evenodd"/>
      <path id="Path_104167" data-name="Path 104167" d="M-773.091,3244.674h13.565a.567.567,0,0,0,.565-.565h0a.566.566,0,0,0-.565-.565h-13.565a.567.567,0,0,0-.565.565h0a.567.567,0,0,0,.565.565" transform="translate(3.718 6.921)" fill="#eb6502" fill-rule="evenodd"/>
      <path id="Path_104168" data-name="Path 104168" d="M-756.907,3244.674h11.43a.567.567,0,0,0,.565-.565h0a.567.567,0,0,0-.565-.565h-11.43a.567.567,0,0,0-.565.565h0a.567.567,0,0,0,.565.565" transform="translate(4.566 6.921)" fill="#fff" fill-rule="evenodd"/>
      <path id="Path_104169" data-name="Path 104169" d="M-784.181,3262.059h19.767a.566.566,0,0,0,.565-.565h0a.567.567,0,0,0-.565-.565h-19.767a.567.567,0,0,0-.565.565h0a.567.567,0,0,0,.565.565" transform="translate(3.137 7.832)" fill="#fff" fill-rule="evenodd"/>
      <path id="Path_104170" data-name="Path 104170" d="M-762.57,3262.059h5.3a.566.566,0,0,0,.565-.565h0a.567.567,0,0,0-.565-.565h-5.3a.567.567,0,0,0-.565.565h0a.567.567,0,0,0,.565.565" transform="translate(4.269 7.832)" fill="#fff" fill-rule="evenodd"/>
      <path id="Path_104171" data-name="Path 104171" d="M-754.892,3262.059h5.3a.567.567,0,0,0,.565-.565h0a.567.567,0,0,0-.565-.565h-5.3a.568.568,0,0,0-.566.565h0a.567.567,0,0,0,.566.565" transform="translate(4.672 7.832)" fill="#fff" fill-rule="evenodd"/>
      <path id="Path_104172" data-name="Path 104172" d="M-784.181,3259.579h8.645a.567.567,0,0,0,.565-.565h0a.567.567,0,0,0-.565-.565h-8.645a.567.567,0,0,0-.565.565h0a.567.567,0,0,0,.565.565" transform="translate(3.137 7.702)" fill="#fff" fill-rule="evenodd"/>
      <path id="Path_104173" data-name="Path 104173" d="M-773.091,3259.579h13.565a.567.567,0,0,0,.565-.565h0a.566.566,0,0,0-.565-.565h-13.565a.567.567,0,0,0-.565.565h0a.567.567,0,0,0,.565.565" transform="translate(3.718 7.702)" fill="#fff" fill-rule="evenodd"/>
      <path id="Path_104174" data-name="Path 104174" d="M-756.907,3259.579h11.43a.567.567,0,0,0,.565-.565h0a.567.567,0,0,0-.565-.565h-11.43a.567.567,0,0,0-.565.565h0a.567.567,0,0,0,.565.565" transform="translate(4.566 7.702)" fill="#fff" fill-rule="evenodd"/>
      <rect id="Rectangle_31915" data-name="Rectangle 31915" width="16.801" height="52.039" transform="translate(-823.943 3245.464)" fill="#031542"/>
      <path id="Path_104175" data-name="Path 104175" d="M-779.2,3264.392h5.894a.567.567,0,0,0,.565-.565h0a.567.567,0,0,0-.565-.565H-779.2a.567.567,0,0,0-.565.565h0a.567.567,0,0,0,.565.565" transform="translate(3.398 7.954)" fill="#ef8200" fill-rule="evenodd"/>
      <path id="Path_104176" data-name="Path 104176" d="M-771.639,3264.392h5.893a.567.567,0,0,0,.565-.565h0a.566.566,0,0,0-.565-.565h-5.893a.567.567,0,0,0-.565.565h0a.567.567,0,0,0,.565.565" transform="translate(3.794 7.954)" fill="#ef8200" fill-rule="evenodd"/>
      <path id="Path_104177" data-name="Path 104177" d="M-794.717,3256.917h8.733a.567.567,0,0,0,.565-.565h0a.566.566,0,0,0-.565-.565h-8.733a.566.566,0,0,0-.565.565h0a.567.567,0,0,0,.565.565" transform="translate(2.585 7.562)" fill="#fff" fill-rule="evenodd"/>
      <path id="Path_104178" data-name="Path 104178" d="M-784.178,3256.917h5.893a.567.567,0,0,0,.565-.565h0a.566.566,0,0,0-.565-.565h-5.893a.567.567,0,0,0-.565.565h0a.567.567,0,0,0,.565.565" transform="translate(3.137 7.562)" fill="#fff" fill-rule="evenodd"/>
      <path id="Path_104179" data-name="Path 104179" d="M-776.054,3256.917h5.893a.567.567,0,0,0,.565-.565h0a.567.567,0,0,0-.565-.565h-5.893a.566.566,0,0,0-.565.565h0a.567.567,0,0,0,.565.565" transform="translate(3.563 7.562)" fill="#fff" fill-rule="evenodd"/>
      <path id="Path_104180" data-name="Path 104180" d="M-820.254,3273.7h3.742a.548.548,0,0,0,.546-.546.547.547,0,0,0-.546-.545h-3.742a.547.547,0,0,0-.546.545.548.548,0,0,0,.546.546" transform="translate(1.248 8.444)" fill="#f0f8fd" fill-rule="evenodd"/>
      <path id="Path_104181" data-name="Path 104181" d="M-822.4,3271.136h9.9a.547.547,0,0,0,.545-.545.547.547,0,0,0-.545-.546h-9.9a.548.548,0,0,0-.546.546.547.547,0,0,0,.546.545" transform="translate(1.136 8.309)" fill="#f0f8fd" fill-rule="evenodd"/>
      <path id="Path_104182" data-name="Path 104182" d="M-822.4,3268.418h7.541a.548.548,0,0,0,.546-.546.548.548,0,0,0-.546-.545H-822.4a.548.548,0,0,0-.546.545.548.548,0,0,0,.546.546" transform="translate(1.136 8.167)" fill="#f0f8fd" fill-rule="evenodd"/>
      <path id="Path_104183" data-name="Path 104183" d="M-820.254,3265.7h7.528a.547.547,0,0,0,.545-.546.547.547,0,0,0-.545-.545h-7.528a.548.548,0,0,0-.546.545.548.548,0,0,0,.546.546" transform="translate(1.248 8.025)" fill="#f0f8fd" fill-rule="evenodd"/>
      <path id="Path_104184" data-name="Path 104184" d="M-820.254,3262.981h2.4a.547.547,0,0,0,.545-.545.548.548,0,0,0-.545-.546h-2.4a.548.548,0,0,0-.546.546.547.547,0,0,0,.546.545" transform="translate(1.248 7.882)" fill="#f0f8fd" fill-rule="evenodd"/>
      <path id="Path_104185" data-name="Path 104185" d="M-822.4,3260.263h7.157a.547.547,0,0,0,.545-.545.547.547,0,0,0-.545-.546H-822.4a.548.548,0,0,0-.546.546.547.547,0,0,0,.546.545" transform="translate(1.136 7.74)" fill="#f0f8fd" fill-rule="evenodd"/>
      <path id="Path_104186" data-name="Path 104186" d="M-820.295,3257.545h1.96a.547.547,0,0,0,.546-.545.548.548,0,0,0-.546-.546h-1.96a.547.547,0,0,0-.545.546.547.547,0,0,0,.545.545" transform="translate(1.246 7.597)" fill="#f0f8fd" fill-rule="evenodd"/>
      <path id="Path_104187" data-name="Path 104187" d="M-820.543,3254.827h7.94a.547.547,0,0,0,.545-.546.546.546,0,0,0-.545-.545h-7.94a.547.547,0,0,0-.545.545.547.547,0,0,0,.545.546" transform="translate(1.233 7.455)" fill="#f0f8fd" fill-rule="evenodd"/>
      <path id="Path_104188" data-name="Path 104188" d="M-822.4,3252.109h6.315a.548.548,0,0,0,.546-.546.547.547,0,0,0-.546-.545H-822.4a.547.547,0,0,0-.546.545.548.548,0,0,0,.546.546" transform="translate(1.136 7.312)" fill="#f0f8fd" fill-rule="evenodd"/>
      <path id="Path_104189" data-name="Path 104189" d="M-820.543,3249.39h7.94a.546.546,0,0,0,.545-.545.548.548,0,0,0-.545-.546h-7.94a.548.548,0,0,0-.545.546.547.547,0,0,0,.545.545" transform="translate(1.233 7.17)" fill="#f0f8fd" fill-rule="evenodd"/>
      <path id="Path_104190" data-name="Path 104190" d="M-820.543,3246.672h4.84a.547.547,0,0,0,.546-.545.548.548,0,0,0-.546-.546h-4.84a.547.547,0,0,0-.545.546.547.547,0,0,0,.545.545" transform="translate(1.233 7.028)" fill="#f0f8fd" fill-rule="evenodd"/>
      <path id="Path_104191" data-name="Path 104191" d="M-822.4,3243.954h3.48a.547.547,0,0,0,.545-.546.546.546,0,0,0-.545-.545h-3.48a.547.547,0,0,0-.546.545.548.548,0,0,0,.546.546" transform="translate(1.136 6.885)" fill="#f0f8fd" fill-rule="evenodd"/>
      <path id="Path_104192" data-name="Path 104192" d="M-820.254,3276.106h3.742a.548.548,0,0,0,.546-.546.548.548,0,0,0-.546-.545h-3.742a.548.548,0,0,0-.546.545.548.548,0,0,0,.546.546" transform="translate(1.248 8.57)" fill="#f0f8fd" fill-rule="evenodd"/>
      <path id="Path_104193" data-name="Path 104193" d="M-822.4,3278.507h9.563a.547.547,0,0,0,.545-.545.547.547,0,0,0-.545-.546H-822.4a.548.548,0,0,0-.546.546.547.547,0,0,0,.546.545" transform="translate(1.136 8.695)" fill="#f0f8fd" fill-rule="evenodd"/>
      <path id="Path_104194" data-name="Path 104194" d="M-820.254,3280.909h3.742a.547.547,0,0,0,.546-.545.548.548,0,0,0-.546-.546h-3.742a.548.548,0,0,0-.546.546.548.548,0,0,0,.546.545" transform="translate(1.248 8.821)" fill="#f0f8fd" fill-rule="evenodd"/>
      <path id="Path_104195" data-name="Path 104195" d="M-791.842,3246.885h5.552a.567.567,0,0,0,.565-.565h0a.567.567,0,0,0-.565-.565h-5.552a.567.567,0,0,0-.565.565h0a.566.566,0,0,0,.565.565" transform="translate(2.736 7.037)" fill="#fff" fill-rule="evenodd"/>
      <path id="Path_104196" data-name="Path 104196" d="M-797.2,3244.674h11.027a.567.567,0,0,0,.565-.565h0a.567.567,0,0,0-.565-.565H-797.2a.567.567,0,0,0-.565.565h0a.567.567,0,0,0,.565.565" transform="translate(2.455 6.921)" fill="#fff" fill-rule="evenodd"/>
      <path id="Path_104197" data-name="Path 104197" d="M-797.2,3241.938h14.522a.567.567,0,0,0,.565-.565h0a.566.566,0,0,0-.565-.565H-797.2a.567.567,0,0,0-.565.565h0a.567.567,0,0,0,.565.565" transform="translate(2.455 6.777)" fill="#fff" fill-rule="evenodd"/>
      <path id="Path_104198" data-name="Path 104198" d="M-802.9,3241.938h.531a.567.567,0,0,0,.565-.565h0a.566.566,0,0,0-.565-.565h-.531a.567.567,0,0,0-.565.565h0a.567.567,0,0,0,.565.565" transform="translate(2.156 6.777)" fill="#b1cbef" fill-rule="evenodd"/>
      <path id="Path_104199" data-name="Path 104199" d="M-802.9,3244.674h.531a.567.567,0,0,0,.565-.565h0a.566.566,0,0,0-.565-.565h-.531a.567.567,0,0,0-.565.565h0a.567.567,0,0,0,.565.565" transform="translate(2.156 6.921)" fill="#b1cbef" fill-rule="evenodd"/>
      <path id="Path_104200" data-name="Path 104200" d="M-803,3253.98h.461a.566.566,0,0,0,.565-.565h0a.567.567,0,0,0-.565-.565H-803a.567.567,0,0,0-.565.565h0a.567.567,0,0,0,.565.565" transform="translate(2.151 7.409)" fill="#b1cbef" fill-rule="evenodd"/>
      <path id="Path_104201" data-name="Path 104201" d="M-802.968,3251.642h.427a.566.566,0,0,0,.565-.565h0a.567.567,0,0,0-.565-.565h-.427a.567.567,0,0,0-.565.565h0a.566.566,0,0,0,.565.565" transform="translate(2.153 7.286)" fill="#b1cbef" fill-rule="evenodd"/>
      <path id="Path_104202" data-name="Path 104202" d="M-802.968,3249.3h.427a.566.566,0,0,0,.565-.565h0a.567.567,0,0,0-.565-.565h-.427a.567.567,0,0,0-.565.565h0a.566.566,0,0,0,.565.565" transform="translate(2.153 7.163)" fill="#b1cbef" fill-rule="evenodd"/>
      <path id="Path_104203" data-name="Path 104203" d="M-802.968,3246.885h.427a.566.566,0,0,0,.565-.565h0a.567.567,0,0,0-.565-.565h-.427a.567.567,0,0,0-.565.565h0a.566.566,0,0,0,.565.565" transform="translate(2.153 7.037)" fill="#b1cbef" fill-rule="evenodd"/>
      <path id="Path_104204" data-name="Path 104204" d="M-802.938,3262.059h.4a.566.566,0,0,0,.565-.565h0a.567.567,0,0,0-.565-.565h-.4a.567.567,0,0,0-.565.565h0a.567.567,0,0,0,.565.565" transform="translate(2.155 7.832)" fill="#b1cbef" fill-rule="evenodd"/>
      <path id="Path_104205" data-name="Path 104205" d="M-802.938,3259.579h.4a.567.567,0,0,0,.565-.565h0a.566.566,0,0,0-.565-.565h-.4a.567.567,0,0,0-.565.565h0a.567.567,0,0,0,.565.565" transform="translate(2.155 7.702)" fill="#b1cbef" fill-rule="evenodd"/>
      <path id="Path_104206" data-name="Path 104206" d="M-802.935,3256.917h.393a.567.567,0,0,0,.565-.565h0a.566.566,0,0,0-.565-.565h-.393a.567.567,0,0,0-.565.565h0a.567.567,0,0,0,.565.565" transform="translate(2.155 7.562)" fill="#b1cbef" fill-rule="evenodd"/>
      <path id="Path_104207" data-name="Path 104207" d="M-802.775,3271.406h.224a.567.567,0,0,0,.565-.565h0a.566.566,0,0,0-.565-.565h-.224a.566.566,0,0,0-.565.565h0a.567.567,0,0,0,.565.565" transform="translate(2.163 8.322)" fill="#b1cbef" fill-rule="evenodd"/>
      <path id="Path_104208" data-name="Path 104208" d="M-802.938,3269.068h.4a.567.567,0,0,0,.565-.565h0a.566.566,0,0,0-.565-.565h-.4a.566.566,0,0,0-.565.565h0a.567.567,0,0,0,.565.565" transform="translate(2.155 8.199)" fill="#b1cbef" fill-rule="evenodd"/>
      <path id="Path_104209" data-name="Path 104209" d="M-802.9,3266.73h.361a.567.567,0,0,0,.565-.565h0a.566.566,0,0,0-.565-.565h-.361a.566.566,0,0,0-.565.565h0a.567.567,0,0,0,.565.565" transform="translate(2.156 8.077)" fill="#b1cbef" fill-rule="evenodd"/>
      <path id="Path_104210" data-name="Path 104210" d="M-802.9,3264.392h.361a.567.567,0,0,0,.565-.565h0a.566.566,0,0,0-.565-.565h-.361a.566.566,0,0,0-.565.565h0a.567.567,0,0,0,.565.565" transform="translate(2.156 7.954)" fill="#b1cbef" fill-rule="evenodd"/>
      <path id="Path_104211" data-name="Path 104211" d="M-802.719,3283.9h.165a.567.567,0,0,0,.565-.565h0a.566.566,0,0,0-.565-.565h-.165a.567.567,0,0,0-.565.565h0a.567.567,0,0,0,.565.565" transform="translate(2.166 8.976)" fill="#b1cbef" fill-rule="evenodd"/>
      <path id="Path_104212" data-name="Path 104212" d="M-802.719,3281.56h.165a.567.567,0,0,0,.565-.565h0a.566.566,0,0,0-.565-.565h-.165a.567.567,0,0,0-.565.565h0a.567.567,0,0,0,.565.565" transform="translate(2.166 8.853)" fill="#b1cbef" fill-rule="evenodd"/>
      <path id="Path_104213" data-name="Path 104213" d="M-802.739,3279.222h.186a.567.567,0,0,0,.565-.565h0a.566.566,0,0,0-.565-.565h-.186a.566.566,0,0,0-.565.565h0a.567.567,0,0,0,.565.565" transform="translate(2.165 8.731)" fill="#b1cbef" fill-rule="evenodd"/>
      <path id="Path_104214" data-name="Path 104214" d="M-802.775,3276.884h.224a.567.567,0,0,0,.565-.565h0a.566.566,0,0,0-.565-.565h-.224a.566.566,0,0,0-.565.565h0a.567.567,0,0,0,.565.565" transform="translate(2.163 8.608)" fill="#b1cbef" fill-rule="evenodd"/>
      <path id="Path_104215" data-name="Path 104215" d="M-802.775,3274.531h.224a.567.567,0,0,0,.565-.565h0a.566.566,0,0,0-.565-.565h-.224a.566.566,0,0,0-.565.565h0a.567.567,0,0,0,.565.565" transform="translate(2.163 8.485)" fill="#b1cbef" fill-rule="evenodd"/>
      <rect id="Rectangle_31916" data-name="Rectangle 31916" width="94.841" height="3.272" transform="translate(-828.095 3238.18)" fill="#96add9"/>
      <rect id="Rectangle_31917" data-name="Rectangle 31917" width="0.995" height="0.995" transform="translate(-739.966 3239.105)" fill="#fff"/>
      <rect id="Rectangle_31918" data-name="Rectangle 31918" width="0.995" height="0.995" transform="translate(-738.208 3239.105)" fill="#fff"/>
      <rect id="Rectangle_31919" data-name="Rectangle 31919" width="0.995" height="0.995" transform="translate(-736.451 3239.105)" fill="#fff"/>
      <path id="Path_104216" data-name="Path 104216" d="M-822.659,3122.064h94.795a.023.023,0,0,1,.023.023v58.029a.023.023,0,0,1-.023.023h-94.795a.023.023,0,0,1-.023-.023v-58.029a.023.023,0,0,1,.023-.023" transform="translate(1.15 0.557)" fill="#1f3e7a" fill-rule="evenodd"/>
      <path id="Path_104217" data-name="Path 104217" d="M-785.638,3173.331h27.63a.567.567,0,0,0,.565-.565h0a.566.566,0,0,0-.565-.565h-27.63a.567.567,0,0,0-.565.565h0a.567.567,0,0,0,.565.565" transform="translate(3.061 3.183)" fill="#eb6502" fill-rule="evenodd"/>
      <path id="Path_104218" data-name="Path 104218" d="M-756.476,3173.331h6.783a.567.567,0,0,0,.565-.565h0a.567.567,0,0,0-.565-.565h-6.783a.566.566,0,0,0-.565.565h0a.567.567,0,0,0,.565.565" transform="translate(4.589 3.183)" fill="#fff" fill-rule="evenodd"/>
      <path id="Path_104219" data-name="Path 104219" d="M-788.481,3170.993h6.783a.567.567,0,0,0,.565-.565h0a.567.567,0,0,0-.565-.565h-6.783a.567.567,0,0,0-.566.565h0a.568.568,0,0,0,.566.565" transform="translate(2.912 3.061)" fill="#fff" fill-rule="evenodd"/>
      <path id="Path_104220" data-name="Path 104220" d="M-785.638,3168.656h10.175a.567.567,0,0,0,.565-.565h0a.567.567,0,0,0-.565-.565h-10.175a.567.567,0,0,0-.565.565h0a.567.567,0,0,0,.565.565" transform="translate(3.061 2.938)" fill="#fff" fill-rule="evenodd"/>
      <path id="Path_104221" data-name="Path 104221" d="M-785.606,3166.317h8.345a.567.567,0,0,0,.565-.565h0a.566.566,0,0,0-.565-.565h-8.345a.566.566,0,0,0-.565.565h0a.567.567,0,0,0,.565.565" transform="translate(3.062 2.816)" fill="#fff" fill-rule="evenodd"/>
      <path id="Path_104222" data-name="Path 104222" d="M-785.606,3163.979h25.336a.567.567,0,0,0,.565-.565h0a.567.567,0,0,0-.565-.565h-25.336a.566.566,0,0,0-.565.565h0a.567.567,0,0,0,.565.565" transform="translate(3.062 2.693)" fill="#fff" fill-rule="evenodd"/>
      <path id="Path_104223" data-name="Path 104223" d="M-772.969,3168.656h6.65a.567.567,0,0,0,.565-.565h0a.566.566,0,0,0-.565-.565h-6.65a.567.567,0,0,0-.565.565h0a.567.567,0,0,0,.565.565" transform="translate(3.725 2.938)" fill="#fff" fill-rule="evenodd"/>
      <path id="Path_104224" data-name="Path 104224" d="M-775.354,3166.317h19.767a.567.567,0,0,0,.565-.565h0a.566.566,0,0,0-.565-.565h-19.767a.566.566,0,0,0-.565.565h0a.567.567,0,0,0,.565.565" transform="translate(3.6 2.816)" fill="#eb6502" fill-rule="evenodd"/>
      <path id="Path_104225" data-name="Path 104225" d="M-753.743,3166.317h5.3a.567.567,0,0,0,.565-.565h0a.566.566,0,0,0-.565-.565h-5.3a.566.566,0,0,0-.565.565h0a.566.566,0,0,0,.565.565" transform="translate(4.732 2.816)" fill="#6cd6ff" fill-rule="evenodd"/>
      <path id="Path_104226" data-name="Path 104226" d="M-746.066,3166.317h5.3a.567.567,0,0,0,.565-.565h0a.566.566,0,0,0-.565-.565h-5.3a.566.566,0,0,0-.565.565h0a.567.567,0,0,0,.565.565" transform="translate(5.134 2.816)" fill="#fccf00" fill-rule="evenodd"/>
      <path id="Path_104227" data-name="Path 104227" d="M-788.481,3161.625h6.783a.567.567,0,0,0,.565-.565h0a.567.567,0,0,0-.565-.565h-6.783a.567.567,0,0,0-.566.565h0a.568.568,0,0,0,.566.565" transform="translate(2.912 2.57)" fill="#fff" fill-rule="evenodd"/>
      <path id="Path_104228" data-name="Path 104228" d="M-785.638,3141.075h10.175a.567.567,0,0,0,.565-.565h0a.567.567,0,0,0-.565-.565h-10.175a.567.567,0,0,0-.565.565h0a.567.567,0,0,0,.565.565" transform="translate(3.061 1.494)" fill="#fff" fill-rule="evenodd"/>
      <path id="Path_104229" data-name="Path 104229" d="M-785.606,3138.737h8.345a.567.567,0,0,0,.565-.565h0a.567.567,0,0,0-.565-.565h-8.345a.567.567,0,0,0-.565.565h0a.566.566,0,0,0,.565.565" transform="translate(3.062 1.371)" fill="#fff" fill-rule="evenodd"/>
      <path id="Path_104230" data-name="Path 104230" d="M-785.606,3136.4h25.336a.567.567,0,0,0,.565-.565h0a.567.567,0,0,0-.565-.565h-25.336a.567.567,0,0,0-.565.565h0a.566.566,0,0,0,.565.565" transform="translate(3.062 1.248)" fill="#6cd6ff" fill-rule="evenodd"/>
      <path id="Path_104231" data-name="Path 104231" d="M-772.969,3141.075h6.65a.566.566,0,0,0,.565-.565h0a.567.567,0,0,0-.565-.565h-6.65a.567.567,0,0,0-.565.565h0a.567.567,0,0,0,.565.565" transform="translate(3.725 1.494)" fill="#fff" fill-rule="evenodd"/>
      <path id="Path_104232" data-name="Path 104232" d="M-775.354,3138.737h19.767a.567.567,0,0,0,.565-.565h0a.567.567,0,0,0-.565-.565h-19.767a.567.567,0,0,0-.565.565h0a.567.567,0,0,0,.565.565" transform="translate(3.6 1.371)" fill="#c84e96" fill-rule="evenodd"/>
      <path id="Path_104233" data-name="Path 104233" d="M-753.743,3138.737h5.3a.567.567,0,0,0,.565-.565h0a.567.567,0,0,0-.565-.565h-5.3a.567.567,0,0,0-.565.565h0a.566.566,0,0,0,.565.565" transform="translate(4.732 1.371)" fill="#fccf00" fill-rule="evenodd"/>
      <path id="Path_104234" data-name="Path 104234" d="M-746.066,3138.737h5.3a.567.567,0,0,0,.565-.565h0a.567.567,0,0,0-.565-.565h-5.3a.567.567,0,0,0-.565.565h0a.567.567,0,0,0,.565.565" transform="translate(5.134 1.371)" fill="#fff" fill-rule="evenodd"/>
      <path id="Path_104235" data-name="Path 104235" d="M-785.48,3158.5h6.783a.567.567,0,0,0,.565-.565h0a.566.566,0,0,0-.565-.565h-6.783a.566.566,0,0,0-.565.565h0a.567.567,0,0,0,.565.565" transform="translate(3.069 2.406)" fill="#fff" fill-rule="evenodd"/>
      <path id="Path_104236" data-name="Path 104236" d="M-785.638,3156.163h10.175a.567.567,0,0,0,.565-.565h0a.566.566,0,0,0-.565-.565h-10.175a.566.566,0,0,0-.565.565h0a.567.567,0,0,0,.565.565" transform="translate(3.061 2.284)" fill="#fff" fill-rule="evenodd"/>
      <path id="Path_104237" data-name="Path 104237" d="M-785.606,3153.825h8.345a.567.567,0,0,0,.565-.565h0a.567.567,0,0,0-.565-.565h-8.345a.566.566,0,0,0-.565.565h0a.567.567,0,0,0,.565.565" transform="translate(3.062 2.162)" fill="#fff" fill-rule="evenodd"/>
      <path id="Path_104238" data-name="Path 104238" d="M-785.606,3151.487h10.948a.567.567,0,0,0,.565-.565h0a.566.566,0,0,0-.565-.565h-10.948a.566.566,0,0,0-.565.565h0a.567.567,0,0,0,.565.565" transform="translate(3.062 2.039)" fill="#fccf00" fill-rule="evenodd"/>
      <path id="Path_104239" data-name="Path 104239" d="M-772.969,3156.163h6.65a.567.567,0,0,0,.565-.565h0a.566.566,0,0,0-.565-.565h-6.65a.566.566,0,0,0-.565.565h0a.567.567,0,0,0,.565.565" transform="translate(3.725 2.284)" fill="#fff" fill-rule="evenodd"/>
      <path id="Path_104240" data-name="Path 104240" d="M-775.354,3153.825h19.767a.567.567,0,0,0,.565-.565h0a.567.567,0,0,0-.565-.565h-19.767a.567.567,0,0,0-.565.565h0a.567.567,0,0,0,.565.565" transform="translate(3.6 2.162)" fill="#ef8200" fill-rule="evenodd"/>
      <path id="Path_104241" data-name="Path 104241" d="M-753.743,3153.825h5.3a.567.567,0,0,0,.565-.565h0a.567.567,0,0,0-.565-.565h-5.3a.566.566,0,0,0-.565.565h0a.567.567,0,0,0,.565.565" transform="translate(4.732 2.162)" fill="#fff" fill-rule="evenodd"/>
      <path id="Path_104242" data-name="Path 104242" d="M-746.066,3153.825h5.3a.567.567,0,0,0,.565-.565h0a.567.567,0,0,0-.565-.565h-5.3a.567.567,0,0,0-.565.565h0a.567.567,0,0,0,.565.565" transform="translate(5.134 2.162)" fill="#fff" fill-rule="evenodd"/>
      <path id="Path_104243" data-name="Path 104243" d="M-777.945,3133.98h19.767a.566.566,0,0,0,.565-.565h0a.567.567,0,0,0-.565-.565h-19.767a.567.567,0,0,0-.565.565h0a.567.567,0,0,0,.565.565" transform="translate(3.464 1.122)" fill="#fff" fill-rule="evenodd"/>
      <path id="Path_104244" data-name="Path 104244" d="M-756.334,3133.98h5.3a.566.566,0,0,0,.565-.565h0a.567.567,0,0,0-.565-.565h-5.3a.567.567,0,0,0-.565.565h0a.567.567,0,0,0,.565.565" transform="translate(4.596 1.122)" fill="#fff" fill-rule="evenodd"/>
      <path id="Path_104245" data-name="Path 104245" d="M-748.657,3133.98h5.3a.567.567,0,0,0,.565-.565h0a.567.567,0,0,0-.565-.565h-5.3a.567.567,0,0,0-.565.565h0a.567.567,0,0,0,.565.565" transform="translate(4.998 1.122)" fill="#fff" fill-rule="evenodd"/>
      <path id="Path_104246" data-name="Path 104246" d="M-777.945,3131.769h8.645a.567.567,0,0,0,.565-.565h0a.567.567,0,0,0-.565-.565h-8.645a.567.567,0,0,0-.565.565h0a.567.567,0,0,0,.565.565" transform="translate(3.464 1.006)" fill="#c84e96" fill-rule="evenodd"/>
      <path id="Path_104247" data-name="Path 104247" d="M-766.855,3131.769h13.565a.567.567,0,0,0,.565-.565h0a.566.566,0,0,0-.565-.565h-13.565a.567.567,0,0,0-.565.565h0a.567.567,0,0,0,.565.565" transform="translate(4.045 1.006)" fill="#eb6502" fill-rule="evenodd"/>
      <path id="Path_104248" data-name="Path 104248" d="M-750.671,3131.769h11.43a.567.567,0,0,0,.565-.565h0a.567.567,0,0,0-.565-.565h-11.43a.567.567,0,0,0-.565.565h0a.567.567,0,0,0,.565.565" transform="translate(4.893 1.006)" fill="#fff" fill-rule="evenodd"/>
      <path id="Path_104249" data-name="Path 104249" d="M-777.945,3149.154h19.767a.566.566,0,0,0,.565-.565h0a.567.567,0,0,0-.565-.565h-19.767a.567.567,0,0,0-.565.565h0a.567.567,0,0,0,.565.565" transform="translate(3.464 1.917)" fill="#fff" fill-rule="evenodd"/>
      <path id="Path_104250" data-name="Path 104250" d="M-756.334,3149.154h5.3a.566.566,0,0,0,.565-.565h0a.567.567,0,0,0-.565-.565h-5.3a.567.567,0,0,0-.565.565h0a.567.567,0,0,0,.565.565" transform="translate(4.596 1.917)" fill="#fff" fill-rule="evenodd"/>
      <path id="Path_104251" data-name="Path 104251" d="M-748.657,3149.154h5.3a.567.567,0,0,0,.565-.565h0a.567.567,0,0,0-.565-.565h-5.3a.567.567,0,0,0-.565.565h0a.567.567,0,0,0,.565.565" transform="translate(4.998 1.917)" fill="#fff" fill-rule="evenodd"/>
      <path id="Path_104252" data-name="Path 104252" d="M-777.945,3146.674h8.645a.567.567,0,0,0,.565-.565h0a.567.567,0,0,0-.565-.565h-8.645a.567.567,0,0,0-.565.565h0a.567.567,0,0,0,.565.565" transform="translate(3.464 1.787)" fill="#fff" fill-rule="evenodd"/>
      <path id="Path_104253" data-name="Path 104253" d="M-766.855,3146.674h13.565a.567.567,0,0,0,.565-.565h0a.566.566,0,0,0-.565-.565h-13.565a.567.567,0,0,0-.565.565h0a.567.567,0,0,0,.565.565" transform="translate(4.045 1.787)" fill="#fff" fill-rule="evenodd"/>
      <path id="Path_104254" data-name="Path 104254" d="M-750.671,3146.674h11.43a.567.567,0,0,0,.565-.565h0a.567.567,0,0,0-.565-.565h-11.43a.567.567,0,0,0-.565.565h0a.567.567,0,0,0,.565.565" transform="translate(4.893 1.787)" fill="#fff" fill-rule="evenodd"/>
      <rect id="Rectangle_31920" data-name="Rectangle 31920" width="16.801" height="52.039" transform="translate(-817.38 3126.644)" fill="#031542"/>
      <path id="Path_104255" data-name="Path 104255" d="M-772.962,3151.487h5.894a.567.567,0,0,0,.565-.565h0a.567.567,0,0,0-.565-.565h-5.894a.567.567,0,0,0-.565.565h0a.567.567,0,0,0,.565.565" transform="translate(3.725 2.039)" fill="#ef8200" fill-rule="evenodd"/>
      <path id="Path_104256" data-name="Path 104256" d="M-765.4,3151.487h5.893a.567.567,0,0,0,.565-.565h0a.567.567,0,0,0-.565-.565H-765.4a.566.566,0,0,0-.565.565h0a.567.567,0,0,0,.565.565" transform="translate(4.121 2.039)" fill="#ef8200" fill-rule="evenodd"/>
      <path id="Path_104257" data-name="Path 104257" d="M-788.481,3144.011h8.733a.567.567,0,0,0,.565-.565h0a.566.566,0,0,0-.565-.565h-8.733a.567.567,0,0,0-.566.565h0a.568.568,0,0,0,.566.565" transform="translate(2.912 1.647)" fill="#fff" fill-rule="evenodd"/>
      <path id="Path_104258" data-name="Path 104258" d="M-777.942,3144.011h5.893a.567.567,0,0,0,.565-.565h0a.566.566,0,0,0-.565-.565h-5.893a.567.567,0,0,0-.565.565h0a.567.567,0,0,0,.565.565" transform="translate(3.464 1.647)" fill="#fff" fill-rule="evenodd"/>
      <path id="Path_104259" data-name="Path 104259" d="M-769.818,3144.011h5.893a.567.567,0,0,0,.565-.565h0a.567.567,0,0,0-.565-.565h-5.893a.566.566,0,0,0-.565.565h0a.567.567,0,0,0,.565.565" transform="translate(3.89 1.647)" fill="#fff" fill-rule="evenodd"/>
      <path id="Path_104260" data-name="Path 104260" d="M-814.018,3160.8h3.742a.548.548,0,0,0,.546-.546.548.548,0,0,0-.546-.545h-3.742a.547.547,0,0,0-.546.545.547.547,0,0,0,.546.546" transform="translate(1.575 2.529)" fill="#f0f8fd" fill-rule="evenodd"/>
      <path id="Path_104261" data-name="Path 104261" d="M-816.166,3158.231h9.9a.547.547,0,0,0,.545-.545.547.547,0,0,0-.545-.546h-9.9a.547.547,0,0,0-.546.546.547.547,0,0,0,.546.545" transform="translate(1.462 2.394)" fill="#f0f8fd" fill-rule="evenodd"/>
      <path id="Path_104262" data-name="Path 104262" d="M-816.166,3155.513h7.541a.548.548,0,0,0,.546-.546.547.547,0,0,0-.546-.545h-7.541a.547.547,0,0,0-.546.545.547.547,0,0,0,.546.546" transform="translate(1.462 2.252)" fill="#f0f8fd" fill-rule="evenodd"/>
      <path id="Path_104263" data-name="Path 104263" d="M-814.018,3152.8h7.527a.548.548,0,0,0,.546-.546.547.547,0,0,0-.546-.545h-7.527a.547.547,0,0,0-.546.545.548.548,0,0,0,.546.546" transform="translate(1.575 2.11)" fill="#f0f8fd" fill-rule="evenodd"/>
      <path id="Path_104264" data-name="Path 104264" d="M-814.018,3150.078h2.4a.547.547,0,0,0,.545-.546.547.547,0,0,0-.545-.546h-2.4a.548.548,0,0,0-.546.546.548.548,0,0,0,.546.546" transform="translate(1.575 1.967)" fill="#f0f8fd" fill-rule="evenodd"/>
      <path id="Path_104265" data-name="Path 104265" d="M-816.166,3147.358h7.157a.547.547,0,0,0,.545-.545.547.547,0,0,0-.545-.546h-7.157a.548.548,0,0,0-.546.546.547.547,0,0,0,.546.545" transform="translate(1.462 1.825)" fill="#f0f8fd" fill-rule="evenodd"/>
      <path id="Path_104266" data-name="Path 104266" d="M-814.059,3144.64h1.96a.547.547,0,0,0,.546-.545.548.548,0,0,0-.546-.546h-1.96a.547.547,0,0,0-.545.546.547.547,0,0,0,.545.545" transform="translate(1.573 1.682)" fill="#f0f8fd" fill-rule="evenodd"/>
      <path id="Path_104267" data-name="Path 104267" d="M-814.307,3141.922h7.94a.547.547,0,0,0,.545-.546.547.547,0,0,0-.545-.545h-7.94a.547.547,0,0,0-.545.545.547.547,0,0,0,.545.546" transform="translate(1.56 1.54)" fill="#f0f8fd" fill-rule="evenodd"/>
      <path id="Path_104268" data-name="Path 104268" d="M-816.166,3139.2h6.315a.548.548,0,0,0,.546-.546.547.547,0,0,0-.546-.545h-6.315a.547.547,0,0,0-.546.545.548.548,0,0,0,.546.546" transform="translate(1.462 1.397)" fill="#f0f8fd" fill-rule="evenodd"/>
      <path id="Path_104269" data-name="Path 104269" d="M-814.307,3136.485h7.94a.547.547,0,0,0,.545-.545.547.547,0,0,0-.545-.546h-7.94a.547.547,0,0,0-.545.546.546.546,0,0,0,.545.545" transform="translate(1.56 1.255)" fill="#f0f8fd" fill-rule="evenodd"/>
      <path id="Path_104270" data-name="Path 104270" d="M-814.307,3133.767h4.84a.547.547,0,0,0,.546-.545.548.548,0,0,0-.546-.546h-4.84a.547.547,0,0,0-.545.546.546.546,0,0,0,.545.545" transform="translate(1.56 1.113)" fill="#f0f8fd" fill-rule="evenodd"/>
      <path id="Path_104271" data-name="Path 104271" d="M-816.166,3131.05h3.48a.547.547,0,0,0,.545-.546.547.547,0,0,0-.545-.545h-3.48a.547.547,0,0,0-.546.545.547.547,0,0,0,.546.546" transform="translate(1.462 0.97)" fill="#f0f8fd" fill-rule="evenodd"/>
      <path id="Path_104272" data-name="Path 104272" d="M-814.018,3163.2h3.742a.548.548,0,0,0,.546-.546.547.547,0,0,0-.546-.545h-3.742a.547.547,0,0,0-.546.545.548.548,0,0,0,.546.546" transform="translate(1.575 2.655)" fill="#f0f8fd" fill-rule="evenodd"/>
      <path id="Path_104273" data-name="Path 104273" d="M-816.166,3165.6h9.563a.548.548,0,0,0,.545-.546.548.548,0,0,0-.545-.546h-9.563a.548.548,0,0,0-.546.546.548.548,0,0,0,.546.546" transform="translate(1.462 2.78)" fill="#f0f8fd" fill-rule="evenodd"/>
      <path id="Path_104274" data-name="Path 104274" d="M-814.018,3168h3.742a.548.548,0,0,0,.546-.545.548.548,0,0,0-.546-.546h-3.742a.548.548,0,0,0-.546.546.547.547,0,0,0,.546.545" transform="translate(1.575 2.906)" fill="#f0f8fd" fill-rule="evenodd"/>
      <path id="Path_104275" data-name="Path 104275" d="M-785.606,3133.98h5.552a.567.567,0,0,0,.565-.565h0a.567.567,0,0,0-.565-.565h-5.552a.567.567,0,0,0-.565.565h0a.566.566,0,0,0,.565.565" transform="translate(3.062 1.122)" fill="#fff" fill-rule="evenodd"/>
      <path id="Path_104276" data-name="Path 104276" d="M-790.968,3131.769h11.027a.567.567,0,0,0,.565-.565h0a.567.567,0,0,0-.565-.565h-11.027a.567.567,0,0,0-.565.565h0a.567.567,0,0,0,.565.565" transform="translate(2.782 1.006)" fill="#fff" fill-rule="evenodd"/>
      <path id="Path_104277" data-name="Path 104277" d="M-790.968,3129.032h14.522a.567.567,0,0,0,.565-.565h0a.567.567,0,0,0-.565-.565h-14.522a.567.567,0,0,0-.565.565h0a.567.567,0,0,0,.565.565" transform="translate(2.782 0.862)" fill="#fff" fill-rule="evenodd"/>
      <path id="Path_104278" data-name="Path 104278" d="M-796.668,3129.032h.531a.567.567,0,0,0,.565-.565h0a.567.567,0,0,0-.565-.565h-.531a.567.567,0,0,0-.565.565h0a.567.567,0,0,0,.565.565" transform="translate(2.483 0.862)" fill="#b1cbef" fill-rule="evenodd"/>
      <path id="Path_104279" data-name="Path 104279" d="M-796.668,3131.769h.531a.567.567,0,0,0,.565-.565h0a.567.567,0,0,0-.565-.565h-.531a.567.567,0,0,0-.565.565h0a.567.567,0,0,0,.565.565" transform="translate(2.483 1.006)" fill="#b1cbef" fill-rule="evenodd"/>
      <path id="Path_104280" data-name="Path 104280" d="M-796.764,3141.075h.461a.567.567,0,0,0,.565-.565h0a.567.567,0,0,0-.565-.565h-.461a.567.567,0,0,0-.565.565h0a.567.567,0,0,0,.565.565" transform="translate(2.478 1.494)" fill="#b1cbef" fill-rule="evenodd"/>
      <path id="Path_104281" data-name="Path 104281" d="M-796.732,3138.737h.427a.567.567,0,0,0,.565-.565h0a.567.567,0,0,0-.565-.565h-.427a.567.567,0,0,0-.565.565h0a.566.566,0,0,0,.565.565" transform="translate(2.48 1.371)" fill="#b1cbef" fill-rule="evenodd"/>
      <path id="Path_104282" data-name="Path 104282" d="M-796.732,3136.4h.427a.567.567,0,0,0,.565-.565h0a.567.567,0,0,0-.565-.565h-.427a.566.566,0,0,0-.565.565h0a.566.566,0,0,0,.565.565" transform="translate(2.48 1.248)" fill="#b1cbef" fill-rule="evenodd"/>
      <path id="Path_104283" data-name="Path 104283" d="M-796.732,3133.98h.427a.567.567,0,0,0,.565-.565h0a.567.567,0,0,0-.565-.565h-.427a.566.566,0,0,0-.565.565h0a.566.566,0,0,0,.565.565" transform="translate(2.48 1.122)" fill="#b1cbef" fill-rule="evenodd"/>
      <path id="Path_104284" data-name="Path 104284" d="M-796.7,3149.154h.4a.567.567,0,0,0,.565-.565h0a.567.567,0,0,0-.565-.565h-.4a.567.567,0,0,0-.565.565h0a.567.567,0,0,0,.565.565" transform="translate(2.481 1.917)" fill="#b1cbef" fill-rule="evenodd"/>
      <path id="Path_104285" data-name="Path 104285" d="M-796.7,3146.674h.4a.567.567,0,0,0,.565-.565h0a.567.567,0,0,0-.565-.565h-.4a.567.567,0,0,0-.565.565h0a.567.567,0,0,0,.565.565" transform="translate(2.481 1.787)" fill="#b1cbef" fill-rule="evenodd"/>
      <path id="Path_104286" data-name="Path 104286" d="M-796.7,3144.011h.393a.567.567,0,0,0,.565-.565h0a.567.567,0,0,0-.565-.565h-.393a.567.567,0,0,0-.565.565h0a.567.567,0,0,0,.565.565" transform="translate(2.481 1.647)" fill="#b1cbef" fill-rule="evenodd"/>
      <path id="Path_104287" data-name="Path 104287" d="M-796.539,3158.5h.224a.567.567,0,0,0,.565-.565h0a.566.566,0,0,0-.565-.565h-.224a.566.566,0,0,0-.565.565h0a.567.567,0,0,0,.565.565" transform="translate(2.49 2.406)" fill="#b1cbef" fill-rule="evenodd"/>
      <path id="Path_104288" data-name="Path 104288" d="M-796.7,3156.163h.4a.567.567,0,0,0,.565-.565h0a.566.566,0,0,0-.565-.565h-.4a.566.566,0,0,0-.565.565h0a.567.567,0,0,0,.565.565" transform="translate(2.481 2.284)" fill="#b1cbef" fill-rule="evenodd"/>
      <path id="Path_104289" data-name="Path 104289" d="M-796.669,3153.825h.361a.567.567,0,0,0,.565-.565h0a.567.567,0,0,0-.565-.565h-.361a.566.566,0,0,0-.565.565h0a.567.567,0,0,0,.565.565" transform="translate(2.483 2.162)" fill="#b1cbef" fill-rule="evenodd"/>
      <path id="Path_104290" data-name="Path 104290" d="M-796.669,3151.487h.361a.567.567,0,0,0,.565-.565h0a.567.567,0,0,0-.565-.565h-.361a.566.566,0,0,0-.565.565h0a.567.567,0,0,0,.565.565" transform="translate(2.483 2.039)" fill="#b1cbef" fill-rule="evenodd"/>
      <path id="Path_104291" data-name="Path 104291" d="M-796.483,3170.993h.165a.567.567,0,0,0,.565-.565h0a.567.567,0,0,0-.565-.565h-.165a.566.566,0,0,0-.565.565h0a.567.567,0,0,0,.565.565" transform="translate(2.493 3.061)" fill="#b1cbef" fill-rule="evenodd"/>
      <path id="Path_104292" data-name="Path 104292" d="M-796.483,3168.656h.165a.567.567,0,0,0,.565-.565h0a.567.567,0,0,0-.565-.565h-.165a.566.566,0,0,0-.565.565h0a.567.567,0,0,0,.565.565" transform="translate(2.493 2.938)" fill="#b1cbef" fill-rule="evenodd"/>
      <path id="Path_104293" data-name="Path 104293" d="M-796.5,3166.317h.186a.567.567,0,0,0,.565-.565h0a.566.566,0,0,0-.565-.565h-.186a.566.566,0,0,0-.565.565h0a.566.566,0,0,0,.565.565" transform="translate(2.492 2.816)" fill="#b1cbef" fill-rule="evenodd"/>
      <path id="Path_104294" data-name="Path 104294" d="M-796.539,3163.979h.224a.567.567,0,0,0,.565-.565h0a.567.567,0,0,0-.565-.565h-.224a.566.566,0,0,0-.565.565h0a.567.567,0,0,0,.565.565" transform="translate(2.49 2.693)" fill="#b1cbef" fill-rule="evenodd"/>
      <path id="Path_104295" data-name="Path 104295" d="M-796.539,3161.625h.224a.567.567,0,0,0,.565-.565h0a.567.567,0,0,0-.565-.565h-.224a.566.566,0,0,0-.565.565h0a.567.567,0,0,0,.565.565" transform="translate(2.49 2.57)" fill="#b1cbef" fill-rule="evenodd"/>
      <rect id="Rectangle_31921" data-name="Rectangle 31921" width="94.841" height="3.272" transform="translate(-821.532 3119.36)" fill="#96add9"/>
      <rect id="Rectangle_31922" data-name="Rectangle 31922" width="0.995" height="0.995" transform="translate(-733.403 3120.285)" fill="#fff"/>
      <rect id="Rectangle_31923" data-name="Rectangle 31923" width="0.995" height="0.995" transform="translate(-731.646 3120.285)" fill="#fff"/>
      <rect id="Rectangle_31924" data-name="Rectangle 31924" width="0.995" height="0.995" transform="translate(-729.888 3120.285)" fill="#fff"/>
      <path id="Path_104296" data-name="Path 104296" d="M-779.4,3164.318h130.643a.023.023,0,0,1,.023.023v79.982a.022.022,0,0,1-.023.022H-779.4a.022.022,0,0,1-.023-.022v-79.982a.023.023,0,0,1,.023-.023" transform="translate(3.416 2.77)" fill="#1f3e7a" fill-rule="evenodd"/>
      <path id="Path_104297" data-name="Path 104297" d="M-728.374,3234.964H-690.3a.781.781,0,0,0,.779-.779h0a.781.781,0,0,0-.779-.779h-38.074a.781.781,0,0,0-.779.779h0a.781.781,0,0,0,.779.779" transform="translate(6.05 6.39)" fill="#eb6502" fill-rule="evenodd"/>
      <path id="Path_104298" data-name="Path 104298" d="M-688.19,3234.964h9.347a.781.781,0,0,0,.779-.779h0a.781.781,0,0,0-.779-.779h-9.347a.781.781,0,0,0-.779.779h0a.781.781,0,0,0,.779.779" transform="translate(8.155 6.39)" fill="#fff" fill-rule="evenodd"/>
      <path id="Path_104299" data-name="Path 104299" d="M-732.292,3231.742h9.346a.781.781,0,0,0,.779-.779h0a.781.781,0,0,0-.779-.779h-9.346a.781.781,0,0,0-.779.779h0a.781.781,0,0,0,.779.779" transform="translate(5.844 6.221)" fill="#fff" fill-rule="evenodd"/>
      <path id="Path_104300" data-name="Path 104300" d="M-728.374,3228.52h14.02a.781.781,0,0,0,.779-.779h0a.781.781,0,0,0-.779-.779h-14.02a.781.781,0,0,0-.779.779h0a.781.781,0,0,0,.779.779" transform="translate(6.05 6.052)" fill="#fff" fill-rule="evenodd"/>
      <path id="Path_104301" data-name="Path 104301" d="M-728.33,3225.3h11.5a.781.781,0,0,0,.779-.779h0a.781.781,0,0,0-.779-.78h-11.5a.781.781,0,0,0-.779.78h0a.781.781,0,0,0,.779.779" transform="translate(6.052 5.884)" fill="#fff" fill-rule="evenodd"/>
      <path id="Path_104302" data-name="Path 104302" d="M-728.33,3222.077h34.912a.781.781,0,0,0,.779-.779h0a.781.781,0,0,0-.779-.779H-728.33a.781.781,0,0,0-.779.779h0a.781.781,0,0,0,.779.779" transform="translate(6.052 5.715)" fill="#fff" fill-rule="evenodd"/>
      <path id="Path_104303" data-name="Path 104303" d="M-710.916,3228.52h9.164a.781.781,0,0,0,.779-.779h0a.781.781,0,0,0-.779-.779h-9.164a.781.781,0,0,0-.779.779h0a.781.781,0,0,0,.779.779" transform="translate(6.964 6.052)" fill="#fff" fill-rule="evenodd"/>
      <path id="Path_104304" data-name="Path 104304" d="M-714.2,3225.3h27.239a.781.781,0,0,0,.779-.779h0a.781.781,0,0,0-.779-.78H-714.2a.781.781,0,0,0-.779.78h0a.781.781,0,0,0,.779.779" transform="translate(6.792 5.884)" fill="#eb6502" fill-rule="evenodd"/>
      <path id="Path_104305" data-name="Path 104305" d="M-684.424,3225.3h7.308a.781.781,0,0,0,.779-.779h0a.781.781,0,0,0-.779-.78h-7.308a.781.781,0,0,0-.779.78h0a.781.781,0,0,0,.779.779" transform="translate(8.352 5.884)" fill="#6cd6ff" fill-rule="evenodd"/>
      <path id="Path_104306" data-name="Path 104306" d="M-673.844,3225.3h7.308a.781.781,0,0,0,.779-.779h0a.781.781,0,0,0-.779-.78h-7.308a.781.781,0,0,0-.779.78h0a.781.781,0,0,0,.779.779" transform="translate(8.906 5.884)" fill="#fccf00" fill-rule="evenodd"/>
      <path id="Path_104307" data-name="Path 104307" d="M-732.292,3218.834h9.346a.781.781,0,0,0,.779-.78h0a.781.781,0,0,0-.779-.779h-9.346a.781.781,0,0,0-.779.779h0a.781.781,0,0,0,.779.78" transform="translate(5.844 5.545)" fill="#fff" fill-rule="evenodd"/>
      <path id="Path_104308" data-name="Path 104308" d="M-728.374,3190.517h14.02a.781.781,0,0,0,.779-.779h0a.782.782,0,0,0-.779-.78h-14.02a.782.782,0,0,0-.779.78h0a.781.781,0,0,0,.779.779" transform="translate(6.05 4.061)" fill="#fff" fill-rule="evenodd"/>
      <path id="Path_104309" data-name="Path 104309" d="M-728.33,3187.295h11.5a.781.781,0,0,0,.779-.779h0a.781.781,0,0,0-.779-.779h-11.5a.781.781,0,0,0-.779.779h0a.781.781,0,0,0,.779.779" transform="translate(6.052 3.893)" fill="#fff" fill-rule="evenodd"/>
      <path id="Path_104310" data-name="Path 104310" d="M-728.33,3184.073h34.912a.781.781,0,0,0,.779-.779h0a.781.781,0,0,0-.779-.779H-728.33a.781.781,0,0,0-.779.779h0a.781.781,0,0,0,.779.779" transform="translate(6.052 3.724)" fill="#6cd6ff" fill-rule="evenodd"/>
      <path id="Path_104311" data-name="Path 104311" d="M-710.916,3190.517h9.164a.781.781,0,0,0,.779-.779h0a.782.782,0,0,0-.779-.78h-9.164a.782.782,0,0,0-.779.78h0a.781.781,0,0,0,.779.779" transform="translate(6.964 4.061)" fill="#fff" fill-rule="evenodd"/>
      <path id="Path_104312" data-name="Path 104312" d="M-714.2,3187.295h27.239a.781.781,0,0,0,.779-.779h0a.781.781,0,0,0-.779-.779H-714.2a.781.781,0,0,0-.779.779h0a.781.781,0,0,0,.779.779" transform="translate(6.792 3.893)" fill="#c84e96" fill-rule="evenodd"/>
      <path id="Path_104313" data-name="Path 104313" d="M-684.424,3187.295h7.308a.781.781,0,0,0,.779-.779h0a.781.781,0,0,0-.779-.779h-7.308a.781.781,0,0,0-.779.779h0a.781.781,0,0,0,.779.779" transform="translate(8.352 3.893)" fill="#fccf00" fill-rule="evenodd"/>
      <path id="Path_104314" data-name="Path 104314" d="M-673.844,3187.295h7.308a.781.781,0,0,0,.779-.779h0a.781.781,0,0,0-.779-.779h-7.308a.781.781,0,0,0-.779.779h0a.781.781,0,0,0,.779.779" transform="translate(8.906 3.893)" fill="#fff" fill-rule="evenodd"/>
      <path id="Path_104315" data-name="Path 104315" d="M-728.157,3214.529h9.347a.781.781,0,0,0,.779-.779h0a.781.781,0,0,0-.779-.78h-9.347a.781.781,0,0,0-.779.78h0a.781.781,0,0,0,.779.779" transform="translate(6.061 5.319)" fill="#fff" fill-rule="evenodd"/>
      <path id="Path_104316" data-name="Path 104316" d="M-728.374,3211.307h14.02a.781.781,0,0,0,.779-.779h0a.781.781,0,0,0-.779-.779h-14.02a.781.781,0,0,0-.779.779h0a.781.781,0,0,0,.779.779" transform="translate(6.05 5.151)" fill="#fff" fill-rule="evenodd"/>
      <path id="Path_104317" data-name="Path 104317" d="M-728.33,3208.085h11.5a.781.781,0,0,0,.779-.779h0a.781.781,0,0,0-.779-.779h-11.5a.781.781,0,0,0-.779.779h0a.781.781,0,0,0,.779.779" transform="translate(6.052 4.982)" fill="#fff" fill-rule="evenodd"/>
      <path id="Path_104318" data-name="Path 104318" d="M-728.33,3204.864h15.087a.781.781,0,0,0,.779-.78h0a.781.781,0,0,0-.779-.779H-728.33a.781.781,0,0,0-.779.779h0a.781.781,0,0,0,.779.78" transform="translate(6.052 4.813)" fill="#fccf00" fill-rule="evenodd"/>
      <path id="Path_104319" data-name="Path 104319" d="M-710.916,3211.307h9.164a.781.781,0,0,0,.779-.779h0a.781.781,0,0,0-.779-.779h-9.164a.781.781,0,0,0-.779.779h0a.781.781,0,0,0,.779.779" transform="translate(6.964 5.151)" fill="#fff" fill-rule="evenodd"/>
      <path id="Path_104320" data-name="Path 104320" d="M-714.2,3208.085h27.239a.781.781,0,0,0,.779-.779h0a.781.781,0,0,0-.779-.779H-714.2a.781.781,0,0,0-.779.779h0a.781.781,0,0,0,.779.779" transform="translate(6.792 4.982)" fill="#ef8200" fill-rule="evenodd"/>
      <path id="Path_104321" data-name="Path 104321" d="M-684.424,3208.085h7.308a.781.781,0,0,0,.779-.779h0a.781.781,0,0,0-.779-.779h-7.308a.781.781,0,0,0-.779.779h0a.781.781,0,0,0,.779.779" transform="translate(8.352 4.982)" fill="#fff" fill-rule="evenodd"/>
      <path id="Path_104322" data-name="Path 104322" d="M-673.844,3208.085h7.308a.781.781,0,0,0,.779-.779h0a.781.781,0,0,0-.779-.779h-7.308a.781.781,0,0,0-.779.779h0a.781.781,0,0,0,.779.779" transform="translate(8.906 4.982)" fill="#fff" fill-rule="evenodd"/>
      <path id="Path_104323" data-name="Path 104323" d="M-717.773,3180.74h27.239a.781.781,0,0,0,.779-.779h0a.781.781,0,0,0-.779-.779h-27.239a.781.781,0,0,0-.779.779h0a.781.781,0,0,0,.779.779" transform="translate(6.605 3.549)" fill="#fff" fill-rule="evenodd"/>
      <path id="Path_104324" data-name="Path 104324" d="M-687.994,3180.74h7.308a.781.781,0,0,0,.779-.779h0a.781.781,0,0,0-.779-.779h-7.308a.781.781,0,0,0-.779.779h0a.781.781,0,0,0,.779.779" transform="translate(8.165 3.549)" fill="#fff" fill-rule="evenodd"/>
      <path id="Path_104325" data-name="Path 104325" d="M-677.414,3180.74h7.308a.781.781,0,0,0,.779-.779h0a.781.781,0,0,0-.779-.779h-7.308a.781.781,0,0,0-.779.779h0a.781.781,0,0,0,.779.779" transform="translate(8.719 3.549)" fill="#fff" fill-rule="evenodd"/>
      <path id="Path_104326" data-name="Path 104326" d="M-717.773,3177.692h11.912a.781.781,0,0,0,.779-.779h0a.781.781,0,0,0-.779-.779h-11.912a.781.781,0,0,0-.779.779h0a.781.781,0,0,0,.779.779" transform="translate(6.605 3.389)" fill="#c84e96" fill-rule="evenodd"/>
      <path id="Path_104327" data-name="Path 104327" d="M-702.491,3177.692H-683.8a.781.781,0,0,0,.779-.779h0a.781.781,0,0,0-.779-.779h-18.693a.781.781,0,0,0-.779.779h0a.781.781,0,0,0,.779.779" transform="translate(7.406 3.389)" fill="#eb6502" fill-rule="evenodd"/>
      <path id="Path_104328" data-name="Path 104328" d="M-680.19,3177.692h15.749a.781.781,0,0,0,.779-.779h0a.781.781,0,0,0-.779-.779H-680.19a.781.781,0,0,0-.779.779h0a.781.781,0,0,0,.779.779" transform="translate(8.574 3.389)" fill="#fff" fill-rule="evenodd"/>
      <path id="Path_104329" data-name="Path 104329" d="M-717.773,3201.649h27.239a.781.781,0,0,0,.779-.779h0a.781.781,0,0,0-.779-.779h-27.239a.781.781,0,0,0-.779.779h0a.781.781,0,0,0,.779.779" transform="translate(6.605 4.644)" fill="#fff" fill-rule="evenodd"/>
      <path id="Path_104330" data-name="Path 104330" d="M-687.994,3201.649h7.308a.781.781,0,0,0,.779-.779h0a.781.781,0,0,0-.779-.779h-7.308a.781.781,0,0,0-.779.779h0a.781.781,0,0,0,.779.779" transform="translate(8.165 4.644)" fill="#fff" fill-rule="evenodd"/>
      <path id="Path_104331" data-name="Path 104331" d="M-677.414,3201.649h7.308a.781.781,0,0,0,.779-.779h0a.781.781,0,0,0-.779-.779h-7.308a.781.781,0,0,0-.779.779h0a.781.781,0,0,0,.779.779" transform="translate(8.719 4.644)" fill="#fff" fill-rule="evenodd"/>
      <path id="Path_104332" data-name="Path 104332" d="M-717.773,3198.232h11.912a.782.782,0,0,0,.779-.78h0a.781.781,0,0,0-.779-.779h-11.912a.781.781,0,0,0-.779.779h0a.782.782,0,0,0,.779.78" transform="translate(6.605 4.466)" fill="#fff" fill-rule="evenodd"/>
      <path id="Path_104333" data-name="Path 104333" d="M-702.491,3198.232H-683.8a.782.782,0,0,0,.779-.78h0a.781.781,0,0,0-.779-.779h-18.693a.781.781,0,0,0-.779.779h0a.782.782,0,0,0,.779.78" transform="translate(7.406 4.466)" fill="#fff" fill-rule="evenodd"/>
      <path id="Path_104334" data-name="Path 104334" d="M-680.19,3198.232h15.749a.782.782,0,0,0,.779-.78h0a.781.781,0,0,0-.779-.779H-680.19a.781.781,0,0,0-.779.779h0a.782.782,0,0,0,.779.78" transform="translate(8.574 4.466)" fill="#fff" fill-rule="evenodd"/>
      <rect id="Rectangle_31925" data-name="Rectangle 31925" width="23.152" height="71.709" transform="translate(-770.282 3172.633)" fill="#031542"/>
      <path id="Path_104335" data-name="Path 104335" d="M-710.906,3204.864h8.121a.781.781,0,0,0,.779-.78h0a.781.781,0,0,0-.779-.779h-8.121a.781.781,0,0,0-.779.779h0a.781.781,0,0,0,.779.78" transform="translate(6.965 4.813)" fill="#ef8200" fill-rule="evenodd"/>
      <path id="Path_104336" data-name="Path 104336" d="M-700.491,3204.864h8.121a.781.781,0,0,0,.779-.78h0a.781.781,0,0,0-.779-.779h-8.121a.781.781,0,0,0-.779.779h0a.781.781,0,0,0,.779.78" transform="translate(7.51 4.813)" fill="#ef8200" fill-rule="evenodd"/>
      <path id="Path_104337" data-name="Path 104337" d="M-732.292,3194.562h12.034a.781.781,0,0,0,.779-.779h0a.781.781,0,0,0-.779-.779h-12.034a.781.781,0,0,0-.779.779h0a.781.781,0,0,0,.779.779" transform="translate(5.844 4.273)" fill="#fff" fill-rule="evenodd"/>
      <path id="Path_104338" data-name="Path 104338" d="M-717.769,3194.562h8.121a.781.781,0,0,0,.779-.779h0a.781.781,0,0,0-.779-.779h-8.121a.781.781,0,0,0-.779.779h0a.781.781,0,0,0,.779.779" transform="translate(6.605 4.273)" fill="#fff" fill-rule="evenodd"/>
      <path id="Path_104339" data-name="Path 104339" d="M-706.575,3194.562h8.121a.781.781,0,0,0,.779-.779h0a.781.781,0,0,0-.779-.779h-8.121a.781.781,0,0,0-.779.779h0a.781.781,0,0,0,.779.779" transform="translate(7.192 4.273)" fill="#fff" fill-rule="evenodd"/>
      <path id="Path_104340" data-name="Path 104340" d="M-767.482,3217.7h5.158a.754.754,0,0,0,.751-.751.753.753,0,0,0-.751-.753h-5.158a.754.754,0,0,0-.751.753.754.754,0,0,0,.751.751" transform="translate(4.002 5.488)" fill="#f0f8fd" fill-rule="evenodd"/>
      <path id="Path_104341" data-name="Path 104341" d="M-770.442,3214.157H-756.8a.754.754,0,0,0,.751-.753.753.753,0,0,0-.751-.751h-13.638a.753.753,0,0,0-.751.751.754.754,0,0,0,.751.753" transform="translate(3.847 5.303)" fill="#f0f8fd" fill-rule="evenodd"/>
      <path id="Path_104342" data-name="Path 104342" d="M-770.442,3210.411h10.392a.755.755,0,0,0,.753-.751.754.754,0,0,0-.753-.753h-10.392a.754.754,0,0,0-.751.753.754.754,0,0,0,.751.751" transform="translate(3.847 5.106)" fill="#f0f8fd" fill-rule="evenodd"/>
      <path id="Path_104343" data-name="Path 104343" d="M-767.482,3206.665h10.372a.754.754,0,0,0,.752-.751.755.755,0,0,0-.752-.752h-10.372a.754.754,0,0,0-.751.752.753.753,0,0,0,.751.751" transform="translate(4.002 4.91)" fill="#f0f8fd" fill-rule="evenodd"/>
      <path id="Path_104344" data-name="Path 104344" d="M-767.482,3202.92h3.3a.755.755,0,0,0,.753-.752.754.754,0,0,0-.753-.751h-3.3a.753.753,0,0,0-.751.751.754.754,0,0,0,.751.752" transform="translate(4.002 4.714)" fill="#f0f8fd" fill-rule="evenodd"/>
      <path id="Path_104345" data-name="Path 104345" d="M-770.442,3199.174h9.863a.753.753,0,0,0,.751-.751.754.754,0,0,0-.751-.753h-9.863a.754.754,0,0,0-.751.753.753.753,0,0,0,.751.751" transform="translate(3.847 4.518)" fill="#f0f8fd" fill-rule="evenodd"/>
      <path id="Path_104346" data-name="Path 104346" d="M-767.536,3195.428h2.7a.753.753,0,0,0,.751-.751.754.754,0,0,0-.751-.752h-2.7a.755.755,0,0,0-.753.752.754.754,0,0,0,.753.751" transform="translate(3.999 4.321)" fill="#f0f8fd" fill-rule="evenodd"/>
      <path id="Path_104347" data-name="Path 104347" d="M-767.88,3191.683h10.941a.755.755,0,0,0,.752-.752.754.754,0,0,0-.752-.751H-767.88a.753.753,0,0,0-.751.751.754.754,0,0,0,.751.752" transform="translate(3.981 4.125)" fill="#f0f8fd" fill-rule="evenodd"/>
      <path id="Path_104348" data-name="Path 104348" d="M-770.442,3187.937h8.7a.754.754,0,0,0,.752-.751.755.755,0,0,0-.752-.752h-8.7a.754.754,0,0,0-.751.752.753.753,0,0,0,.751.751" transform="translate(3.847 3.929)" fill="#f0f8fd" fill-rule="evenodd"/>
      <path id="Path_104349" data-name="Path 104349" d="M-767.88,3184.192h10.941a.755.755,0,0,0,.752-.752.754.754,0,0,0-.752-.751H-767.88a.753.753,0,0,0-.751.751.754.754,0,0,0,.751.752" transform="translate(3.981 3.733)" fill="#f0f8fd" fill-rule="evenodd"/>
      <path id="Path_104350" data-name="Path 104350" d="M-767.88,3180.446h6.67a.754.754,0,0,0,.751-.752.753.753,0,0,0-.751-.752h-6.67a.753.753,0,0,0-.751.752.754.754,0,0,0,.751.752" transform="translate(3.981 3.537)" fill="#f0f8fd" fill-rule="evenodd"/>
      <path id="Path_104351" data-name="Path 104351" d="M-770.442,3176.7h4.8a.754.754,0,0,0,.752-.751.755.755,0,0,0-.752-.752h-4.8a.754.754,0,0,0-.751.752.753.753,0,0,0,.751.751" transform="translate(3.847 3.34)" fill="#f0f8fd" fill-rule="evenodd"/>
      <path id="Path_104352" data-name="Path 104352" d="M-767.482,3221h5.158a.754.754,0,0,0,.751-.752.753.753,0,0,0-.751-.751h-5.158a.753.753,0,0,0-.751.751.754.754,0,0,0,.751.752" transform="translate(4.002 5.661)" fill="#f0f8fd" fill-rule="evenodd"/>
      <path id="Path_104353" data-name="Path 104353" d="M-770.442,3224.314h13.178a.754.754,0,0,0,.752-.752.755.755,0,0,0-.752-.752h-13.178a.754.754,0,0,0-.751.752.753.753,0,0,0,.751.752" transform="translate(3.847 5.835)" fill="#f0f8fd" fill-rule="evenodd"/>
      <path id="Path_104354" data-name="Path 104354" d="M-767.482,3227.624h5.158a.754.754,0,0,0,.751-.753.753.753,0,0,0-.751-.751h-5.158a.753.753,0,0,0-.751.751.754.754,0,0,0,.751.753" transform="translate(4.002 6.008)" fill="#f0f8fd" fill-rule="evenodd"/>
      <path id="Path_104355" data-name="Path 104355" d="M-728.33,3180.74h7.651a.781.781,0,0,0,.779-.779h0a.781.781,0,0,0-.779-.779h-7.651a.781.781,0,0,0-.779.779h0a.781.781,0,0,0,.779.779" transform="translate(6.052 3.549)" fill="#fff" fill-rule="evenodd"/>
      <path id="Path_104356" data-name="Path 104356" d="M-735.718,3177.692h15.194a.781.781,0,0,0,.779-.779h0a.781.781,0,0,0-.779-.779h-15.194a.781.781,0,0,0-.779.779h0a.781.781,0,0,0,.779.779" transform="translate(5.665 3.389)" fill="#fff" fill-rule="evenodd"/>
      <path id="Path_104357" data-name="Path 104357" d="M-735.718,3173.921h20.01a.781.781,0,0,0,.779-.779h0a.781.781,0,0,0-.779-.779h-20.01a.781.781,0,0,0-.779.779h0a.781.781,0,0,0,.779.779" transform="translate(5.665 3.192)" fill="#fff" fill-rule="evenodd"/>
      <path id="Path_104358" data-name="Path 104358" d="M-743.573,3173.921h.732a.781.781,0,0,0,.779-.779h0a.781.781,0,0,0-.779-.779h-.732a.781.781,0,0,0-.779.779h0a.781.781,0,0,0,.779.779" transform="translate(5.253 3.192)" fill="#b1cbef" fill-rule="evenodd"/>
      <path id="Path_104359" data-name="Path 104359" d="M-743.573,3177.692h.732a.781.781,0,0,0,.779-.779h0a.781.781,0,0,0-.779-.779h-.732a.781.781,0,0,0-.779.779h0a.781.781,0,0,0,.779.779" transform="translate(5.253 3.389)" fill="#b1cbef" fill-rule="evenodd"/>
      <path id="Path_104360" data-name="Path 104360" d="M-743.705,3190.517h.635a.781.781,0,0,0,.779-.779h0a.782.782,0,0,0-.779-.78h-.635a.782.782,0,0,0-.779.78h0a.781.781,0,0,0,.779.779" transform="translate(5.246 4.061)" fill="#b1cbef" fill-rule="evenodd"/>
      <path id="Path_104361" data-name="Path 104361" d="M-743.662,3187.295h.589a.781.781,0,0,0,.779-.779h0a.781.781,0,0,0-.779-.779h-.589a.781.781,0,0,0-.779.779h0a.781.781,0,0,0,.779.779" transform="translate(5.249 3.893)" fill="#b1cbef" fill-rule="evenodd"/>
      <path id="Path_104362" data-name="Path 104362" d="M-743.662,3184.073h.589a.781.781,0,0,0,.779-.779h0a.781.781,0,0,0-.779-.779h-.589a.781.781,0,0,0-.779.779h0a.781.781,0,0,0,.779.779" transform="translate(5.249 3.724)" fill="#b1cbef" fill-rule="evenodd"/>
      <path id="Path_104363" data-name="Path 104363" d="M-743.662,3180.74h.589a.781.781,0,0,0,.779-.779h0a.781.781,0,0,0-.779-.779h-.589a.781.781,0,0,0-.779.779h0a.781.781,0,0,0,.779.779" transform="translate(5.249 3.549)" fill="#b1cbef" fill-rule="evenodd"/>
      <path id="Path_104364" data-name="Path 104364" d="M-743.62,3201.649h.545a.781.781,0,0,0,.779-.779h0a.781.781,0,0,0-.779-.779h-.545a.781.781,0,0,0-.779.779h0a.781.781,0,0,0,.779.779" transform="translate(5.251 4.644)" fill="#b1cbef" fill-rule="evenodd"/>
      <path id="Path_104365" data-name="Path 104365" d="M-743.62,3198.232h.545a.782.782,0,0,0,.779-.78h0a.781.781,0,0,0-.779-.779h-.545a.781.781,0,0,0-.779.779h0a.782.782,0,0,0,.779.78" transform="translate(5.251 4.466)" fill="#b1cbef" fill-rule="evenodd"/>
      <path id="Path_104366" data-name="Path 104366" d="M-743.616,3194.562h.541a.781.781,0,0,0,.779-.779h0a.781.781,0,0,0-.779-.779h-.541a.781.781,0,0,0-.779.779h0a.781.781,0,0,0,.779.779" transform="translate(5.251 4.273)" fill="#b1cbef" fill-rule="evenodd"/>
      <path id="Path_104367" data-name="Path 104367" d="M-743.4,3214.529h.309a.781.781,0,0,0,.779-.779h0a.781.781,0,0,0-.779-.78h-.309a.781.781,0,0,0-.779.78h0a.781.781,0,0,0,.779.779" transform="translate(5.263 5.319)" fill="#b1cbef" fill-rule="evenodd"/>
      <path id="Path_104368" data-name="Path 104368" d="M-743.62,3211.307h.545a.781.781,0,0,0,.779-.779h0a.781.781,0,0,0-.779-.779h-.545a.781.781,0,0,0-.779.779h0a.781.781,0,0,0,.779.779" transform="translate(5.251 5.151)" fill="#b1cbef" fill-rule="evenodd"/>
      <path id="Path_104369" data-name="Path 104369" d="M-743.575,3208.085h.5a.781.781,0,0,0,.779-.779h0a.781.781,0,0,0-.779-.779h-.5a.781.781,0,0,0-.779.779h0a.781.781,0,0,0,.779.779" transform="translate(5.253 4.982)" fill="#b1cbef" fill-rule="evenodd"/>
      <path id="Path_104370" data-name="Path 104370" d="M-743.575,3204.864h.5a.781.781,0,0,0,.779-.78h0a.781.781,0,0,0-.779-.779h-.5a.781.781,0,0,0-.779.779h0a.781.781,0,0,0,.779.78" transform="translate(5.253 4.813)" fill="#b1cbef" fill-rule="evenodd"/>
      <path id="Path_104371" data-name="Path 104371" d="M-743.318,3231.742h.227a.781.781,0,0,0,.779-.779h0a.781.781,0,0,0-.779-.779h-.227a.781.781,0,0,0-.779.779h0a.781.781,0,0,0,.779.779" transform="translate(5.267 6.221)" fill="#b1cbef" fill-rule="evenodd"/>
      <path id="Path_104372" data-name="Path 104372" d="M-743.318,3228.52h.227a.781.781,0,0,0,.779-.779h0a.781.781,0,0,0-.779-.779h-.227a.781.781,0,0,0-.779.779h0a.781.781,0,0,0,.779.779" transform="translate(5.267 6.052)" fill="#b1cbef" fill-rule="evenodd"/>
      <path id="Path_104373" data-name="Path 104373" d="M-743.346,3225.3h.257a.781.781,0,0,0,.779-.779h0a.781.781,0,0,0-.779-.78h-.257a.781.781,0,0,0-.779.78h0a.781.781,0,0,0,.779.779" transform="translate(5.265 5.884)" fill="#b1cbef" fill-rule="evenodd"/>
      <path id="Path_104374" data-name="Path 104374" d="M-743.4,3222.077h.309a.781.781,0,0,0,.779-.779h0a.781.781,0,0,0-.779-.779h-.309a.781.781,0,0,0-.779.779h0a.781.781,0,0,0,.779.779" transform="translate(5.263 5.715)" fill="#b1cbef" fill-rule="evenodd"/>
      <path id="Path_104375" data-name="Path 104375" d="M-743.4,3218.834h.309a.781.781,0,0,0,.779-.78h0a.781.781,0,0,0-.779-.779h-.309a.781.781,0,0,0-.779.779h0a.781.781,0,0,0,.779.78" transform="translate(5.263 5.545)" fill="#b1cbef" fill-rule="evenodd"/>
      <rect id="Rectangle_31926" data-name="Rectangle 31926" width="130.689" height="4.509" transform="translate(-776.003 3162.596)" fill="#96add9"/>
      <rect id="Rectangle_31927" data-name="Rectangle 31927" width="1.371" height="1.371" transform="translate(-654.564 3163.871)" fill="#fff"/>
      <rect id="Rectangle_31928" data-name="Rectangle 31928" width="1.371" height="1.371" transform="translate(-652.142 3163.871)" fill="#fff"/>
      <rect id="Rectangle_31929" data-name="Rectangle 31929" width="1.371" height="1.371" transform="translate(-649.721 3163.871)" fill="#fff"/>
      <path id="Path_104376" data-name="Path 104376" d="M-787.646,3212.965l-.842-.557a.939.939,0,0,1-.378-1.073,9.747,9.747,0,0,0,.458-2.365.94.94,0,0,1,.753-.854l.989-.2a.947.947,0,0,0,.741-1.117l-.386-1.894a.949.949,0,0,0-1.119-.739l-.989.2a.94.94,0,0,1-1.027-.491,9.647,9.647,0,0,0-1.347-2,.938.938,0,0,1-.069-1.135l.556-.842a.948.948,0,0,0-.267-1.313l-1.612-1.066a.947.947,0,0,0-1.313.267l-.557.841a.939.939,0,0,1-1.072.38,9.742,9.742,0,0,0-2.364-.459.941.941,0,0,1-.856-.753l-.2-.988a.945.945,0,0,0-1.118-.739l-1.894.385a.947.947,0,0,0-.739,1.118l.2.989a.938.938,0,0,1-.493,1.026,9.88,9.88,0,0,0-2,1.347.939.939,0,0,1-1.135.073l-.841-.558a.948.948,0,0,0-1.313.267l-1.066,1.613a.948.948,0,0,0,.267,1.314l.841.556a.941.941,0,0,1,.379,1.074,9.711,9.711,0,0,0-.459,2.362.94.94,0,0,1-.751.856l-.99.2a.948.948,0,0,0-.739,1.119l.384,1.893a.95.95,0,0,0,1.12.74l.988-.2a.938.938,0,0,1,1.027.494,9.676,9.676,0,0,0,1.347,1.994.941.941,0,0,1,.072,1.136l-.557.842a.947.947,0,0,0,.267,1.313l1.612,1.067a.95.95,0,0,0,1.313-.268l.557-.842a.941.941,0,0,1,1.073-.379,9.7,9.7,0,0,0,2.363.459.94.94,0,0,1,.855.752l.2.989a.949.949,0,0,0,1.119.74l1.894-.386a.947.947,0,0,0,.74-1.119l-.2-.989a.941.941,0,0,1,.492-1.027,9.536,9.536,0,0,0,2-1.346.936.936,0,0,1,1.134-.071l.843.557a.947.947,0,0,0,1.313-.268l1.066-1.612a.946.946,0,0,0-.267-1.312m-6.691-1.067a5.243,5.243,0,0,1-5.938,1.21,5.253,5.253,0,0,1-1.711-8.4,5.241,5.241,0,0,1,5.937-1.209A5.251,5.251,0,0,1-794.338,3211.9Z" transform="translate(1.792 4.433)" fill="#fff" fill-rule="evenodd"/>
      <rect id="Rectangle_31930" data-name="Rectangle 31930" width="332.933" height="0.791" transform="translate(-818.441 3340.644)" fill="#000446"/>
      <path id="Path_104377" data-name="Path 104377" d="M-489.385,3145.867H-535.9a5.563,5.563,0,0,0-5.546,5.546v15.238a5.563,5.563,0,0,0,5.546,5.546h6.778v10.051c0,2.168,1.579,2.811,3.219,1.629l15.892-11.443c.113-.081.223-.164.338-.238h20.288a5.562,5.562,0,0,0,5.545-5.546v-15.238a5.562,5.562,0,0,0-5.545-5.546" transform="translate(15.883 1.804)" fill="#d8e7ff"/>
      <path id="Path_104378" data-name="Path 104378" d="M-568.27,3219.778c-9.846,23.318-12.533,75.123-14,113.8h-45.539c1.107-37.127,4.207-83.443,12.164-108.784,1.835-5.844,3.3-5.787,5.664-7.7,12.586-2.245,23.024-3.592,40.725-.023Z" transform="translate(11.359 5.419)" fill="#fff" fill-rule="evenodd"/>
      <path id="Path_104379" data-name="Path 104379" d="M-642.511,3335.106c-.01-52.838,5.988-111.578,29.154-117.065q2.12-.593,4.147-1.054c-7.594,16.711.1,72.013,7.981,118.119Z" transform="translate(10.589 5.53)" fill="#203f7b" fill-rule="evenodd"/>
      <path id="Path_104380" data-name="Path 104380" d="M-609.048,3335.115c7.8-47.261,30.95-101.437,38.05-118.252,12.252,1.672,19.47,4.655,26.3,11.391,11.588,10.876,11.293,28.118,3.482,49.161l-7.478-8.719c-3.7,17.3-4.7,41.848-5.446,66.418h-54.909Z" transform="translate(12.342 5.523)" fill="#203f7b" fill-rule="evenodd"/>
      <path id="Path_104381" data-name="Path 104381" d="M-614.1,3199.33c2.869,5.711,5.959,9.882,10.441,12.03l.031,8.859c-2.821,5.6-2.654,10.869,5.062,12.215,21.176,1.045,18.583-13.693,18.4-14.381l-2.05-12.326c.7-.04,6.6-3.123,8.125-3.589s3.757-3.4,3.906-6.5-4.636-2.093-4.636-2.093c5.8-7.934,12.361-14.413,3.849-21.556s-28.062-11.311-28.062-11.311l-15.9-.55c1.5,4.06,3.627,14.078.6,22.536-2.708,7.588-3.618,9,.233,16.667" transform="translate(11.942 2.551)" fill="#f4b1b1" fill-rule="evenodd"/>
      <path id="Path_104382" data-name="Path 104382" d="M-598.114,3229.749c2.774,2.838,7.029,6.792,9.8,9.63,5.858-6.172,9.016-15.519,11.781-23.194-2.245-1.547-3.052-2.246-5.121-3.9-2.686,5.347-7.123,13.366-16.464,17.461" transform="translate(12.915 5.284)" fill="#c9dbf5" fill-rule="evenodd"/>
      <path id="Path_104383" data-name="Path 104383" d="M-597.581,3229.631c-2.739,2.8-7.316,5.127-10.055,7.924-1.313-5.283-.434-14.946.688-21.137a15.877,15.877,0,0,1,2.866-1.876c-.586,5.747,3.636,11.867,6.5,15.09" transform="translate(12.381 5.402)" fill="#c9dbf5" fill-rule="evenodd"/>
      <path id="Path_104384" data-name="Path 104384" d="M-587.632,3204.839c-2.8,5.719-8.184,14.045-16.649,13.037l-.031-8.86c3.766.606,7.453.308,16.679-4.177" transform="translate(12.59 4.893)" fill="#e06b6c" fill-rule="evenodd"/>
      <path id="Path_104385" data-name="Path 104385" d="M-565.249,3175.291c1.987-6.464-.128-13.268-6.5-18.246-13.212-10.321-24.556-4.616-29.457-3.415-3.387.832-5.674.742-9,1.439-8.329,1.74-9.037,19.063-3.033,24.753.6.565,1.521-7.369,2.19-6.862a14.679,14.679,0,0,0,2.338,1.675c9.783,5.012,18.319-.268,24.018,6.442,2.821,3.324,2.537,8.115-.623,15.513-.93,2.181-2.174,3.786,1.508,2.08,1.691-.783,7.2-2.542,8.154-1.774,2.116,1.709,1.048,5.3-.64,6.461-.754.517-2.18,1.288-2.18,1.288,15.551-2.949,19.187-24.744,13.232-29.355" transform="translate(11.915 2.071)" fill="#105dc4" fill-rule="evenodd"/>
      <path id="Path_104386" data-name="Path 104386" d="M-563.686,3249.1c3.643-8.09,2.358-36.468,22.978-15.512,6.863,9.761,23.793,59.082,20.417,82.09-1.542,10.51-10.574,12.6-20.042,14.749-6.487,1.471-14.768,3.055-22.425,4.245h-29.751c-6.994-5.43,4.231-11.6,4.231-11.6s37.877-14.552,42.4-16.875c2.141-1.262-20.467-51.205-17.812-57.1" transform="translate(13.088 6.003)" fill="#203f7b" fill-rule="evenodd"/>
      <path id="Path_104387" data-name="Path 104387" d="M-621.908,3250.906c-10.208,19.837,4.028,60.055-19.658,68.806-18.919,1.531-15.3,3.176-15.587-1.664-1.814-30.86,22.019-94.6,42.076-99.275,2.458-1.4.357,22.55-6.831,32.133" transform="translate(9.816 5.62)" fill="#203f7b" fill-rule="evenodd"/>
      <path id="Path_104388" data-name="Path 104388" d="M-673.175,3323.027H-590v3.262a3.27,3.27,0,0,1-3.261,3.261h-76.657a3.27,3.27,0,0,1-3.261-3.261Z" transform="translate(8.982 11.085)" fill="#3d7dda" fill-rule="evenodd"/>
      <path id="Path_104389" data-name="Path 104389" d="M-705.008,3276.287h65.5c2.584,0,4.213,2.185,4.7,4.751l8.48,45.023h-74.241l-8.481-45.683c-.41-2.212,1.82-4.092,4.044-4.092" transform="translate(7.1 8.636)" fill="#3d7dda" fill-rule="evenodd"/>
      <g id="Group_92351" data-name="Group 92351" transform="translate(-704.245 3284.924)">
        <g id="Group_92350" data-name="Group 92350" clip-path="url(#clip-path)">
          <rect id="Rectangle_31931" data-name="Rectangle 31931" width="83.962" height="55.713" transform="translate(-0.361 -0.001)" fill="url(#linear-gradient)"/>
        </g>
      </g>
      <path id="Path_104391" data-name="Path 104391" d="M-674.444,3300.056a3.2,3.2,0,0,1,3.623,2.65,3.2,3.2,0,0,1-2.032,4,3.194,3.194,0,0,1-3.622-2.65,3.194,3.194,0,0,1,2.031-4" transform="translate(8.804 9.878)" fill="#f4fafd" fill-rule="evenodd"/>
      <path id="Path_104392" data-name="Path 104392" d="M-583.654,3329.783c-9.816-.05-20.785.079-23.689-.045,2.875-8.562,12.541-10.683,20.61-10.217,1.937,1.324,3.763,7.931,3.079,10.262" transform="translate(12.431 10.898)" fill="#f6c0c5" fill-rule="evenodd"/>
      <g id="Group_92352" data-name="Group 92352" transform="translate(-520.143 3156.379)">
        <path id="Path_104393" data-name="Path 104393" d="M-532.14,3163.017l-4.156-3.5,4.156-3.5.962.975-3.058,2.51,3.058,2.541Z" transform="translate(536.296 -3154.044)" fill="#1f3e7a"/>
        <path id="Path_104394" data-name="Path 104394" d="M-523.84,3155.537a4.333,4.333,0,0,0-.644-.145,4.9,4.9,0,0,0-.762-.059,1.636,1.636,0,0,0-.493.072,1,1,0,0,0-.395.224,1.06,1.06,0,0,0-.262.391,1.539,1.539,0,0,0-.1.577v1.011h2.461v1.172h-2.461v4.193h-1.518v-4.193h-1.819v-1.172h1.819v-.949a3.037,3.037,0,0,1,.195-1.144,2.012,2.012,0,0,1,.548-.783,2.222,2.222,0,0,1,.855-.447,4.064,4.064,0,0,1,1.116-.142,5.53,5.53,0,0,1,.775.052q.366.052.681.126Z" transform="translate(536.635 -3154.142)" fill="#1f3e7a"/>
        <path id="Path_104395" data-name="Path 104395" d="M-520.863,3155.425h-1.77v-1.171h3.312v7.541h1.807v1.171h-5.335V3161.8h1.986Z" transform="translate(537 -3154.136)" fill="#1f3e7a"/>
        <path id="Path_104396" data-name="Path 104396" d="M-510.624,3159.669a4.161,4.161,0,0,1-.209,1.354,3.006,3.006,0,0,1-.6,1.052,2.678,2.678,0,0,1-.968.678,3.345,3.345,0,0,1-1.307.241,3.571,3.571,0,0,1-1.246-.2,2.416,2.416,0,0,1-.931-.607,2.676,2.676,0,0,1-.585-1.011,4.455,4.455,0,0,1-.2-1.415,4.128,4.128,0,0,1,.213-1.358,2.96,2.96,0,0,1,.61-1.042,2.728,2.728,0,0,1,.971-.669,3.37,3.37,0,0,1,1.3-.237,3.533,3.533,0,0,1,1.251.206,2.43,2.43,0,0,1,.931.614,2.7,2.7,0,0,1,.583,1.008A4.4,4.4,0,0,1-510.624,3159.669Zm-1.566.038a2.426,2.426,0,0,0-.367-1.465,1.265,1.265,0,0,0-1.082-.49,1.365,1.365,0,0,0-.673.155,1.284,1.284,0,0,0-.456.422,1.854,1.854,0,0,0-.262.626,3.343,3.343,0,0,0-.083.764,2.344,2.344,0,0,0,.395,1.478,1.3,1.3,0,0,0,1.079.5,1.343,1.343,0,0,0,.654-.15,1.231,1.231,0,0,0,.45-.42,2.035,2.035,0,0,0,.259-.631A3.377,3.377,0,0,0-512.19,3159.707Z" transform="translate(537.324 -3154.021)" fill="#1f3e7a"/>
        <path id="Path_104397" data-name="Path 104397" d="M-505.751,3162.852l-.037-.82a4.32,4.32,0,0,1-.414.385,2.618,2.618,0,0,1-.475.3,2.574,2.574,0,0,1-.564.2,2.968,2.968,0,0,1-.669.071,2.311,2.311,0,0,1-.845-.142,1.715,1.715,0,0,1-.61-.395,1.651,1.651,0,0,1-.372-.611,2.357,2.357,0,0,1-.126-.789,1.808,1.808,0,0,1,.187-.82,1.754,1.754,0,0,1,.574-.648,3.011,3.011,0,0,1,.962-.425,5.262,5.262,0,0,1,1.354-.154h.82v-.377a1.312,1.312,0,0,0-.068-.434.773.773,0,0,0-.219-.33,1.022,1.022,0,0,0-.391-.21,2.028,2.028,0,0,0-.591-.074,4.8,4.8,0,0,0-1.094.126,5.731,5.731,0,0,0-1.045.355v-1.2a5.994,5.994,0,0,1,1.039-.3,6.279,6.279,0,0,1,1.224-.117,4.719,4.719,0,0,1,1.2.133,2.154,2.154,0,0,1,.823.4,1.583,1.583,0,0,1,.478.663,2.555,2.555,0,0,1,.154.928v4.279Zm-.216-2.769h-.919a2.436,2.436,0,0,0-.647.073,1.256,1.256,0,0,0-.433.2.8.8,0,0,0-.243.3.859.859,0,0,0-.077.361.706.706,0,0,0,.246.582,1.034,1.034,0,0,0,.672.2,1.174,1.174,0,0,0,.654-.228,4.78,4.78,0,0,0,.746-.654Z" transform="translate(537.681 -3154.021)" fill="#1f3e7a"/>
        <path id="Path_104398" data-name="Path 104398" d="M-497.9,3162.883c-.271.062-.544.111-.82.148a5.964,5.964,0,0,1-.783.056,3.865,3.865,0,0,1-1.064-.129,1.856,1.856,0,0,1-.74-.4,1.566,1.566,0,0,1-.432-.675,3.059,3.059,0,0,1-.139-.978v-3.058h-1.684v-1.171h1.684v-1.6l1.542-.4v2h2.435v1.171h-2.435v2.947a1.176,1.176,0,0,0,.246.811,1.065,1.065,0,0,0,.826.274,4.132,4.132,0,0,0,.722-.061c.235-.042.448-.088.641-.142Z" transform="translate(538.011 -3154.115)" fill="#1f3e7a"/>
        <path id="Path_104399" data-name="Path 104399" d="M-495.209,3156.017l4.156,3.5-4.156,3.5-.956-.975,3.052-2.516-3.052-2.534Z" transform="translate(538.398 -3154.044)" fill="#1f3e7a"/>
      </g>
      <path id="Path_104400" data-name="Path 104400" d="M-531.235,3111.436h-54.94a5.563,5.563,0,0,0-5.546,5.546v15.238a5.563,5.563,0,0,0,5.546,5.546h10.991v10.052c0,2.167,1.578,2.811,3.219,1.629L-556.072,3138c.113-.081.223-.163.338-.238h24.5a5.563,5.563,0,0,0,5.546-5.546v-15.238a5.563,5.563,0,0,0-5.546-5.546" transform="translate(13.25)" fill="#d8e7ff"/>
      <g id="Group_92353" data-name="Group 92353" transform="translate(-572.31 3118.853)">
        <path id="Path_104401" data-name="Path 104401" d="M-581.71,3127.488l-4.156-3.5,4.156-3.5.962.975-3.058,2.51,3.058,2.54Z" transform="translate(585.866 -3118.379)" fill="#1f3e7a"/>
        <path id="Path_104402" data-name="Path 104402" d="M-573.889,3125.479a1.694,1.694,0,0,1-.238.916,1.89,1.89,0,0,1-.629.617,2.881,2.881,0,0,1-.887.345,4.779,4.779,0,0,1-1.015.108,10.816,10.816,0,0,1-1.246-.065,8.277,8.277,0,0,1-1.048-.188v-1.356a5.7,5.7,0,0,0,1.157.348,5.859,5.859,0,0,0,1.088.108,1.667,1.667,0,0,0,.885-.188.564.564,0,0,0,.293-.49.547.547,0,0,0-.062-.259.645.645,0,0,0-.231-.225,2.694,2.694,0,0,0-.478-.222q-.309-.114-.808-.256a5.29,5.29,0,0,1-.811-.292,2.122,2.122,0,0,1-.576-.385,1.45,1.45,0,0,1-.343-.516,1.892,1.892,0,0,1-.114-.687,1.57,1.57,0,0,1,.173-.721,1.72,1.72,0,0,1,.515-.6,2.654,2.654,0,0,1,.855-.4,4.356,4.356,0,0,1,1.2-.147,7.933,7.933,0,0,1,1.048.061q.456.062.807.136v1.227a6.5,6.5,0,0,0-1.008-.243,6.269,6.269,0,0,0-.933-.072,1.448,1.448,0,0,0-.744.167.515.515,0,0,0-.28.462.543.543,0,0,0,.056.252.579.579,0,0,0,.219.216,2.6,2.6,0,0,0,.456.219q.294.115.775.25a5.937,5.937,0,0,1,.912.329,2.132,2.132,0,0,1,.595.4,1.313,1.313,0,0,1,.324.506A1.974,1.974,0,0,1-573.889,3125.479Z" transform="translate(586.228 -3118.356)" fill="#1f3e7a"/>
        <path id="Path_104403" data-name="Path 104403" d="M-567.262,3127.354c-.272.062-.544.112-.82.148a5.923,5.923,0,0,1-.783.056,3.807,3.807,0,0,1-1.064-.131,1.839,1.839,0,0,1-.74-.395,1.556,1.556,0,0,1-.431-.675,3.056,3.056,0,0,1-.139-.978v-3.058h-1.684v-1.171h1.684v-1.6l1.542-.4v2h2.435v1.171H-569.7v2.948a1.178,1.178,0,0,0,.246.81,1.066,1.066,0,0,0,.826.275,4.155,4.155,0,0,0,.722-.062c.234-.041.448-.088.641-.141Z" transform="translate(586.544 -3118.449)" fill="#1f3e7a"/>
        <path id="Path_104404" data-name="Path 104404" d="M-561.836,3123.493a2.7,2.7,0,0,0-.035-.6,1.157,1.157,0,0,0-.147-.407.64.64,0,0,0-.249-.235.75.75,0,0,0-.34-.074,1.134,1.134,0,0,0-.687.275,3.94,3.94,0,0,0-.78.9v3.965h-1.542v-6.265h1.363l.056.912a2.411,2.411,0,0,1,.348-.431,2.167,2.167,0,0,1,.432-.331,2.023,2.023,0,0,1,.527-.213,2.562,2.562,0,0,1,.635-.073,2.042,2.042,0,0,1,.842.163,1.592,1.592,0,0,1,.617.484,2.143,2.143,0,0,1,.37.8,4.154,4.154,0,0,1,.1,1.119Z" transform="translate(586.927 -3118.356)" fill="#1f3e7a"/>
        <path id="Path_104405" data-name="Path 104405" d="M-557.238,3122.357h-1.769v-1.171h3.311v5.092h1.807v1.172h-5.333v-1.172h1.985Zm1.665-2.886a.983.983,0,0,1-.074.382.954.954,0,0,1-.206.312.994.994,0,0,1-.312.209.969.969,0,0,1-.388.077.984.984,0,0,1-.391-.077.973.973,0,0,1-.315-.209.957.957,0,0,1-.207-.312,1,1,0,0,1-.074-.382,1.013,1.013,0,0,1,.074-.383.989.989,0,0,1,.207-.314.958.958,0,0,1,.315-.214,1.01,1.01,0,0,1,.391-.077,1,1,0,0,1,.388.077.978.978,0,0,1,.312.214.986.986,0,0,1,.206.314A.994.994,0,0,1-555.573,3119.471Z" transform="translate(587.262 -3118.484)" fill="#1f3e7a"/>
        <path id="Path_104406" data-name="Path 104406" d="M-548.924,3127.323v-4.082q0-1.029-.765-1.03a1.093,1.093,0,0,0-.73.308,5.322,5.322,0,0,0-.737.839v3.965h-1.5v-6.265h1.3l.037.925a4.528,4.528,0,0,1,.4-.438,2.356,2.356,0,0,1,.447-.337,2.149,2.149,0,0,1,.518-.213,2.421,2.421,0,0,1,.623-.073,2.077,2.077,0,0,1,.839.157,1.609,1.609,0,0,1,.6.444,1.894,1.894,0,0,1,.361.69,3.171,3.171,0,0,1,.12.9v4.205Z" transform="translate(587.606 -3118.356)" fill="#1f3e7a"/>
        <path id="Path_104407" data-name="Path 104407" d="M-541.345,3122.155a1.339,1.339,0,0,1,.243.452,1.683,1.683,0,0,1,.07.484,2.206,2.206,0,0,1-.182.925,1.84,1.84,0,0,1-.511.672,2.235,2.235,0,0,1-.789.41,3.5,3.5,0,0,1-1.014.139,2.656,2.656,0,0,1-.6-.064,1.455,1.455,0,0,1-.419-.151,1.142,1.142,0,0,0-.179.231.555.555,0,0,0-.075.286.444.444,0,0,0,.049.2.545.545,0,0,0,.145.176.81.81,0,0,0,.228.126.965.965,0,0,0,.3.056l1.486.055a3.624,3.624,0,0,1,.9.127,2.183,2.183,0,0,1,.695.323,1.458,1.458,0,0,1,.446.509,1.434,1.434,0,0,1,.158.681,1.8,1.8,0,0,1-.2.826,1.889,1.889,0,0,1-.595.676,3.135,3.135,0,0,1-.99.452,5.061,5.061,0,0,1-1.374.167,6.083,6.083,0,0,1-1.3-.121,2.875,2.875,0,0,1-.894-.336,1.431,1.431,0,0,1-.515-.515,1.324,1.324,0,0,1-.166-.657,1.393,1.393,0,0,1,.055-.4,1.355,1.355,0,0,1,.166-.355,1.982,1.982,0,0,1,.278-.329,3.3,3.3,0,0,1,.395-.321,1.2,1.2,0,0,1-.459-.444,1.132,1.132,0,0,1-.158-.58,1.339,1.339,0,0,1,.056-.391,1.907,1.907,0,0,1,.145-.348,2.427,2.427,0,0,1,.206-.321c.078-.1.16-.2.246-.3a1.928,1.928,0,0,1-.379-.552,1.913,1.913,0,0,1-.151-.811,2.213,2.213,0,0,1,.188-.933,1.955,1.955,0,0,1,.521-.691,2.3,2.3,0,0,1,.792-.425,3.309,3.309,0,0,1,1-.145,4.808,4.808,0,0,1,.534.028,2.3,2.3,0,0,1,.466.1h2.17v1.1Zm-3.547,6a.567.567,0,0,0,.367.537,2.485,2.485,0,0,0,1.032.173,2.743,2.743,0,0,0,.719-.081,1.52,1.52,0,0,0,.478-.209.771.771,0,0,0,.265-.3.836.836,0,0,0,.08-.358.486.486,0,0,0-.077-.28.608.608,0,0,0-.216-.192,1.146,1.146,0,0,0-.327-.117,2.634,2.634,0,0,0-.416-.053l-1.326-.025a2.362,2.362,0,0,0-.293.235,1.117,1.117,0,0,0-.179.219.683.683,0,0,0-.086.219A1.2,1.2,0,0,0-544.891,3128.155Zm.254-5.026a1.067,1.067,0,0,0,.293.792,1.1,1.1,0,0,0,.817.293,1.185,1.185,0,0,0,.484-.093.974.974,0,0,0,.342-.247,1.024,1.024,0,0,0,.2-.357,1.337,1.337,0,0,0,.067-.426,1.1,1.1,0,0,0-.293-.816,1.1,1.1,0,0,0-.817-.293,1.183,1.183,0,0,0-.484.092.971.971,0,0,0-.343.25,1.046,1.046,0,0,0-.2.366A1.415,1.415,0,0,0-544.638,3123.128Z" transform="translate(587.932 -3118.355)" fill="#1f3e7a"/>
        <path id="Path_104408" data-name="Path 104408" d="M-538.181,3120.488l4.156,3.5-4.156,3.5-.957-.975,3.053-2.516-3.053-2.534Z" transform="translate(588.314 -3118.379)" fill="#1f3e7a"/>
      </g>
      <path id="Path_104409" data-name="Path 104409" d="M-622.007,3161.748l-.971-.982a1.288,1.288,0,0,1-.2-1.545,13.371,13.371,0,0,0,1.28-3.04,1.287,1.287,0,0,1,1.249-.933l1.382.006a1.3,1.3,0,0,0,1.308-1.288l.016-2.646a1.3,1.3,0,0,0-1.291-1.306l-1.382-.009a1.286,1.286,0,0,1-1.238-.948A13.322,13.322,0,0,0-623.1,3146a1.281,1.281,0,0,1,.226-1.541l.982-.971a1.3,1.3,0,0,0,.012-1.836l-1.861-1.883a1.3,1.3,0,0,0-1.835-.013l-.983.972a1.29,1.29,0,0,1-1.545.207,13.324,13.324,0,0,0-3.038-1.281,1.286,1.286,0,0,1-.933-1.25l.008-1.382a1.3,1.3,0,0,0-1.29-1.3l-2.647-.018a1.3,1.3,0,0,0-1.306,1.291l-.008,1.382a1.286,1.286,0,0,1-.949,1.237,13.487,13.487,0,0,0-3.055,1.243,1.285,1.285,0,0,1-1.542-.223l-.97-.984a1.3,1.3,0,0,0-1.835-.011l-1.884,1.86a1.3,1.3,0,0,0-.012,1.836l.971.982a1.29,1.29,0,0,1,.205,1.546,13.235,13.235,0,0,0-1.281,3.037,1.287,1.287,0,0,1-1.249.936l-1.383-.011a1.3,1.3,0,0,0-1.3,1.292l-.018,2.646a1.3,1.3,0,0,0,1.291,1.308l1.382.006a1.288,1.288,0,0,1,1.238.952,13.3,13.3,0,0,0,1.243,3.053,1.287,1.287,0,0,1-.224,1.543l-.983.971a1.3,1.3,0,0,0-.012,1.835l1.86,1.884a1.3,1.3,0,0,0,1.836.011l.983-.972a1.286,1.286,0,0,1,1.546-.2,13.375,13.375,0,0,0,3.036,1.28,1.288,1.288,0,0,1,.935,1.249l-.009,1.382a1.3,1.3,0,0,0,1.29,1.308l2.648.015a1.3,1.3,0,0,0,1.306-1.29l.008-1.383a1.289,1.289,0,0,1,.948-1.238,13.121,13.121,0,0,0,3.055-1.242,1.283,1.283,0,0,1,1.541.224l.972.983a1.3,1.3,0,0,0,1.835.012l1.884-1.859a1.3,1.3,0,0,0,.011-1.836m-8.667-3.313a7.179,7.179,0,0,1-8.3-.053,7.193,7.193,0,0,1,.074-11.739,7.179,7.179,0,0,1,8.3.053A7.192,7.192,0,0,1-630.674,3158.434Z" transform="translate(10.111 1.271)" fill="#fccf00" fill-rule="evenodd"/>
      <path id="Path_104410" data-name="Path 104410" d="M-652.154,3151l-.67-.679a.887.887,0,0,1-.141-1.066,9.244,9.244,0,0,0,.884-2.1.89.89,0,0,1,.863-.644l.955,0a.9.9,0,0,0,.9-.889l.012-1.828a.9.9,0,0,0-.892-.9l-.955-.006a.889.889,0,0,1-.854-.654,9.189,9.189,0,0,0-.859-2.11.888.888,0,0,1,.157-1.065l.678-.67a.9.9,0,0,0,.008-1.268l-1.285-1.3a.9.9,0,0,0-1.268-.009l-.679.671a.889.889,0,0,1-1.066.142,9.181,9.181,0,0,0-2.1-.884.889.889,0,0,1-.645-.864l.006-.955a.9.9,0,0,0-.891-.9l-1.828-.012a.9.9,0,0,0-.9.891l-.006.955a.887.887,0,0,1-.655.854,9.308,9.308,0,0,0-2.11.859.889.889,0,0,1-1.065-.155l-.67-.679a.9.9,0,0,0-1.267-.008l-1.3,1.285a.9.9,0,0,0-.008,1.268l.67.678a.892.892,0,0,1,.142,1.068,9.165,9.165,0,0,0-.884,2.1.893.893,0,0,1-.863.646l-.954-.008a.9.9,0,0,0-.9.891l-.013,1.827a.9.9,0,0,0,.892.9l.953.005a.889.889,0,0,1,.856.656,9.168,9.168,0,0,0,.858,2.109.889.889,0,0,1-.155,1.066l-.679.67a.894.894,0,0,0-.007,1.267l1.284,1.3a.9.9,0,0,0,1.268.007l.679-.671a.89.89,0,0,1,1.068-.141,9.233,9.233,0,0,0,2.1.884.89.89,0,0,1,.645.863l-.006.954a.9.9,0,0,0,.891.9l1.828.01a.9.9,0,0,0,.9-.891l.006-.954a.889.889,0,0,1,.655-.856,9.037,9.037,0,0,0,2.11-.858.888.888,0,0,1,1.064.155l.671.68a.9.9,0,0,0,1.268.007l1.3-1.285a.893.893,0,0,0,.007-1.267m-5.985-2.289a4.956,4.956,0,0,1-5.731-.036,4.968,4.968,0,0,1,.051-8.106,4.96,4.96,0,0,1,5.73.036A4.967,4.967,0,0,1-658.139,3148.714Z" transform="translate(9.012 1.13)" fill="#fccf00" fill-rule="evenodd"/>
    </g>
  </g>
</svg>
