<svg xmlns="http://www.w3.org/2000/svg" width="50" height="50" viewBox="0 0 50 50">
  <g id="t1-ic4" transform="translate(0 0)">
    <path id="Path_104050" data-name="Path 104050" d="M28.32,50H21.68a1.955,1.955,0,0,1-1.953-1.953V45.131A20.631,20.631,0,0,1,14.5,42.962l-2.063,2.063a1.956,1.956,0,0,1-2.762,0l-4.7-4.7a1.955,1.955,0,0,1,0-2.762L7.038,35.5a20.631,20.631,0,0,1-2.169-5.231H1.953A1.955,1.955,0,0,1,0,28.32V21.68a1.955,1.955,0,0,1,1.953-1.953H4.862a20.631,20.631,0,0,1,2.167-5.24L4.974,12.432a1.955,1.955,0,0,1,0-2.762l4.7-4.7a1.956,1.956,0,0,1,2.762,0L14.48,7.022a20.631,20.631,0,0,1,5.247-2.178V1.953A1.955,1.955,0,0,1,21.68,0H28.32a1.955,1.955,0,0,1,1.953,1.953V4.837a20.64,20.64,0,0,1,5.256,2.176l2.039-2.039a1.955,1.955,0,0,1,2.762,0l4.7,4.7a1.956,1.956,0,0,1,0,2.762l-2.039,2.039a20.64,20.64,0,0,1,2.176,5.256h2.884A1.955,1.955,0,0,1,50,21.68V28.32a1.955,1.955,0,0,1-1.953,1.953H45.156a20.645,20.645,0,0,1-2.178,5.247l2.047,2.048a1.955,1.955,0,0,1,0,2.762l-4.7,4.7a1.956,1.956,0,0,1-2.762,0l-2.054-2.055a20.642,20.642,0,0,1-5.24,2.167v2.909A1.955,1.955,0,0,1,28.32,50ZM14.349,40.751a.975.975,0,0,1,.525.153,18.7,18.7,0,0,0,6.039,2.5.977.977,0,0,1,.766.954v3.684H28.32V44.368a.976.976,0,0,1,.767-.954,18.713,18.713,0,0,0,6.049-2.5.977.977,0,0,1,1.215.133l2.6,2.6,4.7-4.7-2.592-2.592a.977.977,0,0,1-.132-1.217,18.711,18.711,0,0,0,2.514-6.054.976.976,0,0,1,.953-.766h3.659V21.68H44.393a.976.976,0,0,1-.954-.767,18.7,18.7,0,0,0-2.51-6.063.977.977,0,0,1,.133-1.216l2.583-2.583-4.7-4.7L36.366,8.938a.977.977,0,0,1-1.216.133,18.709,18.709,0,0,0-6.063-2.51.976.976,0,0,1-.767-.954V1.953H21.68V5.612a.977.977,0,0,1-.765.954A18.709,18.709,0,0,0,14.86,9.08a.976.976,0,0,1-1.217-.132L11.051,6.356l-4.7,4.7,2.6,2.6a.976.976,0,0,1,.133,1.215,18.713,18.713,0,0,0-2.5,6.049.976.976,0,0,1-.954.767H1.953V28.32H5.637a.977.977,0,0,1,.954.766,18.7,18.7,0,0,0,2.5,6.039.977.977,0,0,1-.133,1.216L6.356,38.949l4.7,4.7,2.607-2.608a.977.977,0,0,1,.691-.286Zm0,0" fill="#ffa726"/>
    <path id="Path_104051" data-name="Path 104051" d="M124.319,138.526a14.255,14.255,0,1,1,6.969-26.693.976.976,0,1,1-.955,1.7,12.3,12.3,0,1,0,5,5.24.977.977,0,1,1,1.747-.873,14.253,14.253,0,0,1-12.759,20.623Zm0,0" transform="translate(-99.319 -99.275)" fill="#ffa726"/>
    <path id="Path_104052" data-name="Path 104052" d="M345.329,153.965a.977.977,0,1,1,.69-.286A.982.982,0,0,1,345.329,153.965Zm0,0" transform="translate(-310.724 -137.167)" fill="#ffa726"/>
    <path id="Path_104053" data-name="Path 104053" d="M175.8,196.72a.977.977,0,0,1-.69-.286l-6.176-6.176a.976.976,0,0,1,0-1.381l3.5-3.5a.978.978,0,0,1,1.381,0l1.982,1.983,4.739-4.739a.976.976,0,0,1,1.381,0l3.5,3.5a.977.977,0,0,1,0,1.381l-8.932,8.932a.978.978,0,0,1-.691.286Zm-4.795-7.153,4.795,4.795,7.551-7.551-2.122-2.122-4.739,4.739a.977.977,0,0,1-1.381,0l-1.983-1.982Zm0,0" transform="translate(-152.179 -164.526)" fill="#ffa726"/>
  </g>
</svg>
