<svg xmlns="http://www.w3.org/2000/svg" width="62.059" height="50" viewBox="0 0 62.059 50">
  <g id="t1-ic5" transform="translate(0 -49.73)">
    <path id="Path_104079" data-name="Path 104079" d="M19.581,51.868a2.831,2.831,0,0,1,2.613-2.128c1.128-.019,2.258,0,3.388,0a2.826,2.826,0,0,1,2.642,1.73,10.246,10.246,0,0,1,.225,3.171A19.908,19.908,0,0,1,34.1,56.866c.121.055.233.161.372.161.665-.6,1.259-1.287,1.936-1.88a2.865,2.865,0,0,1,3.7.087c.7.667,1.378,1.361,2.075,2.035a3.751,3.751,0,0,1,.9,1.149,2.851,2.851,0,0,1-.507,3.126c-.575.588-1.167,1.158-1.747,1.741a19.243,19.243,0,0,1,2.5,5.7c.947.038,1.894,0,2.842.021A2.8,2.8,0,0,1,48.7,70.893a5.676,5.676,0,0,1,.155,1.894c3.39.006,6.782,0,10.172,0a3.115,3.115,0,0,1,2.229,1.019,3.275,3.275,0,0,1,.8,1.959V96.746a3.076,3.076,0,0,1-2.905,2.976c-8.165.016-16.328,0-24.491.007a3.685,3.685,0,0,1-1.4-.173,3.047,3.047,0,0,1-2-2.768c-.007-1.471.007-2.942,0-4.413-.624.208-1.244.432-1.876.613-.012.781.008,1.562-.01,2.343a2.8,2.8,0,0,1-1.63,2.447,6.585,6.585,0,0,1-2.646.253,19.649,19.649,0,0,1-2.479-.065,2.825,2.825,0,0,1-2.156-2.515c-.025-.675,0-1.35-.008-2.025A20.917,20.917,0,0,1,14.023,91.1c-.815.709-1.45,1.726-2.541,2.033a2.847,2.847,0,0,1-2.852-.731c-.767-.766-1.547-1.522-2.311-2.291a2.841,2.841,0,0,1-.188-3.7c.4-.482.886-.88,1.3-1.345a19.91,19.91,0,0,1-2.874-6.286c-1.019-.061-2.125.178-3.059-.345A2.922,2.922,0,0,1,0,76.011V72.563a2.96,2.96,0,0,1,1.565-2.336,6.179,6.179,0,0,1,2.81-.319,19.512,19.512,0,0,1,2.574-6.373c-.671-.788-1.653-1.383-1.954-2.429a2.811,2.811,0,0,1,.711-2.852q1.158-1.145,2.316-2.287a2.88,2.88,0,0,1,3.413-.418,19.5,19.5,0,0,1,1.836,1.663A19.97,19.97,0,0,1,19.5,54.631a19.63,19.63,0,0,1,.081-2.764m1.885.673c-.021,1.018.016,2.039-.016,3.057a1.059,1.059,0,0,1-.978.85,17.891,17.891,0,0,0-6.151,2.427,4.73,4.73,0,0,1-1,.572,1.036,1.036,0,0,1-.962-.343c-.575-.559-1.136-1.131-1.713-1.687a.894.894,0,0,0-1.3.006c-.765.76-1.544,1.507-2.3,2.276a.837.837,0,0,0,.012,1.155c.616.645,1.281,1.241,1.892,1.891A.961.961,0,0,1,9,63.984a17.588,17.588,0,0,0-2.817,6.991.981.981,0,0,1-.863.881c-.83.04-1.662-.013-2.492.023a.9.9,0,0,0-.852.9c0,1.052-.007,2.1,0,3.155a.858.858,0,0,0,.806.859c.855.028,1.711-.007,2.566.013a1.016,1.016,0,0,1,.979.836,17.586,17.586,0,0,0,3.148,6.892.989.989,0,0,1-.038,1.33c-.538.553-1.1,1.081-1.642,1.63A.91.91,0,0,0,7.882,88.9c.739.715,1.459,1.452,2.2,2.164a.857.857,0,0,0,1.162,0c.669-.629,1.3-1.3,1.971-1.927a1.016,1.016,0,0,1,1.269-.053,18.135,18.135,0,0,0,6.976,2.49,1.031,1.031,0,0,1,.947.966c.024.888,0,1.778.01,2.668a.825.825,0,0,0,.845.852h3.28a.829.829,0,0,0,.856-.853c.01-.971-.006-1.943,0-2.914a1.039,1.039,0,0,1,.794-1.038,17.761,17.761,0,0,0,3.059-1.038c0-2.364,0-4.728,0-7.092a11.747,11.747,0,0,1-5.32,2.167,11.139,11.139,0,0,1-5.914-.8,11.54,11.54,0,0,1-5.966-5.882,11.7,11.7,0,0,1-.758-7.148A11.579,11.579,0,0,1,18.3,64.184a11.226,11.226,0,0,1,13.567.994,11.594,11.594,0,0,1,3.913,7.611q5.558,0,11.116,0a9.873,9.873,0,0,0-.024-1.183.863.863,0,0,0-.81-.635c-1.176-.025-2.353.008-3.528-.015a1.02,1.02,0,0,1-.937-.821A17.726,17.726,0,0,0,38.81,63.8a1,1,0,0,1,.065-1.343c.747-.75,1.505-1.49,2.252-2.24a.865.865,0,0,0-.028-1.256c-.751-.743-1.5-1.49-2.262-2.224a.88.88,0,0,0-1.217-.033c-.788.755-1.547,1.541-2.332,2.3a1.028,1.028,0,0,1-1.341.074A17.9,17.9,0,0,0,27.4,56.432a1,1,0,0,1-.9-.9c-.04-.994.01-1.99-.021-2.984a.847.847,0,0,0-.891-.845c-1.1,0-2.2-.006-3.294,0a.851.851,0,0,0-.822.834M18.995,66.09a9.6,9.6,0,0,0-3.884,6.4,9.791,9.791,0,0,0,.5,4.768A9.585,9.585,0,0,0,20.2,82.41a9.2,9.2,0,0,0,5.251.966,9.416,9.416,0,0,0,5.81-2.926q-.007-2.373,0-4.745A3.029,3.029,0,0,1,33.8,72.84a9.565,9.565,0,0,0-3.528-6.44,9.255,9.255,0,0,0-11.28-.31m14.231,9.594c-.025.448,0,.9-.01,1.348q13.434,0,26.867,0a11.977,11.977,0,0,0-.025-1.368,1.12,1.12,0,0,0-1.139-.909q-12.249,0-24.5,0a1.121,1.121,0,0,0-1.2.932M33.218,79q-.005,7.2,0,14.393,13.432.005,26.865,0c0-4.795.013-9.59,0-14.384C51.124,78.98,42.172,79,33.218,79m0,16.358c0,.524-.029,1.048.016,1.572a1.08,1.08,0,0,0,1.061.831q12.369,0,24.74,0a1.046,1.046,0,0,0,1.006-.818,10.1,10.1,0,0,0,.04-1.579Q46.65,95.335,33.218,95.356Z" transform="translate(0 0)" fill="#ffa726"/>
    <path id="Path_104080" data-name="Path 104080" d="M315.977,309.539a1,1,0,0,1,1.6-.93c1.085,1.058,2.153,2.137,3.228,3.2a.992.992,0,0,1,0,1.411c-1.025,1.033-2.065,2.051-3.092,3.083a1.1,1.1,0,0,1-.819.4,1,1,0,0,1-.938-1.278,1.3,1.3,0,0,1,.362-.521c.806-.8,1.6-1.6,2.41-2.4-.747-.733-1.48-1.48-2.227-2.212A1.418,1.418,0,0,1,315.977,309.539Z" transform="translate(-277.619 -227.302)" fill="#ffa726"/>
    <path id="Path_104081" data-name="Path 104081" d="M378.062,360.947a1.681,1.681,0,0,1,.562-.055c1.616.013,3.233-.015,4.848.008a1.009,1.009,0,0,1,.616,1.589.955.955,0,0,1-.865.365c-1.656,0-3.311.015-4.967-.011A1,1,0,0,1,378.062,360.947Z" transform="translate(-331.714 -273.447)" fill="#ffa726"/>
  </g>
</svg>
