<svg xmlns="http://www.w3.org/2000/svg" width="190" height="100" viewBox="0 0 190 100">
  <g id="t1-ic6" transform="translate(-180 -1906)">
    <rect id="Rectangle_5636" data-name="Rectangle 5636" width="190" height="50" rx="11" transform="translate(180 1956)" fill="#ffefd7"/>
    <g id="Group_59698" data-name="Group 59698" transform="translate(3642.568 11311)">
      <path id="Path_103948" data-name="Path 103948" d="M301.538,44.789H264.792a5.535,5.535,0,0,0-5.534,5.534V71.109a5.535,5.535,0,0,0,5.534,5.534h13.071l-2.113,8.527a1.209,1.209,0,0,0,1.911,1.25l12.728-9.777h11.149a5.534,5.534,0,0,0,5.534-5.534V50.323a5.535,5.535,0,0,0-5.535-5.534Zm0,0" transform="translate(-3626.19 -9441.041)" fill="#039be5"/>
      <path id="Path_103949" data-name="Path 103949" d="M345.179,209.814l-1.633,6.6a1.21,1.21,0,0,0,1.911,1.25l12.728-9.777H347.694Zm0,0" transform="translate(-3693.985 -9572.28)" fill="#03abfc"/>
      <path id="Path_103950" data-name="Path 103950" d="M432.51,44.789H422.019a5.534,5.534,0,0,1,5.534,5.534V71.109a5.534,5.534,0,0,1-5.534,5.534H432.51a5.534,5.534,0,0,0,5.534-5.534V50.323A5.534,5.534,0,0,0,432.51,44.789Zm0,0" transform="translate(-3757.162 -9441.041)" fill="#03abfc"/>
      <path id="Path_103951" data-name="Path 103951" d="M84.683,263.378c-.275-4.7-3.257-8.524-7.694-10.6-5.431-2.543-20.222-6.39-20.222-6.39a3.017,3.017,0,0,1-2.467-2.966v-8.455H38.22v8.455a3.017,3.017,0,0,1-2.466,2.966s-14.791,3.848-20.223,6.39c-4.437,2.078-7.419,5.905-7.694,10.6L7.5,283.535a4.024,4.024,0,0,0,4.024,4.073H80.993a4.025,4.025,0,0,0,4.025-4.073Zm0,0" transform="translate(-3423.606 -9594.073)" fill="#fcc18b"/>
      <path id="Path_103952" data-name="Path 103952" d="M234.265,263.378c-.275-4.7-3.257-8.524-7.694-10.6-5.431-2.543-20.222-6.39-20.222-6.39a3.017,3.017,0,0,1-2.467-2.966v-8.455H193.391V248.49a3.016,3.016,0,0,0,2.466,2.966s14.792,3.848,20.223,6.391c4.437,2.077,7.419,5.905,7.694,10.6l.317,19.16h6.483a4.025,4.025,0,0,0,4.025-4.073Zm0,0" transform="translate(-3573.188 -9594.073)" fill="#eaab65"/>
      <path id="Path_103953" data-name="Path 103953" d="M98.415,125.367H96.3a3.261,3.261,0,0,0-3.214,3.928l.829,4.565c.643,3.383,4.5,1.837,4.5,1.837Zm0,0" transform="translate(-3492.432 -9505.882)" fill="#eaab65"/>
      <path id="Path_103954" data-name="Path 103954" d="M291.271,125.367h2.111a3.261,3.261,0,0,1,3.213,3.928l-.829,4.565c-.643,3.383-4.5,1.837-4.5,1.837Zm0,0" transform="translate(-3651.947 -9505.882)" fill="#fcc18b"/>
      <path id="Path_103955" data-name="Path 103955" d="M147.194,16.71a16.625,16.625,0,0,0-23.4,0,17.7,17.7,0,0,0-5.4,13.007l0,17.3c0,8.179,10.63,16.648,17.094,16.648s17.094-8.469,17.094-16.648l0-17.3a17.7,17.7,0,0,0-5.4-13.007Zm0,0" transform="translate(-3512.84 -9414.571)" fill="#fcc18b"/>
      <path id="Path_103956" data-name="Path 103956" d="M196.029,16.71a17.268,17.268,0,0,0-11.7-4.815,16.794,16.794,0,0,0-5.246.891,18.176,18.176,0,0,1,6.455,3.924,17.7,17.7,0,0,1,5.4,13.007l0,17.3c0,6.188-6.086,12.543-11.848,15.269a12.717,12.717,0,0,0,5.245,1.379c6.464,0,17.094-8.469,17.094-16.648l0-17.3a17.7,17.7,0,0,0-5.4-13.007Zm0,0" transform="translate(-3561.674 -9414.571)" fill="#eaab65"/>
      <path id="Path_103957" data-name="Path 103957" d="M132.332,7.5H111.177a9.856,9.856,0,0,0-9.856,9.856v13.6a6.8,6.8,0,0,1,4.458,1.664.577.577,0,0,0,.98-.414V21.547a4.356,4.356,0,0,1,4.356-4.356h3.959a4.5,4.5,0,0,1,2.848,1.016l.388.317a5.441,5.441,0,0,0,6.887,0l.388-.317a4.5,4.5,0,0,1,2.848-1.016h3.958a4.357,4.357,0,0,1,4.357,4.356V32.206a.577.577,0,0,0,.98.414,6.8,6.8,0,0,1,4.458-1.665v-13.6A9.856,9.856,0,0,0,132.332,7.5Zm0,0" transform="translate(-3499.101 -9411.035)" fill="#ffca28"/>
      <path id="Path_103958" data-name="Path 103958" d="M245.023,7.5h-3.659c1.841,2.168,3,5.423,3.025,9.691h.7a4.356,4.356,0,0,1,4.356,4.356V32.206a.577.577,0,0,0,.98.414,6.8,6.8,0,0,1,4.458-1.665v-13.6A9.856,9.856,0,0,0,245.023,7.5Zm0,0" transform="translate(-3611.791 -9411.035)" fill="#ffa726"/>
      <path id="Path_103959" data-name="Path 103959" d="M76.989,306.593a119.583,119.583,0,0,0-14.231-4.749l-1.025.389a43.687,43.687,0,0,1-30.946,0l-1.025-.389a119.584,119.584,0,0,0-14.231,4.749c-4.437,2.078-7.419,5.905-7.694,10.6L7.5,337.352a4.024,4.024,0,0,0,4.024,4.073H80.993a4.025,4.025,0,0,0,4.025-4.073l-.334-20.158c-.275-4.7-3.257-8.524-7.694-10.6Zm0,0" transform="translate(-3423.606 -9647.89)" fill="#4dd0e1"/>
      <path id="Path_103960" data-name="Path 103960" d="M105.576,336.374H55.516a2.9,2.9,0,0,1-2.895-2.7l-2.047-28.725a2.9,2.9,0,0,1,2.895-3.109h54.154a2.9,2.9,0,0,1,2.895,3.109l-2.048,28.725a2.9,2.9,0,0,1-2.895,2.7Zm0,0" transform="translate(-3458.259 -9647.89)" fill="#f2f2f2"/>
      <path id="Path_103961" data-name="Path 103961" d="M299.154,301.844H288.586a2.9,2.9,0,0,1,2.895,3.109l-2.239,31.421h7.865a2.9,2.9,0,0,0,2.895-2.7l2.048-28.725a2.9,2.9,0,0,0-2.895-3.109Zm0,0" transform="translate(-3649.79 -9647.89)" fill="#cdd6df"/>
      <path id="Path_103962" data-name="Path 103962" d="M107.386,483.688H50.881a2.526,2.526,0,0,1,0-5.051h56.506a2.526,2.526,0,0,1,0,5.051Zm0,0" transform="translate(-3456.48 -9790.152)" fill="#cdd6df"/>
      <path id="Path_103963" data-name="Path 103963" d="M193.327,379.519a4.042,4.042,0,1,1-4.042-4.042A4.042,4.042,0,0,1,193.327,379.519Zm0,0" transform="translate(-3566.631 -9707.141)" fill="#fff"/>
      <path id="Path_103967" data-name="Path 103967" d="M92.918,7.283H61.378A11.341,11.341,0,0,0,50.8,0H29.646A11.334,11.334,0,0,0,18.325,11.321V24.175a4.777,4.777,0,0,0-1.538,4.5l.832,4.576a3.985,3.985,0,0,0,1.781,2.78,4.306,4.306,0,0,0,2.265.6v.813c0,4.126,2.407,8.673,6.6,12.476a26.963,26.963,0,0,0,2.45,1.972v2.454a1.552,1.552,0,0,1-1.269,1.526c-.034.006-.068.014-.1.022s-2.54.662-5.827,1.595H12.779a4.366,4.366,0,0,0-4.356,4.678l.029.414A14.024,14.024,0,0,0,.337,74.219l0,.062L0,94.444A5.488,5.488,0,0,0,5.49,100H74.957a5.489,5.489,0,0,0,5.489-5.562l-.333-20.158c0-.021,0-.041,0-.062-.3-5.051-3.487-9.478-8.536-11.842-.092-.043-.189-.088-.289-.133l.005-.077a4.366,4.366,0,0,0-4.356-4.678H56.926c-3.287-.932-5.8-1.588-5.827-1.594s-.067-.017-.1-.023a1.552,1.552,0,0,1-1.269-1.526V51.894a27.1,27.1,0,0,0,2.45-1.973,21.4,21.4,0,0,0,5.675-7.854h9.518l-1.662,6.71a2.644,2.644,0,0,0,1.131,2.881,2.642,2.642,0,0,0,3.094-.117l12.334-9.474H92.918a7.007,7.007,0,0,0,7-7V14.282a7.007,7.007,0,0,0-7-7ZM58.785,26.706a6.32,6.32,0,0,1,1.436-.3,1.89,1.89,0,0,1,.556,1.746L59.95,32.7c-.121.636-.365.787-.445.836a1.429,1.429,0,0,1-.722.163ZM21.255,11.321A8.4,8.4,0,0,1,29.646,2.93H50.8a8.4,8.4,0,0,1,8.391,8.391V23.594a8.526,8.526,0,0,0-2.509.844V15.512a5.828,5.828,0,0,0-5.821-5.821H46.9a5.984,5.984,0,0,0-3.776,1.347l-.388.317a3.977,3.977,0,0,1-5.033,0l-.388-.318a5.982,5.982,0,0,0-3.776-1.347H29.585a5.828,5.828,0,0,0-5.821,5.821v8.925a8.522,8.522,0,0,0-2.509-.843Zm-.314,22.22c-.08-.05-.324-.2-.443-.824l-.829-4.565a1.893,1.893,0,0,1,.555-1.746,6.322,6.322,0,0,1,1.437.3l0,7a1.433,1.433,0,0,1-.722-.163ZM7.981,96.009a3.99,3.99,0,0,0,.143,1.061H5.49a2.559,2.559,0,0,1-2.56-2.584l.333-20.126A10.753,10.753,0,0,1,8.682,65.8l1.788,25.092a4.331,4.331,0,0,0,.3,1.311,4,4,0,0,0-2.793,3.806Zm61.261-5.117,1.817-25.5a10.907,10.907,0,0,1,6.124,8.965l.333,20.12a2.559,2.559,0,0,1-2.56,2.59H72.323A3.991,3.991,0,0,0,69,92.054a4.311,4.311,0,0,0,.245-1.161Zm.3,5.117a1.062,1.062,0,0,1-1.06,1.061H11.971a1.061,1.061,0,0,1,0-2.122H68.476A1.062,1.062,0,0,1,69.537,96.009ZM67.986,60.877a1.422,1.422,0,0,1,.381,1.082L66.319,90.685a1.442,1.442,0,0,1-1.434,1.334H14.826a1.443,1.443,0,0,1-1.434-1.335L11.346,61.959a1.437,1.437,0,0,1,1.434-1.54H66.934a1.425,1.425,0,0,1,1.052.458Zm-19.9-3.387H32.361a4.476,4.476,0,0,0,1.287-3.143v-.655a14.848,14.848,0,0,0,6.575,1.866A14.853,14.853,0,0,0,46.8,53.691v.655a4.476,4.476,0,0,0,1.287,3.143Zm2.125-9.74c-3.271,2.963-7.191,4.878-9.988,4.878s-6.716-1.915-9.987-4.878c-3.586-3.248-5.642-7-5.642-10.306l0-9.229h.057a2.048,2.048,0,0,0,2.045-2.045V15.512a2.9,2.9,0,0,1,2.892-2.892h3.959a3.042,3.042,0,0,1,1.92.685l.389.318a6.905,6.905,0,0,0,8.741,0l.388-.317a3.044,3.044,0,0,1,1.921-.685h3.958a2.9,2.9,0,0,1,2.892,2.892V26.17a2.048,2.048,0,0,0,2.1,2.045l0,9.229c0,3.3-2.056,7.057-5.642,10.305ZM96.987,35.068a4.074,4.074,0,0,1-4.07,4.07H81.77a1.462,1.462,0,0,0-.892.3L68.727,48.774l1.937-7.819a1.465,1.465,0,0,0-1.421-1.817H58.653a11.319,11.319,0,0,0,.13-1.693v-.813a4.305,4.305,0,0,0,2.264-.6,3.99,3.99,0,0,0,1.783-2.792l.829-4.565a4.776,4.776,0,0,0-1.538-4.5V11.321c0-.373-.018-.743-.054-1.108h30.85a4.074,4.074,0,0,1,4.07,4.07Zm0,0" transform="translate(-3417.57 -9405)" fill="#12263f"/>
      <path id="Path_103968" data-name="Path 103968" d="M183.25,378.99a5.507,5.507,0,1,0-5.507-5.507A5.513,5.513,0,0,0,183.25,378.99Zm0-8.084a2.577,2.577,0,1,1-2.577,2.577A2.58,2.58,0,0,1,183.25,370.906Zm0,0" transform="translate(-3560.596 -9701.105)" fill="#12263f"/>
    </g>
  </g>
</svg>
