<svg xmlns="http://www.w3.org/2000/svg" width="44.922" height="50" viewBox="0 0 44.922 50">
  <g id="t1-ic3" transform="translate(-25.999 0)">
    <g id="Group_92326" data-name="Group 92326" transform="translate(25.999 0)">
      <g id="Group_92325" data-name="Group 92325" transform="translate(0 0)">
        <path id="Path_104066" data-name="Path 104066" d="M70.189,8.654A91.086,91.086,0,0,1,48.936.124a.977.977,0,0,0-.953,0A88.593,88.593,0,0,1,26.73,8.654.977.977,0,0,0,26,9.6V20.38A30.216,30.216,0,0,0,35.928,43c4.859,4.506,10.494,7,12.532,7s7.673-2.492,12.532-7A30.216,30.216,0,0,0,70.921,20.38V9.6A.977.977,0,0,0,70.189,8.654ZM59.664,41.57a31.864,31.864,0,0,1-7.026,4.953,12.59,12.59,0,0,1-4.177,1.524,12.588,12.588,0,0,1-4.177-1.524,31.871,31.871,0,0,1-7.026-4.953,28.306,28.306,0,0,1-9.3-21.19V10.352A90.387,90.387,0,0,0,48.46,2.093a93.225,93.225,0,0,0,20.508,8.259V20.38h0A28.306,28.306,0,0,1,59.664,41.57Z" transform="translate(-25.999 0)" fill="#ffa726"/>
      </g>
    </g>
    <g id="Group_92328" data-name="Group 92328" transform="translate(29.417 3.892)">
      <g id="Group_92327" data-name="Group 92327" transform="translate(0)">
        <path id="Path_104067" data-name="Path 104067" d="M98.38,47.234A94.174,94.174,0,0,1,80.5,39.975a.976.976,0,0,0-.918,0A93.054,93.054,0,0,1,61.7,47.236a.977.977,0,0,0-.705.938v8.174a27.149,27.149,0,0,0,2.149,10.764,27.448,27.448,0,0,0,6.29,8.978,30.813,30.813,0,0,0,6.579,4.825,17.673,17.673,0,0,0,3.848,1.6.977.977,0,0,0,.354,0,17.674,17.674,0,0,0,3.848-1.6,30.825,30.825,0,0,0,6.579-4.825,27.447,27.447,0,0,0,6.29-8.978,27.148,27.148,0,0,0,2.149-10.764V48.172A.977.977,0,0,0,98.38,47.234Zm-1.249,9.114a24.576,24.576,0,0,1-7.839,18.333A28.841,28.841,0,0,1,83.136,79.2a17.34,17.34,0,0,1-3.1,1.361,17.336,17.336,0,0,1-3.1-1.361,28.842,28.842,0,0,1-6.155-4.516,24.576,24.576,0,0,1-7.839-18.333V48.905a95.029,95.029,0,0,0,17.092-6.963A96.168,96.168,0,0,0,97.131,48.9v7.446Z" transform="translate(-60.998 -39.861)" fill="#ffa726"/>
      </g>
    </g>
    <g id="Group_92330" data-name="Group 92330" transform="translate(38.64 34.651)">
      <g id="Group_92329" data-name="Group 92329" transform="translate(0)">
        <path id="Path_104068" data-name="Path 104068" d="M157.161,355.173l-.02-.021a.977.977,0,0,0-1.447,1.312l.02.021a.977.977,0,0,0,1.447-1.312Z" transform="translate(-155.443 -354.833)" fill="#ffa726"/>
      </g>
    </g>
    <g id="Group_92332" data-name="Group 92332" transform="translate(40.63 36.631)">
      <g id="Group_92331" data-name="Group 92331">
        <path id="Path_104069" data-name="Path 104069" d="M180.82,377.9a25.442,25.442,0,0,1-3.367-2.543.976.976,0,1,0-1.3,1.456,27.4,27.4,0,0,0,3.626,2.739.977.977,0,1,0,1.042-1.652Z" transform="translate(-175.826 -375.106)" fill="#ffa726"/>
      </g>
    </g>
    <g id="Group_92334" data-name="Group 92334" transform="translate(41.2 12.037)">
      <g id="Group_92333" data-name="Group 92333" transform="translate(0)">
        <path id="Path_104070" data-name="Path 104070" d="M194.079,131.639v-3.215a5.166,5.166,0,0,0-10.332,0v3.215a2.176,2.176,0,0,0-2.094,2.171v7.5a2.176,2.176,0,0,0,2.174,2.174H194a2.176,2.176,0,0,0,2.174-2.174v-7.5A2.176,2.176,0,0,0,194.079,131.639Zm-8.379-3.215a3.213,3.213,0,0,1,6.426,0v3.213H185.7v-3.213Zm8.52,12.883a.223.223,0,0,1-.221.22H183.826a.223.223,0,0,1-.221-.22v-7.5h0a.223.223,0,0,1,.221-.22H194a.223.223,0,0,1,.221.22Z" transform="translate(-181.653 -123.258)" fill="#ffa726"/>
      </g>
    </g>
    <g id="Group_92336" data-name="Group 92336" transform="translate(47.095 24.378)">
      <g id="Group_92335" data-name="Group 92335">
        <path id="Path_104071" data-name="Path 104071" d="M243.383,249.64a1.364,1.364,0,0,0-.977,2.317v.956a.977.977,0,1,0,1.953,0v-.956a1.364,1.364,0,0,0-.977-2.317Z" transform="translate(-242.018 -249.64)" fill="#ffa726"/>
      </g>
    </g>
  </g>
</svg>
