<svg xmlns="http://www.w3.org/2000/svg" width="100" height="100" viewBox="0 0 100 100">
  <g id="t1-ic9" transform="translate(5750 7902)">
    <circle id="Ellipse_4086" data-name="Ellipse 4086" cx="50" cy="50" r="50" transform="translate(-5750 -7902)" fill="#ffca28"/>
    <g id="Group_92395" data-name="Group 92395" transform="translate(12.167 149.167)">
      <rect id="Rectangle_31959" data-name="Rectangle 31959" width="73.975" height="75.15" transform="translate(-5750.478 -8037.536)" fill="#f3f9ff"/>
      <circle id="Ellipse_4085" data-name="Ellipse 4085" cx="24.071" cy="24.071" r="24.071" transform="translate(-5717.599 -8004.658)" fill="#4dd0e1"/>
      <g id="calculadora" transform="translate(-5754 -8040.667)">
        <path id="Path_104718" data-name="Path 104718" d="M81.534,89.981h3.379V93.36a2.534,2.534,0,1,0,5.068,0V89.981H93.36a2.534,2.534,0,1,0,0-5.068H89.981V81.534a2.534,2.534,0,1,0-5.068,0v3.379H81.534a2.534,2.534,0,1,0,0,5.068Z" transform="translate(-65.653 -65.653)" fill="#12263f"/>
        <path id="Path_104719" data-name="Path 104719" d="M314.534,119.068h10.137a2.534,2.534,0,1,0,0-5.068H314.534a2.534,2.534,0,0,0,0,5.068Z" transform="translate(-259.289 -94.74)" fill="#12263f"/>
        <path id="Path_104720" data-name="Path 104720" d="M321.36,367H309.534a2.534,2.534,0,1,0,0,5.068H321.36a2.534,2.534,0,1,0,0-5.068Z" transform="translate(-255.134 -304.997)" fill="#12263f"/>
        <path id="Path_104721" data-name="Path 104721" d="M321.36,317H309.534a2.534,2.534,0,1,0,0,5.068H321.36a2.534,2.534,0,0,0,0-5.068Z" transform="translate(-255.134 -263.444)" fill="#12263f"/>
        <path id="Path_104722" data-name="Path 104722" d="M101.773,317.742a2.534,2.534,0,0,0-3.584,0l-2.432,2.432-2.432-2.432a2.534,2.534,0,1,0-3.584,3.584l2.432,2.432-2.432,2.432a2.534,2.534,0,1,0,3.584,3.584l2.432-2.432,2.432,2.432a2.534,2.534,0,0,0,3.584-3.584l-2.432-2.432,2.432-2.432A2.534,2.534,0,0,0,101.773,317.742Z" transform="translate(-73.963 -263.444)" fill="#12263f"/>
        <path id="Path_104723" data-name="Path 104723" d="M82.108,45.813V7.6a7.611,7.611,0,0,0-7.6-7.6H7.6A7.611,7.611,0,0,0,0,7.6v66.9a7.611,7.611,0,0,0,7.6,7.6h38.21A26.174,26.174,0,0,0,82.108,45.813ZM77.039,7.6V40.18a26.134,26.134,0,0,0-33.451,0V5.068H74.505A2.537,2.537,0,0,1,77.039,7.6ZM7.6,5.068H38.52V38.52H5.068V7.6A2.537,2.537,0,0,1,7.6,5.068ZM5.068,74.505V43.588H38.52v2.225A26.132,26.132,0,0,0,40.18,77.039H7.6A2.537,2.537,0,0,1,5.068,74.505Zm55.245,6.927A21.118,21.118,0,1,1,81.432,60.314,21.142,21.142,0,0,1,60.314,81.432Z" fill="#12263f"/>
      </g>
    </g>
  </g>
</svg>
