<svg id="t1-logo" xmlns="http://www.w3.org/2000/svg" width="117.555" height="127.297" viewBox="0 0 117.555 127.297">
  <path id="Path_102967" data-name="Path 102967" d="M14.205,3.827A11.928,11.928,0,0,1,23.018.01c3.966.013,7.934-.035,11.9.025Q57.362,28.184,79.891,56.261c.923,1.115,1.758,2.309,2.769,3.351q.024-29.774-.013-59.546c3.959-.132,7.925-.019,11.887-.06a11.938,11.938,0,0,1,12,12.016q-.009,11.8,0,23.607a11.985,11.985,0,0,0,3.09,8.211,12.189,12.189,0,0,0,7.934,3.925,12.168,12.168,0,0,0-7.468,3.44,11.911,11.911,0,0,0-3.55,8.366c-.019,8.082,0,16.164-.009,24.247a11.939,11.939,0,0,1-12,11.708c-3.966-.019-7.934.031-11.9-.028Q60.173,67.348,37.643,39.259c-.917-1.118-1.767-2.29-2.753-3.351q-.033,29.784.006,59.568c-3.962.107-7.925.016-11.887.05A11.937,11.937,0,0,1,11.021,83.834C11,75.641,11.043,67.452,11,59.263A12,12,0,0,0,0,47.785a12.426,12.426,0,0,0,7.465-3.458,11.926,11.926,0,0,0,3.547-8.366c.016-7.981,0-15.966,0-23.947A11.918,11.918,0,0,1,14.205,3.827Z" transform="translate(0 0)" fill="#3c5afd"/>
  <path id="Path_102968" data-name="Path 102968" d="M1.7,1.216A6.72,6.72,0,0,1,8.026.444a4.341,4.341,0,0,1,2.759,3.537c-.665.044-1.326.066-1.987.082A2.785,2.785,0,0,0,5.884,2.016c-1.238-.06-2.964.107-3.411,1.49-.365.835.356,1.616,1.083,1.918,2,.866,4.369.759,6.2,2.054a3.579,3.579,0,0,1,.74,5.052A5.662,5.662,0,0,1,6.186,14.5a6.356,6.356,0,0,1-5.175-1.764A5.038,5.038,0,0,1,0,10.246c.655-.009,1.313-.009,1.972-.006C2.372,12.5,5.15,12.75,6.98,12.4c.986-.211,2.164-.844,2.227-1.972A1.654,1.654,0,0,0,8.095,8.763C5.978,7.84,3.418,8.032,1.553,6.529A3.511,3.511,0,0,1,1.7,1.216Z" transform="translate(60.639 109.013)" fill="#3c5afd"/>
  <path id="Path_102969" data-name="Path 102969" d="M0,.009,2.009,0Q5.77,5.24,9.534,10.473C9.59,6.983,9.543,3.5,9.559.006c.665,0,1.329,0,2,0q0,6.926,0,13.856-1,0-2,.009Q5.787,8.641,2.025,3.4c-.06,3.487-.009,6.973-.025,10.46-.668,0-1.336,0-2,0Q0,6.934,0,.009Z" transform="translate(10.946 109.337)" fill="#3c5afd"/>
  <path id="Path_102970" data-name="Path 102970" d="M1.759.368Q2.751.175,3.746,0c0,1.25.006,2.5-.013,3.758.671.022,1.342.044,2.013.082-.035.655-.057,1.31-.088,1.969Q4.7,5.789,3.746,5.78c.054,1.591-.113,3.2.088,4.784.2.885,1.121,1.184,1.871,1.465,0,.614.006,1.232.013,1.849A3.9,3.9,0,0,1,1.8,10.454c-.12-1.559,0-3.121-.066-4.68L0,5.792c0-.668,0-1.336,0-2,.58,0,1.165,0,1.748,0C1.746,2.649,1.746,1.509,1.759.368Z" transform="translate(32.614 109.334)" fill="#3c5afd"/>
  <path id="Path_102971" data-name="Path 102971" d="M0,0C.666,0,1.334,0,2,0Q2,1,2,2H0C0,1.331,0,.666,0,0Z" transform="translate(39.402 109.342)" fill="#3c5afd"/>
  <path id="Path_102972" data-name="Path 102972" d="M0,0C.667,0,1.332,0,2,0V2Q1,2,0,2,0,1,0,0Z" transform="translate(88.222 109.342)" fill="#3c5afd"/>
  <path id="Path_102973" data-name="Path 102973" d="M1.76.372C2.418.242,3.079.117,3.744,0c.006,1.25.009,2.5-.009,3.758.665.025,1.332.041,2,.072-.028.655-.044,1.313-.066,1.972-.646-.009-1.285-.016-1.924-.019a47.707,47.707,0,0,0,.094,4.794c.2.879,1.121,1.175,1.868,1.452,0,.617,0,1.238,0,1.858a3.929,3.929,0,0,1-3.918-3.449c-.117-1.553,0-3.112-.063-4.668C1.152,5.78.575,5.786.005,5.8Q0,4.789,0,3.789q.869,0,1.748,0C1.747,2.649,1.747,1.509,1.76.372Z" transform="translate(101.278 109.334)" fill="#3c5afd"/>
  <path id="Path_102974" data-name="Path 102974" d="M1.013.7C2.692.1,4.6-.354,6.317.376A3.5,3.5,0,0,1,8.585,3.444c.057,2.211,0,4.425.019,6.64-.674,0-1.345,0-2.013,0l.063-.945c-1.682,1.8-5.1,1.729-6.312-.554-.986-1.707.3-3.868,2.085-4.325a32.234,32.234,0,0,1,4.277-.2c-.12-.617-.23-1.332-.844-1.657C4.5,1.586,2.84,2.147,1.438,2.575Q1.2,1.639,1.013.7m.954,6.255c.287,1.632,2.51,1.673,3.745,1.194,1.087-.334.895-1.553.932-2.441C5.1,5.747,2.752,5.189,1.968,6.956Z" transform="translate(23.555 113.118)" fill="#3c5afd"/>
  <path id="Path_102975" data-name="Path 102975" d="M2.075.833A4.266,4.266,0,0,1,7.76,1.4,6.315,6.315,0,0,1,9.269,5.983C6.853,6,4.434,5.971,2.018,6a3.312,3.312,0,0,0,1.8,2.265,2.97,2.97,0,0,0,3.118-.954c.532.356,1.068.715,1.606,1.071A4.654,4.654,0,0,1,1.882,9.426,5.657,5.657,0,0,1,2.075.833M2.015,4.4q2.57.024,5.137,0c-.328-1.244-1.336-2.583-2.769-2.4C3.1,2.1,2.364,3.3,2.015,4.4Z" transform="translate(51.059 113.121)" fill="#3c5afd"/>
  <path id="Path_102976" data-name="Path 102976" d="M.373,3.2A4.866,4.866,0,0,1,5.063,0,5.132,5.132,0,0,1,8.957,1.932c-.532.4-1.071.784-1.616,1.162a3.085,3.085,0,0,0-3.748-.756,3.393,3.393,0,0,0,0,5.742,3.1,3.1,0,0,0,3.742-.75C7.886,7.7,8.443,8.084,9,8.465A5.168,5.168,0,0,1,2.925,9.983,5.362,5.362,0,0,1,.373,3.2Z" transform="translate(72.462 113.112)" fill="#3c5afd"/>
  <path id="Path_102977" data-name="Path 102977" d="M1.969,1.54A4.829,4.829,0,0,1,5.462,0c0,.665,0,1.332,0,2-1.392-.035-3.071.5-3.339,2.066A59.842,59.842,0,0,0,2,10.133c-.668,0-1.332,0-2,0V.368c.668,0,1.336,0,2.006,0C1.994.759,1.978,1.15,1.969,1.54Z" transform="translate(82.24 113.07)" fill="#3c5afd"/>
  <path id="Path_102978" data-name="Path 102978" d="M1.953,1.548A4.469,4.469,0,0,1,4.671.036,3.9,3.9,0,0,1,8.1,1.346a5.946,5.946,0,0,1,.8,6.586,4.243,4.243,0,0,1-3.877,2.476A4.194,4.194,0,0,1,1.953,8.861c.088,1.773.028,3.547.044,5.323-.668,0-1.332,0-2,0V.326H2.013c-.022.406-.041.816-.06,1.222m1.981.573c-2.573.964-2.58,5.219,0,6.173,1.713.63,3.4-.894,3.578-2.561C7.928,3.753,6.063,1.352,3.934,2.121Z" transform="translate(92.005 113.112)" fill="#3c5afd"/>
  <path id="Path_102979" data-name="Path 102979" d="M0,0C.665,0,1.329,0,2,0q0,4.88,0,9.764c-.668,0-1.332,0-2,0Z" transform="translate(39.404 113.437)" fill="#3c5afd"/>
  <path id="Path_102980" data-name="Path 102980" d="M0,.006c.718,0,1.436,0,2.158.016q1.29,3.458,2.627,6.9c.86-2.3,1.767-4.58,2.6-6.889C8.1.013,8.822,0,9.55,0,8.363,3.254,7.065,6.463,5.9,9.723c-.724.035-1.446.054-2.167.069C2.463,6.542,1.241,3.269,0,.006Z" transform="translate(41.908 113.432)" fill="#3c5afd"/>
  <path id="Path_102981" data-name="Path 102981" d="M0,0C.665,0,1.329,0,2,0q0,4.88,0,9.764c-.668,0-1.332,0-2,0Z" transform="translate(88.225 113.437)" fill="#3c5afd"/>
</svg>
