<svg xmlns="http://www.w3.org/2000/svg" width="110" height="108.113" viewBox="0 0 110 108.113">
  <g id="t3-ic3" transform="translate(-1873 4731)">
    <circle id="Ellipse_4090" data-name="Ellipse 4090" cx="29.27" cy="29.27" r="29.27" transform="translate(1900.604 -4681.427)" fill="#4dd0e1"/>
    <path id="Path_104736" data-name="Path 104736" d="M109.479,86.312H13.041a5.168,5.168,0,0,0-5.076,5.414l4.4,59.217a5.026,5.026,0,0,0,5.076,4.737h87.81a5.026,5.026,0,0,0,5.076-4.737l4.4-59.217A5.206,5.206,0,0,0,109.479,86.312Z" transform="translate(1866.753 -4799.716)" fill="#ffa726"/>
    <path id="Path_104737" data-name="Path 104737" d="M99,151.018H11.023a6.811,6.811,0,0,1-6.768-6.26L.026,85.541a6.372,6.372,0,0,1,1.861-5.076,6.508,6.508,0,0,1,4.907-2.03h96.439a6.657,6.657,0,0,1,4.907,2.2A7.812,7.812,0,0,1,110,85.71l-4.4,59.217A6.635,6.635,0,0,1,99,151.018ZM6.793,81.819a3.443,3.443,0,0,0-2.538,1.015,2.792,2.792,0,0,0-.846,2.538l4.4,59.217a3.338,3.338,0,0,0,3.384,3.045H99a3.462,3.462,0,0,0,3.384-3.045l4.23-59.217a3.323,3.323,0,0,0-.846-2.538,3.443,3.443,0,0,0-2.538-1.015Z" transform="translate(1873 -4793.531)" fill="#12263f"/>
    <path id="Path_104738" data-name="Path 104738" d="M52.059,177.358l-3.891-52.449H137.5l-3.891,52.449Z" transform="translate(1835.178 -4830.022)" fill="#fff"/>
    <path id="Path_104739" data-name="Path 104739" d="M71.93,18.191l-3.553-5.922H43.844l-3.553,15.9h92.717l-1.692-9.982Z" transform="translate(1841.363 -4741.577)" fill="#e1e6e8"/>
    <path id="Path_104740" data-name="Path 104740" d="M126.58,23.679H33.863A1.539,1.539,0,0,1,32.51,23a1.316,1.316,0,0,1-.338-1.354l3.553-15.9a1.648,1.648,0,0,1,1.692-1.354H61.949a1.507,1.507,0,0,1,1.354.846l3.215,5.076h58.371a1.648,1.648,0,0,1,1.692,1.354l1.692,9.982A1.824,1.824,0,0,1,127.934,23,2.09,2.09,0,0,1,126.58,23.679ZM35.894,20.3H124.55l-1.015-6.6H65.5a1.507,1.507,0,0,1-1.354-.846L60.934,7.775H38.77Z" transform="translate(1847.791 -4735.391)" fill="#12263f"/>
    <path id="Path_104741" data-name="Path 104741" d="M206.144,268.5c-10.659,3.045-21.995-3.384-21.995-3.384s-11.336,6.429-21.995,3.384c0,0-2.369,37.9,21.995,42.3C208.513,306.4,206.144,268.5,206.144,268.5Z" transform="translate(1745.724 -4940.116)" fill="#fff"/>
    <path id="Path_104742" data-name="Path 104742" d="M177.815,307.852h-.338c-25.548-4.568-23.518-42.467-23.348-43.99a1.424,1.424,0,0,1,.677-1.184,1.325,1.325,0,0,1,1.354-.169,20.517,20.517,0,0,0,5.753.846,34.237,34.237,0,0,0,14.889-3.891,1.537,1.537,0,0,1,1.692,0s7.106,3.891,14.889,3.891a21.49,21.49,0,0,0,5.753-.846,1.8,1.8,0,0,1,1.354.169,1.713,1.713,0,0,1,.677,1.184c.169,1.692,2.2,39.421-23.349,43.99Zm-20.472-41.79c0,7.614,1.015,34.684,20.3,38.406,19.288-3.722,20.472-30.793,20.3-38.406a20.793,20.793,0,0,1-4.568.338c-7.106,0-13.535-2.876-15.735-3.891a36.482,36.482,0,0,1-15.735,3.891A41.466,41.466,0,0,1,157.343,266.062Z" transform="translate(1752.059 -4935.477)" fill="#12263f"/>
    <path id="Path_104743" data-name="Path 104743" d="M205.408,328.719c-12.351-3.215-15.566-19.8-16.242-29.947a46.96,46.96,0,0,0,16.242-3.722,46.956,46.956,0,0,0,16.242,3.722C220.974,308.924,217.928,325.335,205.408,328.719Z" transform="translate(1724.466 -4963.618)" fill="#ffca28"/>
    <g id="Group_92422" data-name="Group 92422" transform="translate(1914.985 -4694.793)">
      <rect id="Rectangle_31974" data-name="Rectangle 31974" width="3.384" height="3.384" transform="translate(0 0)" fill="#12263f"/>
      <rect id="Rectangle_31975" data-name="Rectangle 31975" width="3.384" height="3.384" transform="translate(11.336 0)" fill="#12263f"/>
      <rect id="Rectangle_31976" data-name="Rectangle 31976" width="3.384" height="3.384" transform="translate(22.671 0)" fill="#12263f"/>
    </g>
    <g id="Group_92424" data-name="Group 92424" transform="translate(1922.502 -4662.696)">
      <g id="Group_92334" data-name="Group 92334" transform="translate(0 0)">
        <g id="Group_92333" data-name="Group 92333" transform="translate(0)">
          <path id="Path_104070" data-name="Path 104070" d="M193.981,131.572v-3.189a5.125,5.125,0,0,0-10.25,0v3.189a2.159,2.159,0,0,0-2.078,2.154v7.438a2.159,2.159,0,0,0,2.156,2.156H193.9a2.159,2.159,0,0,0,2.156-2.156v-7.438A2.158,2.158,0,0,0,193.981,131.572Zm-8.312-3.189a3.187,3.187,0,0,1,6.375,0v3.187h-6.375v-3.187Zm8.453,12.781a.222.222,0,0,1-.219.219H183.809a.222.222,0,0,1-.219-.219v-7.438h0a.222.222,0,0,1,.219-.219H193.9a.222.222,0,0,1,.219.219Z" transform="translate(-181.653 -123.258)" fill="#12263f"/>
        </g>
      </g>
      <g id="Group_92336" data-name="Group 92336" transform="translate(5.848 12.244)">
        <g id="Group_92335" data-name="Group 92335">
          <path id="Path_104071" data-name="Path 104071" d="M243.373,249.64a1.353,1.353,0,0,0-.969,2.3v.948a.969.969,0,1,0,1.938,0v-.948a1.353,1.353,0,0,0-.969-2.3Z" transform="translate(-242.018 -249.64)" fill="#12263f"/>
        </g>
      </g>
    </g>
  </g>
</svg>
