<svg xmlns="http://www.w3.org/2000/svg" width="400" height="340" viewBox="0 0 400 340">
  <g id="t3-i6" transform="translate(1234.545 -3294.714)">
    <path id="Path_104546" data-name="Path 104546" d="M-1162.719,3521.974h-12.627c-24.025,0-43.687,25.292-43.744,56.233v.274c.058,30.941,19.72,56.234,43.744,56.234H-910.5c38.962,0,70.837-41.077,70.837-91.278h0c0-50.2-31.875-91.278-70.837-91.278-16.473,0-29.95-17.369-29.95-38.6s-1.314-38.594,15.159-38.594h0c17.129,0,31.142-18.057,31.142-40.126h0c0-22.069-14.014-40.126-31.142-40.126H-994c-16.725.588-30.416,7-33.6,19.18-3.345,12.792-20.718,13.823-20.718,13.823-6.439.713-28.688-1.189-41.471,42.887-7.462,28.538-64.708,30.841-64.708,30.841h-10.946c-13.112,0-23.839,13.822-23.839,30.718s10.727,30.717,23.839,30.717h2.73c12.609,0,22.928,13.3,22.928,29.546s-10.319,29.547-22.928,29.547" transform="translate(4.428 0)" fill="#e7eff9" fill-rule="evenodd"/>
    <g id="Group_92389" data-name="Group 92389" transform="translate(-1234.545 3344.294)">
      <path id="Path_104547" data-name="Path 104547" d="M-1115.7,3518.747c-1.384,29.77-5.047,37.3-30.43,54.262h112.523c-25.383-16.964-29.046-24.492-30.43-54.262l-25.831-2.419Z" transform="translate(1259.878 -3283.348)" fill="#b1d2fc" fill-rule="evenodd"/>
      <path id="Path_104548" data-name="Path 104548" d="M-1214.828,3333.6H-912.3c10.844,0,19.716,9.79,19.716,21.755v192.487h0v2.77c0,11.963-8.872,21.753-19.716,21.753h-302.531c-10.845,0-19.717-9.789-19.717-21.753V3355.354c0-11.965,8.872-21.755,19.717-21.755" transform="translate(1234.545 -3333.6)" fill="#b1d2fc" fill-rule="evenodd"/>
      <path id="Path_104549" data-name="Path 104549" d="M-1226.922,3342.5h322.1a.256.256,0,0,1,.241.266v191.1h-322.585v-191.1a.255.255,0,0,1,.241-.266" transform="translate(1236.66 -3331.153)" fill="#2a4589"/>
      <rect id="Rectangle_31937" data-name="Rectangle 31937" width="60.976" height="35.862" transform="translate(28.989 155.756)" fill="#4d69af"/>
      <path id="Path_104550" data-name="Path 104550" d="M-1100.228,3502.316a6.325,6.325,0,0,1,6.353,6.3,6.325,6.325,0,0,1-6.353,6.3,6.325,6.325,0,0,1-6.353-6.3,6.325,6.325,0,0,1,6.353-6.3" transform="translate(1271.21 -3287.2)" fill="#7ba9e3" fill-rule="evenodd"/>
      <rect id="Rectangle_31938" data-name="Rectangle 31938" width="53.413" height="9.434" transform="translate(143.286 238.764)" fill="#7ba9e3"/>
      <path id="Rectangle_31939" data-name="Rectangle 31939" d="M-.108-.108H53.521v9.65H-.108ZM53.305.108H.108V9.326h53.2Z" transform="translate(143.286 238.764)" fill="#7ba9e3"/>
      <path id="Path_104551" data-name="Path 104551" d="M-1119.887,3477.6h87.538a1.788,1.788,0,0,0,1.791-1.775h0a1.787,1.787,0,0,0-1.791-1.774h-87.538a1.787,1.787,0,0,0-1.791,1.774h0a1.788,1.788,0,0,0,1.791,1.775" transform="translate(1266.884 -3294.976)" fill="#eb6502" fill-rule="evenodd"/>
      <path id="Path_104552" data-name="Path 104552" d="M-1044.312,3477.6h21.49a1.788,1.788,0,0,0,1.791-1.775h0a1.787,1.787,0,0,0-1.791-1.774h-21.49a1.788,1.788,0,0,0-1.791,1.774h0a1.789,1.789,0,0,0,1.791,1.775" transform="translate(1288.539 -3294.976)" fill="#fff" fill-rule="evenodd"/>
      <path id="Path_104553" data-name="Path 104553" d="M-1127.256,3471.536h21.489a1.788,1.788,0,0,0,1.791-1.775h0a1.788,1.788,0,0,0-1.791-1.775h-21.489a1.788,1.788,0,0,0-1.791,1.775h0a1.788,1.788,0,0,0,1.791,1.775" transform="translate(1264.773 -3296.642)" fill="#fff" fill-rule="evenodd"/>
      <path id="Path_104554" data-name="Path 104554" d="M-1119.887,3465.476h32.234a1.787,1.787,0,0,0,1.791-1.774h0a1.788,1.788,0,0,0-1.791-1.775h-32.234a1.788,1.788,0,0,0-1.791,1.775h0a1.787,1.787,0,0,0,1.791,1.774" transform="translate(1266.884 -3298.308)" fill="#fff" fill-rule="evenodd"/>
      <path id="Path_104555" data-name="Path 104555" d="M-1119.805,3459.417h26.441a1.788,1.788,0,0,0,1.791-1.775h0a1.788,1.788,0,0,0-1.791-1.775h-26.441a1.788,1.788,0,0,0-1.791,1.775h0a1.788,1.788,0,0,0,1.791,1.775" transform="translate(1266.908 -3299.975)" fill="#fff" fill-rule="evenodd"/>
      <path id="Path_104556" data-name="Path 104556" d="M-1119.805,3453.358h80.27a1.788,1.788,0,0,0,1.79-1.775h0a1.787,1.787,0,0,0-1.79-1.774h-80.27a1.787,1.787,0,0,0-1.791,1.774h0a1.788,1.788,0,0,0,1.791,1.775" transform="translate(1266.908 -3301.641)" fill="#fff" fill-rule="evenodd"/>
      <path id="Path_104557" data-name="Path 104557" d="M-1087.053,3465.476h21.068a1.787,1.787,0,0,0,1.791-1.774h0a1.789,1.789,0,0,0-1.791-1.775h-21.068a1.788,1.788,0,0,0-1.791,1.775h0a1.787,1.787,0,0,0,1.791,1.774" transform="translate(1276.292 -3298.308)" fill="#fff" fill-rule="evenodd"/>
      <path id="Path_104558" data-name="Path 104558" d="M-1093.235,3459.417h62.625a1.789,1.789,0,0,0,1.791-1.775h0a1.789,1.789,0,0,0-1.791-1.775h-62.625a1.788,1.788,0,0,0-1.791,1.775h0a1.788,1.788,0,0,0,1.791,1.775" transform="translate(1274.521 -3299.975)" fill="#eb6502" fill-rule="evenodd"/>
      <path id="Path_104559" data-name="Path 104559" d="M-1037.229,3459.417h16.8a1.788,1.788,0,0,0,1.791-1.775h0a1.788,1.788,0,0,0-1.791-1.775h-16.8a1.788,1.788,0,0,0-1.791,1.775h0a1.788,1.788,0,0,0,1.791,1.775" transform="translate(1290.568 -3299.975)" fill="#6cd6ff" fill-rule="evenodd"/>
      <path id="Path_104560" data-name="Path 104560" d="M-1127.256,3447.259h21.489a1.788,1.788,0,0,0,1.791-1.774h0a1.787,1.787,0,0,0-1.791-1.775h-21.489a1.788,1.788,0,0,0-1.791,1.775h0a1.788,1.788,0,0,0,1.791,1.774" transform="translate(1264.773 -3303.319)" fill="#fff" fill-rule="evenodd"/>
      <path id="Path_104561" data-name="Path 104561" d="M-1119.887,3394h32.234a1.788,1.788,0,0,0,1.791-1.775h0a1.788,1.788,0,0,0-1.791-1.775h-32.234a1.788,1.788,0,0,0-1.791,1.775h0a1.788,1.788,0,0,0,1.791,1.775" transform="translate(1266.884 -3317.965)" fill="#fff" fill-rule="evenodd"/>
      <path id="Path_104562" data-name="Path 104562" d="M-1119.805,3387.943h26.441a1.788,1.788,0,0,0,1.791-1.775h0a1.789,1.789,0,0,0-1.791-1.775h-26.441a1.788,1.788,0,0,0-1.791,1.775h0a1.787,1.787,0,0,0,1.791,1.775" transform="translate(1266.908 -3319.631)" fill="#fff" fill-rule="evenodd"/>
      <path id="Path_104563" data-name="Path 104563" d="M-1119.805,3381.883h80.27a1.787,1.787,0,0,0,1.79-1.775h0a1.787,1.787,0,0,0-1.79-1.774h-80.27a1.787,1.787,0,0,0-1.791,1.774h0a1.788,1.788,0,0,0,1.791,1.775" transform="translate(1266.908 -3321.298)" fill="#6cd6ff" fill-rule="evenodd"/>
      <path id="Path_104564" data-name="Path 104564" d="M-1087.053,3394h21.068a1.788,1.788,0,0,0,1.791-1.775h0a1.789,1.789,0,0,0-1.791-1.775h-21.068a1.788,1.788,0,0,0-1.791,1.775h0a1.788,1.788,0,0,0,1.791,1.775" transform="translate(1276.292 -3317.965)" fill="#fff" fill-rule="evenodd"/>
      <path id="Path_104565" data-name="Path 104565" d="M-1093.235,3387.943h62.625a1.788,1.788,0,0,0,1.791-1.775h0a1.789,1.789,0,0,0-1.791-1.775h-62.625a1.788,1.788,0,0,0-1.791,1.775h0a1.787,1.787,0,0,0,1.791,1.775" transform="translate(1274.521 -3319.631)" fill="#c84e96" fill-rule="evenodd"/>
      <path id="Path_104566" data-name="Path 104566" d="M-1037.229,3387.943h16.8a1.787,1.787,0,0,0,1.791-1.775h0a1.788,1.788,0,0,0-1.791-1.775h-16.8a1.789,1.789,0,0,0-1.791,1.775h0a1.788,1.788,0,0,0,1.791,1.775" transform="translate(1290.568 -3319.631)" fill="#fccf00" fill-rule="evenodd"/>
      <path id="Path_104567" data-name="Path 104567" d="M-1017.332,3387.943h16.8a1.787,1.787,0,0,0,1.791-1.775h0a1.788,1.788,0,0,0-1.791-1.775h-16.8a1.789,1.789,0,0,0-1.791,1.775h0a1.788,1.788,0,0,0,1.791,1.775" transform="translate(1296.269 -3319.631)" fill="#fff" fill-rule="evenodd"/>
      <path id="Path_104568" data-name="Path 104568" d="M-1119.479,3439.163h21.49a1.788,1.788,0,0,0,1.791-1.775h0a1.787,1.787,0,0,0-1.791-1.774h-21.49a1.787,1.787,0,0,0-1.79,1.774h0a1.788,1.788,0,0,0,1.79,1.775" transform="translate(1267.002 -3305.545)" fill="#fff" fill-rule="evenodd"/>
      <path id="Path_104569" data-name="Path 104569" d="M-1119.887,3433.1h32.234a1.788,1.788,0,0,0,1.791-1.775h0a1.788,1.788,0,0,0-1.791-1.775h-32.234a1.788,1.788,0,0,0-1.791,1.775h0a1.788,1.788,0,0,0,1.791,1.775" transform="translate(1266.884 -3307.212)" fill="#fff" fill-rule="evenodd"/>
      <path id="Path_104570" data-name="Path 104570" d="M-1119.805,3427.044h26.441a1.788,1.788,0,0,0,1.791-1.775h0a1.789,1.789,0,0,0-1.791-1.775h-26.441a1.789,1.789,0,0,0-1.791,1.775h0a1.787,1.787,0,0,0,1.791,1.775" transform="translate(1266.908 -3308.878)" fill="#fff" fill-rule="evenodd"/>
      <path id="Path_104571" data-name="Path 104571" d="M-1119.805,3420.984h34.687a1.787,1.787,0,0,0,1.791-1.775h0a1.788,1.788,0,0,0-1.791-1.775h-34.687a1.788,1.788,0,0,0-1.791,1.775h0a1.787,1.787,0,0,0,1.791,1.775" transform="translate(1266.908 -3310.544)" fill="#fccf00" fill-rule="evenodd"/>
      <path id="Path_104572" data-name="Path 104572" d="M-1087.053,3433.1h21.068a1.788,1.788,0,0,0,1.791-1.775h0a1.788,1.788,0,0,0-1.791-1.775h-21.068a1.788,1.788,0,0,0-1.791,1.775h0a1.788,1.788,0,0,0,1.791,1.775" transform="translate(1276.292 -3307.212)" fill="#fff" fill-rule="evenodd"/>
      <path id="Path_104573" data-name="Path 104573" d="M-1093.235,3427.044h62.625a1.788,1.788,0,0,0,1.791-1.775h0a1.79,1.79,0,0,0-1.791-1.775h-62.625a1.789,1.789,0,0,0-1.791,1.775h0a1.787,1.787,0,0,0,1.791,1.775" transform="translate(1274.521 -3308.878)" fill="#ef8200" fill-rule="evenodd"/>
      <path id="Path_104574" data-name="Path 104574" d="M-1037.229,3427.044h16.8a1.787,1.787,0,0,0,1.791-1.775h0a1.789,1.789,0,0,0-1.791-1.775h-16.8a1.79,1.79,0,0,0-1.791,1.775h0a1.788,1.788,0,0,0,1.791,1.775" transform="translate(1290.568 -3308.878)" fill="#fff" fill-rule="evenodd"/>
      <path id="Path_104575" data-name="Path 104575" d="M-1099.949,3375.615h62.625a1.788,1.788,0,0,0,1.791-1.775h0a1.788,1.788,0,0,0-1.791-1.775h-62.625a1.788,1.788,0,0,0-1.791,1.775h0a1.788,1.788,0,0,0,1.791,1.775" transform="translate(1272.597 -3323.022)" fill="#fff" fill-rule="evenodd"/>
      <path id="Path_104576" data-name="Path 104576" d="M-1043.943,3375.615h16.8a1.788,1.788,0,0,0,1.791-1.775h0a1.788,1.788,0,0,0-1.791-1.775h-16.8a1.788,1.788,0,0,0-1.791,1.775h0a1.788,1.788,0,0,0,1.791,1.775" transform="translate(1288.644 -3323.022)" fill="#fff" fill-rule="evenodd"/>
      <path id="Path_104577" data-name="Path 104577" d="M-1024.046,3375.615h16.8a1.788,1.788,0,0,0,1.791-1.775h0a1.788,1.788,0,0,0-1.791-1.775h-16.8a1.787,1.787,0,0,0-1.791,1.775h0a1.788,1.788,0,0,0,1.791,1.775" transform="translate(1294.345 -3323.022)" fill="#fff" fill-rule="evenodd"/>
      <path id="Path_104578" data-name="Path 104578" d="M-1099.949,3369.882h27.388a1.788,1.788,0,0,0,1.791-1.774h0a1.789,1.789,0,0,0-1.791-1.775h-27.388a1.788,1.788,0,0,0-1.791,1.775h0a1.787,1.787,0,0,0,1.791,1.774" transform="translate(1272.597 -3324.598)" fill="#c84e96" fill-rule="evenodd"/>
      <path id="Path_104579" data-name="Path 104579" d="M-1071.209,3369.882h42.978a1.787,1.787,0,0,0,1.791-1.774h0a1.788,1.788,0,0,0-1.791-1.775h-42.978a1.788,1.788,0,0,0-1.791,1.775h0a1.787,1.787,0,0,0,1.791,1.774" transform="translate(1280.832 -3324.598)" fill="#eb6502" fill-rule="evenodd"/>
      <path id="Path_104580" data-name="Path 104580" d="M-1029.267,3369.882h36.212a1.788,1.788,0,0,0,1.791-1.774h0a1.789,1.789,0,0,0-1.791-1.775h-36.212a1.789,1.789,0,0,0-1.791,1.775h0a1.788,1.788,0,0,0,1.791,1.774" transform="translate(1292.849 -3324.598)" fill="#fff" fill-rule="evenodd"/>
      <path id="Path_104581" data-name="Path 104581" d="M-1099.949,3414.939h62.625a1.788,1.788,0,0,0,1.791-1.774h0a1.788,1.788,0,0,0-1.791-1.775h-62.625a1.788,1.788,0,0,0-1.791,1.775h0a1.788,1.788,0,0,0,1.791,1.774" transform="translate(1272.597 -3312.207)" fill="#fff" fill-rule="evenodd"/>
      <path id="Path_104582" data-name="Path 104582" d="M-1043.943,3414.939h16.8a1.788,1.788,0,0,0,1.791-1.774h0a1.788,1.788,0,0,0-1.791-1.775h-16.8a1.788,1.788,0,0,0-1.791,1.775h0a1.788,1.788,0,0,0,1.791,1.774" transform="translate(1288.644 -3312.207)" fill="#fff" fill-rule="evenodd"/>
      <path id="Path_104583" data-name="Path 104583" d="M-1024.046,3414.939h16.8a1.788,1.788,0,0,0,1.791-1.774h0a1.788,1.788,0,0,0-1.791-1.775h-16.8a1.788,1.788,0,0,0-1.791,1.775h0a1.788,1.788,0,0,0,1.791,1.774" transform="translate(1294.345 -3312.207)" fill="#fff" fill-rule="evenodd"/>
      <path id="Path_104584" data-name="Path 104584" d="M-1099.949,3408.512h27.388a1.788,1.788,0,0,0,1.791-1.775h0a1.788,1.788,0,0,0-1.791-1.775h-27.388a1.787,1.787,0,0,0-1.791,1.775h0a1.788,1.788,0,0,0,1.791,1.775" transform="translate(1272.597 -3313.975)" fill="#fff" fill-rule="evenodd"/>
      <path id="Path_104585" data-name="Path 104585" d="M-1071.209,3408.512h42.978a1.788,1.788,0,0,0,1.791-1.775h0a1.787,1.787,0,0,0-1.791-1.775h-42.978a1.787,1.787,0,0,0-1.791,1.775h0a1.788,1.788,0,0,0,1.791,1.775" transform="translate(1280.832 -3313.975)" fill="#fff" fill-rule="evenodd"/>
      <path id="Path_104586" data-name="Path 104586" d="M-1029.267,3408.512h36.212a1.789,1.789,0,0,0,1.791-1.775h0a1.788,1.788,0,0,0-1.791-1.775h-36.212a1.788,1.788,0,0,0-1.791,1.775h0a1.788,1.788,0,0,0,1.791,1.775" transform="translate(1292.849 -3313.975)" fill="#fff" fill-rule="evenodd"/>
      <rect id="Rectangle_31940" data-name="Rectangle 31940" width="60.976" height="124.743" transform="translate(28.989 26.035)" fill="#4d69af"/>
      <path id="Path_104587" data-name="Path 104587" d="M-1087.035,3420.984h18.671a1.787,1.787,0,0,0,1.791-1.775h0a1.788,1.788,0,0,0-1.791-1.775h-18.671a1.788,1.788,0,0,0-1.791,1.775h0a1.787,1.787,0,0,0,1.791,1.775" transform="translate(1276.297 -3310.544)" fill="#ef8200" fill-rule="evenodd"/>
      <path id="Path_104588" data-name="Path 104588" d="M-1067.447,3420.984h18.672a1.788,1.788,0,0,0,1.791-1.775h0a1.789,1.789,0,0,0-1.791-1.775h-18.672a1.787,1.787,0,0,0-1.79,1.775h0a1.787,1.787,0,0,0,1.79,1.775" transform="translate(1281.91 -3310.544)" fill="#ef8200" fill-rule="evenodd"/>
      <path id="Path_104589" data-name="Path 104589" d="M-1127.256,3401.609h27.668a1.787,1.787,0,0,0,1.791-1.775h0a1.787,1.787,0,0,0-1.791-1.775h-27.668a1.787,1.787,0,0,0-1.791,1.775h0a1.787,1.787,0,0,0,1.791,1.775" transform="translate(1264.773 -3315.873)" fill="#fff" fill-rule="evenodd"/>
      <path id="Path_104590" data-name="Path 104590" d="M-1099.942,3401.609h18.671a1.787,1.787,0,0,0,1.791-1.775h0a1.787,1.787,0,0,0-1.791-1.775h-18.671a1.788,1.788,0,0,0-1.791,1.775h0a1.788,1.788,0,0,0,1.791,1.775" transform="translate(1272.599 -3315.873)" fill="#fff" fill-rule="evenodd"/>
      <path id="Path_104591" data-name="Path 104591" d="M-1078.889,3401.609h18.672a1.788,1.788,0,0,0,1.791-1.775h0a1.788,1.788,0,0,0-1.791-1.775h-18.672a1.788,1.788,0,0,0-1.791,1.775h0a1.788,1.788,0,0,0,1.791,1.775" transform="translate(1278.631 -3315.873)" fill="#fff" fill-rule="evenodd"/>
      <path id="Path_104592" data-name="Path 104592" d="M-1119.805,3375.615h17.591a1.788,1.788,0,0,0,1.791-1.775h0a1.788,1.788,0,0,0-1.791-1.775h-17.591a1.787,1.787,0,0,0-1.791,1.775h0a1.788,1.788,0,0,0,1.791,1.775" transform="translate(1266.908 -3323.022)" fill="#fff" fill-rule="evenodd"/>
      <path id="Path_104593" data-name="Path 104593" d="M-1133.7,3369.882h34.935a1.787,1.787,0,0,0,1.791-1.774h0a1.788,1.788,0,0,0-1.791-1.775H-1133.7a1.788,1.788,0,0,0-1.791,1.775h0a1.787,1.787,0,0,0,1.791,1.774" transform="translate(1262.927 -3324.598)" fill="#fff" fill-rule="evenodd"/>
      <path id="Path_104594" data-name="Path 104594" d="M-1133.7,3362.79h46.008a1.788,1.788,0,0,0,1.791-1.774h0a1.788,1.788,0,0,0-1.791-1.775H-1133.7a1.788,1.788,0,0,0-1.791,1.775h0a1.788,1.788,0,0,0,1.791,1.774" transform="translate(1262.927 -3326.548)" fill="#fff" fill-rule="evenodd"/>
      <path id="Path_104595" data-name="Path 104595" d="M-1148.473,3362.79h1.684a1.788,1.788,0,0,0,1.791-1.774h0a1.787,1.787,0,0,0-1.791-1.775h-1.684a1.788,1.788,0,0,0-1.791,1.775h0a1.789,1.789,0,0,0,1.791,1.774" transform="translate(1258.694 -3326.548)" fill="#718bc6" fill-rule="evenodd"/>
      <path id="Path_104596" data-name="Path 104596" d="M-1148.473,3369.882h1.684a1.787,1.787,0,0,0,1.791-1.774h0a1.788,1.788,0,0,0-1.791-1.775h-1.684a1.789,1.789,0,0,0-1.791,1.775h0a1.788,1.788,0,0,0,1.791,1.774" transform="translate(1258.694 -3324.598)" fill="#718bc6" fill-rule="evenodd"/>
      <path id="Path_104597" data-name="Path 104597" d="M-1148.721,3394h1.46a1.788,1.788,0,0,0,1.791-1.775h0a1.789,1.789,0,0,0-1.791-1.775h-1.46a1.788,1.788,0,0,0-1.791,1.775h0a1.788,1.788,0,0,0,1.791,1.775" transform="translate(1258.623 -3317.965)" fill="#718bc6" fill-rule="evenodd"/>
      <path id="Path_104598" data-name="Path 104598" d="M-1148.639,3387.943h1.355a1.788,1.788,0,0,0,1.791-1.775h0a1.789,1.789,0,0,0-1.791-1.775h-1.355a1.788,1.788,0,0,0-1.791,1.775h0a1.787,1.787,0,0,0,1.791,1.775" transform="translate(1258.646 -3319.631)" fill="#718bc6" fill-rule="evenodd"/>
      <path id="Path_104599" data-name="Path 104599" d="M-1148.639,3381.883h1.355a1.788,1.788,0,0,0,1.791-1.775h0a1.788,1.788,0,0,0-1.791-1.774h-1.355a1.787,1.787,0,0,0-1.791,1.774h0a1.788,1.788,0,0,0,1.791,1.775" transform="translate(1258.646 -3321.298)" fill="#718bc6" fill-rule="evenodd"/>
      <path id="Path_104600" data-name="Path 104600" d="M-1148.639,3375.615h1.355a1.788,1.788,0,0,0,1.791-1.775h0a1.788,1.788,0,0,0-1.791-1.775h-1.355a1.788,1.788,0,0,0-1.791,1.775h0a1.788,1.788,0,0,0,1.791,1.775" transform="translate(1258.646 -3323.022)" fill="#718bc6" fill-rule="evenodd"/>
      <path id="Path_104601" data-name="Path 104601" d="M-1148.56,3414.939h1.253a1.788,1.788,0,0,0,1.791-1.774h0a1.788,1.788,0,0,0-1.791-1.775h-1.253a1.788,1.788,0,0,0-1.791,1.775h0a1.788,1.788,0,0,0,1.791,1.774" transform="translate(1258.669 -3312.207)" fill="#718bc6" fill-rule="evenodd"/>
      <path id="Path_104602" data-name="Path 104602" d="M-1148.56,3408.512h1.253a1.788,1.788,0,0,0,1.791-1.775h0a1.788,1.788,0,0,0-1.791-1.775h-1.253a1.787,1.787,0,0,0-1.791,1.775h0a1.788,1.788,0,0,0,1.791,1.775" transform="translate(1258.669 -3313.975)" fill="#718bc6" fill-rule="evenodd"/>
      <path id="Path_104603" data-name="Path 104603" d="M-1148.553,3401.609h1.244a1.788,1.788,0,0,0,1.791-1.775h0a1.788,1.788,0,0,0-1.791-1.775h-1.244a1.787,1.787,0,0,0-1.791,1.775h0a1.787,1.787,0,0,0,1.791,1.775" transform="translate(1258.671 -3315.873)" fill="#718bc6" fill-rule="evenodd"/>
      <path id="Path_104604" data-name="Path 104604" d="M-1148.139,3439.163h.711a1.789,1.789,0,0,0,1.791-1.775h0a1.788,1.788,0,0,0-1.791-1.774h-.711a1.787,1.787,0,0,0-1.791,1.774h0a1.789,1.789,0,0,0,1.791,1.775" transform="translate(1258.789 -3305.545)" fill="#718bc6" fill-rule="evenodd"/>
      <path id="Path_104605" data-name="Path 104605" d="M-1148.56,3433.1h1.253a1.789,1.789,0,0,0,1.791-1.775h0a1.789,1.789,0,0,0-1.791-1.775h-1.253a1.788,1.788,0,0,0-1.791,1.775h0a1.788,1.788,0,0,0,1.791,1.775" transform="translate(1258.669 -3307.212)" fill="#718bc6" fill-rule="evenodd"/>
      <path id="Path_104606" data-name="Path 104606" d="M-1148.476,3427.044h1.145a1.788,1.788,0,0,0,1.791-1.775h0a1.79,1.79,0,0,0-1.791-1.775h-1.145a1.789,1.789,0,0,0-1.791,1.775h0a1.787,1.787,0,0,0,1.791,1.775" transform="translate(1258.693 -3308.878)" fill="#718bc6" fill-rule="evenodd"/>
      <path id="Path_104607" data-name="Path 104607" d="M-1148.476,3420.984h1.145a1.788,1.788,0,0,0,1.791-1.775h0a1.789,1.789,0,0,0-1.791-1.775h-1.145a1.788,1.788,0,0,0-1.791,1.775h0a1.787,1.787,0,0,0,1.791,1.775" transform="translate(1258.693 -3310.544)" fill="#718bc6" fill-rule="evenodd"/>
      <path id="Path_104608" data-name="Path 104608" d="M-1147.993,3471.536h.524a1.788,1.788,0,0,0,1.791-1.775h0a1.789,1.789,0,0,0-1.791-1.775h-.524a1.788,1.788,0,0,0-1.791,1.775h0a1.788,1.788,0,0,0,1.791,1.775" transform="translate(1258.831 -3296.642)" fill="#718bc6" fill-rule="evenodd"/>
      <path id="Path_104609" data-name="Path 104609" d="M-1147.993,3465.476h.524a1.788,1.788,0,0,0,1.791-1.774h0a1.789,1.789,0,0,0-1.791-1.775h-.524a1.788,1.788,0,0,0-1.791,1.775h0a1.787,1.787,0,0,0,1.791,1.774" transform="translate(1258.831 -3298.308)" fill="#718bc6" fill-rule="evenodd"/>
      <path id="Path_104610" data-name="Path 104610" d="M-1148.045,3459.417h.591a1.788,1.788,0,0,0,1.791-1.775h0a1.788,1.788,0,0,0-1.791-1.775h-.591a1.788,1.788,0,0,0-1.791,1.775h0a1.788,1.788,0,0,0,1.791,1.775" transform="translate(1258.816 -3299.975)" fill="#718bc6" fill-rule="evenodd"/>
      <path id="Path_104611" data-name="Path 104611" d="M-1148.139,3453.358h.711a1.789,1.789,0,0,0,1.791-1.775h0a1.788,1.788,0,0,0-1.791-1.774h-.711a1.787,1.787,0,0,0-1.791,1.774h0a1.788,1.788,0,0,0,1.791,1.775" transform="translate(1258.789 -3301.641)" fill="#718bc6" fill-rule="evenodd"/>
      <path id="Path_104612" data-name="Path 104612" d="M-1148.139,3447.259h.711a1.789,1.789,0,0,0,1.791-1.774h0a1.788,1.788,0,0,0-1.791-1.775h-.711a1.788,1.788,0,0,0-1.791,1.775h0a1.788,1.788,0,0,0,1.791,1.774" transform="translate(1258.789 -3303.319)" fill="#718bc6" fill-rule="evenodd"/>
      <path id="Path_104613" data-name="Path 104613" d="M-1065.194,3433.1h21.068a1.787,1.787,0,0,0,1.79-1.775h0a1.788,1.788,0,0,0-1.79-1.775h-21.068a1.788,1.788,0,0,0-1.791,1.775h0a1.788,1.788,0,0,0,1.791,1.775" transform="translate(1282.555 -3307.212)" fill="#fff" fill-rule="evenodd"/>
      <path id="Path_104614" data-name="Path 104614" d="M-1015.37,3427.044h16.8a1.788,1.788,0,0,0,1.791-1.775h0a1.79,1.79,0,0,0-1.791-1.775h-16.8a1.789,1.789,0,0,0-1.791,1.775h0a1.787,1.787,0,0,0,1.791,1.775" transform="translate(1296.831 -3308.878)" fill="#fff" fill-rule="evenodd"/>
    </g>
    <path id="Path_104615" data-name="Path 104615" d="M-965.536,3359.8a14.091,14.091,0,0,1,14.154,14.026,14.091,14.091,0,0,1-14.154,14.027,14.091,14.091,0,0,1-14.153-14.027,14.09,14.09,0,0,1,14.153-14.026" transform="translate(73.023 17.901)" fill="#e7eff9" fill-rule="evenodd"/>
    <path id="Path_104616" data-name="Path 104616" d="M-917.334,3387.7h-67.75a6.533,6.533,0,0,0-6.543,6.485V3412a6.533,6.533,0,0,0,6.543,6.485h14.433v6.451c0,2.535,1.609,2.847,3.8,1.9l18.749-8.079a2.954,2.954,0,0,0,.4-.278h30.371a6.534,6.534,0,0,0,6.543-6.485v-17.816a6.534,6.534,0,0,0-6.543-6.485" transform="translate(69.602 25.573)" fill="#e7eff9"/>
    <g id="Group_92390" data-name="Group 92390" transform="translate(-899.873 3387.447)">
      <path id="Path_104617" data-name="Path 104617" d="M-969.954,3368.808v1.5a.321.321,0,0,1-.06.182.363.363,0,0,1-.147.126l-1.626.7c-.063.031-.094.062-.094.093s.031.059.094.083l1.617.69a.427.427,0,0,1,.156.135.324.324,0,0,1,.06.182v1.509a.144.144,0,0,1-.06.131.157.157,0,0,1-.147,0l-4.051-1.892a.373.373,0,0,1-.14-.135.324.324,0,0,1-.057-.182v-1.053a.35.35,0,0,1,.057-.186.306.306,0,0,1,.14-.13l4.051-1.882a.132.132,0,0,1,.147-.005A.154.154,0,0,1-969.954,3368.808Z" transform="translate(974.409 -3367.113)" fill="#1f3e7a"/>
      <path id="Path_104618" data-name="Path 104618" d="M-970.737,3376.072l3.9-8.43a.385.385,0,0,1,.136-.14.345.345,0,0,1,.183-.056h1.392a.163.163,0,0,1,.136.056.122.122,0,0,1-.005.14l-3.9,8.43a.348.348,0,0,1-.131.145.353.353,0,0,1-.189.061h-1.391a.142.142,0,0,1-.131-.061A.146.146,0,0,1-970.737,3376.072Z" transform="translate(975.456 -3367.445)" fill="#1f3e7a"/>
      <path id="Path_104619" data-name="Path 104619" d="M-961.769,3370.876v1.053a.312.312,0,0,1-.062.182.415.415,0,0,1-.145.135l-4.042,1.892a.154.154,0,0,1-.145,0,.142.142,0,0,1-.062-.131V3372.5a.316.316,0,0,1,.062-.182.44.44,0,0,1,.145-.135l1.617-.69c.055-.024.084-.052.084-.083s-.028-.063-.084-.093l-1.617-.7a.352.352,0,0,1-.145-.126.313.313,0,0,1-.062-.182v-1.5a.151.151,0,0,1,.062-.135.129.129,0,0,1,.145.005l4.042,1.882a.336.336,0,0,1,.145.13A.337.337,0,0,1-961.769,3370.876Z" transform="translate(976.754 -3367.113)" fill="#1f3e7a"/>
    </g>
    <path id="Path_104620" data-name="Path 104620" d="M-939.042,3521.541l-1.959.251,6.112,48.737a.984.984,0,0,0,1.1.847l.111-.014a.877.877,0,0,0,.76-.973Z" transform="translate(84.108 62.381)" fill="#b2d2ff" fill-rule="evenodd"/>
    <path id="Path_104621" data-name="Path 104621" d="M-966.461,3521.483h-1.975v49.128a.986.986,0,0,0,.988.979h.112a.873.873,0,0,0,.875-.867Z" transform="translate(76.247 62.365)" fill="#b2d2ff" fill-rule="evenodd"/>
    <path id="Path_104622" data-name="Path 104622" d="M-989.1,3521.483h-1.975v49.128a.986.986,0,0,0,.988.979h.112a.873.873,0,0,0,.875-.867Z" transform="translate(69.76 62.365)" fill="#b2d2ff" fill-rule="evenodd"/>
    <path id="Path_104623" data-name="Path 104623" d="M-956.308,3521.541l-1.958.251,6.112,48.737a.983.983,0,0,0,1.1.847l.112-.014a.877.877,0,0,0,.76-.973Z" transform="translate(79.161 62.381)" fill="#b2d2ff" fill-rule="evenodd"/>
    <path id="Path_104624" data-name="Path 104624" d="M-967.641,3475.406c-2.583,8.146-6.345,16.054-14.786,20.895-7.418,1.888-22.791,1.376-22.346-.433.411-1.67,2.984-3,4.392-2.131,1.531.941,16.407-10.374,16.59-10.417,1.27-.3,5.037-18.318,12.531-21.455.844-.688,5.726,9.458,3.619,13.541" transform="translate(65.833 45.96)" fill="#fbb44a" fill-rule="evenodd"/>
    <path id="Path_104625" data-name="Path 104625" d="M-977.942,3482.889a24.472,24.472,0,0,1-4.881,6.058c1.633-3.353,5.062-17.947,5.062-17.947Z" transform="translate(72.125 48.481)" fill="#ef8200" fill-rule="evenodd"/>
    <path id="Path_104626" data-name="Path 104626" d="M-958.483,3516.782h-33.854a3.682,3.682,0,0,0-3.687,3.654h0a3.681,3.681,0,0,0,3.687,3.655h33.854a3.681,3.681,0,0,0,3.687-3.655h0a3.682,3.682,0,0,0-3.687-3.654" transform="translate(68.343 61.072)" fill="#b2d2ff" fill-rule="evenodd"/>
    <path id="Path_104627" data-name="Path 104627" d="M-955.48,3472.236H-921l-8.673,56.933-34.48.032h0a2.442,2.442,0,0,1-.4-.031h0a2.447,2.447,0,0,1-2.147-2.926l8.27-51.88a2.755,2.755,0,0,1,2.953-2.127Z" transform="translate(76.734 48.821)" fill="#b2d2ff" fill-rule="evenodd"/>
    <path id="Path_104628" data-name="Path 104628" d="M-921.874,3474.363l-8.761,54.67h-38.259a3.682,3.682,0,0,0-3.687,3.654,3.681,3.681,0,0,0,3.687,3.655h38.546c3.68,0,4.318-3.415,4.648-5.483l8.926-55.7a2.447,2.447,0,0,0-2.147-2.926h0a2.756,2.756,0,0,0-2.953,2.127" transform="translate(75.06 48.821)" fill="#9cc1f4" fill-rule="evenodd"/>
    <path id="Path_104629" data-name="Path 104629" d="M-1006.077,3557.131l.043-7.114,6.194.177-.13,7.281Z" transform="translate(65.462 70.212)" fill="#f4af8f" fill-rule="evenodd"/>
    <path id="Path_104630" data-name="Path 104630" d="M-951.437,3502.044l-13.789-2.592s-31.98,3.464-37.9,13.8-3.586,52.052-3.586,52.052l8.6.111c-.558-3.435,8.912-43.29,8.943-43.3l36.042-12.713Z" transform="translate(65.151 56.306)" fill="#1f3e7a" fill-rule="evenodd"/>
    <path id="Path_104631" data-name="Path 104631" d="M-955.444,3501.485l-4.845,2.154c-3.983.073-21.238,2.744-24.131,3.361-9.8,2.092-8.6,7.028-8.757,14.563l7.121-.957,28.921-11.756Z" transform="translate(69.158 56.865)" fill="#000446" fill-rule="evenodd"/>
    <path id="Path_104632" data-name="Path 104632" d="M-981.117,3556l-.591-6.187,6.264.149-.06,7.084Z" transform="translate(72.445 70.156)" fill="#f4af8f" fill-rule="evenodd"/>
    <path id="Path_104633" data-name="Path 104633" d="M-980.769,3553.846c-1.77,3.152-4.655,6.167-2.4,8.845h11.465c.019-.051.039-.107.057-.166a1.837,1.837,0,0,0,.288-1.863c-.665-2.493-2.618-6.324-3.29-6.522-1.33-.39-3.22.711-6.119-.295" transform="translate(71.789 71.265)" fill="#031542" fill-rule="evenodd"/>
    <path id="Path_104634" data-name="Path 104634" d="M-984.019,3559.148v.005a2.071,2.071,0,0,0,.856,2.079H-971.7c.592-.34.748-.575.345-2.029Z" transform="translate(71.781 72.723)" fill="#0f4884" fill-rule="evenodd"/>
    <path id="Path_104635" data-name="Path 104635" d="M-977.21,3553.6h-2.655a.663.663,0,0,0-.664.658v3.385a.663.663,0,0,0,.664.658h2.655a.663.663,0,0,0,.664-.658v-3.385a.663.663,0,0,0-.664-.658" transform="translate(72.782 71.198)" fill="#0f4884" fill-rule="evenodd"/>
    <path id="Path_104636" data-name="Path 104636" d="M-940.475,3500.309s4.007,16.03-3.272,19.485-29.993,3.82-29.993,3.82c4.58,17.036,1.238,27.822,1.41,42.334l-7.585.038s-7.646-27.1-9.892-42.459c-1.133-7.751-1.371-13.914,8.535-16.028,3.332-.712,25.016-5.69,25.016-5.69Z" transform="translate(69.969 56.542)" fill="#1f3e7a" fill-rule="evenodd"/>
    <path id="Path_104637" data-name="Path 104637" d="M-946.1,3461.983c5.43,12.348-1.815,25.266,3.574,50.77-9.338,2.95-36.93,3.041-38.12-1.185-.575-16.13.361-31.592,1.021-47.713,9.142-6.28,23.754-8.186,33.524-1.872" transform="translate(72.698 44.931)" fill="#fbb44a" fill-rule="evenodd"/>
    <path id="Path_104638" data-name="Path 104638" d="M-973.03,3490.442l20.134-6.676.135-8.117,2.234-2.969s4.554,6.9,4.572,7.371-2.012,7.485-1.829,7.493-12.017,4.028-13.021,4.262-12.225-1.365-12.225-1.365" transform="translate(74.931 48.943)" fill="#ef8200" fill-rule="evenodd"/>
    <path id="Path_104639" data-name="Path 104639" d="M-949.8,3460.337c8.048,2.751,11.388,27.364,9.586,33.537-.31,4.436-18.6,3.861-31.623,5.56-1.788-1.3-3.247-3.021-1.577-5.429,8-2.915,22.086-5.516,22.061-5.938-1.11-8.455-2.8-20.061-2.186-25.68.072-.665,3.017-2.3,3.739-2.05" transform="translate(74.612 45.542)" fill="#fbb44a" fill-rule="evenodd"/>
    <rect id="Rectangle_31941" data-name="Rectangle 31941" width="5.221" height="83.821" transform="translate(-964.687 3550.135)" fill="#7babea"/>
    <path id="Path_104640" data-name="Path 104640" d="M-967.9,3490.053h49.592a3.485,3.485,0,0,1,3.49,3.459,3.486,3.486,0,0,1-3.49,3.46h-22.123v83.262h-5.478v-83.262H-967.9a3.486,3.486,0,0,1-3.492-3.46,3.486,3.486,0,0,1,3.492-3.459" transform="translate(75.401 53.721)" fill="#7babea" fill-rule="evenodd"/>
    <path id="Path_104641" data-name="Path 104641" d="M-1003.7,3553.7s-8.26,3.362-11.013,4.7c-2.138,1.04-3.349,3.223-1.593,4.336h21.391c.019-.051.037-.106.055-.166.318-1.048,1.149-8.533-1.075-8.365-1.382.1-4.675,1.075-7.766-.5" transform="translate(62.291 71.224)" fill="#031542" fill-rule="evenodd"/>
    <path id="Path_104642" data-name="Path 104642" d="M-1017.153,3559.151v.005l.018.845c.033.665.27.871.839,1.23h21.49c.018-.051.037-.107.055-.166.062-.2.214-1.269.288-1.859Z" transform="translate(62.288 72.724)" fill="#0f4884" fill-rule="evenodd"/>
    <path id="Path_104643" data-name="Path 104643" d="M-1005.171,3554c-2.976,1.226-7.962,3.3-10.009,4.271a2.951,2.951,0,0,0,2.092.656s5.809-1.8,7.461-2.958a1.32,1.32,0,0,0,.457-1.969" transform="translate(62.854 71.306)" fill="#0f4884" fill-rule="evenodd"/>
    <path id="Path_104644" data-name="Path 104644" d="M-1001.126,3488.867h32.419v.756a.762.762,0,0,1-.763.756h-30.893a.762.762,0,0,1-.763-.756Z" transform="translate(66.881 53.395)" fill="#3d7dda" fill-rule="evenodd"/>
    <path id="Path_104645" data-name="Path 104645" d="M-1010.984,3473.175h25.529a1.987,1.987,0,0,1,1.829,1.836l3.507,18.564h-28.935l-3.506-18.819c-.159-.854.709-1.581,1.576-1.581" transform="translate(63.599 49.079)" fill="#3d7dda" fill-rule="evenodd"/>
    <path id="Path_104646" data-name="Path 104646" d="M-1011.664,3473.175h25.528a1.988,1.988,0,0,1,1.829,1.836l3.263,17.164H-981l.21,1.26a1.208,1.208,0,0,1-1.271,1.26h-26.446a1.348,1.348,0,0,1-1.271-1.26l-.157-1.035-3.305-17.644c-.16-.854.709-1.581,1.576-1.581" transform="translate(63.404 49.079)" fill="#71bdf8" fill-rule="evenodd"/>
    <path id="Path_104647" data-name="Path 104647" d="M-1001.378,3480.758a1.243,1.243,0,0,1,1.411,1.024,1.23,1.23,0,0,1-.791,1.545,1.244,1.244,0,0,1-1.413-1.023,1.232,1.232,0,0,1,.792-1.546" transform="translate(66.569 51.157)" fill="#f4fafd" fill-rule="evenodd"/>
    <path id="Path_104648" data-name="Path 104648" d="M-977.079,3458.376c1.63,1.928,3.2,3.245,5.132,3.663l.821,3.39c-.579,2.4-.033,4.4,3.071,4.22,8.279-1.516,5.932-6.924,5.8-7.172l-1.917-4.535c.268-.079,2.266-1.792,2.811-2.108a3.092,3.092,0,0,0,.917-2.844c-.225-1.2-1.982-.383-1.982-.383,1.516-3.562,3.462-6.637-.48-8.6s-11.876-1.795-11.876-1.795l-4.92-.5c.948,1.419,1.411,6.788,1.015,10.3-.354,3.151-.578,3.774,1.611,6.363" transform="translate(73.018 40.427)" fill="#f4b1b1" fill-rule="evenodd"/>
    <path id="Path_104649" data-name="Path 104649" d="M-970.217,3465.255c1.33.835,3.336,1.965,4.666,2.8a18.432,18.432,0,0,0,2.825-8.123,13.153,13.153,0,0,0-2.634-2.644,13.263,13.263,0,0,1-4.858,7.966" transform="translate(75.737 44.71)" fill="#fff1d8" fill-rule="evenodd"/>
    <path id="Path_104650" data-name="Path 104650" d="M-969.015,3464.843c-.8,1.318-2.359,2.625-3.162,3.943a27.948,27.948,0,0,1-2.234-8.715,11.675,11.675,0,0,0,1.3-1.282c.724,1.632,2.7,5.078,4.1,6.054" transform="translate(74.535 45.123)" fill="#fff1d8" fill-rule="evenodd"/>
    <path id="Path_104651" data-name="Path 104651" d="M-967.61,3455.217c-.351,2.939-1.621,5.725-4.76,6.421l-.953-1.865-.351-1.448c1.512-.109,2.909-.557,6.065-3.109" transform="translate(74.746 44.141)" fill="#e06b6c" fill-rule="evenodd"/>
    <path id="Path_104652" data-name="Path 104652" d="M-977.183,3449.771c4.278.955,8.039-2.431,10.907-.423,1.42.995,1.787,2.858,1.3,6-.085.551,1.232.243,1.25.228.575-.466,1.081-.739,1.525-.539a1.722,1.722,0,0,1,.395,2.537c-.239.271-.714.708-.714.708,4.836-2.251,5.774-7.337,4.752-10.979a16.05,16.05,0,0,0-1.265-3.222,3.754,3.754,0,0,0-.117-1.112,3.61,3.61,0,0,0-3.29-2.735,3.53,3.53,0,0,0-4.074-2.08,3.316,3.316,0,0,0-1.324.679h-.179a3.675,3.675,0,0,0-3.519-.957,3.664,3.664,0,0,0-2.15,1.515,5.041,5.041,0,0,0-4.426-1.051c-2.789.711-4.4,3.808-3.589,6.917a6.037,6.037,0,0,0,3.445,4.1,5.846,5.846,0,0,0,1.069.412" transform="translate(72.388 39.34)" fill="#1f3e7a" fill-rule="evenodd"/>
    <path id="Path_104653" data-name="Path 104653" d="M-982.211,3491.021a5.462,5.462,0,0,1,3.585-3.928c1.593-.427,4.716.1,11.054.4a4.7,4.7,0,0,1,.58,3.386Z" transform="translate(72.3 52.863)" fill="#f6c0c5" fill-rule="evenodd"/>
    <path id="Path_104654" data-name="Path 104654" d="M-1102.986,3535.671h43.88c3.044,0,5.535,3.6,5.535,8h0c0,4.4-2.491,8-5.535,8h-43.88c-3.044,0-5.535-3.6-5.535-8h0c0-4.4,2.491-8,5.535-8" transform="translate(36.109 66.266)" fill="#f7a12e" fill-rule="evenodd"/>
    <path id="Path_104655" data-name="Path 104655" d="M-1093.078,3535.671h15.734c-3.045,0-5.536,3.6-5.536,8h0c0,4.4,2.491,8,5.536,8h-15.734c-3.044,0-5.535-3.6-5.535-8h0c0-4.4,2.491-8,5.535-8" transform="translate(38.948 66.266)" fill="#ef8200" fill-rule="evenodd"/>
    <path id="Path_104656" data-name="Path 104656" d="M-1071.14,3548.715h41.509a10.741,10.741,0,0,1,0-11.131h-41.509c-1.389,0-2.529,2.508-2.529,5.566s1.14,5.565,2.529,5.565" transform="translate(46.095 66.793)" fill="#edeeee" fill-rule="evenodd"/>
    <path id="Path_104657" data-name="Path 104657" d="M-1031.183,3543.364a11.183,11.183,0,0,1,1.552-5.78h-41.509c-1.389,0-2.529,2.508-2.529,5.565,0,.073,0,.144,0,.215Z" transform="translate(46.095 66.793)" fill="#e0e0df" fill-rule="evenodd"/>
    <path id="Path_104658" data-name="Path 104658" d="M-1027.95,3551.679h-42.944c-2,0-4.117-3.649-4.117-8.052s2.116-7.956,4.117-7.956h42.944l-.019,2.4-42.786.041c-1.389,0-2.529,2.508-2.529,5.565s1.14,5.566,2.529,5.566l42.786-.042Z" transform="translate(45.711 66.266)" fill="#ef8200" fill-rule="evenodd"/>
    <path id="Path_104659" data-name="Path 104659" d="M-1025.637,3548.227h-45.879c-3.183,0-5.788,3.6-5.788,8h0c0,4.4,2.605,8,5.788,8h45.879c3.182,0,5.787-3.6,5.787-8h0c0-4.4-2.6-8-5.787-8" transform="translate(45.054 69.719)" fill="#3d7dda" fill-rule="evenodd"/>
    <path id="Path_104660" data-name="Path 104660" d="M-1043.84,3548.227h-16.451c3.184,0,5.788,3.6,5.788,8h0c0,4.4-2.6,8-5.788,8h16.451c3.183,0,5.788-3.6,5.788-8h0c0-4.4-2.6-8-5.788-8" transform="translate(49.928 69.719)" fill="#105dc4" fill-rule="evenodd"/>
    <path id="Path_104661" data-name="Path 104661" d="M-1061.476,3561.271h-43.4a10.347,10.347,0,0,0,0-11.131h43.4c1.453,0,2.645,2.508,2.645,5.565s-1.191,5.565-2.645,5.565" transform="translate(37.154 70.246)" fill="#edeeee" fill-rule="evenodd"/>
    <path id="Path_104662" data-name="Path 104662" d="M-1103.255,3555.921a10.8,10.8,0,0,0-1.622-5.781h43.4c1.453,0,2.645,2.508,2.645,5.565,0,.072,0,.143,0,.215Z" transform="translate(37.153 70.246)" fill="#e0e0df" fill-rule="evenodd"/>
    <path id="Path_104663" data-name="Path 104663" d="M-1105.93,3564.235h44.9c2.092,0,4.3-3.649,4.3-8.052s-2.213-7.956-4.3-7.956h-44.9l.019,2.4,44.736.041c1.453,0,2.645,2.508,2.645,5.565s-1.191,5.565-2.645,5.565l-44.736-.042Z" transform="translate(36.851 69.719)" fill="#105dc4" fill-rule="evenodd"/>
    <path id="Path_104664" data-name="Path 104664" d="M-1071.893,3552.056h-4.967c-1.907.991-1.356,4.922-2.487,7.495l2.935-2.125,2.128,1.989c1.651-2.333.706-6.315,2.392-7.359" transform="translate(44.468 70.773)" fill="#71bdf8" fill-rule="evenodd"/>
    <path id="Path_104665" data-name="Path 104665" d="M-1068.092,3539.63h4.969c1.905.991,1.355,4.921,2.487,7.495l-2.935-2.124-2.129,1.989c-1.651-2.333-.706-6.315-2.392-7.36" transform="translate(47.693 67.355)" fill="#ef8200" fill-rule="evenodd"/>
    <path id="Path_104666" data-name="Path 104666" d="M-1154.6,3416.627l-1.708-1.066a1.855,1.855,0,0,1-.805-2.11,19.115,19.115,0,0,0,.808-4.709,1.871,1.871,0,0,1,1.468-1.726l1.968-.448a1.878,1.878,0,0,0,1.432-2.247l-.858-3.738a1.9,1.9,0,0,0-2.272-1.415l-1.97.444a1.889,1.889,0,0,1-2.077-.928,19.194,19.194,0,0,0-2.785-3.9,1.845,1.845,0,0,1-.192-2.247l1.074-1.694a1.87,1.87,0,0,0-.594-2.593l-3.274-2.041a1.906,1.906,0,0,0-2.614.589l-1.076,1.693a1.892,1.892,0,0,1-2.129.8,19.547,19.547,0,0,0-4.748-.8,1.876,1.876,0,0,1-1.745-1.455l-.448-1.952a1.893,1.893,0,0,0-2.269-1.415l-3.772.849a1.88,1.88,0,0,0-1.428,2.25l.448,1.951a1.857,1.857,0,0,1-.938,2.058,19.645,19.645,0,0,0-3.933,2.759,1.888,1.888,0,0,1-2.267.194l-1.708-1.066a1.906,1.906,0,0,0-2.615.589l-2.06,3.244a1.873,1.873,0,0,0,.594,2.594l1.708,1.065a1.859,1.859,0,0,1,.807,2.111,19.052,19.052,0,0,0-.811,4.7,1.869,1.869,0,0,1-1.465,1.731l-1.971.442a1.88,1.88,0,0,0-1.428,2.25l.856,3.736a1.9,1.9,0,0,0,2.273,1.417l1.967-.445a1.887,1.887,0,0,1,2.078.931,19.289,19.289,0,0,0,2.784,3.9,1.849,1.849,0,0,1,.2,2.249l-1.075,1.693a1.867,1.867,0,0,0,.594,2.592l3.273,2.043a1.912,1.912,0,0,0,2.617-.59l1.073-1.695a1.894,1.894,0,0,1,2.133-.8,19.682,19.682,0,0,0,4.745.8,1.878,1.878,0,0,1,1.745,1.453l.446,1.952a1.9,1.9,0,0,0,2.272,1.418l3.772-.852a1.879,1.879,0,0,0,1.428-2.251l-.449-1.952a1.859,1.859,0,0,1,.938-2.058,19.227,19.227,0,0,0,3.932-2.759,1.89,1.89,0,0,1,2.267-.193l1.711,1.066a1.906,1.906,0,0,0,2.616-.589l2.06-3.245a1.866,1.866,0,0,0-.6-2.589m-13.434-1.814a10.553,10.553,0,0,1-11.822,2.665,10.371,10.371,0,0,1-3.8-16.574,10.555,10.555,0,0,1,11.821-2.664A10.37,10.37,0,0,1-1168.031,3414.813Z" transform="translate(9.813 24.451)" fill="#b1d2fc" fill-rule="evenodd"/>
    <path id="Path_104667" data-name="Path 104667" d="M-1184.872,3389.51l-1.279-.8a1.39,1.39,0,0,1-.6-1.581,14.351,14.351,0,0,0,.606-3.525,1.4,1.4,0,0,1,1.1-1.293l1.473-.334a1.407,1.407,0,0,0,1.073-1.683l-.643-2.8a1.421,1.421,0,0,0-1.7-1.059l-1.474.332a1.415,1.415,0,0,1-1.555-.695,14.326,14.326,0,0,0-2.085-2.918,1.382,1.382,0,0,1-.143-1.682l.8-1.268a1.4,1.4,0,0,0-.445-1.941l-2.452-1.529a1.426,1.426,0,0,0-1.958.44l-.8,1.268a1.418,1.418,0,0,1-1.594.6,14.661,14.661,0,0,0-3.556-.6,1.4,1.4,0,0,1-1.306-1.089l-.336-1.461a1.419,1.419,0,0,0-1.7-1.06l-2.824.636a1.407,1.407,0,0,0-1.069,1.685l.334,1.462a1.388,1.388,0,0,1-.7,1.539,14.726,14.726,0,0,0-2.945,2.067,1.414,1.414,0,0,1-1.7.145l-1.279-.8a1.426,1.426,0,0,0-1.958.441l-1.542,2.429a1.4,1.4,0,0,0,.445,1.94l1.279.8a1.392,1.392,0,0,1,.6,1.581,14.2,14.2,0,0,0-.607,3.521,1.4,1.4,0,0,1-1.1,1.3l-1.476.332a1.4,1.4,0,0,0-1.069,1.684l.641,2.8a1.422,1.422,0,0,0,1.7,1.061l1.474-.334a1.414,1.414,0,0,1,1.556.7,14.421,14.421,0,0,0,2.084,2.916,1.386,1.386,0,0,1,.146,1.684l-.805,1.267a1.4,1.4,0,0,0,.445,1.941l2.451,1.53a1.433,1.433,0,0,0,1.959-.442l.8-1.268a1.418,1.418,0,0,1,1.6-.6,14.687,14.687,0,0,0,3.553.6,1.4,1.4,0,0,1,1.306,1.089l.336,1.461a1.422,1.422,0,0,0,1.7,1.062l2.824-.639a1.4,1.4,0,0,0,1.069-1.684l-.336-1.461a1.392,1.392,0,0,1,.7-1.541,14.41,14.41,0,0,0,2.945-2.066,1.413,1.413,0,0,1,1.7-.144l1.281.8a1.426,1.426,0,0,0,1.958-.441l1.542-2.43a1.4,1.4,0,0,0-.447-1.939m-10.058-1.357a7.9,7.9,0,0,1-8.853,2,7.765,7.765,0,0,1-2.847-12.409,7.9,7.9,0,0,1,8.85-2A7.765,7.765,0,0,1-1194.93,3388.152Z" transform="translate(4.428 19.274)" fill="#b1d2fc" fill-rule="evenodd"/>
    <rect id="Rectangle_31942" data-name="Rectangle 31942" width="382.646" height="0.759" transform="translate(-1217.191 3633.955)" fill="#000446"/>
    <path id="Path_104668" data-name="Path 104668" d="M-1174.414,3322.769a19.919,19.919,0,0,1,20.008,19.829,19.919,19.919,0,0,1-20.008,19.83,19.92,19.92,0,0,1-20.009-19.83,19.92,19.92,0,0,1,20.009-19.829" transform="translate(11.496 7.715)" fill="#e7eff9" fill-rule="evenodd"/>
    <g id="Group_92391" data-name="Group 92391" transform="translate(-1171.856 3344.953)">
      <path id="Path_104669" data-name="Path 104669" d="M-1180.408,3335.771v1.82a.379.379,0,0,1-.075.221.421.421,0,0,1-.176.153l-1.975.848c-.076.039-.114.075-.114.114s.039.072.114.1l1.963.836a.493.493,0,0,1,.188.165.38.38,0,0,1,.075.221v1.832a.169.169,0,0,1-.075.158.18.18,0,0,1-.176,0l-4.918-2.3a.447.447,0,0,1-.171-.163.4.4,0,0,1-.069-.221v-1.278a.429.429,0,0,1,.069-.226.37.37,0,0,1,.171-.158l4.918-2.285a.155.155,0,0,1,.176,0A.18.18,0,0,1-1180.408,3335.771Z" transform="translate(1185.818 -3333.713)" fill="#1f3e7a"/>
      <path id="Path_104670" data-name="Path 104670" d="M-1181.36,3344.59l4.736-10.236a.478.478,0,0,1,.166-.169.408.408,0,0,1,.223-.068h1.689a.19.19,0,0,1,.165.068.147.147,0,0,1-.005.169l-4.736,10.236a.417.417,0,0,1-.159.175.429.429,0,0,1-.229.074h-1.689a.175.175,0,0,1-.16-.074A.182.182,0,0,1-1181.36,3344.59Z" transform="translate(1187.089 -3334.117)" fill="#1f3e7a"/>
      <path id="Path_104671" data-name="Path 104671" d="M-1170.474,3338.282v1.278a.389.389,0,0,1-.073.221.517.517,0,0,1-.178.163l-4.907,2.3a.183.183,0,0,1-.178,0,.171.171,0,0,1-.073-.158v-1.832a.388.388,0,0,1,.073-.221.541.541,0,0,1,.178-.165l1.963-.836c.068-.031.1-.064.1-.1s-.033-.075-.1-.114l-1.963-.848a.433.433,0,0,1-.178-.153.387.387,0,0,1-.073-.221v-1.82a.183.183,0,0,1,.073-.163.158.158,0,0,1,.178,0l4.907,2.285a.418.418,0,0,1,.178.158A.415.415,0,0,1-1170.474,3338.282Z" transform="translate(1188.665 -3333.713)" fill="#1f3e7a"/>
    </g>
    <g id="Group_92392" data-name="Group 92392" transform="translate(-1219.28 3443.388)">
      <path id="Path_104672" data-name="Path 104672" d="M-1181.921,3453.5c4.269,9.284,12.414,18.321,24.631,20.124,8.644.239,28.261.519,27.092-2.435-1.27-3.212,3.261-5.757-1.7-5.664-6.6-.02-24.62-6.279-26.109-6.384-1.41-.1-13.415-19.7-22.077-22.814-1.028-.657-4.837,12.686-1.832,17.172" transform="translate(1234.033 -3404.448)" fill="#5bbbfb" fill-rule="evenodd"/>
      <path id="Path_104673" data-name="Path 104673" d="M-1211.424,3451.619c-5.8,14.024-8.854,28.95-10.664,43.886-.183,1.5,1.068,3.273,2.946,4.27,1.194.634,1.974.648,4.181-1.276,3.35-4,5.825-18.753,9.471-24.656,7.194-11.65,14.125-22.954,10.3-30.421-.181-1.048-15.09,3.609-16.237,8.2" transform="translate(1222.844 -3402.533)" fill="#5bbbfb" fill-rule="evenodd"/>
      <path id="Path_104674" data-name="Path 104674" d="M-1197.185,3555.272l.661-6.924-7.01.167.067,7.927Z" transform="translate(1228.165 -3373.635)" fill="#f4af8f" fill-rule="evenodd"/>
      <path id="Path_104675" data-name="Path 104675" d="M-1195.956,3553.32c1.359,4.807,5.209,6.9,2.689,9.9H-1206.1c-.022-.057-.042-.12-.063-.186a2.051,2.051,0,0,1-.322-2.083c.744-2.79,2.929-7.078,3.679-7.3,1.49-.437,3.6.8,6.848-.33" transform="translate(1227.281 -3372.268)" fill="#1f3e7a" fill-rule="evenodd"/>
      <path id="Path_104676" data-name="Path 104676" d="M-1192.423,3559.253v.006l.017.522a2.167,2.167,0,0,1-.974,1.805h-12.694a1.789,1.789,0,0,1-.385-2.27Z" transform="translate(1227.257 -3370.637)" fill="#140505" fill-rule="evenodd"/>
      <path id="Path_104677" data-name="Path 104677" d="M-1175.216,3480.115l-7.511,30.229-3.833,18-8.509,43.834a10.8,10.8,0,0,1-4.679.649,21.681,21.681,0,0,1-4.332-.588c-.063-12.942,0-29.377,1.411-45.9,1.185-13.843-3.277-21.254-2.421-36.521.254-4.51,5.156-17.291,5.091-17.127Z" transform="translate(1227.688 -3394.442)" fill="#1f3e7a" fill-rule="evenodd"/>
      <path id="Path_104678" data-name="Path 104678" d="M-1176.7,3483.127l-1.925,7.749c-9.852,1.218-20.143.383-26.468-1.321q-.012-1.32-.019-2.6a16.323,16.323,0,0,1,.518-3.492c8.931-.052,23.518-.149,24.936-.247.468-.033,1.558-.06,2.958-.083" transform="translate(1227.712 -3391.573)" fill="#12143c" fill-rule="evenodd"/>
      <path id="Path_104679" data-name="Path 104679" d="M-1172.952,3555.323l-.026-7.16-7.01.166.754,8.165Z" transform="translate(1234.912 -3373.687)" fill="#f4af8f" fill-rule="evenodd"/>
      <path id="Path_104680" data-name="Path 104680" d="M-1172.233,3552.577c3.477,4.087,10.962,4.961,14.093,5.983,2.536.828,3.757,3.614,1.787,4.862h-23.991c-.021-.058-.041-.119-.062-.186-.356-1.174-1.289-9.568,1.207-9.382a10.783,10.783,0,0,0,6.967-1.278" transform="translate(1234.657 -3372.473)" fill="#1f3e7a" fill-rule="evenodd"/>
      <path id="Path_104681" data-name="Path 104681" d="M-1173.077,3553.541c3.216,2.59,8.2,3.552,11.339,4.342-.17.651-.265,1.23-2.367,1.276a17.686,17.686,0,0,1-8.678-2.748c-1.081-.761-.712-2.023-.295-2.87" transform="translate(1236.773 -3372.208)" fill="#140505" fill-rule="evenodd"/>
      <path id="Path_104682" data-name="Path 104682" d="M-1155.43,3559.253v.006l.016.522a2.163,2.163,0,0,1-.973,1.805h-23.991c-.021-.058-.041-.119-.062-.186-.069-.229-.239-1.422-.323-2.083Z" transform="translate(1234.69 -3370.637)" fill="#140505" fill-rule="evenodd"/>
      <path id="Path_104683" data-name="Path 104683" d="M-1168.346,3478.456l2.828,42.468-2.749,51.193a27.638,27.638,0,0,1-6.242.554c-2.879-.166-2.353-.5-2.353-.5l-6.737-47.717s-1.523-10.866-5.088-19.333c-2.574-6.115-5.733-7.878-5.267-14.984.484-7.359-.142-13.063.88-15.6s6.124-1.522,6.124-1.522Z" transform="translate(1230.896 -3394.409)" fill="#1f3e7a" fill-rule="evenodd"/>
      <path id="Path_104684" data-name="Path 104684" d="M-1167.914,3483.047l.3,5.09a79.476,79.476,0,0,1-26.142,3.308,14.274,14.274,0,0,1-.193-4.117c.09-1.376.141-2.694.172-3.943,5.519-.046,10.17-.1,10.939-.152,1.7-.119,11.606-.171,14.928-.185" transform="translate(1230.894 -3391.594)" fill="#12143c" fill-rule="evenodd"/>
      <path id="Path_104685" data-name="Path 104685" d="M-1183.808,3528.87l-1.508-10.686a102.083,102.083,0,0,0-2.7-12.43h0l1.427-10.126,2.964,25.4Z" transform="translate(1232.611 -3388.135)" fill="#12143c" fill-rule="evenodd"/>
      <path id="Path_104686" data-name="Path 104686" d="M-1202.286,3553.217h3.565a.883.883,0,0,1,.884.877v3.506a.882.882,0,0,1-.884.876h-3.565a.882.882,0,0,1-.884-.876v-3.506a.883.883,0,0,1,.884-.877" transform="translate(1228.269 -3372.296)" fill="#140505" fill-rule="evenodd"/>
      <path id="Path_104687" data-name="Path 104687" d="M-1203.053,3468.481a142.32,142.32,0,0,1,1.685,32.49c16.7,2.842,31.048,2.415,41.022-.733-.467-10.922,1.653-61.708-11.876-64.25-11.05-3.069-25.867-2.1-31.988,3.883l-.053.049c-4.678,4.343-10.457,18.66-13.178,29.033-5.707,21.754,9.605,9.741,14.387-.472" transform="translate(1223.821 -3405.004)" fill="#84c9ff" fill-rule="evenodd"/>
      <path id="Path_104688" data-name="Path 104688" d="M-1206.537,3462.777c1.3,8.208,1.994,22.188,1.685,32.49,4.378-10.76,2.124-35.9,1.275-40.234a53.741,53.741,0,0,1-2.96,7.745" transform="translate(1227.305 -3399.299)" fill="#5bbbfb" fill-rule="evenodd"/>
      <path id="Path_104689" data-name="Path 104689" d="M-1180.572,3432.065a10.754,10.754,0,0,1-4.655,4.974l.063,3.367.5.417c1.935,2.055-.161,6.275-2.366,6.145-5.573.272-9.853-4.258-8.177-6.717l.727-.8.161-4.764c-.287-.016-2.38-1.2-3-1.386a3.2,3.2,0,0,1-1.6-2.635c-.062-1.256,1.9-.849,1.9-.849-2.372-3.219-5.059-5.847-1.575-8.744s11.486-4.588,11.486-4.588l4.817-1.655c-.614,1.647.206,7.143,1.443,10.573,1.108,3.078,1.862,3.556.286,6.666" transform="translate(1229.099 -3410.356)" fill="#f4b1b1" fill-rule="evenodd"/>
      <path id="Path_104690" data-name="Path 104690" d="M-1193.884,3430.919s2.724,4.631,4.962,5.05,1.094.11,1.927.012l-.063-3.367c-1.541.246-3.05.125-6.826-1.695" transform="translate(1230.93 -3405.93)" fill="#e98385" fill-rule="evenodd"/>
      <path id="Path_104691" data-name="Path 104691" d="M-1215.418,3485.372c.207,2.472.446,3.547.756,5.944.075.578-.84,1.365-1.521,2.07l-4.336,1.332a3.187,3.187,0,0,1-1.077-.827c-.774-.474-1.082-2.431-1.074-3.141a3.548,3.548,0,0,1,.239-1.038c.3-1.011.78-2.436.862-2.718a3.73,3.73,0,0,0,.409-1.976,7.87,7.87,0,0,1,5.74.354" transform="translate(1222.679 -3391.158)" fill="#f4b1b1"/>
      <path id="Path_104692" data-name="Path 104692" d="M-1137.319,3432.254c-.652.619-4.661,9.737-5.756,11.519l5.886,8.522c.741.073,10.225-.653,10.411-.8.287-.229,6.258-13.222,6.833-13.779a1.47,1.47,0,0,1,2.383.375,11.56,11.56,0,0,1,1.056,2.467,18.324,18.324,0,0,1,.693,9.675,17.333,17.333,0,0,1-1.561,4.637,48.386,48.386,0,0,1-2.91,4.478c-2.048.94-2.226,3.752-10.885,5.833-.081.218-1.533,13.434-2.588,23.45-1.642,15.579-3.066,29.124-4.512,42.616l-3.723,31.948c.785.94,2.268,1.58,4.248,4.222a19.211,19.211,0,0,1,2.671,4.943c1.841,5.051.761,8.761.883,9.543a30.706,30.706,0,0,1-1.57,4.691,20,20,0,0,1-1.225,2.231,19.273,19.273,0,0,1-13.9,8.514,1.487,1.487,0,0,1-1.689-1.626c.107-.951,5.713-12.993,5.549-13.524l-4.765-6.174a41.729,41.729,0,0,0-5.195.606c-3.062.4-2.546-.327-3.757,2.657-1.315,3.242-2.752,6.324-4.049,9.57-1.063,2.66-2.222,2.8-3.938.2-5.077-7.687-2.534-14.228-2.625-15.333.248-.268.052.068.239-.416l.563-1.613a18.413,18.413,0,0,1,3.938-6.064c4.276-4.39,7.9-4.538,9.393-5.385-.122-.809.652-6.027.688-7.079l3.368-28.917a4.971,4.971,0,0,0,.1-.971c.379-3.337,2.909-26.8,3.66-34.5.187-2.469.867-6.774.987-9.208l.686-6.492c.117-.839.6-4.03.376-4.539a8.242,8.242,0,0,0,.4-2.439l.46-4.654c-.08-.994-5.3-3.543-6.7-11.967a9.224,9.224,0,0,1-.139-1.29,21.87,21.87,0,0,1,0-3.532,19.119,19.119,0,0,1,7.852-13.249c2.336-1.347,3.756-2.322,6.265-2.892.96-.217,2.295-.725,2.8.759.32.939-.839,2.085-.907,3" transform="translate(1237.226 -3406.668)" fill="#ef8200" fill-rule="evenodd"/>
      <path id="Path_104693" data-name="Path 104693" d="M-1139.58,3467.495s-3.607.688-3.528-.193,2.758-1.865,2.758-1.865l-3.406-.975s-.44-.731.6-1.163a15.424,15.424,0,0,1,2.8-.7l-3.412-1.409s-.138-.722.452-.744a23.835,23.835,0,0,1,2.615.321l-2.9-1.357a1.123,1.123,0,0,1,1.162-.727,18.709,18.709,0,0,1,2.442.2c6.263,1.108,1.849,8.9.413,8.608" transform="translate(1245.266 -3398.295)" fill="#f3adbe"/>
      <path id="Path_104694" data-name="Path 104694" d="M-1182.192,3422.68c-4.073,2.068-8.762-.385-11.135,2.383-1.176,1.372-1.057,3.348.259,6.4.387.9.906,1.562-.628.858-.7-.322-1.863-.774-2.259-.457a1.8,1.8,0,0,0,.266,2.666c.314.213.908.531.908.531-5.479-1.029-7.762-5.928-7.684-9.872a3.63,3.63,0,0,1,1.214-2.89c-1.728-17.177,30.363-11.777,20.032-.311a6.029,6.029,0,0,1-.974.691" transform="translate(1228.471 -3411.32)" fill="#1f3e7a" fill-rule="evenodd"/>
    </g>
    <g id="Group_92393" data-name="Group 92393" transform="translate(-916.689 3423.337)">
      <path id="Path_104695" data-name="Path 104695" d="M-980.53,3405.628a7.649,7.649,0,0,1-1.27.389,6.358,6.358,0,0,1-1.277.126,5.279,5.279,0,0,1-1.881-.31,3.537,3.537,0,0,1-1.38-.923,4.03,4.03,0,0,1-.852-1.52,6.961,6.961,0,0,1-.289-2.11,7,7,0,0,1,.316-2.193,4.545,4.545,0,0,1,.9-1.622,3.869,3.869,0,0,1,1.428-1.009,4.914,4.914,0,0,1,1.889-.347q.34,0,.637.015c.2.01.394.028.584.056s.385.063.58.108.4.1.611.171v1.823a5.859,5.859,0,0,0-1.221-.426,5.009,5.009,0,0,0-1.056-.127,2.645,2.645,0,0,0-1.2.251,2.2,2.2,0,0,0-.818.7,3.093,3.093,0,0,0-.471,1.075,5.85,5.85,0,0,0-.151,1.371,5.912,5.912,0,0,0,.154,1.417,2.914,2.914,0,0,0,.479,1.057,2.084,2.084,0,0,0,.828.66,2.874,2.874,0,0,0,1.2.229,3.159,3.159,0,0,0,.539-.048c.193-.032.39-.074.588-.126s.4-.115.588-.187.373-.146.539-.22Z" transform="translate(987.48 -3395.452)" fill="#203f7b"/>
      <path id="Path_104696" data-name="Path 104696" d="M-973.538,3401.691a4.987,4.987,0,0,1-.257,1.639,3.6,3.6,0,0,1-.738,1.274,3.252,3.252,0,0,1-1.184.823,4.142,4.142,0,0,1-1.6.291,4.4,4.4,0,0,1-1.523-.246,2.966,2.966,0,0,1-1.137-.735,3.257,3.257,0,0,1-.717-1.225,5.355,5.355,0,0,1-.248-1.715,4.923,4.923,0,0,1,.26-1.643,3.559,3.559,0,0,1,.746-1.262,3.333,3.333,0,0,1,1.188-.811,4.135,4.135,0,0,1,1.582-.287,4.358,4.358,0,0,1,1.531.25,2.974,2.974,0,0,1,1.137.743,3.239,3.239,0,0,1,.713,1.221A5.28,5.28,0,0,1-973.538,3401.691Zm-1.916.044a2.925,2.925,0,0,0-.448-1.773,1.555,1.555,0,0,0-1.324-.594,1.686,1.686,0,0,0-.821.186,1.586,1.586,0,0,0-.558.512,2.294,2.294,0,0,0-.32.759,4.015,4.015,0,0,0-.1.926,2.813,2.813,0,0,0,.482,1.789,1.6,1.6,0,0,0,1.319.6,1.657,1.657,0,0,0,.8-.182,1.487,1.487,0,0,0,.551-.509,2.4,2.4,0,0,0,.317-.765A4.055,4.055,0,0,0-975.454,3401.735Z" transform="translate(989.354 -3394.99)" fill="#203f7b"/>
      <path id="Path_104697" data-name="Path 104697" d="M-969.09,3400.907a3.343,3.343,0,0,0-.041-.724,1.386,1.386,0,0,0-.181-.494.76.76,0,0,0-.3-.284.924.924,0,0,0-.414-.089,1.394,1.394,0,0,0-.841.333,4.857,4.857,0,0,0-.953,1.094v4.8h-1.885v-7.591h1.666l.068,1.106a3.007,3.007,0,0,1,.426-.523,2.639,2.639,0,0,1,.527-.4,2.508,2.508,0,0,1,.645-.258,3.154,3.154,0,0,1,.777-.089,2.512,2.512,0,0,1,1.028.2,1.934,1.934,0,0,1,.754.586,2.549,2.549,0,0,1,.453.976,5.037,5.037,0,0,1,.125,1.355Z" transform="translate(991.425 -3394.99)" fill="#203f7b"/>
      <path id="Path_104698" data-name="Path 104698" d="M-960.62,3401.168q0,.188-.012.486c-.006.2-.018.386-.033.56H-965.7a2.336,2.336,0,0,0,.154.882,1.725,1.725,0,0,0,.438.639,1.879,1.879,0,0,0,.678.391,2.681,2.681,0,0,0,.879.135,9,9,0,0,0,1.2-.087,9.66,9.66,0,0,0,1.323-.279v1.448q-.294.082-.641.15c-.232.045-.467.084-.709.119s-.485.061-.731.079-.485.026-.717.026a4.663,4.663,0,0,1-1.568-.246,3.111,3.111,0,0,1-1.176-.728,3.19,3.19,0,0,1-.738-1.192,4.822,4.822,0,0,1-.256-1.643,5.228,5.228,0,0,1,.256-1.685,3.846,3.846,0,0,1,.724-1.3,3.178,3.178,0,0,1,1.133-.837,3.654,3.654,0,0,1,1.49-.294,3.855,3.855,0,0,1,1.44.25,2.885,2.885,0,0,1,1.047.7,2.959,2.959,0,0,1,.641,1.069A4.033,4.033,0,0,1-960.62,3401.168Zm-1.869-.261a2.164,2.164,0,0,0-.113-.781,1.52,1.52,0,0,0-.328-.55,1.315,1.315,0,0,0-.482-.321,1.642,1.642,0,0,0-.592-.1,1.514,1.514,0,0,0-1.137.459,2.1,2.1,0,0,0-.529,1.3Z" transform="translate(993.185 -3394.99)" fill="#203f7b"/>
      <path id="Path_104699" data-name="Path 104699" d="M-952.238,3406.151l-.045-1.121a5.7,5.7,0,0,1-.5.53,2.972,2.972,0,0,1-.549.407,2.767,2.767,0,0,1-.63.261,2.764,2.764,0,0,1-.742.093,2.616,2.616,0,0,1-1.206-.269,2.443,2.443,0,0,1-.886-.765,3.67,3.67,0,0,1-.547-1.206,6.222,6.222,0,0,1-.188-1.585,5,5,0,0,1,.3-1.811,3.476,3.476,0,0,1,.826-1.271,3.32,3.32,0,0,1,1.252-.747,4.956,4.956,0,0,1,1.575-.242,4.54,4.54,0,0,1,.576.037,3.966,3.966,0,0,1,.517.1v-2.967h1.84v10.557Zm-3.362-3.736a5.686,5.686,0,0,0,.086,1.072,2.264,2.264,0,0,0,.257.728,1.058,1.058,0,0,0,.418.414,1.186,1.186,0,0,0,.565.131,1.333,1.333,0,0,0,.89-.374,6.465,6.465,0,0,0,.9-1.023v-3.317a2.863,2.863,0,0,0-.539-.135,4.1,4.1,0,0,0-.645-.052,1.736,1.736,0,0,0-.8.18,1.744,1.744,0,0,0-.607.508,2.386,2.386,0,0,0-.389.8A3.884,3.884,0,0,0-955.6,3402.416Z" transform="translate(996.062 -3395.594)" fill="#203f7b"/>
      <path id="Path_104700" data-name="Path 104700" d="M-945.71,3405.547l-.045-1a5.147,5.147,0,0,1-.506.468,3.111,3.111,0,0,1-.58.37,3.155,3.155,0,0,1-.69.242,3.623,3.623,0,0,1-.818.086,2.852,2.852,0,0,1-1.032-.171,2.089,2.089,0,0,1-.746-.478,1.983,1.983,0,0,1-.457-.74,2.839,2.839,0,0,1-.154-.956,2.163,2.163,0,0,1,.23-.994,2.12,2.12,0,0,1,.7-.784,3.676,3.676,0,0,1,1.176-.515,6.479,6.479,0,0,1,1.654-.187h1v-.455a1.579,1.579,0,0,0-.082-.527.967.967,0,0,0-.268-.4,1.276,1.276,0,0,0-.479-.254,2.527,2.527,0,0,0-.724-.089,5.9,5.9,0,0,0-1.338.153,6.94,6.94,0,0,0-1.278.43v-1.457a7.368,7.368,0,0,1,1.27-.359,7.754,7.754,0,0,1,1.5-.141,5.79,5.79,0,0,1,1.463.161,2.641,2.641,0,0,1,1.006.482,1.9,1.9,0,0,1,.584.8,3.065,3.065,0,0,1,.189,1.124v5.186Zm-.264-3.355H-947.1a3.007,3.007,0,0,0-.791.089,1.513,1.513,0,0,0-.527.246.97.97,0,0,0-.3.363,1.025,1.025,0,0,0-.094.436.853.853,0,0,0,.3.706,1.273,1.273,0,0,0,.822.243,1.452,1.452,0,0,0,.8-.277,5.791,5.791,0,0,0,.912-.792Z" transform="translate(998.007 -3394.99)" fill="#203f7b"/>
      <path id="Path_104701" data-name="Path 104701" d="M-937.513,3405.96q-.5.113-1,.18a7.336,7.336,0,0,1-.957.066,4.757,4.757,0,0,1-1.3-.157,2.275,2.275,0,0,1-.9-.479,1.9,1.9,0,0,1-.528-.817,3.681,3.681,0,0,1-.17-1.184v-3.705h-2.057v-1.419h2.057V3396.5l1.885-.486v2.429h2.978v1.419h-2.978v3.571a1.42,1.42,0,0,0,.3.982,1.312,1.312,0,0,0,1.011.333,5.14,5.14,0,0,0,.881-.075q.43-.074.785-.172Z" transform="translate(999.814 -3395.478)" fill="#203f7b"/>
      <path id="Path_104702" data-name="Path 104702" d="M-932.515,3405.547l-.045-1a5.277,5.277,0,0,1-.5.468,3.148,3.148,0,0,1-.58.37,3.166,3.166,0,0,1-.691.242,3.619,3.619,0,0,1-.817.086,2.855,2.855,0,0,1-1.033-.171,2.089,2.089,0,0,1-.746-.478,2,2,0,0,1-.457-.74,2.836,2.836,0,0,1-.155-.956,2.18,2.18,0,0,1,.23-.994,2.131,2.131,0,0,1,.7-.784,3.689,3.689,0,0,1,1.176-.515,6.479,6.479,0,0,1,1.654-.187h1v-.455a1.579,1.579,0,0,0-.082-.527.954.954,0,0,0-.268-.4,1.276,1.276,0,0,0-.479-.254,2.527,2.527,0,0,0-.724-.089,5.9,5.9,0,0,0-1.338.153,6.94,6.94,0,0,0-1.278.43v-1.457a7.368,7.368,0,0,1,1.27-.359,7.757,7.757,0,0,1,1.5-.141,5.784,5.784,0,0,1,1.461.161,2.631,2.631,0,0,1,1.006.482,1.908,1.908,0,0,1,.585.8,3.092,3.092,0,0,1,.188,1.124v5.186Zm-.264-3.355H-933.9a3.007,3.007,0,0,0-.791.089,1.514,1.514,0,0,0-.527.246.97.97,0,0,0-.3.363,1.045,1.045,0,0,0-.094.436.85.85,0,0,0,.3.706,1.269,1.269,0,0,0,.821.243,1.448,1.448,0,0,0,.8-.277,5.726,5.726,0,0,0,.912-.792Z" transform="translate(1001.788 -3394.99)" fill="#203f7b"/>
    </g>
    <path id="Path_104703" data-name="Path 104703" d="M-1032.721,3490.053h86.862v6.919h-86.862a3.485,3.485,0,0,1-3.49-3.46h0a3.485,3.485,0,0,1,3.49-3.459" transform="translate(56.828 53.721)" fill="#9cc1f4" fill-rule="evenodd"/>
  </g>
</svg>
