<svg id="t3-ic1" xmlns="http://www.w3.org/2000/svg" width="110" height="110" viewBox="0 0 110 110">
  <circle id="Ellipse_4054" data-name="Ellipse 4054" cx="55" cy="55" r="55" transform="translate(0 0)" fill="#ffca28"/>
  <path id="Path_103972" data-name="Path 103972" d="M51.189,7.877h-37.3a5.978,5.978,0,0,0-6.016,6.016V71.471a6.09,6.09,0,0,0,6.016,6.016h37.3A6.09,6.09,0,0,0,57.2,71.471V13.893A5.978,5.978,0,0,0,51.189,7.877Z" transform="translate(-6.158 -6.158)" fill="#fff"/>
  <path id="Path_103973" data-name="Path 103973" d="M45.031,72.875H7.734A7.7,7.7,0,0,1,0,65.14V7.734A7.7,7.7,0,0,1,7.734,0h37.3a7.7,7.7,0,0,1,7.734,7.734V65.312A7.667,7.667,0,0,1,45.031,72.875ZM7.734,3.438a4.255,4.255,0,0,0-4.3,4.3V65.312a4.255,4.255,0,0,0,4.3,4.3h37.3a4.255,4.255,0,0,0,4.3-4.3V7.734a4.255,4.255,0,0,0-4.3-4.3Z" fill="#12263f"/>
  <path id="Path_103974" data-name="Path 103974" d="M57.205,18.877V13.893A6.09,6.09,0,0,0,51.19,7.877h-37.3a5.978,5.978,0,0,0-6.016,6.016v5.156" transform="translate(-6.158 -6.158)" fill="#e1e6e8"/>
  <path id="Path_103975" data-name="Path 103975" d="M51.047,14.437a1.624,1.624,0,0,1-1.719-1.719V7.734a4.255,4.255,0,0,0-4.3-4.3H7.734a4.255,4.255,0,0,0-4.3,4.3v5.156a1.624,1.624,0,0,1-1.719,1.719A1.624,1.624,0,0,1,0,12.891V7.734A7.7,7.7,0,0,1,7.734,0h37.3a7.7,7.7,0,0,1,7.734,7.734v5.156A1.7,1.7,0,0,1,51.047,14.437Z" fill="#12263f"/>
  <path id="Path_103976" data-name="Path 103976" d="M7.877,261.514v8.25a6.09,6.09,0,0,0,6.016,6.016h37.3a6.09,6.09,0,0,0,6.016-6.016v-8.25" transform="translate(-6.158 -204.452)" fill="#e1e6e8"/>
  <path id="Path_103977" data-name="Path 103977" d="M45.031,270.552H7.734A7.7,7.7,0,0,1,0,262.818v-8.25a1.624,1.624,0,0,1,1.719-1.719,1.624,1.624,0,0,1,1.719,1.719v8.25a4.255,4.255,0,0,0,4.3,4.3h37.3a4.255,4.255,0,0,0,4.3-4.3v-8.25a1.719,1.719,0,1,1,3.438,0v8.25A7.7,7.7,0,0,1,45.031,270.552Z" transform="translate(0 -197.677)" fill="#183651"/>
  <g id="Group_92259" data-name="Group 92259" transform="translate(19.422 6.875)">
    <circle id="Ellipse_4055" data-name="Ellipse 4055" cx="3.094" cy="3.094" r="3.094" transform="translate(3.781 53.453)" fill="#cfd0d1"/>
    <path id="Path_103978" data-name="Path 103978" d="M101.728,31.508H90.04a1.031,1.031,0,0,0,0,2.062h11.687a.991.991,0,0,0,1.031-1.031C102.931,32.024,102.415,31.508,101.728,31.508Z" transform="translate(-89.009 -31.508)" fill="#cfd0d1"/>
  </g>
  <path id="Path_103979" data-name="Path 103979" d="M87.122,111.839V108.4l-3.266-.516a8.489,8.489,0,0,0-1.375-3.094l1.891-2.75-2.406-2.406-2.75,1.891a12.213,12.213,0,0,0-3.094-1.375l-.516-3.266H72.169l-.516,3.266a8.49,8.49,0,0,0-3.094,1.375l-2.75-1.891L63.4,102.042l1.891,2.75a12.213,12.213,0,0,0-1.375,3.094l-3.266.516v3.438l3.266.516a8.49,8.49,0,0,0,1.375,3.094L63.4,118.2l2.406,2.406,2.75-1.891a12.213,12.213,0,0,0,3.094,1.375l.516,3.266h3.438l.516-3.266a8.49,8.49,0,0,0,3.094-1.375l2.75,1.891,2.406-2.406-1.891-2.75a12.213,12.213,0,0,0,1.375-3.094Zm-13.406,2.578a4.3,4.3,0,1,1,4.3-4.3A4.255,4.255,0,0,1,73.715,114.417Z" transform="translate(-47.418 -75.745)" fill="#ffa726"/>
  <path id="Path_103980" data-name="Path 103980" d="M254.344,220.554H197.8a4.8,4.8,0,0,0-4.812,4.812V266.96a4.8,4.8,0,0,0,4.812,4.812h56.547a4.8,4.8,0,0,0,4.812-4.812V225.366A4.918,4.918,0,0,0,254.344,220.554Z" transform="translate(-150.876 -172.429)" fill="#fff"/>
  <path id="Path_103981" data-name="Path 103981" d="M248.186,267.505H191.639a6.528,6.528,0,0,1-6.531-6.531V219.208a6.528,6.528,0,0,1,6.531-6.531h56.547a6.528,6.528,0,0,1,6.531,6.531V260.8A6.568,6.568,0,0,1,248.186,267.505Zm-56.547-51.391a3.081,3.081,0,0,0-3.094,3.094V260.8a3.081,3.081,0,0,0,3.094,3.094h56.547a3.081,3.081,0,0,0,3.094-3.094V219.208a3.081,3.081,0,0,0-3.094-3.094Z" transform="translate(-144.717 -166.271)" fill="#12263f"/>
  <rect id="Rectangle_31874" data-name="Rectangle 31874" width="52.422" height="32.312" transform="translate(48.984 55)" fill="#039be5"/>
  <path id="Path_103982" data-name="Path 103982" d="M316.425,464.84H294.6l2.922-8.766H313.5Z" transform="translate(-230.316 -356.559)" fill="#e1e6e8"/>
  <g id="Group_92260" data-name="Group 92260" transform="translate(59.812 97.797)">
    <path id="Path_103983" data-name="Path 103983" d="M310.478,460.4H288.65a2.122,2.122,0,0,1-1.375-.688,1.671,1.671,0,0,1-.172-1.547l2.922-8.766a1.651,1.651,0,0,1,1.547-1.2h15.984a1.651,1.651,0,0,1,1.547,1.2l2.922,8.422a1.287,1.287,0,0,1,.172.859A1.722,1.722,0,0,1,310.478,460.4Zm-19.422-3.438h17.016l-1.719-5.328H292.947Z" transform="translate(-284.181 -448.197)" fill="#12263f"/>
    <path id="Path_103984" data-name="Path 103984" d="M303.164,491.806H275.836a1.719,1.719,0,0,1,0-3.438h27.328a1.624,1.624,0,0,1,1.719,1.719A1.848,1.848,0,0,1,303.164,491.806Z" transform="translate(-274.117 -479.603)" fill="#12263f"/>
  </g>
  <g id="Group_92261" data-name="Group 92261" transform="translate(62.734 90.062)">
    <circle id="Ellipse_4056" data-name="Ellipse 4056" cx="2.406" cy="2.406" r="2.406" fill="#cfd0d1"/>
    <circle id="Ellipse_4057" data-name="Ellipse 4057" cx="2.406" cy="2.406" r="2.406" transform="translate(10.141)" fill="#cfd0d1"/>
    <circle id="Ellipse_4058" data-name="Ellipse 4058" cx="2.406" cy="2.406" r="2.406" transform="translate(20.109)" fill="#cfd0d1"/>
  </g>
  <path id="Path_103985" data-name="Path 103985" d="M316.425,288.068v-2.75l-2.75-.516a6.782,6.782,0,0,0-1.031-2.578l1.547-2.234-2.062-2.062-2.234,1.547a8.1,8.1,0,0,0-2.578-1.031l-.516-2.75h-2.75l-.516,2.75a6.782,6.782,0,0,0-2.578,1.031l-2.234-1.547-1.891,2.062,1.547,2.234a8.105,8.105,0,0,0-1.031,2.578l-2.75.516v2.75l2.75.516a6.783,6.783,0,0,0,1.031,2.578l-1.547,2.234,2.062,2.062,2.234-1.547a8.1,8.1,0,0,0,2.578,1.031l.516,2.75h2.75l.516-2.75a6.782,6.782,0,0,0,2.578-1.031l2.234,1.547,2.062-2.062-1.547-2.234a8.1,8.1,0,0,0,1.031-2.578ZM305.6,290.13a3.438,3.438,0,1,1,3.438-3.438A3.448,3.448,0,0,1,305.6,290.13Z" transform="translate(-230.316 -215.537)" fill="#fff"/>
  <path id="Path_103986" data-name="Path 103986" d="M281.725,100.054h-3.438V96.617h3.438Zm0-6.875h-3.438V89.742h3.438Zm0-6.875h-3.438V82.867h3.438Zm-3.438-6.875a7.127,7.127,0,0,0-.516-2.75l3.266-1.2a14.707,14.707,0,0,1,.859,3.953Zm-2.062-5.156a11.838,11.838,0,0,0-2.234-1.891l1.719-2.922a11.255,11.255,0,0,1,3.094,2.578Zm-4.812-2.922a4.756,4.756,0,0,0-1.547-.172h-1.547V67.742h1.547a9.8,9.8,0,0,1,2.234.172Zm-6.531,0h-3.438V67.914h3.438Zm-6.875,0h-3.438V67.914h3.438Zm-6.875,0h-3.438V67.914h3.438Zm-6.875,0h-3.438V67.914h3.438Zm-6.875,0h-3.438V67.914h3.438Z" transform="translate(-182.897 -52.961)" fill="#12263f"/>
</svg>
