<svg id="t3-ic4" xmlns="http://www.w3.org/2000/svg" width="110" height="110" viewBox="0 0 110 110">
  <circle id="Ellipse_4087" data-name="Ellipse 4087" cx="39.703" cy="39.703" r="39.703" transform="translate(15.984 15.469)" fill="#ffca28"/>
  <path id="Path_104725" data-name="Path 104725" d="M178.512,152.358V142.9l-7.047-.859a20.631,20.631,0,0,0-2.578-6.359l4.3-5.5-6.531-6.7-5.5,4.3a20.626,20.626,0,0,0-6.359-2.578l-.859-7.047h-9.453l-.859,7.047a20.632,20.632,0,0,0-6.359,2.578l-5.5-4.3-6.7,6.7,4.3,5.5a20.626,20.626,0,0,0-2.578,6.359l-7.047.859v9.453l7.047.859a20.632,20.632,0,0,0,2.578,6.359l-4.3,5.5,6.7,6.7,5.5-4.3a20.626,20.626,0,0,0,6.359,2.578l.859,7.047h9.453l.859-7.047a20.632,20.632,0,0,0,6.359-2.578l5.5,4.3,6.7-6.7-4.3-5.5a20.626,20.626,0,0,0,2.578-6.359Z" transform="translate(-93.606 -92.373)" fill="#fff"/>
  <path id="Path_104726" data-name="Path 104726" d="M147.773,173.11H138.32a1.828,1.828,0,0,1-1.719-1.547l-.688-5.844c-1.547-.516-3.094-1.2-4.641-1.891l-4.641,3.609a1.607,1.607,0,0,1-2.234-.172l-6.7-6.7a1.619,1.619,0,0,1-.172-2.234l3.609-4.641a26.343,26.343,0,0,1-1.891-4.641l-5.844-.688a1.828,1.828,0,0,1-1.547-1.719v-9.453a1.828,1.828,0,0,1,1.547-1.719l5.844-.688c.516-1.547,1.2-3.094,1.891-4.641l-3.609-4.641a1.607,1.607,0,0,1,.172-2.234l6.7-6.7a1.619,1.619,0,0,1,2.234-.172l4.641,3.953a26.343,26.343,0,0,1,4.641-1.891l.688-5.844a1.828,1.828,0,0,1,1.719-1.547h9.453a1.828,1.828,0,0,1,1.719,1.547l.688,5.844c1.547.516,3.094,1.2,4.641,1.891l4.641-3.609a1.607,1.607,0,0,1,2.234.172l6.7,6.7a1.619,1.619,0,0,1,.172,2.234l-3.609,4.641a26.342,26.342,0,0,1,1.891,4.641l5.844.688a1.828,1.828,0,0,1,1.547,1.719v9.453A1.828,1.828,0,0,1,172.7,148.7l-5.844.688c-.516,1.547-1.2,3.094-1.891,4.641l3.609,4.641a1.607,1.607,0,0,1-.172,2.234l-6.7,6.7a1.619,1.619,0,0,1-2.234.172l-4.641-3.609a26.342,26.342,0,0,1-4.641,1.891l-.688,5.844A1.936,1.936,0,0,1,147.773,173.11Zm-7.906-3.438h6.359l.688-5.5a1.459,1.459,0,0,1,1.2-1.375,22.02,22.02,0,0,0,5.844-2.406,1.541,1.541,0,0,1,1.891.172l4.3,3.438,4.469-4.469-3.438-4.3a1.563,1.563,0,0,1-.172-1.891,24.654,24.654,0,0,0,2.406-5.844,1.459,1.459,0,0,1,1.375-1.2l5.5-.688V139.25l-5.5-.688a1.459,1.459,0,0,1-1.375-1.2,22.021,22.021,0,0,0-2.406-5.844,1.541,1.541,0,0,1,.172-1.891l3.438-4.3-4.3-4.984-4.3,3.438a1.563,1.563,0,0,1-1.891.172,24.654,24.654,0,0,0-5.844-2.406,1.459,1.459,0,0,1-1.2-1.375l-.688-5.5h-6.359l-.688,5.5a1.459,1.459,0,0,1-1.2,1.375,22.02,22.02,0,0,0-5.844,2.406,1.541,1.541,0,0,1-1.891-.172l-4.3-3.438-4.469,4.469,3.438,4.3a1.563,1.563,0,0,1,.172,1.891,24.654,24.654,0,0,0-2.406,5.844,1.459,1.459,0,0,1-1.375,1.2l-5.5.688v6.359l5.5.688a1.459,1.459,0,0,1,1.375,1.2,22.02,22.02,0,0,0,2.406,5.844,1.541,1.541,0,0,1-.172,1.891l-3.438,4.3,4.469,4.469,4.3-3.438a1.563,1.563,0,0,1,1.891-.172,24.653,24.653,0,0,0,5.844,2.406,1.459,1.459,0,0,1,1.2,1.375Z" transform="translate(-87.445 -86.828)" fill="#12263f"/>
  <circle id="Ellipse_4088" data-name="Ellipse 4088" cx="16.5" cy="16.5" r="16.5" transform="translate(39.188 38.672)" fill="#ffa726"/>
  <circle id="Ellipse_4089" data-name="Ellipse 4089" cx="5.672" cy="5.672" r="5.672" transform="translate(50.016 49.5)" fill="#fff"/>
  <path id="Path_104727" data-name="Path 104727" d="M228.732,234.547a7.391,7.391,0,1,1,7.391-7.391A7.562,7.562,0,0,1,228.732,234.547Zm0-11.516a4,4,0,0,0-3.953,3.953,4.119,4.119,0,0,0,3.953,3.953,3.953,3.953,0,0,0,0-7.906Z" transform="translate(-173.044 -171.813)" fill="#12263f"/>
  <path id="SVGCleanerId_1" d="M87.233,438.587a8.615,8.615,0,0,1-1.375-1.2l2.234-2.578c.344.344.859.688,1.2,1.031Z" transform="translate(-67.124 -339.931)" fill="#183651"/>
  <path id="SVGCleanerId_2" d="M124.429,458.853l-3.094-.516.688-3.266c1.031.172,1.891.344,2.922.516Zm-6.188-1.031c-1.031-.344-2.062-.516-3.094-.859l1.031-3.266a16.888,16.888,0,0,0,2.75.859Zm-6.016-2.234a22.34,22.34,0,0,1-2.922-1.375l1.547-3.094a17.364,17.364,0,0,0,2.578,1.2Zm-5.672-2.922c-.859-.516-1.719-1.2-2.578-1.719l2.062-2.75c.859.516,1.547,1.031,2.406,1.547Z" transform="translate(-81.288 -350.4)" fill="#183651"/>
  <path id="SVGCleanerId_3" d="M214.4,486.293h-1.719l.172-3.438H214.4Z" transform="translate(-166.271 -377.496)" fill="#183651"/>
  <path id="SVGCleanerId_4" d="M34.746,330.848A43.742,43.742,0,0,1,20.48,298.536h3.438A39.979,39.979,0,0,0,37.152,328.27Z" transform="translate(-16.011 -233.395)" fill="#183651"/>
  <path id="Path_104728" data-name="Path 104728" d="M2.75,297.3,0,295.242l5.844-7.734,7.734,5.844-2.063,2.75L6.531,292.32Z" transform="translate(0 -224.774)" fill="#183651"/>
  <path id="SVGCleanerId_6" d="M403.1,55.769a8.606,8.606,0,0,0-1.375-1.2l2.234-2.578a8.615,8.615,0,0,1,1.375,1.2Z" transform="translate(-314.067 -40.644)" fill="#183651"/>
  <path id="SVGCleanerId_7" d="M323.743,17.129c-.859-.516-1.547-1.031-2.406-1.547l1.719-2.922c.859.516,1.719,1.2,2.578,1.719Zm-4.984-3.094a17.361,17.361,0,0,0-2.578-1.2l1.375-3.094a22.337,22.337,0,0,1,2.922,1.375ZM313.431,11.8a16.887,16.887,0,0,0-2.75-.859l.688-3.438c1.031.344,2.062.516,3.094.859Zm-5.672-1.547c-1.031-.172-1.891-.344-2.922-.516l.344-3.438,3.094.516Z" transform="translate(-238.321 -4.926)" fill="#183651"/>
  <path id="SVGCleanerId_8" d="M285.9,8.952h-1.547V5.514h1.719Z" transform="translate(-222.31 -4.311)" fill="#183651"/>
  <path id="SVGCleanerId_9" d="M423.909,89.814h-3.438A39.979,39.979,0,0,0,407.237,60.08l2.234-2.578A43.284,43.284,0,0,1,423.909,89.814Z" transform="translate(-318.378 -44.955)" fill="#183651"/>
  <path id="Path_104729" data-name="Path 104729" d="M449.63,181.514l-7.735-5.844,2.063-2.75,4.984,3.781,3.781-4.984,2.75,2.062Z" transform="translate(-345.473 -134.248)" fill="#183651"/>
  <g id="Group_92406" data-name="Group 92406" transform="translate(18.734 94.875)">
    <path id="SVGCleanerId_1_1_" d="M87.233,438.587a8.615,8.615,0,0,1-1.375-1.2l2.234-2.578c.344.344.859.688,1.2,1.031Z" transform="translate(-85.858 -434.806)" fill="#12263f"/>
  </g>
  <g id="Group_92407" data-name="Group 92407" transform="translate(22.688 97.797)">
    <path id="SVGCleanerId_2_1_" d="M124.429,458.853l-3.094-.516.688-3.266c1.031.172,1.891.344,2.922.516Zm-6.188-1.031c-1.031-.344-2.062-.516-3.094-.859l1.031-3.266a16.888,16.888,0,0,0,2.75.859Zm-6.016-2.234a22.34,22.34,0,0,1-2.922-1.375l1.547-3.094a17.364,17.364,0,0,0,2.578,1.2Zm-5.672-2.922c-.859-.516-1.719-1.2-2.578-1.719l2.062-2.75c.859.516,1.547,1.031,2.406,1.547Z" transform="translate(-103.976 -448.197)" fill="#12263f"/>
  </g>
  <g id="Group_92408" data-name="Group 92408" transform="translate(46.406 105.359)">
    <path id="SVGCleanerId_3_1_" d="M214.4,486.293h-1.719l.172-3.438H214.4Z" transform="translate(-212.677 -482.855)" fill="#12263f"/>
  </g>
  <g id="Group_92409" data-name="Group 92409" transform="translate(4.469 65.141)">
    <path id="SVGCleanerId_4_1_" d="M34.746,330.848A43.742,43.742,0,0,1,20.48,298.536h3.438A39.979,39.979,0,0,0,37.152,328.27Z" transform="translate(-20.48 -298.536)" fill="#12263f"/>
  </g>
  <path id="Path_104730" data-name="Path 104730" d="M2.75,297.3,0,295.242l5.844-7.734,7.734,5.844-2.063,2.75L6.531,292.32Z" transform="translate(0 -224.774)" fill="#12263f"/>
  <g id="Group_92410" data-name="Group 92410" transform="translate(87.656 11.344)">
    <path id="SVGCleanerId_6_1_" d="M403.1,55.769a8.606,8.606,0,0,0-1.375-1.2l2.234-2.578a8.615,8.615,0,0,1,1.375,1.2Z" transform="translate(-401.723 -51.988)" fill="#12263f"/>
  </g>
  <g id="Group_92411" data-name="Group 92411" transform="translate(66.516 1.375)">
    <path id="SVGCleanerId_7_1_" d="M323.743,17.129c-.859-.516-1.547-1.031-2.406-1.547l1.719-2.922c.859.516,1.719,1.2,2.578,1.719Zm-4.984-3.094a17.361,17.361,0,0,0-2.578-1.2l1.375-3.094a22.337,22.337,0,0,1,2.922,1.375ZM313.431,11.8a16.887,16.887,0,0,0-2.75-.859l.688-3.438c1.031.344,2.062.516,3.094.859Zm-5.672-1.547c-1.031-.172-1.891-.344-2.922-.516l.344-3.438,3.094.516Z" transform="translate(-304.837 -6.301)" fill="#12263f"/>
  </g>
  <g id="Group_92412" data-name="Group 92412" transform="translate(62.047 1.203)">
    <path id="SVGCleanerId_8_1_" d="M285.9,8.952h-1.547V5.514h1.719Z" transform="translate(-284.357 -5.514)" fill="#12263f"/>
  </g>
  <g id="Group_92413" data-name="Group 92413" transform="translate(88.859 12.547)">
    <path id="SVGCleanerId_9_1_" d="M423.909,89.814h-3.438A39.979,39.979,0,0,0,407.237,60.08l2.234-2.578A43.284,43.284,0,0,1,423.909,89.814Z" transform="translate(-407.237 -57.502)" fill="#12263f"/>
  </g>
  <path id="Path_104731" data-name="Path 104731" d="M449.63,181.514l-7.735-5.844,2.063-2.75,4.984,3.781,3.781-4.984,2.75,2.062Z" transform="translate(-345.473 -134.248)" fill="#12263f"/>
  <path id="SVGCleanerId_11" d="M54.566,89.467l-2.578-2.234a8.615,8.615,0,0,1,1.2-1.375l2.578,2.234A8.615,8.615,0,0,0,54.566,89.467Z" transform="translate(-40.644 -67.124)" fill="#183651"/>
  <path id="SVGCleanerId_12" d="M9.739,124.773,6.3,124.429l.516-3.094,3.266.688A15.016,15.016,0,0,1,9.739,124.773Zm1.2-5.672L7.5,118.242c.344-1.031.516-2.062.859-3.094l3.266,1.031C11.457,117.21,11.114,118.07,10.942,119.1Zm1.891-5.672-3.094-1.375a22.339,22.339,0,0,1,1.375-2.922l3.094,1.547A13.64,13.64,0,0,0,12.832,113.429Zm2.578-5.156-2.922-1.719c.516-.859,1.2-1.719,1.719-2.578l2.75,2.062C16.614,106.726,15.926,107.413,15.41,108.273Z" transform="translate(-4.926 -81.288)" fill="#183651"/>
  <path id="SVGCleanerId_13" d="M8.952,214.4H5.514v-1.719l3.438.172Z" transform="translate(-4.311 -166.271)" fill="#183651"/>
  <path id="SVGCleanerId_14" d="M60.08,36.98,57.5,34.746A43.742,43.742,0,0,1,89.814,20.48v3.438A40.447,40.447,0,0,0,60.08,36.98Z" transform="translate(-44.955 -16.011)" fill="#183651"/>
  <path id="Path_104732" data-name="Path 104732" d="M175.67,13.578l-2.75-2.063L176.7,6.531,171.717,2.75,173.779,0l7.734,5.844Z" transform="translate(-134.248)" fill="#183651"/>
  <path id="SVGCleanerId_16" d="M437.385,405.949l-2.578-2.234c.344-.344.688-.859,1.031-1.2l2.578,2.234C438.244,405.089,437.729,405.433,437.385,405.949Z" transform="translate(-339.932 -314.683)" fill="#183651"/>
  <path id="SVGCleanerId_17" d="M450.947,325.19l-2.75-2.062c.516-.859,1.031-1.547,1.547-2.406l2.922,1.719A24.04,24.04,0,0,1,450.947,325.19Zm3.438-5.5-3.094-1.547a17.361,17.361,0,0,0,1.2-2.578l3.094,1.375C455.244,317.8,454.728,318.83,454.385,319.69Zm2.406-5.844-3.266-1.031a16.888,16.888,0,0,0,.859-2.75l3.438.688Zm1.719-6.188-3.266-.688c.172-1.031.344-1.891.516-2.922l3.438.344A27.962,27.962,0,0,0,458.509,307.658Z" transform="translate(-350.4 -237.705)" fill="#183651"/>
  <path id="SVGCleanerId_18" d="M486.293,285.288l-3.438-.172v-1.547h3.438Z" transform="translate(-377.496 -221.694)" fill="#183651"/>
  <path id="SVGCleanerId_19" d="M298.535,423.909v-3.438a39.979,39.979,0,0,0,29.734-13.234l2.578,2.234A43.284,43.284,0,0,1,298.535,423.909Z" transform="translate(-233.394 -318.378)" fill="#183651"/>
  <path id="Path_104733" data-name="Path 104733" d="M295.242,455.473l-7.734-5.844,5.844-7.735,2.75,2.063-3.781,4.984,4.984,3.781Z" transform="translate(-224.774 -345.473)" fill="#183651"/>
  <g id="Group_92414" data-name="Group 92414" transform="translate(11.344 18.734)">
    <path id="SVGCleanerId_11_1_" d="M54.566,89.467l-2.578-2.234a8.615,8.615,0,0,1,1.2-1.375l2.578,2.234A8.615,8.615,0,0,0,54.566,89.467Z" transform="translate(-51.988 -85.858)" fill="#12263f"/>
  </g>
  <g id="Group_92415" data-name="Group 92415" transform="translate(1.375 22.688)">
    <path id="SVGCleanerId_12_1_" d="M9.739,124.773,6.3,124.429l.516-3.094,3.266.688A15.016,15.016,0,0,1,9.739,124.773Zm1.2-5.672L7.5,118.242c.344-1.031.516-2.062.859-3.094l3.266,1.031C11.457,117.21,11.114,118.07,10.942,119.1Zm1.891-5.672-3.094-1.375a22.339,22.339,0,0,1,1.375-2.922l3.094,1.547A13.64,13.64,0,0,0,12.832,113.429Zm2.578-5.156-2.922-1.719c.516-.859,1.2-1.719,1.719-2.578l2.75,2.062C16.614,106.726,15.926,107.413,15.41,108.273Z" transform="translate(-6.301 -103.976)" fill="#12263f"/>
  </g>
  <g id="Group_92416" data-name="Group 92416" transform="translate(1.203 46.406)">
    <path id="SVGCleanerId_13_1_" d="M8.952,214.4H5.514v-1.719l3.438.172Z" transform="translate(-5.514 -212.677)" fill="#12263f"/>
  </g>
  <g id="Group_92417" data-name="Group 92417" transform="translate(12.547 4.469)">
    <path id="SVGCleanerId_14_1_" d="M60.08,36.98,57.5,34.746A43.742,43.742,0,0,1,89.814,20.48v3.438A40.447,40.447,0,0,0,60.08,36.98Z" transform="translate(-57.502 -20.48)" fill="#12263f"/>
  </g>
  <path id="Path_104734" data-name="Path 104734" d="M175.67,13.578l-2.75-2.063L176.7,6.531,171.717,2.75,173.779,0l7.734,5.844Z" transform="translate(-134.248)" fill="#12263f"/>
  <g id="Group_92418" data-name="Group 92418" transform="translate(94.875 87.828)">
    <path id="SVGCleanerId_16_1_" d="M437.385,405.949l-2.578-2.234c.344-.344.688-.859,1.031-1.2l2.578,2.234C438.244,405.089,437.729,405.433,437.385,405.949Z" transform="translate(-434.807 -402.511)" fill="#12263f"/>
  </g>
  <g id="Group_92419" data-name="Group 92419" transform="translate(97.797 66.344)">
    <path id="SVGCleanerId_17_1_" d="M450.947,325.19l-2.75-2.062c.516-.859,1.031-1.547,1.547-2.406l2.922,1.719A24.04,24.04,0,0,1,450.947,325.19Zm3.438-5.5-3.094-1.547a17.361,17.361,0,0,0,1.2-2.578l3.094,1.375C455.244,317.8,454.728,318.83,454.385,319.69Zm2.406-5.844-3.266-1.031a16.888,16.888,0,0,0,.859-2.75l3.438.688Zm1.719-6.188-3.266-.688c.172-1.031.344-1.891.516-2.922l3.438.344A27.962,27.962,0,0,0,458.509,307.658Z" transform="translate(-448.197 -304.049)" fill="#12263f"/>
  </g>
  <g id="Group_92420" data-name="Group 92420" transform="translate(105.359 61.875)">
    <path id="SVGCleanerId_18_1_" d="M486.293,285.288l-3.438-.172v-1.547h3.438Z" transform="translate(-482.855 -283.569)" fill="#12263f"/>
  </g>
  <g id="Group_92421" data-name="Group 92421" transform="translate(65.141 88.859)">
    <path id="SVGCleanerId_19_1_" d="M298.535,423.909v-3.438a39.979,39.979,0,0,0,29.734-13.234l2.578,2.234A43.284,43.284,0,0,1,298.535,423.909Z" transform="translate(-298.535 -407.237)" fill="#12263f"/>
  </g>
  <path id="Path_104735" data-name="Path 104735" d="M295.242,455.473l-7.734-5.844,5.844-7.735,2.75,2.063-3.781,4.984,4.984,3.781Z" transform="translate(-224.774 -345.473)" fill="#12263f"/>
</svg>
