<svg xmlns="http://www.w3.org/2000/svg" width="120.15" height="120" viewBox="0 0 120.15 120">
  <g id="t3-i1" transform="translate(-18.117 -18.117)">
    <g id="Group_92291" data-name="Group 92291" transform="translate(54.279 95.491)">
      <rect id="Rectangle_31900" data-name="Rectangle 31900" width="47.879" height="4.04" transform="translate(0 13.131)" fill="#12263f"/>
      <rect id="Rectangle_31901" data-name="Rectangle 31901" width="4.04" height="14.949" transform="translate(21.818)" fill="#12263f"/>
    </g>
    <path id="Path_104022" data-name="Path 104022" d="M177,123.668H112.762a4.916,4.916,0,0,0-4.849,4.849v15.555a4.916,4.916,0,0,0,4.849,4.849H177a4.916,4.916,0,0,0,4.849-4.849V128.517A4.786,4.786,0,0,0,177,123.668Z" transform="translate(-66.766 -78.48)" fill="#039be5"/>
    <path id="Path_104023" data-name="Path 104023" d="M171.147,144.3H106.9a6.812,6.812,0,0,1-6.869-6.869V121.871A6.812,6.812,0,0,1,106.9,115h64.242a6.812,6.812,0,0,1,6.869,6.869v15.555A6.941,6.941,0,0,1,171.147,144.3ZM106.9,119.245a2.762,2.762,0,0,0-2.828,2.828v15.555a2.762,2.762,0,0,0,2.828,2.828h64.242a2.762,2.762,0,0,0,2.828-2.828V122.073a2.762,2.762,0,0,0-2.828-2.828Z" transform="translate(-60.909 -72.037)" fill="#183651"/>
    <rect id="Rectangle_31902" data-name="Rectangle 31902" width="61.01" height="12.323" transform="translate(47.612 51.45)" fill="#fff"/>
    <path id="Path_104024" data-name="Path 104024" d="M177,221.342H112.762a4.916,4.916,0,0,0-4.849,4.849v15.555a4.916,4.916,0,0,0,4.849,4.849H177a4.916,4.916,0,0,0,4.849-4.849V226.191A4.916,4.916,0,0,0,177,221.342Z" transform="translate(-66.766 -151.104)" fill="#039be5"/>
    <path id="Path_104025" data-name="Path 104025" d="M171.147,242.757H106.9a6.812,6.812,0,0,1-6.869-6.869V220.333a6.812,6.812,0,0,1,6.869-6.869h64.242a6.812,6.812,0,0,1,6.869,6.869v15.555A6.941,6.941,0,0,1,171.147,242.757ZM106.9,217.5a2.762,2.762,0,0,0-2.828,2.828v15.555a2.762,2.762,0,0,0,2.828,2.828h64.242a2.762,2.762,0,0,0,2.828-2.828V220.333a2.762,2.762,0,0,0-2.828-2.828Z" transform="translate(-60.909 -145.246)" fill="#183651"/>
    <rect id="Rectangle_31903" data-name="Rectangle 31903" width="61.01" height="12.323" transform="translate(47.612 76.703)" fill="#fff"/>
    <g id="Group_92292" data-name="Group 92292" transform="translate(52.258 55.087)">
      <circle id="Ellipse_4074" data-name="Ellipse 4074" cx="2.626" cy="2.626" r="2.626" transform="translate(0 25.252)" fill="#ffa726"/>
      <circle id="Ellipse_4075" data-name="Ellipse 4075" cx="2.626" cy="2.626" r="2.626" transform="translate(0 0)" fill="#ffa726"/>
    </g>
    <g id="Group_92293" data-name="Group 92293" transform="translate(62.36 55.087)">
      <circle id="Ellipse_4076" data-name="Ellipse 4076" cx="2.626" cy="2.626" r="2.626" transform="translate(0 25.252)" fill="#ffa726"/>
      <circle id="Ellipse_4077" data-name="Ellipse 4077" cx="2.626" cy="2.626" r="2.626" transform="translate(0 0)" fill="#ffa726"/>
    </g>
    <g id="Group_92294" data-name="Group 92294" transform="translate(72.46 55.087)">
      <circle id="Ellipse_4078" data-name="Ellipse 4078" cx="2.626" cy="2.626" r="2.626" transform="translate(0 25.252)" fill="#ffa726"/>
      <circle id="Ellipse_4079" data-name="Ellipse 4079" cx="2.626" cy="2.626" r="2.626" transform="translate(0 0)" fill="#ffa726"/>
    </g>
    <circle id="Ellipse_4080" data-name="Ellipse 4080" cx="4.646" cy="4.646" r="4.646" transform="translate(73.471 105.996)" fill="#fff"/>
    <g id="Group_92295" data-name="Group 92295" transform="translate(18.117 18.117)">
      <path id="Path_104026" data-name="Path 104026" d="M232.735,365.431a6.667,6.667,0,1,1,6.667-6.667A6.6,6.6,0,0,1,232.735,365.431Zm0-9.091a2.626,2.626,0,1,0,2.626,2.626A2.674,2.674,0,0,0,232.735,356.341Z" transform="translate(-172.735 -266.442)" fill="#12263f"/>
      <path id="Path_104027" data-name="Path 104027" d="M167.367,34.024a1.976,1.976,0,0,1,.4-2.828l5.859-4.646L167.771,21.9a2.173,2.173,0,0,1-.4-2.828,2.173,2.173,0,0,1,2.828-.4l7.879,6.263a2.494,2.494,0,0,1,.808,1.616,1.838,1.838,0,0,1-.808,1.616L170.2,34.226A1.935,1.935,0,0,1,167.367,34.024Z" transform="translate(-128.781 -18.266)" fill="#12263f"/>
      <path id="Path_104028" data-name="Path 104028" d="M20.137,92.03a1.909,1.909,0,0,1-2.02-2.02A47.549,47.549,0,0,1,65.592,42.535H66.2a2.02,2.02,0,1,1,0,4.04h-.606A43.5,43.5,0,0,0,22.157,90.01,1.909,1.909,0,0,1,20.137,92.03Z" transform="translate(-18.117 -36.272)" fill="#12263f"/>
      <path id="Path_104029" data-name="Path 104029" d="M30.994,301.769l-4.444-5.859L21.9,301.769a2.173,2.173,0,0,1-2.828.4,2.173,2.173,0,0,1-.4-2.828l6.263-7.879a2.494,2.494,0,0,1,1.616-.808h0a1.838,1.838,0,0,1,1.616.808l6.061,7.879a1.976,1.976,0,0,1-.4,2.828A1.845,1.845,0,0,1,30.994,301.769Z" transform="translate(-18.267 -220.759)" fill="#12263f"/>
      <path id="Path_104030" data-name="Path 104030" d="M90.01,340.759a47.549,47.549,0,0,1-47.475-47.475v-.606a2.02,2.02,0,1,1,4.04,0v.606A43.5,43.5,0,0,0,90.01,336.719a1.909,1.909,0,0,1,2.02,2.02A2.024,2.024,0,0,1,90.01,340.759Z" transform="translate(-36.272 -220.759)" fill="#12263f"/>
      <path id="Path_104031" data-name="Path 104031" d="M299.345,438.135l-7.879-6.262a2.494,2.494,0,0,1-.808-1.616,1.837,1.837,0,0,1,.808-1.616l7.879-6.061a2.02,2.02,0,1,1,2.424,3.232l-5.859,4.444,5.859,4.646a2.173,2.173,0,0,1,.4,2.828A2.2,2.2,0,0,1,299.345,438.135Z" transform="translate(-220.759 -318.539)" fill="#12263f"/>
      <path id="Path_104032" data-name="Path 104032" d="M293.284,318.1h-.606a2.02,2.02,0,1,1,0-4.04h.606a43.5,43.5,0,0,0,43.434-43.434,2.02,2.02,0,0,1,4.04,0A47.549,47.549,0,0,1,293.284,318.1Z" transform="translate(-220.759 -204.361)" fill="#12263f"/>
      <path id="Path_104033" data-name="Path 104033" d="M430.256,178.882h0a1.838,1.838,0,0,1-1.616-.808l-6.061-7.879a2.02,2.02,0,1,1,3.232-2.424l4.646,5.859,4.646-5.859a2.02,2.02,0,0,1,3.232,2.424l-6.263,7.879A2.468,2.468,0,0,1,430.256,178.882Z" transform="translate(-318.539 -128.781)" fill="#12263f"/>
      <path id="Path_104034" data-name="Path 104034" d="M316.078,68.218a1.909,1.909,0,0,1-2.02-2.02v-.606a43.5,43.5,0,0,0-43.434-43.434,1.909,1.909,0,0,1-2.02-2.02,1.909,1.909,0,0,1,2.02-2.02A47.549,47.549,0,0,1,318.1,65.592V66.2A2.025,2.025,0,0,1,316.078,68.218Z" transform="translate(-204.361 -18.117)" fill="#12263f"/>
    </g>
  </g>
</svg>
