<svg id="t3-ic2" xmlns="http://www.w3.org/2000/svg" width="110" height="110" viewBox="0 0 110 110">
  <circle id="Ellipse_4091" data-name="Ellipse 4091" cx="55" cy="55" r="55" transform="translate(0 0)" fill="#4dd0e1"/>
  <path id="Path_104745" data-name="Path 104745" d="M7.877,367.065H114.439a15.331,15.331,0,0,1-15.3,15.3H23.174a15.221,15.221,0,0,1-15.3-15.3Z" transform="translate(-6.158 -286.971)" fill="#fff"/>
  <path id="Path_104746" data-name="Path 104746" d="M92.984,377.922H17.016A16.945,16.945,0,0,1,0,360.907a1.624,1.624,0,0,1,1.719-1.719H108.281A1.624,1.624,0,0,1,110,360.907,16.945,16.945,0,0,1,92.984,377.922Zm-89.375-15.3a13.546,13.546,0,0,0,13.406,11.859H92.984a13.546,13.546,0,0,0,13.406-11.859Z" transform="translate(0 -280.813)" fill="#12263f"/>
  <path id="Path_104747" data-name="Path 104747" d="M36.664,70.105H122.6a5.064,5.064,0,0,1,5.156,5.156V134.9H31.508V75.261A5.286,5.286,0,0,1,36.664,70.105Z" transform="translate(-24.633 -54.808)" fill="#e1e6e8"/>
  <path id="Path_104748" data-name="Path 104748" d="M121.6,130.462H25.35a1.624,1.624,0,0,1-1.719-1.719V69.1a6.9,6.9,0,0,1,6.875-6.875h85.937a6.9,6.9,0,0,1,6.875,6.875v59.64A1.723,1.723,0,0,1,121.6,130.462Zm-94.531-3.438h92.812V69.1a3.448,3.448,0,0,0-3.438-3.438H30.506A3.448,3.448,0,0,0,27.068,69.1v57.922Z" transform="translate(-18.475 -48.649)" fill="#12263f"/>
  <rect id="Rectangle_31977" data-name="Rectangle 31977" width="82.5" height="51.047" transform="translate(13.791 22.302)" fill="#fff"/>
  <g id="Group_92423" data-name="Group 92423" transform="translate(22.859 29.562)">
    <rect id="Rectangle_31978" data-name="Rectangle 31978" width="3.438" height="3.438" transform="translate(20.797 56.547)" fill="#12263f"/>
    <rect id="Rectangle_31979" data-name="Rectangle 31979" width="3.438" height="3.438" transform="translate(30.422 56.547)" fill="#12263f"/>
    <rect id="Rectangle_31980" data-name="Rectangle 31980" width="3.438" height="3.438" transform="translate(40.047 56.547)" fill="#12263f"/>
    <path id="Path_104749" data-name="Path 104749" d="M107.341,150.464h2.406V137.058h-4.984v2.234h2.578Z" transform="translate(-104.763 -136.714)" fill="#12263f"/>
    <path id="Path_104750" data-name="Path 104750" d="M144.921,135.483a4.771,4.771,0,0,0-4.125,1.891,9.721,9.721,0,0,0,0,9.969,5.445,5.445,0,0,0,8.25,0,9.721,9.721,0,0,0,0-9.969A4.771,4.771,0,0,0,144.921,135.483Zm3.094,7.047a6.817,6.817,0,0,1-.688,3.438,2.676,2.676,0,0,1-4.469,0,8.937,8.937,0,0,1,0-6.875,2.676,2.676,0,0,1,4.469,0A7.977,7.977,0,0,1,148.015,142.53Z" transform="translate(-131.859 -135.483)" fill="#12263f"/>
    <path id="Path_104751" data-name="Path 104751" d="M204,135.483a4.77,4.77,0,0,0-4.125,1.891,9.721,9.721,0,0,0,0,9.969,5.445,5.445,0,0,0,8.25,0,9.721,9.721,0,0,0,0-9.969A4.771,4.771,0,0,0,204,135.483Zm3.094,7.047a6.817,6.817,0,0,1-.688,3.438,2.676,2.676,0,0,1-4.469,0,8.937,8.937,0,0,1,0-6.875,2.676,2.676,0,0,1,4.469,0A7.977,7.977,0,0,1,207.092,142.53Z" transform="translate(-178.045 -135.483)" fill="#12263f"/>
    <path id="Path_104752" data-name="Path 104752" d="M255.212,139.292h2.578v11.172H260.2V137.058h-4.984Z" transform="translate(-222.384 -136.714)" fill="#12263f"/>
    <path id="Path_104753" data-name="Path 104753" d="M295.37,135.483a4.771,4.771,0,0,0-4.125,1.891,9.721,9.721,0,0,0,0,9.969,5.445,5.445,0,0,0,8.25,0,9.721,9.721,0,0,0,0-9.969A4.77,4.77,0,0,0,295.37,135.483Zm3.094,7.047a6.817,6.817,0,0,1-.688,3.438,2.676,2.676,0,0,1-4.469,0,8.937,8.937,0,0,1,0-6.875,2.676,2.676,0,0,1,4.469,0A7.978,7.978,0,0,1,298.464,142.53Z" transform="translate(-249.48 -135.483)" fill="#12263f"/>
    <path id="Path_104754" data-name="Path 104754" d="M354.447,150.02a4.771,4.771,0,0,0,4.125-1.891,9.721,9.721,0,0,0,0-9.969,5.445,5.445,0,0,0-8.25,0,9.721,9.721,0,0,0,0,9.969A5.23,5.23,0,0,0,354.447,150.02Zm-2.922-6.875a6.817,6.817,0,0,1,.688-3.438,2.478,2.478,0,0,1,2.234-1.375,2.331,2.331,0,0,1,2.234,1.2,8.937,8.937,0,0,1,0,6.875,2.676,2.676,0,0,1-4.469,0A5.776,5.776,0,0,1,351.525,143.145Z" transform="translate(-295.666 -136.098)" fill="#12263f"/>
    <path id="Path_104755" data-name="Path 104755" d="M112.625,238.671a4.77,4.77,0,0,0-4.125,1.891,9.721,9.721,0,0,0,0,9.969,5.445,5.445,0,0,0,8.25,0,9.721,9.721,0,0,0,0-9.969C115.891,239.187,114.516,238.671,112.625,238.671Zm2.922,6.875a6.817,6.817,0,0,1-.688,3.438,2.676,2.676,0,0,1-4.469,0,8.937,8.937,0,0,1,0-6.875,2.676,2.676,0,0,1,4.469,0A6.817,6.817,0,0,1,115.547,245.546Z" transform="translate(-106.61 -216.155)" fill="#12263f"/>
    <path id="Path_104756" data-name="Path 104756" d="M163.84,241.864h2.578v11h2.406V239.458H163.84Z" transform="translate(-150.949 -216.771)" fill="#12263f"/>
    <path id="Path_104757" data-name="Path 104757" d="M204,238.671a4.77,4.77,0,0,0-4.125,1.891,9.721,9.721,0,0,0,0,9.969,5.445,5.445,0,0,0,8.25,0,9.721,9.721,0,0,0,0-9.969C207.264,239.187,205.889,238.671,204,238.671Zm3.094,6.875a6.817,6.817,0,0,1-.688,3.438,2.676,2.676,0,0,1-4.469,0,8.937,8.937,0,0,1,0-6.875,2.676,2.676,0,0,1,4.469,0A9.348,9.348,0,0,1,207.092,245.546Z" transform="translate(-178.045 -216.155)" fill="#12263f"/>
    <path id="Path_104758" data-name="Path 104758" d="M255.212,241.864h2.578v11H260.2V239.458h-4.984Z" transform="translate(-222.384 -216.771)" fill="#12263f"/>
    <path id="Path_104759" data-name="Path 104759" d="M295.37,238.671a4.771,4.771,0,0,0-4.125,1.891,9.721,9.721,0,0,0,0,9.969,5.445,5.445,0,0,0,8.25,0,9.721,9.721,0,0,0,0-9.969C298.636,239.187,297.261,238.671,295.37,238.671Zm3.094,6.875a6.817,6.817,0,0,1-.688,3.438,2.676,2.676,0,0,1-4.469,0,8.937,8.937,0,0,1,0-6.875,2.676,2.676,0,0,1,4.469,0A9.348,9.348,0,0,1,298.464,245.546Z" transform="translate(-249.48 -216.155)" fill="#12263f"/>
    <path id="Path_104760" data-name="Path 104760" d="M354.447,238.671a4.771,4.771,0,0,0-4.125,1.891,9.721,9.721,0,0,0,0,9.969,5.445,5.445,0,0,0,8.25,0,9.721,9.721,0,0,0,0-9.969C357.713,239.187,356.338,238.671,354.447,238.671Zm3.094,6.875a6.816,6.816,0,0,1-.688,3.438,2.676,2.676,0,0,1-4.469,0,8.937,8.937,0,0,1,0-6.875,2.676,2.676,0,0,1,4.469,0A9.348,9.348,0,0,1,357.541,245.546Z" transform="translate(-295.666 -216.155)" fill="#12263f"/>
  </g>
</svg>
