<svg xmlns="http://www.w3.org/2000/svg" width="204.557" height="62.621" viewBox="0 0 204.557 62.621">
  <g id="t1-c1" transform="translate(-746.274 -2948.581)">
    <path id="Path_105243" data-name="Path 105243" d="M4.1,6.251H1.582V4.581H6.3V15.33H8.877V17h-7.6V15.33H4.1ZM18.9,11.85q0,.22-.013.571t-.04.659H12.973a2.766,2.766,0,0,0,.18,1.037,2.035,2.035,0,0,0,.51.751,2.21,2.21,0,0,0,.791.461,3.142,3.142,0,0,0,1.024.158,10.361,10.361,0,0,0,1.393-.1,11.045,11.045,0,0,0,1.542-.33v1.705q-.343.1-.747.176t-.826.141q-.422.062-.853.092t-.835.031a5.391,5.391,0,0,1-1.828-.29,3.624,3.624,0,0,1-1.371-.857,3.751,3.751,0,0,1-.861-1.4,5.728,5.728,0,0,1-.3-1.934,6.213,6.213,0,0,1,.3-1.982,4.543,4.543,0,0,1,.844-1.529,3.7,3.7,0,0,1,1.323-.984,4.213,4.213,0,0,1,1.736-.347,4.459,4.459,0,0,1,1.679.294,3.367,3.367,0,0,1,1.222.822,3.516,3.516,0,0,1,.747,1.257A4.821,4.821,0,0,1,18.9,11.85Zm-2.18-.308a2.585,2.585,0,0,0-.132-.918,1.818,1.818,0,0,0-.382-.646A1.515,1.515,0,0,0,15.64,9.6a1.91,1.91,0,0,0-.69-.123,1.759,1.759,0,0,0-1.327.541,2.482,2.482,0,0,0-.615,1.525Zm11.663,5.37q-.58.132-1.169.211a8.4,8.4,0,0,1-1.116.079,5.489,5.489,0,0,1-1.516-.185,2.637,2.637,0,0,1-1.055-.562,2.237,2.237,0,0,1-.615-.962,4.363,4.363,0,0,1-.2-1.393V9.74h-2.4V8.07h2.4V5.785l2.2-.571V8.07H28.38V9.74H24.908v4.2A1.678,1.678,0,0,0,25.26,15.1a1.52,1.52,0,0,0,1.178.391,5.94,5.94,0,0,0,1.028-.088q.5-.088.914-.2ZM48.586,11.85q0,.22-.013.571t-.04.659H42.662a2.766,2.766,0,0,0,.18,1.037,2.035,2.035,0,0,0,.51.751,2.21,2.21,0,0,0,.791.461,3.142,3.142,0,0,0,1.024.158,10.361,10.361,0,0,0,1.393-.1,11.045,11.045,0,0,0,1.542-.33v1.705q-.343.1-.747.176t-.826.141q-.422.062-.853.092t-.835.031a5.391,5.391,0,0,1-1.828-.29,3.624,3.624,0,0,1-1.371-.857,3.751,3.751,0,0,1-.861-1.4,5.728,5.728,0,0,1-.3-1.934,6.213,6.213,0,0,1,.3-1.982,4.543,4.543,0,0,1,.844-1.529,3.7,3.7,0,0,1,1.323-.984,4.213,4.213,0,0,1,1.736-.347,4.459,4.459,0,0,1,1.679.294,3.367,3.367,0,0,1,1.222.822,3.516,3.516,0,0,1,.747,1.257A4.821,4.821,0,0,1,48.586,11.85Zm-2.18-.308a2.585,2.585,0,0,0-.132-.918,1.818,1.818,0,0,0-.382-.646A1.515,1.515,0,0,0,45.33,9.6a1.91,1.91,0,0,0-.69-.123,1.759,1.759,0,0,0-1.327.541,2.482,2.482,0,0,0-.615,1.525ZM56.32,17l-.053-1.318a6.632,6.632,0,0,1-.58.624,3.451,3.451,0,0,1-.642.479,3.091,3.091,0,0,1-1.6.417,3.031,3.031,0,0,1-1.406-.316,2.87,2.87,0,0,1-1.033-.9,4.3,4.3,0,0,1-.637-1.419,7.323,7.323,0,0,1-.22-1.863,5.92,5.92,0,0,1,.347-2.131,4.075,4.075,0,0,1,.962-1.494A3.85,3.85,0,0,1,52.919,8.2a5.7,5.7,0,0,1,1.837-.286,5.216,5.216,0,0,1,.672.044,4.7,4.7,0,0,1,.6.114V4.581h2.145V17ZM52.4,12.605a6.756,6.756,0,0,0,.1,1.261,2.685,2.685,0,0,0,.3.857,1.257,1.257,0,0,0,.488.488,1.385,1.385,0,0,0,.659.154,1.541,1.541,0,0,0,1.037-.439,7.585,7.585,0,0,0,1.046-1.2v-3.9a3.315,3.315,0,0,0-.628-.158A4.616,4.616,0,0,0,54.65,9.6a2.019,2.019,0,0,0-.932.211,2.06,2.06,0,0,0-.708.6,2.806,2.806,0,0,0-.453.945A4.591,4.591,0,0,0,52.4,12.605ZM66.2,17l-.053-1.169a6.086,6.086,0,0,1-.589.549,3.612,3.612,0,0,1-1.481.721,4.214,4.214,0,0,1-.954.1,3.3,3.3,0,0,1-1.2-.2,2.428,2.428,0,0,1-.87-.562,2.347,2.347,0,0,1-.532-.87,3.356,3.356,0,0,1-.18-1.125,2.577,2.577,0,0,1,.268-1.169,2.491,2.491,0,0,1,.817-.923,4.292,4.292,0,0,1,1.371-.606,7.519,7.519,0,0,1,1.929-.22h1.169v-.536a1.871,1.871,0,0,0-.1-.62,1.116,1.116,0,0,0-.312-.47,1.469,1.469,0,0,0-.558-.3,2.9,2.9,0,0,0-.844-.105,6.816,6.816,0,0,0-1.56.18,8.114,8.114,0,0,0-1.49.505V8.466a8.54,8.54,0,0,1,1.481-.422,8.922,8.922,0,0,1,1.745-.167,6.715,6.715,0,0,1,1.705.189,3.068,3.068,0,0,1,1.173.567,2.251,2.251,0,0,1,.681.945,3.649,3.649,0,0,1,.22,1.323V17Zm-.308-3.946h-1.31a3.478,3.478,0,0,0-.923.105,1.767,1.767,0,0,0-.615.29,1.136,1.136,0,0,0-.347.426,1.228,1.228,0,0,0-.11.514,1.008,1.008,0,0,0,.352.831,1.476,1.476,0,0,0,.958.286,1.677,1.677,0,0,0,.932-.325,6.723,6.723,0,0,0,1.063-.932ZM76.113,17l-.053-1.318a6.632,6.632,0,0,1-.58.624,3.451,3.451,0,0,1-.642.479,3.091,3.091,0,0,1-1.6.417,3.031,3.031,0,0,1-1.406-.316,2.87,2.87,0,0,1-1.033-.9,4.3,4.3,0,0,1-.637-1.419,7.323,7.323,0,0,1-.22-1.863,5.92,5.92,0,0,1,.347-2.131,4.075,4.075,0,0,1,.962-1.494A3.85,3.85,0,0,1,72.712,8.2a5.7,5.7,0,0,1,1.837-.286,5.216,5.216,0,0,1,.672.044,4.7,4.7,0,0,1,.6.114V4.581h2.145V17Zm-3.92-4.395a6.756,6.756,0,0,0,.1,1.261,2.685,2.685,0,0,0,.3.857,1.257,1.257,0,0,0,.488.488,1.385,1.385,0,0,0,.659.154,1.541,1.541,0,0,0,1.037-.439,7.585,7.585,0,0,0,1.046-1.2v-3.9a3.315,3.315,0,0,0-.628-.158,4.616,4.616,0,0,0-.751-.062,2.019,2.019,0,0,0-.932.211,2.06,2.06,0,0,0-.708.6,2.806,2.806,0,0,0-.453.945A4.591,4.591,0,0,0,72.193,12.605Zm18.044-1.283V9.617H97.8v1.705Zm0,3.463V13.08H97.8v1.705Zm27.589-1.292a3.6,3.6,0,0,1-.316,1.534,2.988,2.988,0,0,1-.971,1.16,4.778,4.778,0,0,1-1.648.734,9.479,9.479,0,0,1-2.338.255q-.3,0-.628-.013t-.655-.035q-.325-.022-.633-.053T110.083,17V15.137q.554.105,1.244.171t1.437.066a5.6,5.6,0,0,0,1.257-.123,2.585,2.585,0,0,0,.87-.356,1.437,1.437,0,0,0,.505-.576,1.783,1.783,0,0,0,.163-.773,1.361,1.361,0,0,0-.677-1.208,2.782,2.782,0,0,0-.875-.334,5.857,5.857,0,0,0-1.261-.119h-1.274V10.25h1.169a4.017,4.017,0,0,0,1.138-.136,1.978,1.978,0,0,0,.721-.365,1.283,1.283,0,0,0,.382-.541A1.889,1.889,0,0,0,115,8.554a1.285,1.285,0,0,0-.457-1.068,2.254,2.254,0,0,0-1.415-.365,6.973,6.973,0,0,0-1.354.132,13.644,13.644,0,0,0-1.38.352V5.8q.4-.132.756-.22t.721-.149q.36-.062.729-.088t.765-.026a6.158,6.158,0,0,1,1.666.2,3.541,3.541,0,0,1,1.2.576,2.39,2.39,0,0,1,.734.91,2.832,2.832,0,0,1,.246,1.2,2.771,2.771,0,0,1-.479,1.692,3,3,0,0,1-1.34.989,3.608,3.608,0,0,1,1,.3,2.6,2.6,0,0,1,.769.554,2.372,2.372,0,0,1,.492.778A2.665,2.665,0,0,1,117.826,13.493Zm10.362-2.285a9.54,9.54,0,0,1-.308,2.531,5.4,5.4,0,0,1-.9,1.885,3.937,3.937,0,0,1-1.446,1.173,4.832,4.832,0,0,1-3.7.07,3.492,3.492,0,0,1-1.38-1.05,5.182,5.182,0,0,1-.905-1.833,9.631,9.631,0,0,1-.325-2.672,9.413,9.413,0,0,1,.312-2.531,5.5,5.5,0,0,1,.9-1.885,3.881,3.881,0,0,1,1.45-1.173,4.832,4.832,0,0,1,3.7-.07A3.474,3.474,0,0,1,126.962,6.7a5.179,5.179,0,0,1,.9,1.828A9.669,9.669,0,0,1,128.188,11.208Zm-6.8.035v.33a2.824,2.824,0,0,0,.018.312l4.307-3.111a2.864,2.864,0,0,0-.813-1.288,1.812,1.812,0,0,0-1.191-.417,1.759,1.759,0,0,0-.914.25,2.162,2.162,0,0,0-.734.769,4.469,4.469,0,0,0-.492,1.3A8.352,8.352,0,0,0,121.386,11.243Zm4.641.035q0-.149-.009-.3t-.009-.294l-4.28,3.094a2.646,2.646,0,0,0,.791,1.266,1.829,1.829,0,0,0,1.187.413,1.759,1.759,0,0,0,.918-.255,2.2,2.2,0,0,0,.738-.769,4.327,4.327,0,0,0,.488-1.3A8.567,8.567,0,0,0,126.026,11.278ZM4.1,56.251H1.582v-1.67H6.3V65.33H8.877V67h-7.6V65.33H4.1ZM18.9,61.85q0,.22-.013.571t-.04.659H12.973a2.766,2.766,0,0,0,.18,1.037,2.035,2.035,0,0,0,.51.751,2.21,2.21,0,0,0,.791.461,3.142,3.142,0,0,0,1.024.158,10.361,10.361,0,0,0,1.393-.1,11.045,11.045,0,0,0,1.542-.33v1.705q-.343.1-.747.176t-.826.141q-.422.062-.853.092t-.835.031a5.391,5.391,0,0,1-1.828-.29,3.624,3.624,0,0,1-1.371-.857,3.751,3.751,0,0,1-.861-1.4,5.728,5.728,0,0,1-.3-1.934,6.213,6.213,0,0,1,.3-1.982,4.543,4.543,0,0,1,.844-1.529,3.7,3.7,0,0,1,1.323-.984,4.213,4.213,0,0,1,1.736-.347,4.459,4.459,0,0,1,1.679.294,3.367,3.367,0,0,1,1.222.822,3.516,3.516,0,0,1,.747,1.257A4.821,4.821,0,0,1,18.9,61.85Zm-2.18-.308a2.585,2.585,0,0,0-.132-.918,1.818,1.818,0,0,0-.382-.646,1.515,1.515,0,0,0-.562-.378,1.91,1.91,0,0,0-.69-.123,1.759,1.759,0,0,0-1.327.541,2.482,2.482,0,0,0-.615,1.525Zm11.663,5.37q-.58.132-1.169.211a8.4,8.4,0,0,1-1.116.079,5.489,5.489,0,0,1-1.516-.185,2.637,2.637,0,0,1-1.055-.562,2.237,2.237,0,0,1-.615-.962,4.363,4.363,0,0,1-.2-1.393V59.74h-2.4V58.07h2.4V55.785l2.2-.571V58.07H28.38v1.67H24.908v4.2A1.678,1.678,0,0,0,25.26,65.1a1.52,1.52,0,0,0,1.178.391,5.94,5.94,0,0,0,1.028-.088q.5-.088.914-.2ZM46.134,67V61.182q0-1.468-1.09-1.468A1.557,1.557,0,0,0,44,60.153a7.593,7.593,0,0,0-1.05,1.2V67H40.808V58.07h1.854l.053,1.318a6.172,6.172,0,0,1,.567-.624,3.329,3.329,0,0,1,.637-.479,3.035,3.035,0,0,1,.738-.3,3.447,3.447,0,0,1,.888-.105,2.95,2.95,0,0,1,1.2.224,2.306,2.306,0,0,1,.853.633,2.716,2.716,0,0,1,.514.984,4.506,4.506,0,0,1,.171,1.288V67Zm12.612-4.535a5.935,5.935,0,0,1-.3,1.929,4.268,4.268,0,0,1-.861,1.5,3.815,3.815,0,0,1-1.38.967,4.781,4.781,0,0,1-1.863.343,5.082,5.082,0,0,1-1.775-.29,3.449,3.449,0,0,1-1.327-.866,3.832,3.832,0,0,1-.835-1.441,6.354,6.354,0,0,1-.29-2.017,5.846,5.846,0,0,1,.3-1.934,4.2,4.2,0,0,1,.87-1.485,3.863,3.863,0,0,1,1.384-.954,4.786,4.786,0,0,1,1.846-.338,5.041,5.041,0,0,1,1.784.294,3.468,3.468,0,0,1,1.327.875,3.836,3.836,0,0,1,.831,1.437A6.267,6.267,0,0,1,58.746,62.465Zm-2.232.053a3.463,3.463,0,0,0-.523-2.087,1.806,1.806,0,0,0-1.542-.7,1.946,1.946,0,0,0-.958.22,1.855,1.855,0,0,0-.65.6,2.693,2.693,0,0,0-.374.892,4.8,4.8,0,0,0-.119,1.09,3.335,3.335,0,0,0,.563,2.1,1.859,1.859,0,0,0,1.538.708,1.92,1.92,0,0,0,.932-.215,1.744,1.744,0,0,0,.642-.6,2.879,2.879,0,0,0,.369-.9A4.827,4.827,0,0,0,56.514,62.518ZM66.9,67V60.918q0-.334-.018-.584a1.838,1.838,0,0,0-.07-.417.517.517,0,0,0-.154-.25.422.422,0,0,0-.277-.083.709.709,0,0,0-.536.369,5.909,5.909,0,0,0-.6,1.257V67H63.413V60.918q0-.334-.018-.584a1.838,1.838,0,0,0-.07-.417.5.5,0,0,0-.158-.25.44.44,0,0,0-.281-.083q-.229,0-.51.369a5.461,5.461,0,0,0-.624,1.257V67H59.9V58.07h1.591l.035,1.3a5.344,5.344,0,0,1,.387-.677,2.209,2.209,0,0,1,.413-.461,1.407,1.407,0,0,1,.47-.259,1.88,1.88,0,0,1,.567-.079,1.542,1.542,0,0,1,1.138.391,1.654,1.654,0,0,1,.444,1.085,5.606,5.606,0,0,1,.417-.677,2.439,2.439,0,0,1,.431-.461,1.436,1.436,0,0,1,.483-.259,1.968,1.968,0,0,1,.576-.079,1.625,1.625,0,0,1,1.441.681,3.583,3.583,0,0,1,.466,2.017V67ZM78.53,62.377a5.884,5.884,0,0,1-.347,2.127,4.052,4.052,0,0,1-.967,1.49,3.89,3.89,0,0,1-1.463.879,5.7,5.7,0,0,1-1.837.286,10.673,10.673,0,0,1-1.815-.145,11.772,11.772,0,0,1-1.6-.391V54.581h2.145V57.5l-.088,1.758a3.939,3.939,0,0,1,1.129-1,3.33,3.33,0,0,1,2.958-.062,2.87,2.87,0,0,1,1.033.9,4.306,4.306,0,0,1,.637,1.415A7.31,7.31,0,0,1,78.53,62.377Zm-2.25.088a6.413,6.413,0,0,0-.105-1.257,2.753,2.753,0,0,0-.3-.853,1.267,1.267,0,0,0-.483-.488,1.359,1.359,0,0,0-.655-.154,1.557,1.557,0,0,0-1.042.439,7.593,7.593,0,0,0-1.05,1.2v3.9a3.315,3.315,0,0,0,.628.158,4.67,4.67,0,0,0,.76.062,2.027,2.027,0,0,0,.927-.211,2.048,2.048,0,0,0,.712-.6,2.806,2.806,0,0,0,.453-.945A4.591,4.591,0,0,0,76.28,62.465Zm9.861-.923a3.954,3.954,0,0,0-.048-.853,1.643,1.643,0,0,0-.211-.58.9.9,0,0,0-.356-.334,1.067,1.067,0,0,0-.483-.105,1.616,1.616,0,0,0-.98.391,5.635,5.635,0,0,0-1.112,1.288V67h-2.2V58.07H82.7l.079,1.3a3.538,3.538,0,0,1,.5-.615,3.112,3.112,0,0,1,.615-.47,2.9,2.9,0,0,1,.751-.3,3.655,3.655,0,0,1,.905-.105,2.922,2.922,0,0,1,1.2.233,2.269,2.269,0,0,1,.879.69,3.032,3.032,0,0,1,.527,1.147,5.932,5.932,0,0,1,.145,1.6Zm11.927.308q0,.22-.013.571t-.04.659H92.145a2.766,2.766,0,0,0,.18,1.037,2.035,2.035,0,0,0,.51.751,2.21,2.21,0,0,0,.791.461,3.142,3.142,0,0,0,1.024.158,10.361,10.361,0,0,0,1.393-.1,11.045,11.045,0,0,0,1.542-.33v1.705q-.343.1-.747.176t-.826.141q-.422.062-.853.092t-.835.031a5.391,5.391,0,0,1-1.828-.29,3.624,3.624,0,0,1-1.371-.857,3.751,3.751,0,0,1-.861-1.4,5.728,5.728,0,0,1-.3-1.934,6.213,6.213,0,0,1,.3-1.982,4.543,4.543,0,0,1,.844-1.529,3.7,3.7,0,0,1,1.323-.984,4.213,4.213,0,0,1,1.736-.347,4.459,4.459,0,0,1,1.679.294,3.367,3.367,0,0,1,1.222.822,3.516,3.516,0,0,1,.747,1.257A4.821,4.821,0,0,1,98.068,61.85Zm-2.18-.308a2.585,2.585,0,0,0-.132-.918,1.818,1.818,0,0,0-.382-.646,1.515,1.515,0,0,0-.562-.378,1.91,1.91,0,0,0-.69-.123,1.759,1.759,0,0,0-1.327.541,2.482,2.482,0,0,0-.615,1.525Zm14.142-.22V59.617h7.559v1.705Zm0,3.463V63.08h7.559v1.705Zm22.641-5.827h-1.731l-.29-4.377h2.3Zm3.595,0h-1.723l-.29-4.377h2.3ZM146.5,63.563a4.111,4.111,0,0,1-.255,1.477,3.1,3.1,0,0,1-.747,1.143,3.345,3.345,0,0,1-1.222.734,5.06,5.06,0,0,1-1.7.259,5.562,5.562,0,0,1-1.371-.167,5.374,5.374,0,0,1-1.151-.422V64.5a3.016,3.016,0,0,0,.514.343,4.6,4.6,0,0,0,1.314.461,3.762,3.762,0,0,0,.694.066,1.877,1.877,0,0,0,.6-.105,1.43,1.43,0,0,0,.558-.352,1.874,1.874,0,0,0,.4-.646,2.7,2.7,0,0,0,.158-.989V57.3H140.15V55.513H146.5ZM151.8,58.07v5.818a1.862,1.862,0,0,0,.272,1.1.955.955,0,0,0,.826.374,1.54,1.54,0,0,0,1.033-.444,7.785,7.785,0,0,0,1.05-1.2V58.07h2.145V67h-1.854l-.053-1.318a7.454,7.454,0,0,1-.571.624,3.274,3.274,0,0,1-.628.479,3.065,3.065,0,0,1-.738.308,3.33,3.33,0,0,1-.883.11,2.982,2.982,0,0,1-1.2-.224,2.277,2.277,0,0,1-.857-.637,2.761,2.761,0,0,1-.514-.989,4.506,4.506,0,0,1-.171-1.288V58.07ZM165.164,67l-.053-1.169a6.086,6.086,0,0,1-.589.549,3.612,3.612,0,0,1-1.481.721,4.214,4.214,0,0,1-.954.1,3.3,3.3,0,0,1-1.2-.2,2.428,2.428,0,0,1-.87-.562,2.347,2.347,0,0,1-.532-.87,3.356,3.356,0,0,1-.18-1.125,2.577,2.577,0,0,1,.268-1.169,2.491,2.491,0,0,1,.817-.923,4.292,4.292,0,0,1,1.371-.606,7.519,7.519,0,0,1,1.929-.22h1.169v-.536a1.871,1.871,0,0,0-.1-.62,1.116,1.116,0,0,0-.312-.47,1.469,1.469,0,0,0-.558-.3,2.9,2.9,0,0,0-.844-.105,6.816,6.816,0,0,0-1.56.18,8.114,8.114,0,0,0-1.49.505V58.466a8.54,8.54,0,0,1,1.481-.422,8.922,8.922,0,0,1,1.745-.167,6.715,6.715,0,0,1,1.705.189,3.068,3.068,0,0,1,1.173.567,2.251,2.251,0,0,1,.681.945A3.649,3.649,0,0,1,167,60.9V67Zm-.308-3.946h-1.31a3.478,3.478,0,0,0-.923.105,1.767,1.767,0,0,0-.615.29,1.136,1.136,0,0,0-.347.426,1.228,1.228,0,0,0-.11.514,1.008,1.008,0,0,0,.352.831,1.476,1.476,0,0,0,.958.286,1.677,1.677,0,0,0,.932-.325,6.723,6.723,0,0,0,1.063-.932ZM174.788,67V61.182q0-1.468-1.09-1.468a1.557,1.557,0,0,0-1.042.439,7.593,7.593,0,0,0-1.05,1.2V67h-2.145V58.07h1.854l.053,1.318a6.172,6.172,0,0,1,.567-.624,3.329,3.329,0,0,1,.637-.479,3.035,3.035,0,0,1,.738-.3,3.447,3.447,0,0,1,.888-.105,2.95,2.95,0,0,1,1.2.224,2.306,2.306,0,0,1,.853.633,2.716,2.716,0,0,1,.514.984,4.506,4.506,0,0,1,.171,1.288V67Zm12.349-5.15q0,.22-.013.571t-.04.659h-5.871a2.766,2.766,0,0,0,.18,1.037,2.035,2.035,0,0,0,.51.751,2.21,2.21,0,0,0,.791.461,3.142,3.142,0,0,0,1.024.158,10.361,10.361,0,0,0,1.393-.1,11.045,11.045,0,0,0,1.542-.33v1.705q-.343.1-.747.176t-.826.141q-.422.062-.853.092t-.835.031a5.391,5.391,0,0,1-1.828-.29,3.624,3.624,0,0,1-1.371-.857,3.751,3.751,0,0,1-.861-1.4,5.728,5.728,0,0,1-.3-1.934,6.213,6.213,0,0,1,.3-1.982,4.543,4.543,0,0,1,.844-1.529,3.7,3.7,0,0,1,1.323-.984,4.213,4.213,0,0,1,1.736-.347,4.459,4.459,0,0,1,1.679.294,3.367,3.367,0,0,1,1.222.822,3.516,3.516,0,0,1,.747,1.257A4.821,4.821,0,0,1,187.137,61.85Zm-2.18-.308a2.585,2.585,0,0,0-.132-.918,1.818,1.818,0,0,0-.382-.646,1.515,1.515,0,0,0-.562-.378,1.91,1.91,0,0,0-.69-.123,1.759,1.759,0,0,0-1.327.541,2.482,2.482,0,0,0-.615,1.525Zm11.663,2.83a2.411,2.411,0,0,1-.338,1.305,2.68,2.68,0,0,1-.9.879,4.1,4.1,0,0,1-1.266.492,6.786,6.786,0,0,1-1.446.154,15.432,15.432,0,0,1-1.775-.092,11.8,11.8,0,0,1-1.494-.268V64.908a8.264,8.264,0,0,0,1.648.5,8.449,8.449,0,0,0,1.551.154,2.369,2.369,0,0,0,1.261-.268.8.8,0,0,0,.417-.7.78.78,0,0,0-.088-.369.91.91,0,0,0-.33-.321,3.7,3.7,0,0,0-.681-.316q-.439-.163-1.151-.365a7.487,7.487,0,0,1-1.156-.417,2.981,2.981,0,0,1-.822-.549,2.053,2.053,0,0,1-.488-.734,2.693,2.693,0,0,1-.163-.98,2.235,2.235,0,0,1,.246-1.028,2.446,2.446,0,0,1,.734-.848,3.759,3.759,0,0,1,1.217-.576,6.166,6.166,0,0,1,1.705-.211,11.271,11.271,0,0,1,1.494.088q.65.088,1.151.193v1.749a9.159,9.159,0,0,0-1.437-.347,8.947,8.947,0,0,0-1.332-.1,2.062,2.062,0,0,0-1.059.237.733.733,0,0,0-.4.659.8.8,0,0,0,.079.36.843.843,0,0,0,.312.308,3.783,3.783,0,0,0,.65.312q.417.163,1.1.356a8.456,8.456,0,0,1,1.3.47,3.076,3.076,0,0,1,.848.567,1.863,1.863,0,0,1,.461.721A2.8,2.8,0,0,1,196.62,64.372Zm5.326-5.414h-1.731l-.29-4.377h2.3Zm3.595,0h-1.723l-.29-4.377h2.3Z" transform="translate(745 2944)" fill="#12263f"/>
  </g>
</svg>
