<svg xmlns="http://www.w3.org/2000/svg" width="134.974" height="66.796" viewBox="0 0 134.974 66.796">
  <g id="t1-c4" transform="translate(8699.778 7594.104)">
    <path id="Path_105249" data-name="Path 105249" d="M9.255,12.377A5.884,5.884,0,0,1,8.908,14.5a4.052,4.052,0,0,1-.967,1.49,3.89,3.89,0,0,1-1.463.879,5.7,5.7,0,0,1-1.837.286A5.34,5.34,0,0,1,3.366,17v3.489H1.222V8.07H3.076l.053,1.318A6.172,6.172,0,0,1,3.7,8.765a3.329,3.329,0,0,1,.637-.479,3.035,3.035,0,0,1,.738-.3,3.447,3.447,0,0,1,.888-.105,3.031,3.031,0,0,1,1.406.316,2.87,2.87,0,0,1,1.033.9,4.306,4.306,0,0,1,.637,1.415A7.31,7.31,0,0,1,9.255,12.377ZM7,12.465A6.413,6.413,0,0,0,6.9,11.208a2.753,2.753,0,0,0-.3-.853,1.267,1.267,0,0,0-.483-.488,1.359,1.359,0,0,0-.655-.154,1.557,1.557,0,0,0-1.042.439,7.593,7.593,0,0,0-1.05,1.2v3.9a3.315,3.315,0,0,0,.628.158,4.67,4.67,0,0,0,.76.062,2.027,2.027,0,0,0,.927-.211,2.048,2.048,0,0,0,.712-.6,2.806,2.806,0,0,0,.453-.945A4.591,4.591,0,0,0,7,12.465Zm9.861-.923a3.954,3.954,0,0,0-.048-.853,1.643,1.643,0,0,0-.211-.58.9.9,0,0,0-.356-.334,1.067,1.067,0,0,0-.483-.105,1.616,1.616,0,0,0-.98.391,5.635,5.635,0,0,0-1.112,1.288V17h-2.2V8.07h1.942l.079,1.3a3.538,3.538,0,0,1,.5-.615,3.112,3.112,0,0,1,.615-.47,2.9,2.9,0,0,1,.751-.3,3.655,3.655,0,0,1,.905-.105,2.922,2.922,0,0,1,1.2.233,2.269,2.269,0,0,1,.879.69,3.032,3.032,0,0,1,.527,1.147,5.932,5.932,0,0,1,.145,1.6Zm9.4-5.915a1.411,1.411,0,0,1-.105.545,1.351,1.351,0,0,1-.294.444,1.41,1.41,0,0,1-.444.3,1.384,1.384,0,0,1-.554.11,1.416,1.416,0,0,1-.558-.11,1.4,1.4,0,0,1-.448-.3,1.351,1.351,0,0,1-.294-.444,1.426,1.426,0,0,1,.294-1.538,1.362,1.362,0,0,1,.448-.3,1.416,1.416,0,0,1,.558-.11,1.375,1.375,0,0,1,1,.413,1.408,1.408,0,0,1,.4.993ZM23.9,9.74H21.375V8.07h4.72v7.26H28.67V17h-7.6V15.33H23.9ZM36.237,17V11.182q0-1.468-1.09-1.468a1.557,1.557,0,0,0-1.042.439,7.593,7.593,0,0,0-1.05,1.2V17H30.911V8.07h1.854l.053,1.318a6.172,6.172,0,0,1,.567-.624,3.329,3.329,0,0,1,.637-.479,3.035,3.035,0,0,1,.738-.3,3.447,3.447,0,0,1,.888-.105,2.95,2.95,0,0,1,1.2.224,2.306,2.306,0,0,1,.853.633,2.716,2.716,0,0,1,.514.984,4.506,4.506,0,0,1,.171,1.288V17Zm11.936-.088q-.58.132-1.169.211a8.4,8.4,0,0,1-1.116.079,5.489,5.489,0,0,1-1.516-.185,2.637,2.637,0,0,1-1.055-.562,2.237,2.237,0,0,1-.615-.962,4.363,4.363,0,0,1-.2-1.393V9.74H40.1V8.07h2.4V5.785l2.2-.571V8.07h3.472V9.74H44.7v4.2a1.678,1.678,0,0,0,.352,1.156,1.52,1.52,0,0,0,1.178.391,5.94,5.94,0,0,0,1.028-.088q.5-.088.914-.2Zm17.868,3.779a12.88,12.88,0,0,1-3.2-3.885,9.613,9.613,0,0,1-1.068-4.465,9.745,9.745,0,0,1,1.208-4.764,11.367,11.367,0,0,1,1.371-1.964A15.6,15.6,0,0,1,66.094,3.9l1.222,1.222A10.8,10.8,0,0,0,64.74,8.439a8.527,8.527,0,0,0-.861,3.753,8.952,8.952,0,0,0,.861,3.836,10.384,10.384,0,0,0,2.575,3.362ZM78.275,11.85q0,.22-.013.571t-.04.659H72.352a2.766,2.766,0,0,0,.18,1.037,2.035,2.035,0,0,0,.51.751,2.21,2.21,0,0,0,.791.461,3.142,3.142,0,0,0,1.024.158,10.361,10.361,0,0,0,1.393-.1,11.045,11.045,0,0,0,1.542-.33v1.705q-.343.1-.747.176t-.826.141q-.422.062-.853.092t-.835.031a5.391,5.391,0,0,1-1.828-.29,3.624,3.624,0,0,1-1.371-.857,3.751,3.751,0,0,1-.861-1.4,5.728,5.728,0,0,1-.3-1.934,6.213,6.213,0,0,1,.3-1.982,4.543,4.543,0,0,1,.844-1.529,3.7,3.7,0,0,1,1.323-.984,4.213,4.213,0,0,1,1.736-.347,4.459,4.459,0,0,1,1.679.294,3.367,3.367,0,0,1,1.222.822,3.516,3.516,0,0,1,.747,1.257A4.821,4.821,0,0,1,78.275,11.85Zm-2.18-.308a2.585,2.585,0,0,0-.132-.918,1.818,1.818,0,0,0-.382-.646,1.515,1.515,0,0,0-.562-.378,1.91,1.91,0,0,0-.69-.123A1.759,1.759,0,0,0,73,10.017a2.482,2.482,0,0,0-.615,1.525ZM86.01,17l-.053-1.318a6.632,6.632,0,0,1-.58.624,3.451,3.451,0,0,1-.642.479,3.091,3.091,0,0,1-1.6.417,3.031,3.031,0,0,1-1.406-.316,2.87,2.87,0,0,1-1.033-.9,4.3,4.3,0,0,1-.637-1.419,7.323,7.323,0,0,1-.22-1.863,5.92,5.92,0,0,1,.347-2.131,4.075,4.075,0,0,1,.962-1.494A3.85,3.85,0,0,1,82.608,8.2a5.7,5.7,0,0,1,1.837-.286,5.216,5.216,0,0,1,.672.044,4.7,4.7,0,0,1,.6.114V4.581h2.145V17Zm-3.92-4.395a6.756,6.756,0,0,0,.1,1.261,2.685,2.685,0,0,0,.3.857,1.257,1.257,0,0,0,.488.488,1.385,1.385,0,0,0,.659.154,1.541,1.541,0,0,0,1.037-.439,7.585,7.585,0,0,0,1.046-1.2v-3.9a3.315,3.315,0,0,0-.628-.158A4.616,4.616,0,0,0,84.34,9.6a2.019,2.019,0,0,0-.932.211,2.06,2.06,0,0,0-.708.6,2.806,2.806,0,0,0-.453.945A4.591,4.591,0,0,0,82.09,12.605ZM95.889,17l-.053-1.169a6.086,6.086,0,0,1-.589.549,3.612,3.612,0,0,1-1.481.721,4.214,4.214,0,0,1-.954.1,3.3,3.3,0,0,1-1.2-.2,2.428,2.428,0,0,1-.87-.562,2.347,2.347,0,0,1-.532-.87,3.356,3.356,0,0,1-.18-1.125,2.577,2.577,0,0,1,.268-1.169,2.491,2.491,0,0,1,.817-.923,4.292,4.292,0,0,1,1.371-.606,7.519,7.519,0,0,1,1.929-.22h1.169v-.536a1.871,1.871,0,0,0-.1-.62,1.116,1.116,0,0,0-.312-.47,1.469,1.469,0,0,0-.558-.3,2.9,2.9,0,0,0-.844-.105,6.816,6.816,0,0,0-1.56.18,8.114,8.114,0,0,0-1.49.505V8.466A8.54,8.54,0,0,1,92.2,8.044a8.922,8.922,0,0,1,1.745-.167,6.715,6.715,0,0,1,1.705.189,3.068,3.068,0,0,1,1.173.567,2.251,2.251,0,0,1,.681.945,3.649,3.649,0,0,1,.22,1.323V17Zm-.308-3.946h-1.31a3.478,3.478,0,0,0-.923.105,1.767,1.767,0,0,0-.615.29,1.136,1.136,0,0,0-.347.426,1.228,1.228,0,0,0-.11.514,1.008,1.008,0,0,0,.352.831,1.476,1.476,0,0,0,.958.286,1.677,1.677,0,0,0,.932-.325,6.723,6.723,0,0,0,1.063-.932ZM105.8,17l-.053-1.318a6.632,6.632,0,0,1-.58.624,3.451,3.451,0,0,1-.642.479,3.091,3.091,0,0,1-1.6.417,3.031,3.031,0,0,1-1.406-.316,2.87,2.87,0,0,1-1.033-.9,4.3,4.3,0,0,1-.637-1.419,7.323,7.323,0,0,1-.22-1.863,5.92,5.92,0,0,1,.347-2.131,4.075,4.075,0,0,1,.962-1.494A3.85,3.85,0,0,1,102.4,8.2a5.7,5.7,0,0,1,1.837-.286,5.216,5.216,0,0,1,.672.044,4.7,4.7,0,0,1,.6.114V4.581h2.145V17Zm-3.92-4.395a6.756,6.756,0,0,0,.1,1.261,2.685,2.685,0,0,0,.3.857,1.257,1.257,0,0,0,.488.488,1.385,1.385,0,0,0,.659.154,1.541,1.541,0,0,0,1.037-.439,7.585,7.585,0,0,0,1.046-1.2v-3.9a3.315,3.315,0,0,0-.628-.158,4.616,4.616,0,0,0-.751-.062,2.019,2.019,0,0,0-.932.211,2.06,2.06,0,0,0-.708.6,2.806,2.806,0,0,0-.453.945A4.591,4.591,0,0,0,101.883,12.605ZM112.14,3.9a12.394,12.394,0,0,1,3.208,3.872,9.756,9.756,0,0,1,1.055,4.478,9.755,9.755,0,0,1-.316,2.522,10.347,10.347,0,0,1-.883,2.241,10.988,10.988,0,0,1-1.358,1.973,14.77,14.77,0,0,1-1.74,1.709l-1.23-1.222a10.709,10.709,0,0,0,2.584-3.331,8.583,8.583,0,0,0,.861-3.762,8.962,8.962,0,0,0-.861-3.832,10.409,10.409,0,0,0-2.584-3.375ZM9.255,62.377A5.884,5.884,0,0,1,8.908,64.5a4.052,4.052,0,0,1-.967,1.49,3.89,3.89,0,0,1-1.463.879,5.7,5.7,0,0,1-1.837.286A5.34,5.34,0,0,1,3.366,67v3.489H1.222V58.07H3.076l.053,1.318a6.172,6.172,0,0,1,.567-.624,3.329,3.329,0,0,1,.637-.479,3.035,3.035,0,0,1,.738-.3,3.447,3.447,0,0,1,.888-.105,3.031,3.031,0,0,1,1.406.316,2.87,2.87,0,0,1,1.033.9,4.306,4.306,0,0,1,.637,1.415A7.31,7.31,0,0,1,9.255,62.377ZM7,62.465A6.413,6.413,0,0,0,6.9,61.208a2.753,2.753,0,0,0-.3-.853,1.267,1.267,0,0,0-.483-.488,1.359,1.359,0,0,0-.655-.154,1.557,1.557,0,0,0-1.042.439,7.593,7.593,0,0,0-1.05,1.2v3.9a3.315,3.315,0,0,0,.628.158,4.67,4.67,0,0,0,.76.062,2.027,2.027,0,0,0,.927-.211,2.048,2.048,0,0,0,.712-.6,2.806,2.806,0,0,0,.453-.945A4.591,4.591,0,0,0,7,62.465Zm9.861-.923a3.954,3.954,0,0,0-.048-.853,1.643,1.643,0,0,0-.211-.58.9.9,0,0,0-.356-.334,1.067,1.067,0,0,0-.483-.105,1.616,1.616,0,0,0-.98.391,5.635,5.635,0,0,0-1.112,1.288V67h-2.2V58.07h1.942l.079,1.3a3.538,3.538,0,0,1,.5-.615,3.112,3.112,0,0,1,.615-.47,2.9,2.9,0,0,1,.751-.3,3.655,3.655,0,0,1,.905-.105,2.922,2.922,0,0,1,1.2.233,2.269,2.269,0,0,1,.879.69,3.032,3.032,0,0,1,.527,1.147,5.932,5.932,0,0,1,.145,1.6Zm9.4-5.915a1.411,1.411,0,0,1-.105.545,1.351,1.351,0,0,1-.294.444,1.41,1.41,0,0,1-.444.3,1.384,1.384,0,0,1-.554.11,1.416,1.416,0,0,1-.558-.11,1.4,1.4,0,0,1-.448-.3,1.351,1.351,0,0,1-.294-.444,1.426,1.426,0,0,1,.294-1.538,1.362,1.362,0,0,1,.448-.3,1.416,1.416,0,0,1,.558-.11,1.375,1.375,0,0,1,1,.413,1.408,1.408,0,0,1,.4.993ZM23.9,59.74H21.375V58.07h4.72v7.26H28.67V67h-7.6V65.33H23.9ZM36.237,67V61.182q0-1.468-1.09-1.468a1.557,1.557,0,0,0-1.042.439,7.593,7.593,0,0,0-1.05,1.2V67H30.911V58.07h1.854l.053,1.318a6.172,6.172,0,0,1,.567-.624,3.329,3.329,0,0,1,.637-.479,3.035,3.035,0,0,1,.738-.3,3.447,3.447,0,0,1,.888-.105,2.95,2.95,0,0,1,1.2.224,2.306,2.306,0,0,1,.853.633,2.716,2.716,0,0,1,.514.984,4.506,4.506,0,0,1,.171,1.288V67Zm11.936-.088q-.58.132-1.169.211a8.4,8.4,0,0,1-1.116.079,5.489,5.489,0,0,1-1.516-.185,2.637,2.637,0,0,1-1.055-.562,2.237,2.237,0,0,1-.615-.962,4.363,4.363,0,0,1-.2-1.393V59.74H40.1V58.07h2.4V55.785l2.2-.571V58.07h3.472v1.67H44.7v4.2a1.678,1.678,0,0,0,.352,1.156,1.52,1.52,0,0,0,1.178.391,5.94,5.94,0,0,0,1.028-.088q.5-.088.914-.2Zm17.868,3.779a12.88,12.88,0,0,1-3.2-3.885,9.613,9.613,0,0,1-1.068-4.465,9.745,9.745,0,0,1,1.208-4.764,11.367,11.367,0,0,1,1.371-1.964A15.6,15.6,0,0,1,66.094,53.9l1.222,1.222a10.8,10.8,0,0,0-2.575,3.322,8.527,8.527,0,0,0-.861,3.753,8.952,8.952,0,0,0,.861,3.836,10.384,10.384,0,0,0,2.575,3.362ZM75.823,67V61.182q0-1.468-1.09-1.468a1.557,1.557,0,0,0-1.042.439,7.593,7.593,0,0,0-1.05,1.2V67H70.5V58.07h1.854l.053,1.318a6.172,6.172,0,0,1,.567-.624,3.329,3.329,0,0,1,.637-.479,3.035,3.035,0,0,1,.738-.3,3.447,3.447,0,0,1,.888-.105,2.95,2.95,0,0,1,1.2.224,2.306,2.306,0,0,1,.853.633,2.716,2.716,0,0,1,.514.984,4.506,4.506,0,0,1,.171,1.288V67Zm12.612-4.535a5.935,5.935,0,0,1-.3,1.929,4.268,4.268,0,0,1-.861,1.5,3.815,3.815,0,0,1-1.38.967,4.781,4.781,0,0,1-1.863.343,5.082,5.082,0,0,1-1.775-.29,3.449,3.449,0,0,1-1.327-.866,3.832,3.832,0,0,1-.835-1.441,6.354,6.354,0,0,1-.29-2.017,5.846,5.846,0,0,1,.3-1.934,4.2,4.2,0,0,1,.87-1.485,3.863,3.863,0,0,1,1.384-.954,4.786,4.786,0,0,1,1.846-.338,5.041,5.041,0,0,1,1.784.294,3.468,3.468,0,0,1,1.327.875,3.836,3.836,0,0,1,.831,1.437A6.267,6.267,0,0,1,88.436,62.465Zm-2.232.053a3.463,3.463,0,0,0-.523-2.087,1.806,1.806,0,0,0-1.542-.7,1.946,1.946,0,0,0-.958.22,1.855,1.855,0,0,0-.65.6,2.693,2.693,0,0,0-.374.892,4.8,4.8,0,0,0-.119,1.09,3.335,3.335,0,0,0,.563,2.1,1.859,1.859,0,0,0,1.538.708,1.92,1.92,0,0,0,.932-.215,1.744,1.744,0,0,0,.642-.6,2.879,2.879,0,0,0,.369-.9A4.827,4.827,0,0,0,86.2,62.518ZM96.592,67V60.918q0-.334-.018-.584a1.838,1.838,0,0,0-.07-.417.517.517,0,0,0-.154-.25.422.422,0,0,0-.277-.083.709.709,0,0,0-.536.369,5.909,5.909,0,0,0-.6,1.257V67H93.1V60.918q0-.334-.018-.584a1.838,1.838,0,0,0-.07-.417.5.5,0,0,0-.158-.25.44.44,0,0,0-.281-.083q-.229,0-.51.369a5.461,5.461,0,0,0-.624,1.257V67H89.587V58.07h1.591l.035,1.3a5.344,5.344,0,0,1,.387-.677,2.209,2.209,0,0,1,.413-.461,1.407,1.407,0,0,1,.47-.259,1.88,1.88,0,0,1,.567-.079,1.542,1.542,0,0,1,1.138.391,1.654,1.654,0,0,1,.444,1.085,5.606,5.606,0,0,1,.417-.677,2.439,2.439,0,0,1,.431-.461,1.436,1.436,0,0,1,.483-.259,1.968,1.968,0,0,1,.576-.079,1.625,1.625,0,0,1,1.441.681,3.583,3.583,0,0,1,.466,2.017V67Zm11.628-4.623a5.884,5.884,0,0,1-.347,2.127,4.052,4.052,0,0,1-.967,1.49,3.89,3.89,0,0,1-1.463.879,5.7,5.7,0,0,1-1.837.286,10.673,10.673,0,0,1-1.815-.145,11.772,11.772,0,0,1-1.6-.391V54.581h2.145V57.5l-.088,1.758a3.939,3.939,0,0,1,1.129-1,3.33,3.33,0,0,1,2.958-.062,2.87,2.87,0,0,1,1.033.9A4.306,4.306,0,0,1,108,60.509,7.31,7.31,0,0,1,108.22,62.377Zm-2.25.088a6.413,6.413,0,0,0-.105-1.257,2.753,2.753,0,0,0-.3-.853,1.267,1.267,0,0,0-.483-.488,1.359,1.359,0,0,0-.655-.154,1.557,1.557,0,0,0-1.042.439,7.593,7.593,0,0,0-1.05,1.2v3.9a3.315,3.315,0,0,0,.628.158,4.67,4.67,0,0,0,.76.062,2.027,2.027,0,0,0,.927-.211,2.048,2.048,0,0,0,.712-.6,2.806,2.806,0,0,0,.453-.945A4.591,4.591,0,0,0,105.97,62.465Zm9.861-.923a3.954,3.954,0,0,0-.048-.853,1.643,1.643,0,0,0-.211-.58.9.9,0,0,0-.356-.334,1.067,1.067,0,0,0-.483-.105,1.616,1.616,0,0,0-.98.391,5.635,5.635,0,0,0-1.112,1.288V67h-2.2V58.07h1.942l.079,1.3a3.538,3.538,0,0,1,.5-.615,3.112,3.112,0,0,1,.615-.47,2.9,2.9,0,0,1,.751-.3,3.655,3.655,0,0,1,.905-.105,2.922,2.922,0,0,1,1.2.233,2.269,2.269,0,0,1,.879.69,3.032,3.032,0,0,1,.527,1.147,5.932,5.932,0,0,1,.145,1.6Zm11.927.308q0,.22-.013.571t-.04.659h-5.871a2.766,2.766,0,0,0,.18,1.037,2.035,2.035,0,0,0,.51.751,2.21,2.21,0,0,0,.791.461,3.142,3.142,0,0,0,1.024.158,10.361,10.361,0,0,0,1.393-.1,11.045,11.045,0,0,0,1.542-.33v1.705q-.343.1-.747.176t-.826.141q-.422.062-.853.092t-.835.031a5.391,5.391,0,0,1-1.828-.29,3.624,3.624,0,0,1-1.371-.857,3.751,3.751,0,0,1-.861-1.4,5.728,5.728,0,0,1-.3-1.934,6.213,6.213,0,0,1,.3-1.982,4.543,4.543,0,0,1,.844-1.529,3.7,3.7,0,0,1,1.323-.984,4.213,4.213,0,0,1,1.736-.347,4.459,4.459,0,0,1,1.679.294,3.367,3.367,0,0,1,1.222.822,3.516,3.516,0,0,1,.747,1.257A4.821,4.821,0,0,1,127.758,61.85Zm-2.18-.308a2.585,2.585,0,0,0-.132-.918,1.818,1.818,0,0,0-.382-.646,1.515,1.515,0,0,0-.562-.378,1.91,1.91,0,0,0-.69-.123,1.759,1.759,0,0,0-1.327.541,2.482,2.482,0,0,0-.615,1.525Zm6.354-7.646a12.394,12.394,0,0,1,3.208,3.872,10.1,10.1,0,0,1,.738,7A10.347,10.347,0,0,1,135,67.009a10.988,10.988,0,0,1-1.358,1.973,14.77,14.77,0,0,1-1.74,1.709l-1.23-1.222a10.709,10.709,0,0,0,2.584-3.331,8.583,8.583,0,0,0,.861-3.762,8.962,8.962,0,0,0-.861-3.832,10.409,10.409,0,0,0-2.584-3.375Z" transform="translate(-8701 -7598)" fill="#12263f"/>
  </g>
</svg>
