<svg xmlns="http://www.w3.org/2000/svg" width="480.174" height="170" viewBox="0 0 480.174 170">
  <g id="t1-c3" transform="translate(8700.174 8206)">
    <path id="Path_105247" data-name="Path 105247" d="M6.5,17,3.428,10.145,2.795,8.668V17H.826V5.513H3.48l3.138,6.9.554,1.345V5.513H9.141V17ZM19.16,12.465a5.935,5.935,0,0,1-.3,1.929,4.268,4.268,0,0,1-.861,1.5,3.815,3.815,0,0,1-1.38.967,4.781,4.781,0,0,1-1.863.343,5.082,5.082,0,0,1-1.775-.29,3.449,3.449,0,0,1-1.327-.866,3.832,3.832,0,0,1-.835-1.441,6.354,6.354,0,0,1-.29-2.017,5.846,5.846,0,0,1,.3-1.934,4.2,4.2,0,0,1,.87-1.485,3.863,3.863,0,0,1,1.384-.954,4.786,4.786,0,0,1,1.846-.338,5.041,5.041,0,0,1,1.784.294,3.468,3.468,0,0,1,1.327.875,3.836,3.836,0,0,1,.831,1.437A6.267,6.267,0,0,1,19.16,12.465Zm-2.232.053A3.463,3.463,0,0,0,16.4,10.43a1.806,1.806,0,0,0-1.542-.7,1.946,1.946,0,0,0-.958.22,1.855,1.855,0,0,0-.65.6,2.693,2.693,0,0,0-.374.892,4.8,4.8,0,0,0-.119,1.09,3.335,3.335,0,0,0,.563,2.1,1.859,1.859,0,0,0,1.538.708,1.92,1.92,0,0,0,.932-.215,1.744,1.744,0,0,0,.642-.6,2.879,2.879,0,0,0,.369-.9A4.827,4.827,0,0,0,16.928,12.518Zm21.349,1.854a2.411,2.411,0,0,1-.338,1.305,2.68,2.68,0,0,1-.9.879,4.1,4.1,0,0,1-1.266.492,6.786,6.786,0,0,1-1.446.154,15.432,15.432,0,0,1-1.775-.092,11.8,11.8,0,0,1-1.494-.268V14.908a8.264,8.264,0,0,0,1.648.5,8.449,8.449,0,0,0,1.551.154,2.369,2.369,0,0,0,1.261-.268.8.8,0,0,0,.417-.7.78.78,0,0,0-.088-.369.91.91,0,0,0-.33-.321,3.7,3.7,0,0,0-.681-.316q-.439-.163-1.151-.365a7.487,7.487,0,0,1-1.156-.417,2.981,2.981,0,0,1-.822-.549,2.053,2.053,0,0,1-.488-.734,2.693,2.693,0,0,1-.163-.98,2.235,2.235,0,0,1,.246-1.028,2.446,2.446,0,0,1,.734-.848,3.759,3.759,0,0,1,1.217-.576,6.166,6.166,0,0,1,1.705-.211,11.271,11.271,0,0,1,1.494.088q.65.088,1.151.193V9.907a9.159,9.159,0,0,0-1.437-.347,8.947,8.947,0,0,0-1.332-.1,2.062,2.062,0,0,0-1.059.237.733.733,0,0,0-.4.659.8.8,0,0,0,.079.36.843.843,0,0,0,.312.308,3.783,3.783,0,0,0,.65.312q.417.163,1.1.356a8.456,8.456,0,0,1,1.3.47,3.076,3.076,0,0,1,.848.567,1.863,1.863,0,0,1,.461.721A2.8,2.8,0,0,1,38.276,14.372Zm10.31-2.522q0,.22-.013.571t-.04.659H42.662a2.766,2.766,0,0,0,.18,1.037,2.035,2.035,0,0,0,.51.751,2.21,2.21,0,0,0,.791.461,3.142,3.142,0,0,0,1.024.158,10.361,10.361,0,0,0,1.393-.1,11.045,11.045,0,0,0,1.542-.33v1.705q-.343.1-.747.176t-.826.141q-.422.062-.853.092t-.835.031a5.391,5.391,0,0,1-1.828-.29,3.624,3.624,0,0,1-1.371-.857,3.751,3.751,0,0,1-.861-1.4,5.728,5.728,0,0,1-.3-1.934,6.213,6.213,0,0,1,.3-1.982,4.543,4.543,0,0,1,.844-1.529,3.7,3.7,0,0,1,1.323-.984,4.213,4.213,0,0,1,1.736-.347,4.459,4.459,0,0,1,1.679.294,3.367,3.367,0,0,1,1.222.822,3.516,3.516,0,0,1,.747,1.257A4.821,4.821,0,0,1,48.586,11.85Zm-2.18-.308a2.585,2.585,0,0,0-.132-.918,1.818,1.818,0,0,0-.382-.646A1.515,1.515,0,0,0,45.33,9.6a1.91,1.91,0,0,0-.69-.123,1.759,1.759,0,0,0-1.327.541,2.482,2.482,0,0,0-.615,1.525ZM66.217,17l-.053-1.318a6.632,6.632,0,0,1-.58.624,3.451,3.451,0,0,1-.642.479,3.091,3.091,0,0,1-1.6.417,3.031,3.031,0,0,1-1.406-.316,2.87,2.87,0,0,1-1.033-.9,4.3,4.3,0,0,1-.637-1.419,7.323,7.323,0,0,1-.22-1.863,5.92,5.92,0,0,1,.347-2.131,4.075,4.075,0,0,1,.962-1.494A3.85,3.85,0,0,1,62.815,8.2a5.7,5.7,0,0,1,1.837-.286,5.216,5.216,0,0,1,.672.044,4.7,4.7,0,0,1,.6.114V4.581h2.145V17ZM62.3,12.605a6.756,6.756,0,0,0,.1,1.261,2.685,2.685,0,0,0,.3.857,1.257,1.257,0,0,0,.488.488,1.385,1.385,0,0,0,.659.154,1.541,1.541,0,0,0,1.037-.439,7.585,7.585,0,0,0,1.046-1.2v-3.9a3.315,3.315,0,0,0-.628-.158,4.616,4.616,0,0,0-.751-.062,2.019,2.019,0,0,0-.932.211,2.06,2.06,0,0,0-.708.6,2.806,2.806,0,0,0-.453.945A4.591,4.591,0,0,0,62.3,12.605Zm15.979-.756q0,.22-.013.571t-.04.659H72.352a2.766,2.766,0,0,0,.18,1.037,2.035,2.035,0,0,0,.51.751,2.21,2.21,0,0,0,.791.461,3.142,3.142,0,0,0,1.024.158,10.361,10.361,0,0,0,1.393-.1,11.045,11.045,0,0,0,1.542-.33v1.705q-.343.1-.747.176t-.826.141q-.422.062-.853.092t-.835.031a5.391,5.391,0,0,1-1.828-.29,3.624,3.624,0,0,1-1.371-.857,3.751,3.751,0,0,1-.861-1.4,5.728,5.728,0,0,1-.3-1.934,6.213,6.213,0,0,1,.3-1.982,4.543,4.543,0,0,1,.844-1.529,3.7,3.7,0,0,1,1.323-.984,4.213,4.213,0,0,1,1.736-.347,4.459,4.459,0,0,1,1.679.294,3.367,3.367,0,0,1,1.222.822,3.516,3.516,0,0,1,.747,1.257A4.821,4.821,0,0,1,78.275,11.85Zm-2.18-.308a2.585,2.585,0,0,0-.132-.918,1.818,1.818,0,0,0-.382-.646,1.515,1.515,0,0,0-.562-.378,1.91,1.91,0,0,0-.69-.123A1.759,1.759,0,0,0,73,10.017a2.482,2.482,0,0,0-.615,1.525Zm12.331.835A5.884,5.884,0,0,1,88.08,14.5a4.052,4.052,0,0,1-.967,1.49,3.89,3.89,0,0,1-1.463.879,5.7,5.7,0,0,1-1.837.286A10.673,10.673,0,0,1,82,17.013a11.772,11.772,0,0,1-1.6-.391V4.581h2.145V7.5L82.45,9.257a3.939,3.939,0,0,1,1.129-1,3.33,3.33,0,0,1,2.958-.062,2.87,2.87,0,0,1,1.033.9,4.306,4.306,0,0,1,.637,1.415A7.31,7.31,0,0,1,88.427,12.377Zm-2.25.088a6.413,6.413,0,0,0-.105-1.257,2.753,2.753,0,0,0-.3-.853,1.267,1.267,0,0,0-.483-.488,1.359,1.359,0,0,0-.655-.154,1.557,1.557,0,0,0-1.042.439,7.593,7.593,0,0,0-1.05,1.2v3.9a3.315,3.315,0,0,0,.628.158,4.67,4.67,0,0,0,.76.062,2.027,2.027,0,0,0,.927-.211,2.048,2.048,0,0,0,.712-.6,2.806,2.806,0,0,0,.453-.945A4.591,4.591,0,0,0,86.177,12.465Zm11.892-.615q0,.22-.013.571t-.04.659H92.145a2.766,2.766,0,0,0,.18,1.037,2.035,2.035,0,0,0,.51.751,2.21,2.21,0,0,0,.791.461,3.142,3.142,0,0,0,1.024.158,10.361,10.361,0,0,0,1.393-.1,11.045,11.045,0,0,0,1.542-.33v1.705q-.343.1-.747.176t-.826.141q-.422.062-.853.092t-.835.031a5.391,5.391,0,0,1-1.828-.29,3.624,3.624,0,0,1-1.371-.857,3.751,3.751,0,0,1-.861-1.4,5.728,5.728,0,0,1-.3-1.934,6.213,6.213,0,0,1,.3-1.982,4.543,4.543,0,0,1,.844-1.529,3.7,3.7,0,0,1,1.323-.984,4.213,4.213,0,0,1,1.736-.347,4.459,4.459,0,0,1,1.679.294,3.367,3.367,0,0,1,1.222.822,3.516,3.516,0,0,1,.747,1.257A4.821,4.821,0,0,1,98.068,11.85Zm-2.18-.308a2.585,2.585,0,0,0-.132-.918,1.818,1.818,0,0,0-.382-.646,1.515,1.515,0,0,0-.562-.378,1.91,1.91,0,0,0-.69-.123,1.759,1.759,0,0,0-1.327.541,2.482,2.482,0,0,0-.615,1.525ZM115.409,17V11.182q0-1.468-1.09-1.468a1.557,1.557,0,0,0-1.042.439,7.593,7.593,0,0,0-1.05,1.2V17h-2.145V8.07h1.854l.053,1.318a6.172,6.172,0,0,1,.567-.624,3.329,3.329,0,0,1,.637-.479,3.035,3.035,0,0,1,.738-.3,3.447,3.447,0,0,1,.888-.105,2.95,2.95,0,0,1,1.2.224,2.306,2.306,0,0,1,.853.633,2.716,2.716,0,0,1,.514.984,4.506,4.506,0,0,1,.171,1.288V17Zm12.612-4.535a5.935,5.935,0,0,1-.3,1.929,4.268,4.268,0,0,1-.861,1.5,3.815,3.815,0,0,1-1.38.967,4.781,4.781,0,0,1-1.863.343,5.082,5.082,0,0,1-1.775-.29,3.449,3.449,0,0,1-1.327-.866,3.832,3.832,0,0,1-.835-1.441,6.354,6.354,0,0,1-.29-2.017,5.846,5.846,0,0,1,.3-1.934,4.2,4.2,0,0,1,.87-1.485,3.863,3.863,0,0,1,1.384-.954,4.786,4.786,0,0,1,1.846-.338,5.041,5.041,0,0,1,1.784.294,3.468,3.468,0,0,1,1.327.875,3.836,3.836,0,0,1,.831,1.437A6.267,6.267,0,0,1,128.021,12.465Zm-2.232.053a3.463,3.463,0,0,0-.523-2.087,1.806,1.806,0,0,0-1.542-.7,1.946,1.946,0,0,0-.958.22,1.855,1.855,0,0,0-.65.6,2.693,2.693,0,0,0-.374.892,4.8,4.8,0,0,0-.119,1.09,3.335,3.335,0,0,0,.563,2.1,1.859,1.859,0,0,0,1.538.708,1.92,1.92,0,0,0,.932-.215,1.744,1.744,0,0,0,.642-.6,2.879,2.879,0,0,0,.369-.9A4.827,4.827,0,0,0,125.789,12.518ZM136.178,17V10.918q0-.334-.018-.584a1.838,1.838,0,0,0-.07-.417.517.517,0,0,0-.154-.25.422.422,0,0,0-.277-.083.709.709,0,0,0-.536.369,5.909,5.909,0,0,0-.6,1.257V17h-1.837V10.918q0-.334-.018-.584a1.838,1.838,0,0,0-.07-.417.5.5,0,0,0-.158-.25.44.44,0,0,0-.281-.083q-.229,0-.51.369a5.461,5.461,0,0,0-.624,1.257V17h-1.854V8.07h1.591l.035,1.3a5.344,5.344,0,0,1,.387-.677,2.209,2.209,0,0,1,.413-.461,1.407,1.407,0,0,1,.47-.259,1.88,1.88,0,0,1,.567-.079,1.542,1.542,0,0,1,1.138.391,1.654,1.654,0,0,1,.444,1.085,5.606,5.606,0,0,1,.417-.677,2.439,2.439,0,0,1,.431-.461,1.436,1.436,0,0,1,.483-.259,1.968,1.968,0,0,1,.576-.079,1.625,1.625,0,0,1,1.441.681,3.583,3.583,0,0,1,.466,2.017V17Zm11.628-4.623a5.884,5.884,0,0,1-.347,2.127,4.052,4.052,0,0,1-.967,1.49,3.89,3.89,0,0,1-1.463.879,5.7,5.7,0,0,1-1.837.286,10.673,10.673,0,0,1-1.815-.145,11.772,11.772,0,0,1-1.6-.391V4.581h2.145V7.5l-.088,1.758a3.939,3.939,0,0,1,1.129-1,3.33,3.33,0,0,1,2.958-.062,2.87,2.87,0,0,1,1.033.9,4.306,4.306,0,0,1,.637,1.415A7.31,7.31,0,0,1,147.806,12.377Zm-2.25.088a6.413,6.413,0,0,0-.105-1.257,2.753,2.753,0,0,0-.3-.853,1.267,1.267,0,0,0-.483-.488,1.359,1.359,0,0,0-.655-.154,1.557,1.557,0,0,0-1.042.439,7.593,7.593,0,0,0-1.05,1.2v3.9a3.315,3.315,0,0,0,.628.158,4.67,4.67,0,0,0,.76.062,2.027,2.027,0,0,0,.927-.211,2.048,2.048,0,0,0,.712-.6,2.806,2.806,0,0,0,.453-.945A4.591,4.591,0,0,0,145.556,12.465Zm9.861-.923a3.954,3.954,0,0,0-.048-.853,1.643,1.643,0,0,0-.211-.58.9.9,0,0,0-.356-.334,1.067,1.067,0,0,0-.483-.105,1.616,1.616,0,0,0-.98.391,5.635,5.635,0,0,0-1.112,1.288V17h-2.2V8.07h1.942l.079,1.3a3.538,3.538,0,0,1,.5-.615,3.112,3.112,0,0,1,.615-.47,2.9,2.9,0,0,1,.751-.3,3.655,3.655,0,0,1,.905-.105,2.922,2.922,0,0,1,1.2.233,2.269,2.269,0,0,1,.879.69,3.032,3.032,0,0,1,.527,1.147,5.932,5.932,0,0,1,.145,1.6ZM165.164,17l-.053-1.169a6.086,6.086,0,0,1-.589.549,3.612,3.612,0,0,1-1.481.721,4.214,4.214,0,0,1-.954.1,3.3,3.3,0,0,1-1.2-.2,2.428,2.428,0,0,1-.87-.562,2.347,2.347,0,0,1-.532-.87,3.356,3.356,0,0,1-.18-1.125,2.577,2.577,0,0,1,.268-1.169,2.491,2.491,0,0,1,.817-.923,4.292,4.292,0,0,1,1.371-.606,7.519,7.519,0,0,1,1.929-.22h1.169v-.536a1.871,1.871,0,0,0-.1-.62,1.116,1.116,0,0,0-.312-.47,1.469,1.469,0,0,0-.558-.3,2.9,2.9,0,0,0-.844-.105,6.816,6.816,0,0,0-1.56.18,8.114,8.114,0,0,0-1.49.505V8.466a8.54,8.54,0,0,1,1.481-.422,8.922,8.922,0,0,1,1.745-.167,6.715,6.715,0,0,1,1.705.189,3.068,3.068,0,0,1,1.173.567,2.251,2.251,0,0,1,.681.945A3.649,3.649,0,0,1,167,10.9V17Zm-.308-3.946h-1.31a3.478,3.478,0,0,0-.923.105,1.767,1.767,0,0,0-.615.29,1.136,1.136,0,0,0-.347.426,1.228,1.228,0,0,0-.11.514,1.008,1.008,0,0,0,.352.831,1.476,1.476,0,0,0,.958.286,1.677,1.677,0,0,0,.932-.325,6.723,6.723,0,0,0,1.063-.932Zm10.354-1.512a3.954,3.954,0,0,0-.048-.853,1.643,1.643,0,0,0-.211-.58.9.9,0,0,0-.356-.334,1.067,1.067,0,0,0-.483-.105,1.616,1.616,0,0,0-.98.391,5.635,5.635,0,0,0-1.112,1.288V17h-2.2V8.07h1.942l.079,1.3a3.538,3.538,0,0,1,.5-.615,3.112,3.112,0,0,1,.615-.47,2.9,2.9,0,0,1,.751-.3,3.655,3.655,0,0,1,.905-.105,2.922,2.922,0,0,1,1.2.233,2.269,2.269,0,0,1,.879.69,3.032,3.032,0,0,1,.527,1.147,5.932,5.932,0,0,1,.145,1.6Zm7.875-3.56a1.581,1.581,0,0,1,.624.123,1.528,1.528,0,0,1,.5.338,1.616,1.616,0,0,1,.334.505,1.559,1.559,0,0,1,.123.615,1.581,1.581,0,0,1-.123.624,1.535,1.535,0,0,1-.835.835,1.581,1.581,0,0,1-.624.123,1.549,1.549,0,0,1-.62-.123,1.63,1.63,0,0,1-.5-.334,1.528,1.528,0,0,1-.338-.5,1.581,1.581,0,0,1-.123-.624,1.559,1.559,0,0,1,.123-.615,1.578,1.578,0,0,1,.839-.844A1.549,1.549,0,0,1,183.085,7.982Zm0,6.056a1.581,1.581,0,0,1,.624.123,1.567,1.567,0,0,1,.958,1.45,1.581,1.581,0,0,1-.123.624,1.616,1.616,0,0,1-.334.505,1.528,1.528,0,0,1-.5.338,1.581,1.581,0,0,1-.624.123,1.549,1.549,0,0,1-.62-.123,1.582,1.582,0,0,1-.962-1.468,1.559,1.559,0,0,1,.123-.615,1.528,1.528,0,0,1,.338-.5,1.63,1.63,0,0,1,.5-.334A1.549,1.549,0,0,1,183.085,14.038Z" transform="translate(-8701 -8208)" fill="#039be5"/>
    <path id="Path_105248" data-name="Path 105248" d="M3.814,7.341v3.182H8.156V12.3H3.814V17h-2.2V5.513H8.4V7.341ZM19.16,12.465a5.935,5.935,0,0,1-.3,1.929,4.268,4.268,0,0,1-.861,1.5,3.815,3.815,0,0,1-1.38.967,4.781,4.781,0,0,1-1.863.343,5.082,5.082,0,0,1-1.775-.29,3.449,3.449,0,0,1-1.327-.866,3.832,3.832,0,0,1-.835-1.441,6.354,6.354,0,0,1-.29-2.017,5.846,5.846,0,0,1,.3-1.934,4.2,4.2,0,0,1,.87-1.485,3.863,3.863,0,0,1,1.384-.954,4.786,4.786,0,0,1,1.846-.338,5.041,5.041,0,0,1,1.784.294,3.468,3.468,0,0,1,1.327.875,3.836,3.836,0,0,1,.831,1.437A6.267,6.267,0,0,1,19.16,12.465Zm-2.232.053A3.463,3.463,0,0,0,16.4,10.43a1.806,1.806,0,0,0-1.542-.7,1.946,1.946,0,0,0-.958.22,1.855,1.855,0,0,0-.65.6,2.693,2.693,0,0,0-.374.892,4.8,4.8,0,0,0-.119,1.09,3.335,3.335,0,0,0,.563,2.1,1.859,1.859,0,0,0,1.538.708,1.92,1.92,0,0,0,.932-.215,1.744,1.744,0,0,0,.642-.6,2.879,2.879,0,0,0,.369-.9A4.827,4.827,0,0,0,16.928,12.518Zm9.835-.976a3.954,3.954,0,0,0-.048-.853,1.643,1.643,0,0,0-.211-.58.9.9,0,0,0-.356-.334,1.067,1.067,0,0,0-.483-.105,1.616,1.616,0,0,0-.98.391,5.635,5.635,0,0,0-1.112,1.288V17h-2.2V8.07h1.942l.079,1.3a3.538,3.538,0,0,1,.5-.615,3.112,3.112,0,0,1,.615-.47,2.9,2.9,0,0,1,.751-.3,3.655,3.655,0,0,1,.905-.105,2.922,2.922,0,0,1,1.2.233,2.269,2.269,0,0,1,.879.69,3.032,3.032,0,0,1,.527,1.147,5.932,5.932,0,0,1,.145,1.6ZM37.213,17V10.918q0-.334-.018-.584a1.838,1.838,0,0,0-.07-.417.517.517,0,0,0-.154-.25.422.422,0,0,0-.277-.083.709.709,0,0,0-.536.369,5.909,5.909,0,0,0-.6,1.257V17H33.724V10.918q0-.334-.018-.584a1.838,1.838,0,0,0-.07-.417.5.5,0,0,0-.158-.25.44.44,0,0,0-.281-.083q-.229,0-.51.369a5.461,5.461,0,0,0-.624,1.257V17H30.208V8.07H31.8l.035,1.3a5.344,5.344,0,0,1,.387-.677,2.209,2.209,0,0,1,.413-.461,1.407,1.407,0,0,1,.47-.259,1.88,1.88,0,0,1,.567-.079,1.542,1.542,0,0,1,1.138.391,1.654,1.654,0,0,1,.444,1.085,5.606,5.606,0,0,1,.417-.677,2.439,2.439,0,0,1,.431-.461,1.436,1.436,0,0,1,.483-.259,1.968,1.968,0,0,1,.576-.079,1.625,1.625,0,0,1,1.441.681,3.583,3.583,0,0,1,.466,2.017V17Zm9.193,0-.053-1.169a6.086,6.086,0,0,1-.589.549,3.612,3.612,0,0,1-1.481.721,4.214,4.214,0,0,1-.954.1,3.3,3.3,0,0,1-1.2-.2,2.428,2.428,0,0,1-.87-.562,2.347,2.347,0,0,1-.532-.87,3.356,3.356,0,0,1-.18-1.125,2.577,2.577,0,0,1,.268-1.169,2.491,2.491,0,0,1,.817-.923A4.292,4.292,0,0,1,43,11.744a7.519,7.519,0,0,1,1.929-.22H46.1v-.536a1.871,1.871,0,0,0-.1-.62,1.116,1.116,0,0,0-.312-.47,1.469,1.469,0,0,0-.558-.3,2.9,2.9,0,0,0-.844-.105,6.816,6.816,0,0,0-1.56.18,8.114,8.114,0,0,0-1.49.505V8.466a8.54,8.54,0,0,1,1.481-.422,8.922,8.922,0,0,1,1.745-.167,6.715,6.715,0,0,1,1.705.189,3.068,3.068,0,0,1,1.173.567,2.251,2.251,0,0,1,.681.945,3.649,3.649,0,0,1,.22,1.323V17ZM46.1,13.054h-1.31a3.478,3.478,0,0,0-.923.105,1.767,1.767,0,0,0-.615.29,1.136,1.136,0,0,0-.347.426,1.228,1.228,0,0,0-.11.514,1.008,1.008,0,0,0,.352.831,1.476,1.476,0,0,0,.958.286,1.677,1.677,0,0,0,.932-.325,6.723,6.723,0,0,0,1.063-.932Zm21.727,3.6a6.707,6.707,0,0,1-1.31.378,7.9,7.9,0,0,1-1.415.123,5.847,5.847,0,0,1-1.907-.29,3.8,3.8,0,0,1-1.433-.861,3.749,3.749,0,0,1-.9-1.415,5.61,5.61,0,0,1-.312-1.951,5.32,5.32,0,0,1,.338-1.942,4.248,4.248,0,0,1,.954-1.485,4.2,4.2,0,0,1,1.481-.949A5.322,5.322,0,0,1,65.25,7.93a9.745,9.745,0,0,1,1.463.092,8.227,8.227,0,0,1,1.068.233v2.083A5.379,5.379,0,0,0,66.6,9.916a5.3,5.3,0,0,0-1.208-.149,2.712,2.712,0,0,0-1.072.2,2.246,2.246,0,0,0-.8.563,2.436,2.436,0,0,0-.5.875,3.554,3.554,0,0,0-.171,1.129,3.366,3.366,0,0,0,.185,1.151,2.447,2.447,0,0,0,.523.866,2.259,2.259,0,0,0,.813.545,2.828,2.828,0,0,0,1.055.189,4.725,4.725,0,0,0,.593-.04,5.823,5.823,0,0,0,.624-.114q.312-.075.615-.171a6.044,6.044,0,0,0,.567-.211Zm10.714-4.192a5.935,5.935,0,0,1-.3,1.929,4.268,4.268,0,0,1-.861,1.5,3.815,3.815,0,0,1-1.38.967,4.781,4.781,0,0,1-1.863.343,5.082,5.082,0,0,1-1.775-.29,3.449,3.449,0,0,1-1.327-.866A3.832,3.832,0,0,1,70.2,14.6a6.354,6.354,0,0,1-.29-2.017,5.846,5.846,0,0,1,.3-1.934,4.2,4.2,0,0,1,.87-1.485,3.863,3.863,0,0,1,1.384-.954,4.786,4.786,0,0,1,1.846-.338,5.041,5.041,0,0,1,1.784.294,3.468,3.468,0,0,1,1.327.875,3.836,3.836,0,0,1,.831,1.437A6.267,6.267,0,0,1,78.539,12.465Zm-2.232.053a3.463,3.463,0,0,0-.523-2.087,1.806,1.806,0,0,0-1.542-.7,1.946,1.946,0,0,0-.958.22,1.855,1.855,0,0,0-.65.6,2.693,2.693,0,0,0-.374.892,4.8,4.8,0,0,0-.119,1.09,3.335,3.335,0,0,0,.563,2.1,1.859,1.859,0,0,0,1.538.708,1.92,1.92,0,0,0,.932-.215,1.744,1.744,0,0,0,.642-.6,2.879,2.879,0,0,0,.369-.9A4.827,4.827,0,0,0,76.307,12.518Zm9.835-.976a3.954,3.954,0,0,0-.048-.853,1.643,1.643,0,0,0-.211-.58.9.9,0,0,0-.356-.334,1.067,1.067,0,0,0-.483-.105,1.616,1.616,0,0,0-.98.391,5.635,5.635,0,0,0-1.112,1.288V17h-2.2V8.07H82.7l.079,1.3a3.538,3.538,0,0,1,.5-.615,3.112,3.112,0,0,1,.615-.47,2.9,2.9,0,0,1,.751-.3,3.655,3.655,0,0,1,.905-.105,2.922,2.922,0,0,1,1.2.233,2.269,2.269,0,0,1,.879.69,3.032,3.032,0,0,1,.527,1.147,5.932,5.932,0,0,1,.145,1.6Zm9.9,0a3.954,3.954,0,0,0-.048-.853,1.643,1.643,0,0,0-.211-.58.9.9,0,0,0-.356-.334,1.067,1.067,0,0,0-.483-.105,1.616,1.616,0,0,0-.98.391,5.635,5.635,0,0,0-1.112,1.288V17h-2.2V8.07h1.942l.079,1.3a3.538,3.538,0,0,1,.5-.615,3.112,3.112,0,0,1,.615-.47,2.9,2.9,0,0,1,.751-.3,3.655,3.655,0,0,1,.905-.105,2.922,2.922,0,0,1,1.2.233,2.269,2.269,0,0,1,.879.69,3.032,3.032,0,0,1,.527,1.147,5.932,5.932,0,0,1,.145,1.6Zm11.927.308q0,.22-.013.571t-.04.659h-5.871a2.766,2.766,0,0,0,.18,1.037,2.035,2.035,0,0,0,.51.751,2.21,2.21,0,0,0,.791.461,3.142,3.142,0,0,0,1.024.158,10.361,10.361,0,0,0,1.393-.1,11.045,11.045,0,0,0,1.542-.33v1.705q-.343.1-.747.176t-.826.141q-.422.062-.853.092t-.835.031a5.391,5.391,0,0,1-1.828-.29,3.624,3.624,0,0,1-1.371-.857,3.751,3.751,0,0,1-.861-1.4,5.728,5.728,0,0,1-.3-1.934,6.213,6.213,0,0,1,.3-1.982A4.543,4.543,0,0,1,101,9.208a3.7,3.7,0,0,1,1.323-.984,4.213,4.213,0,0,1,1.736-.347,4.459,4.459,0,0,1,1.679.294,3.367,3.367,0,0,1,1.222.822,3.516,3.516,0,0,1,.747,1.257A4.821,4.821,0,0,1,107.965,11.85Zm-2.18-.308a2.585,2.585,0,0,0-.132-.918,1.818,1.818,0,0,0-.382-.646,1.515,1.515,0,0,0-.562-.378,1.91,1.91,0,0,0-.69-.123,1.759,1.759,0,0,0-1.327.541,2.482,2.482,0,0,0-.615,1.525Zm11.522,5.115a6.707,6.707,0,0,1-1.31.378,7.9,7.9,0,0,1-1.415.123,5.847,5.847,0,0,1-1.907-.29,3.8,3.8,0,0,1-1.433-.861,3.749,3.749,0,0,1-.9-1.415,5.61,5.61,0,0,1-.312-1.951,5.32,5.32,0,0,1,.338-1.942,4.248,4.248,0,0,1,.954-1.485,4.2,4.2,0,0,1,1.481-.949,5.322,5.322,0,0,1,1.929-.334,9.745,9.745,0,0,1,1.463.092,8.227,8.227,0,0,1,1.068.233v2.083a5.379,5.379,0,0,0-1.182-.422,5.3,5.3,0,0,0-1.208-.149,2.712,2.712,0,0,0-1.072.2,2.246,2.246,0,0,0-.8.563,2.436,2.436,0,0,0-.5.875,3.554,3.554,0,0,0-.171,1.129,3.366,3.366,0,0,0,.185,1.151,2.447,2.447,0,0,0,.523.866,2.259,2.259,0,0,0,.813.545,2.828,2.828,0,0,0,1.055.189,4.725,4.725,0,0,0,.593-.04,5.823,5.823,0,0,0,.624-.114q.312-.075.615-.171a6.044,6.044,0,0,0,.567-.211Zm10.037.255q-.58.132-1.169.211a8.4,8.4,0,0,1-1.116.079,5.489,5.489,0,0,1-1.516-.185,2.637,2.637,0,0,1-1.055-.562,2.237,2.237,0,0,1-.615-.962,4.363,4.363,0,0,1-.2-1.393V9.74h-2.4V8.07h2.4V5.785l2.2-.571V8.07h3.472V9.74h-3.472v4.2a1.678,1.678,0,0,0,.352,1.156,1.52,1.52,0,0,0,1.178.391,5.94,5.94,0,0,0,1.028-.088q.5-.088.914-.2Zm8.13.088-.053-1.169a6.086,6.086,0,0,1-.589.549,3.612,3.612,0,0,1-1.481.721,4.214,4.214,0,0,1-.954.1,3.3,3.3,0,0,1-1.2-.2,2.428,2.428,0,0,1-.87-.562,2.347,2.347,0,0,1-.532-.87,3.356,3.356,0,0,1-.18-1.125,2.577,2.577,0,0,1,.268-1.169,2.491,2.491,0,0,1,.817-.923,4.292,4.292,0,0,1,1.371-.606,7.519,7.519,0,0,1,1.929-.22h1.169v-.536a1.871,1.871,0,0,0-.1-.62,1.116,1.116,0,0,0-.312-.47,1.469,1.469,0,0,0-.558-.3,2.9,2.9,0,0,0-.844-.105,6.816,6.816,0,0,0-1.56.18,8.114,8.114,0,0,0-1.49.505V8.466a8.54,8.54,0,0,1,1.481-.422,8.922,8.922,0,0,1,1.745-.167,6.715,6.715,0,0,1,1.705.189,3.068,3.068,0,0,1,1.173.567,2.251,2.251,0,0,1,.681.945,3.649,3.649,0,0,1,.22,1.323V17Zm-.308-3.946h-1.31a3.478,3.478,0,0,0-.923.105,1.767,1.767,0,0,0-.615.29,1.136,1.136,0,0,0-.347.426,1.228,1.228,0,0,0-.11.514,1.008,1.008,0,0,0,.352.831,1.476,1.476,0,0,0,.958.286,1.677,1.677,0,0,0,.932-.325,6.723,6.723,0,0,0,1.063-.932ZM143.5,7.982a1.581,1.581,0,0,1,.624.123,1.528,1.528,0,0,1,.5.338,1.616,1.616,0,0,1,.334.505,1.559,1.559,0,0,1,.123.615,1.581,1.581,0,0,1-.123.624,1.535,1.535,0,0,1-.835.835,1.581,1.581,0,0,1-.624.123,1.549,1.549,0,0,1-.62-.123,1.63,1.63,0,0,1-.5-.334,1.528,1.528,0,0,1-.338-.5,1.581,1.581,0,0,1-.123-.624,1.559,1.559,0,0,1,.123-.615,1.578,1.578,0,0,1,.839-.844A1.549,1.549,0,0,1,143.5,7.982Zm0,6.056a1.581,1.581,0,0,1,.624.123,1.567,1.567,0,0,1,.958,1.45,1.581,1.581,0,0,1-.123.624,1.616,1.616,0,0,1-.334.505,1.528,1.528,0,0,1-.5.338,1.581,1.581,0,0,1-.624.123,1.549,1.549,0,0,1-.62-.123,1.582,1.582,0,0,1-.962-1.468A1.559,1.559,0,0,1,142.04,15a1.528,1.528,0,0,1,.338-.5,1.63,1.63,0,0,1,.5-.334A1.549,1.549,0,0,1,143.5,14.038Z" transform="translate(-8701 -8106)" fill="#039be5"/>
    <path id="Path_105245" data-name="Path 105245" d="M6.214,17H3.744L.2,8.07H2.593l1.854,5.063L5,14.768,5.546,13.2,7.418,8.07h2.3Zm10.5,0-.053-1.169a6.086,6.086,0,0,1-.589.549,3.612,3.612,0,0,1-1.481.721,4.214,4.214,0,0,1-.954.1,3.3,3.3,0,0,1-1.2-.2,2.428,2.428,0,0,1-.87-.562,2.347,2.347,0,0,1-.532-.87,3.356,3.356,0,0,1-.18-1.125,2.577,2.577,0,0,1,.268-1.169,2.491,2.491,0,0,1,.817-.923,4.292,4.292,0,0,1,1.371-.606,7.519,7.519,0,0,1,1.929-.22h1.169v-.536a1.871,1.871,0,0,0-.1-.62A1.116,1.116,0,0,0,16,9.9a1.469,1.469,0,0,0-.558-.3,2.9,2.9,0,0,0-.844-.105,6.816,6.816,0,0,0-1.56.18,8.114,8.114,0,0,0-1.49.505V8.466a8.54,8.54,0,0,1,1.481-.422,8.922,8.922,0,0,1,1.745-.167,6.715,6.715,0,0,1,1.705.189,3.068,3.068,0,0,1,1.173.567,2.251,2.251,0,0,1,.681.945,3.649,3.649,0,0,1,.22,1.323V17Zm-.308-3.946H15.1a3.478,3.478,0,0,0-.923.105,1.767,1.767,0,0,0-.615.29,1.136,1.136,0,0,0-.347.426,1.228,1.228,0,0,0-.11.514,1.008,1.008,0,0,0,.352.831,1.476,1.476,0,0,0,.958.286,1.677,1.677,0,0,0,.932-.325,6.723,6.723,0,0,0,1.063-.932Zm10.354-1.512a3.954,3.954,0,0,0-.048-.853,1.643,1.643,0,0,0-.211-.58.9.9,0,0,0-.356-.334,1.067,1.067,0,0,0-.483-.105,1.616,1.616,0,0,0-.98.391,5.635,5.635,0,0,0-1.112,1.288V17h-2.2V8.07h1.942l.079,1.3a3.538,3.538,0,0,1,.5-.615,3.112,3.112,0,0,1,.615-.47,2.9,2.9,0,0,1,.751-.3,3.655,3.655,0,0,1,.905-.105,2.922,2.922,0,0,1,1.2.233,2.269,2.269,0,0,1,.879.69,3.032,3.032,0,0,1,.527,1.147,5.932,5.932,0,0,1,.145,1.6ZM46.134,17V11.182q0-1.468-1.09-1.468A1.557,1.557,0,0,0,44,10.153a7.593,7.593,0,0,0-1.05,1.2V17H40.808V8.07h1.854l.053,1.318a6.172,6.172,0,0,1,.567-.624,3.329,3.329,0,0,1,.637-.479,3.035,3.035,0,0,1,.738-.3,3.447,3.447,0,0,1,.888-.105,2.95,2.95,0,0,1,1.2.224,2.306,2.306,0,0,1,.853.633,2.716,2.716,0,0,1,.514.984,4.506,4.506,0,0,1,.171,1.288V17Zm12.612-4.535a5.935,5.935,0,0,1-.3,1.929,4.268,4.268,0,0,1-.861,1.5,3.815,3.815,0,0,1-1.38.967,4.781,4.781,0,0,1-1.863.343,5.082,5.082,0,0,1-1.775-.29,3.449,3.449,0,0,1-1.327-.866,3.832,3.832,0,0,1-.835-1.441,6.354,6.354,0,0,1-.29-2.017,5.846,5.846,0,0,1,.3-1.934,4.2,4.2,0,0,1,.87-1.485,3.863,3.863,0,0,1,1.384-.954,4.786,4.786,0,0,1,1.846-.338,5.041,5.041,0,0,1,1.784.294,3.468,3.468,0,0,1,1.327.875,3.836,3.836,0,0,1,.831,1.437A6.267,6.267,0,0,1,58.746,12.465Zm-2.232.053a3.463,3.463,0,0,0-.523-2.087,1.806,1.806,0,0,0-1.542-.7,1.946,1.946,0,0,0-.958.22,1.855,1.855,0,0,0-.65.6,2.693,2.693,0,0,0-.374.892,4.8,4.8,0,0,0-.119,1.09,3.335,3.335,0,0,0,.563,2.1,1.859,1.859,0,0,0,1.538.708,1.92,1.92,0,0,0,.932-.215,1.744,1.744,0,0,0,.642-.6,2.879,2.879,0,0,0,.369-.9A4.827,4.827,0,0,0,56.514,12.518ZM66.9,17V10.918q0-.334-.018-.584a1.838,1.838,0,0,0-.07-.417.517.517,0,0,0-.154-.25.422.422,0,0,0-.277-.083.709.709,0,0,0-.536.369,5.909,5.909,0,0,0-.6,1.257V17H63.413V10.918q0-.334-.018-.584a1.838,1.838,0,0,0-.07-.417.5.5,0,0,0-.158-.25.44.44,0,0,0-.281-.083q-.229,0-.51.369a5.461,5.461,0,0,0-.624,1.257V17H59.9V8.07h1.591l.035,1.3a5.344,5.344,0,0,1,.387-.677,2.209,2.209,0,0,1,.413-.461,1.407,1.407,0,0,1,.47-.259,1.88,1.88,0,0,1,.567-.079,1.542,1.542,0,0,1,1.138.391,1.654,1.654,0,0,1,.444,1.085,5.606,5.606,0,0,1,.417-.677,2.439,2.439,0,0,1,.431-.461,1.436,1.436,0,0,1,.483-.259,1.968,1.968,0,0,1,.576-.079,1.625,1.625,0,0,1,1.441.681,3.583,3.583,0,0,1,.466,2.017V17ZM78.53,12.377a5.884,5.884,0,0,1-.347,2.127,4.052,4.052,0,0,1-.967,1.49,3.89,3.89,0,0,1-1.463.879,5.7,5.7,0,0,1-1.837.286,10.673,10.673,0,0,1-1.815-.145,11.772,11.772,0,0,1-1.6-.391V4.581h2.145V7.5l-.088,1.758a3.939,3.939,0,0,1,1.129-1,3.33,3.33,0,0,1,2.958-.062,2.87,2.87,0,0,1,1.033.9,4.306,4.306,0,0,1,.637,1.415A7.31,7.31,0,0,1,78.53,12.377Zm-2.25.088a6.413,6.413,0,0,0-.105-1.257,2.753,2.753,0,0,0-.3-.853,1.267,1.267,0,0,0-.483-.488,1.359,1.359,0,0,0-.655-.154,1.557,1.557,0,0,0-1.042.439,7.593,7.593,0,0,0-1.05,1.2v3.9a3.315,3.315,0,0,0,.628.158,4.67,4.67,0,0,0,.76.062,2.027,2.027,0,0,0,.927-.211,2.048,2.048,0,0,0,.712-.6,2.806,2.806,0,0,0,.453-.945A4.591,4.591,0,0,0,76.28,12.465Zm9.861-.923a3.954,3.954,0,0,0-.048-.853,1.643,1.643,0,0,0-.211-.58.9.9,0,0,0-.356-.334,1.067,1.067,0,0,0-.483-.105,1.616,1.616,0,0,0-.98.391,5.635,5.635,0,0,0-1.112,1.288V17h-2.2V8.07H82.7l.079,1.3a3.538,3.538,0,0,1,.5-.615,3.112,3.112,0,0,1,.615-.47,2.9,2.9,0,0,1,.751-.3,3.655,3.655,0,0,1,.905-.105,2.922,2.922,0,0,1,1.2.233,2.269,2.269,0,0,1,.879.69,3.032,3.032,0,0,1,.527,1.147,5.932,5.932,0,0,1,.145,1.6Zm11.927.308q0,.22-.013.571t-.04.659H92.145a2.766,2.766,0,0,0,.18,1.037,2.035,2.035,0,0,0,.51.751,2.21,2.21,0,0,0,.791.461,3.142,3.142,0,0,0,1.024.158,10.361,10.361,0,0,0,1.393-.1,11.045,11.045,0,0,0,1.542-.33v1.705q-.343.1-.747.176t-.826.141q-.422.062-.853.092t-.835.031a5.391,5.391,0,0,1-1.828-.29,3.624,3.624,0,0,1-1.371-.857,3.751,3.751,0,0,1-.861-1.4,5.728,5.728,0,0,1-.3-1.934,6.213,6.213,0,0,1,.3-1.982,4.543,4.543,0,0,1,.844-1.529,3.7,3.7,0,0,1,1.323-.984,4.213,4.213,0,0,1,1.736-.347,4.459,4.459,0,0,1,1.679.294,3.367,3.367,0,0,1,1.222.822,3.516,3.516,0,0,1,.747,1.257A4.821,4.821,0,0,1,98.068,11.85Zm-2.18-.308a2.585,2.585,0,0,0-.132-.918,1.818,1.818,0,0,0-.382-.646,1.515,1.515,0,0,0-.562-.378,1.91,1.91,0,0,0-.69-.123,1.759,1.759,0,0,0-1.327.541,2.482,2.482,0,0,0-.615,1.525Zm21.419,5.115a6.707,6.707,0,0,1-1.31.378,7.9,7.9,0,0,1-1.415.123,5.847,5.847,0,0,1-1.907-.29,3.8,3.8,0,0,1-1.433-.861,3.749,3.749,0,0,1-.9-1.415,5.61,5.61,0,0,1-.312-1.951,5.32,5.32,0,0,1,.338-1.942,4.248,4.248,0,0,1,.954-1.485,4.2,4.2,0,0,1,1.481-.949,5.322,5.322,0,0,1,1.929-.334,9.745,9.745,0,0,1,1.463.092,8.227,8.227,0,0,1,1.068.233v2.083a5.379,5.379,0,0,0-1.182-.422,5.3,5.3,0,0,0-1.208-.149,2.712,2.712,0,0,0-1.072.2,2.246,2.246,0,0,0-.8.563,2.436,2.436,0,0,0-.5.875,3.554,3.554,0,0,0-.171,1.129,3.366,3.366,0,0,0,.185,1.151,2.447,2.447,0,0,0,.523.866,2.259,2.259,0,0,0,.813.545,2.828,2.828,0,0,0,1.055.189,4.725,4.725,0,0,0,.593-.04,5.823,5.823,0,0,0,.624-.114q.312-.075.615-.171a6.044,6.044,0,0,0,.567-.211Zm5.555-10.406H120.34V4.581h4.72V15.33h2.575V17h-7.6V15.33h2.83Zm12.27-.624a1.411,1.411,0,0,1-.105.545,1.351,1.351,0,0,1-.294.444,1.41,1.41,0,0,1-.444.3,1.384,1.384,0,0,1-.554.11,1.416,1.416,0,0,1-.558-.11,1.4,1.4,0,0,1-.448-.3,1.351,1.351,0,0,1-.294-.444,1.426,1.426,0,0,1,.294-1.538,1.362,1.362,0,0,1,.448-.3,1.416,1.416,0,0,1,.558-.11,1.375,1.375,0,0,1,1,.413,1.408,1.408,0,0,1,.4.993ZM132.759,9.74h-2.522V8.07h4.72v7.26h2.575V17h-7.6V15.33h2.83Zm14.792,2.109q0,.22-.013.571t-.04.659h-5.871a2.766,2.766,0,0,0,.18,1.037,2.035,2.035,0,0,0,.51.751,2.21,2.21,0,0,0,.791.461,3.142,3.142,0,0,0,1.024.158,10.361,10.361,0,0,0,1.393-.1,11.045,11.045,0,0,0,1.542-.33v1.705q-.343.1-.747.176t-.826.141q-.422.062-.853.092t-.835.031a5.391,5.391,0,0,1-1.828-.29,3.624,3.624,0,0,1-1.371-.857,3.751,3.751,0,0,1-.861-1.4,5.728,5.728,0,0,1-.3-1.934,6.213,6.213,0,0,1,.3-1.982,4.543,4.543,0,0,1,.844-1.529,3.7,3.7,0,0,1,1.323-.984,4.213,4.213,0,0,1,1.736-.347,4.459,4.459,0,0,1,1.679.294,3.367,3.367,0,0,1,1.222.822,3.516,3.516,0,0,1,.747,1.257A4.821,4.821,0,0,1,147.551,11.85Zm-2.18-.308a2.585,2.585,0,0,0-.132-.918,1.818,1.818,0,0,0-.382-.646,1.515,1.515,0,0,0-.562-.378,1.91,1.91,0,0,0-.69-.123,1.759,1.759,0,0,0-1.327.541,2.482,2.482,0,0,0-.615,1.525ZM155,17V11.182q0-1.468-1.09-1.468a1.557,1.557,0,0,0-1.042.439,7.593,7.593,0,0,0-1.05,1.2V17h-2.145V8.07h1.854l.053,1.318a6.172,6.172,0,0,1,.567-.624,3.329,3.329,0,0,1,.637-.479,3.035,3.035,0,0,1,.738-.3,3.447,3.447,0,0,1,.888-.105,2.95,2.95,0,0,1,1.2.224,2.306,2.306,0,0,1,.853.633,2.716,2.716,0,0,1,.514.984,4.506,4.506,0,0,1,.171,1.288V17Zm11.936-.088q-.58.132-1.169.211a8.4,8.4,0,0,1-1.116.079,5.489,5.489,0,0,1-1.516-.185,2.637,2.637,0,0,1-1.055-.562,2.237,2.237,0,0,1-.615-.962,4.363,4.363,0,0,1-.2-1.393V9.74h-2.4V8.07h2.4V5.785l2.2-.571V8.07h3.472V9.74h-3.472v4.2a1.678,1.678,0,0,0,.352,1.156,1.52,1.52,0,0,0,1.178.391,5.94,5.94,0,0,0,1.028-.088q.5-.088.914-.2Zm10.31-5.062q0,.22-.013.571t-.04.659h-5.871a2.766,2.766,0,0,0,.18,1.037,2.035,2.035,0,0,0,.51.751,2.21,2.21,0,0,0,.791.461,3.142,3.142,0,0,0,1.024.158,10.361,10.361,0,0,0,1.393-.1,11.045,11.045,0,0,0,1.542-.33v1.705q-.343.1-.747.176t-.826.141q-.422.062-.853.092t-.835.031a5.391,5.391,0,0,1-1.828-.29,3.624,3.624,0,0,1-1.371-.857,3.751,3.751,0,0,1-.861-1.4,5.728,5.728,0,0,1-.3-1.934,6.213,6.213,0,0,1,.3-1.982,4.543,4.543,0,0,1,.844-1.529,3.7,3.7,0,0,1,1.323-.984,4.213,4.213,0,0,1,1.736-.347,4.459,4.459,0,0,1,1.679.294,3.367,3.367,0,0,1,1.222.822,3.516,3.516,0,0,1,.747,1.257A4.821,4.821,0,0,1,177.24,11.85Zm-2.18-.308a2.585,2.585,0,0,0-.132-.918,1.818,1.818,0,0,0-.382-.646,1.515,1.515,0,0,0-.562-.378,1.91,1.91,0,0,0-.69-.123,1.759,1.759,0,0,0-1.327.541,2.482,2.482,0,0,0-.615,1.525Zm9.018,1.556v3.419H182.1V13.1h-3.278V11.331H182.1V7.93h1.978v3.4h3.278V13.1ZM4.1,56.251H1.582v-1.67H6.3V65.33H8.877V67h-7.6V65.33H4.1ZM18.9,61.85q0,.22-.013.571t-.04.659H12.973a2.766,2.766,0,0,0,.18,1.037,2.035,2.035,0,0,0,.51.751,2.21,2.21,0,0,0,.791.461,3.142,3.142,0,0,0,1.024.158,10.361,10.361,0,0,0,1.393-.1,11.045,11.045,0,0,0,1.542-.33v1.705q-.343.1-.747.176t-.826.141q-.422.062-.853.092t-.835.031a5.391,5.391,0,0,1-1.828-.29,3.624,3.624,0,0,1-1.371-.857,3.751,3.751,0,0,1-.861-1.4,5.728,5.728,0,0,1-.3-1.934,6.213,6.213,0,0,1,.3-1.982,4.543,4.543,0,0,1,.844-1.529,3.7,3.7,0,0,1,1.323-.984,4.213,4.213,0,0,1,1.736-.347,4.459,4.459,0,0,1,1.679.294,3.367,3.367,0,0,1,1.222.822,3.516,3.516,0,0,1,.747,1.257A4.821,4.821,0,0,1,18.9,61.85Zm-2.18-.308a2.585,2.585,0,0,0-.132-.918,1.818,1.818,0,0,0-.382-.646,1.515,1.515,0,0,0-.562-.378,1.91,1.91,0,0,0-.69-.123,1.759,1.759,0,0,0-1.327.541,2.482,2.482,0,0,0-.615,1.525Zm11.663,5.37q-.58.132-1.169.211a8.4,8.4,0,0,1-1.116.079,5.489,5.489,0,0,1-1.516-.185,2.637,2.637,0,0,1-1.055-.562,2.237,2.237,0,0,1-.615-.962,4.363,4.363,0,0,1-.2-1.393V59.74h-2.4V58.07h2.4V55.785l2.2-.571V58.07H28.38v1.67H24.908v4.2A1.678,1.678,0,0,0,25.26,65.1a1.52,1.52,0,0,0,1.178.391,5.94,5.94,0,0,0,1.028-.088q.5-.088.914-.2ZM40.922,67V65.093h2.927V57.71L41.3,59.116l-.7-1.749,3.647-1.925h1.8v9.65h2.522V67ZM51.1,67V55.513h6.917v1.828H53.3V60.2h4.5v1.784H53.3v3.19h4.72V67Zm15.117,0-.053-1.318a6.632,6.632,0,0,1-.58.624,3.451,3.451,0,0,1-.642.479,3.091,3.091,0,0,1-1.6.417,3.031,3.031,0,0,1-1.406-.316,2.87,2.87,0,0,1-1.033-.9,4.3,4.3,0,0,1-.637-1.419,7.323,7.323,0,0,1-.22-1.863,5.92,5.92,0,0,1,.347-2.131,4.075,4.075,0,0,1,.962-1.494,3.85,3.85,0,0,1,1.459-.879,5.7,5.7,0,0,1,1.837-.286,5.216,5.216,0,0,1,.672.044,4.7,4.7,0,0,1,.6.114V54.581h2.145V67ZM62.3,62.605a6.756,6.756,0,0,0,.1,1.261,2.685,2.685,0,0,0,.3.857,1.257,1.257,0,0,0,.488.488,1.385,1.385,0,0,0,.659.154,1.541,1.541,0,0,0,1.037-.439,7.585,7.585,0,0,0,1.046-1.2v-3.9a3.315,3.315,0,0,0-.628-.158,4.616,4.616,0,0,0-.751-.062,2.019,2.019,0,0,0-.932.211,2.06,2.06,0,0,0-.708.6,2.806,2.806,0,0,0-.453.945A4.591,4.591,0,0,0,62.3,62.605ZM76.1,67l-.053-1.169a6.086,6.086,0,0,1-.589.549,3.612,3.612,0,0,1-1.481.721,4.214,4.214,0,0,1-.954.1,3.3,3.3,0,0,1-1.2-.2,2.428,2.428,0,0,1-.87-.562,2.347,2.347,0,0,1-.532-.87,3.356,3.356,0,0,1-.18-1.125,2.577,2.577,0,0,1,.268-1.169,2.491,2.491,0,0,1,.817-.923,4.292,4.292,0,0,1,1.371-.606,7.519,7.519,0,0,1,1.929-.22h1.169v-.536a1.871,1.871,0,0,0-.1-.62,1.116,1.116,0,0,0-.312-.47,1.469,1.469,0,0,0-.558-.3,2.9,2.9,0,0,0-.844-.105,6.816,6.816,0,0,0-1.56.18,8.114,8.114,0,0,0-1.49.505V58.466a8.54,8.54,0,0,1,1.481-.422,8.922,8.922,0,0,1,1.745-.167,6.715,6.715,0,0,1,1.705.189,3.068,3.068,0,0,1,1.173.567,2.251,2.251,0,0,1,.681.945,3.649,3.649,0,0,1,.22,1.323V67Zm-.308-3.946h-1.31a3.478,3.478,0,0,0-.923.105,1.767,1.767,0,0,0-.615.29,1.136,1.136,0,0,0-.347.426,1.228,1.228,0,0,0-.11.514,1.008,1.008,0,0,0,.352.831,1.476,1.476,0,0,0,.958.286,1.677,1.677,0,0,0,.932-.325,6.723,6.723,0,0,0,1.063-.932ZM86.01,67l-.053-1.318a6.632,6.632,0,0,1-.58.624,3.451,3.451,0,0,1-.642.479,3.091,3.091,0,0,1-1.6.417,3.031,3.031,0,0,1-1.406-.316,2.87,2.87,0,0,1-1.033-.9,4.3,4.3,0,0,1-.637-1.419,7.323,7.323,0,0,1-.22-1.863,5.92,5.92,0,0,1,.347-2.131,4.075,4.075,0,0,1,.962-1.494,3.85,3.85,0,0,1,1.459-.879,5.7,5.7,0,0,1,1.837-.286,5.216,5.216,0,0,1,.672.044,4.7,4.7,0,0,1,.6.114V54.581h2.145V67Zm-3.92-4.395a6.756,6.756,0,0,0,.1,1.261,2.685,2.685,0,0,0,.3.857,1.257,1.257,0,0,0,.488.488,1.385,1.385,0,0,0,.659.154,1.541,1.541,0,0,0,1.037-.439,7.585,7.585,0,0,0,1.046-1.2v-3.9a3.315,3.315,0,0,0-.628-.158,4.616,4.616,0,0,0-.751-.062,2.019,2.019,0,0,0-.932.211,2.06,2.06,0,0,0-.708.6,2.806,2.806,0,0,0-.453.945A4.591,4.591,0,0,0,82.09,62.605Z" transform="translate(-8452 -8208)" fill="#12263f"/>
    <path id="Path_105246" data-name="Path 105246" d="M6.214,17H3.744L.2,8.07H2.593l1.854,5.063L5,14.768,5.546,13.2,7.418,8.07h2.3Zm10.5,0-.053-1.169a6.086,6.086,0,0,1-.589.549,3.612,3.612,0,0,1-1.481.721,4.214,4.214,0,0,1-.954.1,3.3,3.3,0,0,1-1.2-.2,2.428,2.428,0,0,1-.87-.562,2.347,2.347,0,0,1-.532-.87,3.356,3.356,0,0,1-.18-1.125,2.577,2.577,0,0,1,.268-1.169,2.491,2.491,0,0,1,.817-.923,4.292,4.292,0,0,1,1.371-.606,7.519,7.519,0,0,1,1.929-.22h1.169v-.536a1.871,1.871,0,0,0-.1-.62A1.116,1.116,0,0,0,16,9.9a1.469,1.469,0,0,0-.558-.3,2.9,2.9,0,0,0-.844-.105,6.816,6.816,0,0,0-1.56.18,8.114,8.114,0,0,0-1.49.505V8.466a8.54,8.54,0,0,1,1.481-.422,8.922,8.922,0,0,1,1.745-.167,6.715,6.715,0,0,1,1.705.189,3.068,3.068,0,0,1,1.173.567,2.251,2.251,0,0,1,.681.945,3.649,3.649,0,0,1,.22,1.323V17Zm-.308-3.946H15.1a3.478,3.478,0,0,0-.923.105,1.767,1.767,0,0,0-.615.29,1.136,1.136,0,0,0-.347.426,1.228,1.228,0,0,0-.11.514,1.008,1.008,0,0,0,.352.831,1.476,1.476,0,0,0,.958.286,1.677,1.677,0,0,0,.932-.325,6.723,6.723,0,0,0,1.063-.932Zm10.354-1.512a3.954,3.954,0,0,0-.048-.853,1.643,1.643,0,0,0-.211-.58.9.9,0,0,0-.356-.334,1.067,1.067,0,0,0-.483-.105,1.616,1.616,0,0,0-.98.391,5.635,5.635,0,0,0-1.112,1.288V17h-2.2V8.07h1.942l.079,1.3a3.538,3.538,0,0,1,.5-.615,3.112,3.112,0,0,1,.615-.47,2.9,2.9,0,0,1,.751-.3,3.655,3.655,0,0,1,.905-.105,2.922,2.922,0,0,1,1.2.233,2.269,2.269,0,0,1,.879.69,3.032,3.032,0,0,1,.527,1.147,5.932,5.932,0,0,1,.145,1.6ZM46.134,17V11.182q0-1.468-1.09-1.468A1.557,1.557,0,0,0,44,10.153a7.593,7.593,0,0,0-1.05,1.2V17H40.808V8.07h1.854l.053,1.318a6.172,6.172,0,0,1,.567-.624,3.329,3.329,0,0,1,.637-.479,3.035,3.035,0,0,1,.738-.3,3.447,3.447,0,0,1,.888-.105,2.95,2.95,0,0,1,1.2.224,2.306,2.306,0,0,1,.853.633,2.716,2.716,0,0,1,.514.984,4.506,4.506,0,0,1,.171,1.288V17Zm12.612-4.535a5.935,5.935,0,0,1-.3,1.929,4.268,4.268,0,0,1-.861,1.5,3.815,3.815,0,0,1-1.38.967,4.781,4.781,0,0,1-1.863.343,5.082,5.082,0,0,1-1.775-.29,3.449,3.449,0,0,1-1.327-.866,3.832,3.832,0,0,1-.835-1.441,6.354,6.354,0,0,1-.29-2.017,5.846,5.846,0,0,1,.3-1.934,4.2,4.2,0,0,1,.87-1.485,3.863,3.863,0,0,1,1.384-.954,4.786,4.786,0,0,1,1.846-.338,5.041,5.041,0,0,1,1.784.294,3.468,3.468,0,0,1,1.327.875,3.836,3.836,0,0,1,.831,1.437A6.267,6.267,0,0,1,58.746,12.465Zm-2.232.053a3.463,3.463,0,0,0-.523-2.087,1.806,1.806,0,0,0-1.542-.7,1.946,1.946,0,0,0-.958.22,1.855,1.855,0,0,0-.65.6,2.693,2.693,0,0,0-.374.892,4.8,4.8,0,0,0-.119,1.09,3.335,3.335,0,0,0,.563,2.1,1.859,1.859,0,0,0,1.538.708,1.92,1.92,0,0,0,.932-.215,1.744,1.744,0,0,0,.642-.6,2.879,2.879,0,0,0,.369-.9A4.827,4.827,0,0,0,56.514,12.518ZM66.9,17V10.918q0-.334-.018-.584a1.838,1.838,0,0,0-.07-.417.517.517,0,0,0-.154-.25.422.422,0,0,0-.277-.083.709.709,0,0,0-.536.369,5.909,5.909,0,0,0-.6,1.257V17H63.413V10.918q0-.334-.018-.584a1.838,1.838,0,0,0-.07-.417.5.5,0,0,0-.158-.25.44.44,0,0,0-.281-.083q-.229,0-.51.369a5.461,5.461,0,0,0-.624,1.257V17H59.9V8.07h1.591l.035,1.3a5.344,5.344,0,0,1,.387-.677,2.209,2.209,0,0,1,.413-.461,1.407,1.407,0,0,1,.47-.259,1.88,1.88,0,0,1,.567-.079,1.542,1.542,0,0,1,1.138.391,1.654,1.654,0,0,1,.444,1.085,5.606,5.606,0,0,1,.417-.677,2.439,2.439,0,0,1,.431-.461,1.436,1.436,0,0,1,.483-.259,1.968,1.968,0,0,1,.576-.079,1.625,1.625,0,0,1,1.441.681,3.583,3.583,0,0,1,.466,2.017V17ZM78.53,12.377a5.884,5.884,0,0,1-.347,2.127,4.052,4.052,0,0,1-.967,1.49,3.89,3.89,0,0,1-1.463.879,5.7,5.7,0,0,1-1.837.286,10.673,10.673,0,0,1-1.815-.145,11.772,11.772,0,0,1-1.6-.391V4.581h2.145V7.5l-.088,1.758a3.939,3.939,0,0,1,1.129-1,3.33,3.33,0,0,1,2.958-.062,2.87,2.87,0,0,1,1.033.9,4.306,4.306,0,0,1,.637,1.415A7.31,7.31,0,0,1,78.53,12.377Zm-2.25.088a6.413,6.413,0,0,0-.105-1.257,2.753,2.753,0,0,0-.3-.853,1.267,1.267,0,0,0-.483-.488,1.359,1.359,0,0,0-.655-.154,1.557,1.557,0,0,0-1.042.439,7.593,7.593,0,0,0-1.05,1.2v3.9a3.315,3.315,0,0,0,.628.158,4.67,4.67,0,0,0,.76.062,2.027,2.027,0,0,0,.927-.211,2.048,2.048,0,0,0,.712-.6,2.806,2.806,0,0,0,.453-.945A4.591,4.591,0,0,0,76.28,12.465Zm9.861-.923a3.954,3.954,0,0,0-.048-.853,1.643,1.643,0,0,0-.211-.58.9.9,0,0,0-.356-.334,1.067,1.067,0,0,0-.483-.105,1.616,1.616,0,0,0-.98.391,5.635,5.635,0,0,0-1.112,1.288V17h-2.2V8.07H82.7l.079,1.3a3.538,3.538,0,0,1,.5-.615,3.112,3.112,0,0,1,.615-.47,2.9,2.9,0,0,1,.751-.3,3.655,3.655,0,0,1,.905-.105,2.922,2.922,0,0,1,1.2.233,2.269,2.269,0,0,1,.879.69,3.032,3.032,0,0,1,.527,1.147,5.932,5.932,0,0,1,.145,1.6Zm11.927.308q0,.22-.013.571t-.04.659H92.145a2.766,2.766,0,0,0,.18,1.037,2.035,2.035,0,0,0,.51.751,2.21,2.21,0,0,0,.791.461,3.142,3.142,0,0,0,1.024.158,10.361,10.361,0,0,0,1.393-.1,11.045,11.045,0,0,0,1.542-.33v1.705q-.343.1-.747.176t-.826.141q-.422.062-.853.092t-.835.031a5.391,5.391,0,0,1-1.828-.29,3.624,3.624,0,0,1-1.371-.857,3.751,3.751,0,0,1-.861-1.4,5.728,5.728,0,0,1-.3-1.934,6.213,6.213,0,0,1,.3-1.982,4.543,4.543,0,0,1,.844-1.529,3.7,3.7,0,0,1,1.323-.984,4.213,4.213,0,0,1,1.736-.347,4.459,4.459,0,0,1,1.679.294,3.367,3.367,0,0,1,1.222.822,3.516,3.516,0,0,1,.747,1.257A4.821,4.821,0,0,1,98.068,11.85Zm-2.18-.308a2.585,2.585,0,0,0-.132-.918,1.818,1.818,0,0,0-.382-.646,1.515,1.515,0,0,0-.562-.378,1.91,1.91,0,0,0-.69-.123,1.759,1.759,0,0,0-1.327.541,2.482,2.482,0,0,0-.615,1.525Zm11.9,5.01a8.782,8.782,0,0,1-1.481.457,7.279,7.279,0,0,1-1.49.149,6.112,6.112,0,0,1-2.193-.365,4.13,4.13,0,0,1-1.608-1.085,4.75,4.75,0,0,1-.993-1.789,8.235,8.235,0,0,1-.338-2.483,8.294,8.294,0,0,1,.369-2.58,5.362,5.362,0,0,1,1.055-1.907,4.493,4.493,0,0,1,1.666-1.187,5.671,5.671,0,0,1,2.2-.409q.4,0,.743.018t.681.066q.334.048.677.127t.712.2V7.912a6.815,6.815,0,0,0-1.424-.5,5.753,5.753,0,0,0-1.23-.149,3.057,3.057,0,0,0-1.4.294,2.569,2.569,0,0,0-.954.826,3.662,3.662,0,0,0-.549,1.266,6.923,6.923,0,0,0-.176,1.613,7.008,7.008,0,0,0,.18,1.666,3.441,3.441,0,0,0,.558,1.244,2.442,2.442,0,0,0,.967.778,3.35,3.35,0,0,0,1.4.268,3.791,3.791,0,0,0,.628-.057q.338-.057.686-.149a7.17,7.17,0,0,0,.686-.22q.338-.127.628-.259Zm5.177-10.3h-2.522V4.581h4.72V15.33h2.575V17h-7.6V15.33h2.83Zm12.27-.624a1.411,1.411,0,0,1-.105.545,1.351,1.351,0,0,1-.294.444,1.41,1.41,0,0,1-.444.3,1.384,1.384,0,0,1-.554.11,1.416,1.416,0,0,1-.558-.11,1.4,1.4,0,0,1-.448-.3,1.351,1.351,0,0,1-.294-.444,1.426,1.426,0,0,1,.294-1.538,1.362,1.362,0,0,1,.448-.3,1.416,1.416,0,0,1,.558-.11,1.375,1.375,0,0,1,1,.413,1.408,1.408,0,0,1,.4.993ZM122.862,9.74H120.34V8.07h4.72v7.26h2.575V17h-7.6V15.33h2.83Zm14.792,2.109q0,.22-.013.571t-.04.659H131.73a2.766,2.766,0,0,0,.18,1.037,2.035,2.035,0,0,0,.51.751,2.21,2.21,0,0,0,.791.461,3.142,3.142,0,0,0,1.024.158,10.361,10.361,0,0,0,1.393-.1,11.045,11.045,0,0,0,1.542-.33v1.705q-.343.1-.747.176t-.826.141q-.422.062-.853.092t-.835.031a5.391,5.391,0,0,1-1.828-.29,3.624,3.624,0,0,1-1.371-.857,3.751,3.751,0,0,1-.861-1.4,5.728,5.728,0,0,1-.3-1.934,6.213,6.213,0,0,1,.3-1.982,4.543,4.543,0,0,1,.844-1.529,3.7,3.7,0,0,1,1.323-.984,4.213,4.213,0,0,1,1.736-.347,4.459,4.459,0,0,1,1.679.294,3.367,3.367,0,0,1,1.222.822,3.516,3.516,0,0,1,.747,1.257A4.821,4.821,0,0,1,137.654,11.85Zm-2.18-.308a2.585,2.585,0,0,0-.132-.918,1.818,1.818,0,0,0-.382-.646A1.515,1.515,0,0,0,134.4,9.6a1.91,1.91,0,0,0-.69-.123,1.759,1.759,0,0,0-1.327.541,2.482,2.482,0,0,0-.615,1.525ZM145.1,17V11.182q0-1.468-1.09-1.468a1.557,1.557,0,0,0-1.042.439,7.593,7.593,0,0,0-1.05,1.2V17h-2.145V8.07h1.854l.053,1.318a6.172,6.172,0,0,1,.567-.624,3.329,3.329,0,0,1,.637-.479,3.035,3.035,0,0,1,.738-.3,3.447,3.447,0,0,1,.888-.105,2.95,2.95,0,0,1,1.2.224,2.306,2.306,0,0,1,.853.633,2.716,2.716,0,0,1,.514.984,4.506,4.506,0,0,1,.171,1.288V17Zm11.936-.088q-.58.132-1.169.211a8.4,8.4,0,0,1-1.116.079,5.489,5.489,0,0,1-1.516-.185,2.637,2.637,0,0,1-1.055-.562,2.237,2.237,0,0,1-.615-.962,4.363,4.363,0,0,1-.2-1.393V9.74h-2.4V8.07h2.4V5.785l2.2-.571V8.07h3.472V9.74h-3.472v4.2a1.678,1.678,0,0,0,.352,1.156,1.52,1.52,0,0,0,1.178.391,5.94,5.94,0,0,0,1.028-.088q.5-.088.914-.2Zm10.31-5.062q0,.22-.013.571t-.04.659H161.42a2.766,2.766,0,0,0,.18,1.037,2.035,2.035,0,0,0,.51.751,2.21,2.21,0,0,0,.791.461,3.142,3.142,0,0,0,1.024.158,10.361,10.361,0,0,0,1.393-.1,11.045,11.045,0,0,0,1.542-.33v1.705q-.343.1-.747.176t-.826.141q-.422.062-.853.092t-.835.031a5.391,5.391,0,0,1-1.828-.29,3.624,3.624,0,0,1-1.371-.857,3.751,3.751,0,0,1-.861-1.4,5.728,5.728,0,0,1-.3-1.934,6.213,6.213,0,0,1,.3-1.982,4.543,4.543,0,0,1,.844-1.529,3.7,3.7,0,0,1,1.323-.984,4.213,4.213,0,0,1,1.736-.347,4.459,4.459,0,0,1,1.679.294,3.367,3.367,0,0,1,1.222.822,3.516,3.516,0,0,1,.747,1.257A4.821,4.821,0,0,1,167.344,11.85Zm-2.18-.308a2.585,2.585,0,0,0-.132-.918,1.818,1.818,0,0,0-.382-.646,1.515,1.515,0,0,0-.562-.378,1.91,1.91,0,0,0-.69-.123,1.759,1.759,0,0,0-1.327.541,2.482,2.482,0,0,0-.615,1.525ZM4.1,56.251H1.582v-1.67H6.3V65.33H8.877V67h-7.6V65.33H4.1ZM18.9,61.85q0,.22-.013.571t-.04.659H12.973a2.766,2.766,0,0,0,.18,1.037,2.035,2.035,0,0,0,.51.751,2.21,2.21,0,0,0,.791.461,3.142,3.142,0,0,0,1.024.158,10.361,10.361,0,0,0,1.393-.1,11.045,11.045,0,0,0,1.542-.33v1.705q-.343.1-.747.176t-.826.141q-.422.062-.853.092t-.835.031a5.391,5.391,0,0,1-1.828-.29,3.624,3.624,0,0,1-1.371-.857,3.751,3.751,0,0,1-.861-1.4,5.728,5.728,0,0,1-.3-1.934,6.213,6.213,0,0,1,.3-1.982,4.543,4.543,0,0,1,.844-1.529,3.7,3.7,0,0,1,1.323-.984,4.213,4.213,0,0,1,1.736-.347,4.459,4.459,0,0,1,1.679.294,3.367,3.367,0,0,1,1.222.822,3.516,3.516,0,0,1,.747,1.257A4.821,4.821,0,0,1,18.9,61.85Zm-2.18-.308a2.585,2.585,0,0,0-.132-.918,1.818,1.818,0,0,0-.382-.646,1.515,1.515,0,0,0-.562-.378,1.91,1.91,0,0,0-.69-.123,1.759,1.759,0,0,0-1.327.541,2.482,2.482,0,0,0-.615,1.525Zm11.663,5.37q-.58.132-1.169.211a8.4,8.4,0,0,1-1.116.079,5.489,5.489,0,0,1-1.516-.185,2.637,2.637,0,0,1-1.055-.562,2.237,2.237,0,0,1-.615-.962,4.363,4.363,0,0,1-.2-1.393V59.74h-2.4V58.07h2.4V55.785l2.2-.571V58.07H28.38v1.67H24.908v4.2A1.678,1.678,0,0,0,25.26,65.1a1.52,1.52,0,0,0,1.178.391,5.94,5.94,0,0,0,1.028-.088q.5-.088.914-.2ZM61,67V55.513h6.917v1.828h-4.72V60.2h4.5v1.784h-4.5v3.19h4.72V67Zm15.117,0-.053-1.318a6.632,6.632,0,0,1-.58.624,3.451,3.451,0,0,1-.642.479,3.091,3.091,0,0,1-1.6.417,3.031,3.031,0,0,1-1.406-.316,2.87,2.87,0,0,1-1.033-.9,4.3,4.3,0,0,1-.637-1.419,7.323,7.323,0,0,1-.22-1.863,5.92,5.92,0,0,1,.347-2.131,4.075,4.075,0,0,1,.962-1.494,3.85,3.85,0,0,1,1.459-.879,5.7,5.7,0,0,1,1.837-.286,5.216,5.216,0,0,1,.672.044,4.7,4.7,0,0,1,.6.114V54.581h2.145V67Zm-3.92-4.395a6.756,6.756,0,0,0,.1,1.261,2.685,2.685,0,0,0,.3.857,1.257,1.257,0,0,0,.488.488,1.385,1.385,0,0,0,.659.154,1.541,1.541,0,0,0,1.037-.439,7.585,7.585,0,0,0,1.046-1.2v-3.9a3.315,3.315,0,0,0-.628-.158,4.616,4.616,0,0,0-.751-.062,2.019,2.019,0,0,0-.932.211,2.06,2.06,0,0,0-.708.6,2.806,2.806,0,0,0-.453.945A4.591,4.591,0,0,0,72.193,62.605ZM85.992,67l-.053-1.169a6.086,6.086,0,0,1-.589.549,3.612,3.612,0,0,1-1.481.721,4.214,4.214,0,0,1-.954.1,3.3,3.3,0,0,1-1.2-.2,2.428,2.428,0,0,1-.87-.562,2.347,2.347,0,0,1-.532-.87,3.356,3.356,0,0,1-.18-1.125,2.577,2.577,0,0,1,.268-1.169,2.491,2.491,0,0,1,.817-.923,4.292,4.292,0,0,1,1.371-.606,7.519,7.519,0,0,1,1.929-.22h1.169v-.536a1.871,1.871,0,0,0-.1-.62,1.116,1.116,0,0,0-.312-.47,1.469,1.469,0,0,0-.558-.3,2.9,2.9,0,0,0-.844-.105,6.816,6.816,0,0,0-1.56.18,8.114,8.114,0,0,0-1.49.505V58.466a8.54,8.54,0,0,1,1.481-.422,8.922,8.922,0,0,1,1.745-.167,6.715,6.715,0,0,1,1.705.189,3.068,3.068,0,0,1,1.173.567,2.251,2.251,0,0,1,.681.945,3.649,3.649,0,0,1,.22,1.323V67Zm-.308-3.946h-1.31a3.478,3.478,0,0,0-.923.105,1.767,1.767,0,0,0-.615.29,1.136,1.136,0,0,0-.347.426,1.228,1.228,0,0,0-.11.514,1.008,1.008,0,0,0,.352.831,1.476,1.476,0,0,0,.958.286,1.677,1.677,0,0,0,.932-.325,6.723,6.723,0,0,0,1.063-.932ZM95.906,67l-.053-1.318a6.632,6.632,0,0,1-.58.624,3.451,3.451,0,0,1-.642.479,3.091,3.091,0,0,1-1.6.417,3.031,3.031,0,0,1-1.406-.316,2.87,2.87,0,0,1-1.033-.9,4.3,4.3,0,0,1-.637-1.419,7.323,7.323,0,0,1-.22-1.863,5.92,5.92,0,0,1,.347-2.131,4.075,4.075,0,0,1,.962-1.494A3.85,3.85,0,0,1,92.5,58.2a5.7,5.7,0,0,1,1.837-.286,5.216,5.216,0,0,1,.672.044,4.7,4.7,0,0,1,.6.114V54.581h2.145V67Zm-3.92-4.395a6.756,6.756,0,0,0,.1,1.261,2.685,2.685,0,0,0,.3.857,1.257,1.257,0,0,0,.488.488,1.385,1.385,0,0,0,.659.154,1.541,1.541,0,0,0,1.037-.439,7.585,7.585,0,0,0,1.046-1.2v-3.9a3.315,3.315,0,0,0-.628-.158,4.616,4.616,0,0,0-.751-.062,2.019,2.019,0,0,0-.932.211,2.06,2.06,0,0,0-.708.6,2.806,2.806,0,0,0-.453.945A4.591,4.591,0,0,0,91.986,62.605ZM100.3,67V65.093h2.927V57.71l-2.549,1.406-.7-1.749,3.647-1.925h1.8v9.65h2.522V67Z" transform="translate(-8452 -8106)" fill="#12263f"/>
    <path id="check-circle-solid" d="M27,17.5A9.5,9.5,0,1,1,17.5,8,9.5,9.5,0,0,1,27,17.5ZM16.4,22.53l7.048-7.048a.613.613,0,0,0,0-.867l-.867-.867a.613.613,0,0,0-.867,0L15.968,19.5l-2.684-2.684a.613.613,0,0,0-.867,0l-.867.867a.613.613,0,0,0,0,.867l3.984,3.984a.613.613,0,0,0,.867,0Z" transform="translate(-8247 -8112)" fill="#01be01"/>
    <path id="check-circle-solid-2" data-name="check-circle-solid" d="M27,17.5A9.5,9.5,0,1,1,17.5,8,9.5,9.5,0,0,1,27,17.5ZM16.4,22.53l7.048-7.048a.613.613,0,0,0,0-.867l-.867-.867a.613.613,0,0,0-.867,0L15.968,19.5l-2.684-2.684a.613.613,0,0,0-.867,0l-.867.867a.613.613,0,0,0,0,.867l3.984,3.984a.613.613,0,0,0,.867,0Z" transform="translate(-8247 -8063)" fill="#01be01"/>
    <path id="times-circle-solid" d="M17.5,8A9.5,9.5,0,1,0,27,17.5,9.5,9.5,0,0,0,17.5,8Zm4.658,11.994a.46.46,0,0,1,0,.651l-1.517,1.513a.46.46,0,0,1-.651,0L17.5,19.645l-2.494,2.513a.46.46,0,0,1-.651,0l-1.513-1.517a.46.46,0,0,1,0-.651l2.513-2.49-2.513-2.494a.46.46,0,0,1,0-.651l1.517-1.517a.46.46,0,0,1,.651,0l2.49,2.517,2.494-2.513a.46.46,0,0,1,.651,0l1.517,1.517a.46.46,0,0,1,0,.651L19.645,17.5Z" transform="translate(-8247 -8163)" fill="#fd4932"/>
    <path id="times-circle-solid-2" data-name="times-circle-solid" d="M17.5,8A9.5,9.5,0,1,0,27,17.5,9.5,9.5,0,0,0,17.5,8Zm4.658,11.994a.46.46,0,0,1,0,.651l-1.517,1.513a.46.46,0,0,1-.651,0L17.5,19.645l-2.494,2.513a.46.46,0,0,1-.651,0l-1.513-1.517a.46.46,0,0,1,0-.651l2.513-2.49-2.513-2.494a.46.46,0,0,1,0-.651l1.517-1.517a.46.46,0,0,1,.651,0l2.49,2.517,2.494-2.513a.46.46,0,0,1,.651,0l1.517,1.517a.46.46,0,0,1,0,.651L19.645,17.5Z" transform="translate(-8247 -8214)" fill="#fd4932"/>
  </g>
</svg>
