<svg id="t1-ic1" xmlns="http://www.w3.org/2000/svg" width="50" height="50" viewBox="0 0 50 50">
  <g id="_ffffffff" data-name="#ffffffff">
    <path id="Path_104054" data-name="Path 104054" d="M0,0H3.214A3.428,3.428,0,0,0,.985.99,3.4,3.4,0,0,0,0,3.265Z" fill="#ffa726"/>
  </g>
  <g id="_000000ff" data-name="#000000ff">
    <path id="Path_104057" data-name="Path 104057" d="M3.214,0H35.024a3.459,3.459,0,0,1,2.244.9,3.323,3.323,0,0,1,1.05,2.421q0,6.787,0,13.574a6.632,6.632,0,0,1,8.022,4.4,11.233,11.233,0,0,1,.317,3.6,5.009,5.009,0,0,1-.181,1.848,2.487,2.487,0,0,1-4.791-.673c-.034-.967.019-1.936-.02-2.9a1.68,1.68,0,0,0-3.352.171q-.009,3.331,0,6.662,3.593.007,7.186,0a4.631,4.631,0,0,1,1.837.292A4.222,4.222,0,0,1,50,34.138v11.8A4.218,4.218,0,0,1,45.913,50H34.059a4.319,4.319,0,0,1-2.735-1.144,4.179,4.179,0,0,1-1.208-2.1,8.883,8.883,0,0,1-.107-1.933c0-1.614,0-3.228,0-4.842H3.512a3.437,3.437,0,0,1-1.782-.411A3.4,3.4,0,0,1,0,36.747V3.265A3.4,3.4,0,0,1,.985.99,3.428,3.428,0,0,1,3.214,0M2.809,1.739A1.672,1.672,0,0,0,1.662,3.32q0,16.7,0,33.406A1.691,1.691,0,0,0,3.41,38.348q13.3,0,26.593,0c0-.566.006-1.132,0-1.7q-12.51,0-25.019,0a1.667,1.667,0,0,1-1.646-1.689q0-13.233,0-26.468a1.79,1.79,0,0,1,.445-1.287,1.7,1.7,0,0,1,1.289-.53q14.117,0,28.232,0A1.649,1.649,0,0,1,34.981,8.3c.006,3.549,0,7.1.006,10.646a8.215,8.215,0,0,1,1.7-1.386c-.011-4.748,0-9.5-.006-14.244a1.679,1.679,0,0,0-1.619-1.655q-15.674,0-31.346,0a2.69,2.69,0,0,0-.906.077M4.989,8.321q0,13.282,0,26.563l.031.123q12.492.016,24.986,0a5.72,5.72,0,0,1,.322-2.432,4.208,4.208,0,0,1,3.017-2.493c-.006-7.254.008-14.509-.007-21.764q-14.175-.009-28.35,0M37.722,18.874a5.03,5.03,0,0,0-2.567,3.193,6.7,6.7,0,0,0-.169,1.857q-.006,3.038,0,6.078c.564.009,1.129,0,1.693,0,.017-2.253,0-4.5.01-6.758a3.316,3.316,0,0,1,6.625-.11c.045.944-.021,1.892.031,2.835a.841.841,0,0,0,1.387.482c.4-.34.26-.9.282-1.358a14.83,14.83,0,0,0-.131-2.878,5,5,0,0,0-7.159-3.347M33.9,31.667a2.536,2.536,0,0,0-2.246,2.407q-.006,5.917,0,11.833a2.521,2.521,0,0,0,2.426,2.43q5.517,0,11.033,0a4.054,4.054,0,0,0,1.674-.185A2.5,2.5,0,0,0,48.336,45.9q.009-5.914,0-11.827A2.52,2.52,0,0,0,45.9,31.655C41.9,31.658,37.9,31.636,33.9,31.667Z" fill="#ffa726"/>
    <path id="Path_104058" data-name="Path 104058" d="M43.341,34.191a4.129,4.129,0,0,1,1.042-.053.858.858,0,0,1,.754.392.819.819,0,0,1-.283,1.145,2.333,2.333,0,0,1-1.063.113.887.887,0,0,1-.892-.413A.823.823,0,0,1,43.341,34.191Z" transform="translate(-38.609 -30.799)" fill="#ffa726"/>
    <path id="Path_104059" data-name="Path 104059" d="M86.066,34.16a4.481,4.481,0,0,1,1.221-.022.823.823,0,0,1,.482,1.331c-.326.414-.894.278-1.35.3a.838.838,0,0,1-.921-.7A.806.806,0,0,1,86.066,34.16Z" transform="translate(-77.139 -30.777)" fill="#ffa726"/>
    <path id="Path_104060" data-name="Path 104060" d="M128.709,34.081c.536-.03,1.2-.182,1.637.221a.83.83,0,0,1-.5,1.385c-.535-.027-1.241.178-1.6-.347A.818.818,0,0,1,128.709,34.081Z" transform="translate(-115.586 -30.705)" fill="#ffa726"/>
    <path id="Path_104061" data-name="Path 104061" d="M282.48,34.17c1.62-.03,3.242,0,4.862-.013a1.03,1.03,0,0,1,.811.251.821.821,0,0,1,.014,1.139.81.81,0,0,1-.624.261h-4.988a.807.807,0,0,1-.8-.789A.816.816,0,0,1,282.48,34.17Z" transform="translate(-254.237 -30.821)" fill="#ffa726"/>
    <path id="Path_104062" data-name="Path 104062" d="M82.191,162.516a.822.822,0,1,1,1.117,1.205q-2.361,2.2-4.729,4.4c1.446,1.328,2.884,2.665,4.329,3.994.243.233.562.44.641.791a.819.819,0,0,1-.833,1,.874.874,0,0,1-.618-.3c-1.546-1.449-3.106-2.883-4.648-4.337a1.61,1.61,0,0,1-.018-2.328C79.02,165.47,80.6,163.986,82.191,162.516Z" transform="translate(-69.429 -146.436)" fill="#ffa726"/>
    <path id="Path_104063" data-name="Path 104063" d="M167.857,162.237a.824.824,0,0,1,1,1.087c-1.654,3.347-3.338,6.68-5,10.021a.825.825,0,1,1-1.461-.758q2.457-4.917,4.917-9.833A.851.851,0,0,1,167.857,162.237Z" transform="translate(-146.428 -146.354)" fill="#ffa726"/>
    <path id="Path_104064" data-name="Path 104064" d="M247.48,163.122a.826.826,0,0,1,1.348-.538c1.487,1.376,2.962,2.769,4.453,4.141a2,2,0,0,1,.79,1.2,1.7,1.7,0,0,1-.653,1.622c-1.525,1.4-3.032,2.827-4.555,4.232a.838.838,0,0,1-1.181.016.826.826,0,0,1,.02-1.177c1.58-1.485,3.176-2.955,4.758-4.437q-2.266-2.1-4.537-4.187A.961.961,0,0,1,247.48,163.122Z" transform="translate(-223.281 -146.531)" fill="#ffa726"/>
    <path id="Path_104065" data-name="Path 104065" d="M375.634,361.7a3.316,3.316,0,1,1,5.888,2.233c.186.91.39,1.818.546,2.733a1.656,1.656,0,0,1-1.533,1.831c-1.03.022-2.062.009-3.092.006a1.668,1.668,0,0,1-1.508-1.029,3.008,3.008,0,0,1,.074-1.775c.107-.587.257-1.166.342-1.756a3.429,3.429,0,0,1-.717-2.243m1.988-.88a1.657,1.657,0,0,0-.043,2,1.693,1.693,0,0,1,.415,1.327c-.17.908-.376,1.81-.536,2.721.99,0,1.98,0,2.971,0-.164-.976-.406-1.937-.559-2.914-.059-.725.643-1.166.729-1.847a1.674,1.674,0,0,0-2.978-1.28Z" transform="translate(-338.944 -323.51)" fill="#ffa726"/>
  </g>
</svg>
