<svg id="t1-ic8" xmlns="http://www.w3.org/2000/svg" width="100" height="100" viewBox="0 0 100 100">
  <circle id="Ellipse_4084" data-name="Ellipse 4084" cx="50" cy="50" r="50" transform="translate(0 0)" fill="#ffca28"/>
  <path id="Path_104112" data-name="Path 104112" d="M7.877,367.065h96.875a13.937,13.937,0,0,1-13.906,13.906H21.783A13.838,13.838,0,0,1,7.877,367.065Z" transform="translate(-6.314 -294.253)" fill="#fff"/>
  <path id="Path_104113" data-name="Path 104113" d="M84.531,376.219H15.469A15.4,15.4,0,0,1,0,360.75a1.476,1.476,0,0,1,1.563-1.562H98.437A1.476,1.476,0,0,1,100,360.75,15.4,15.4,0,0,1,84.531,376.219ZM3.281,362.313a12.314,12.314,0,0,0,12.187,10.781H84.531a12.314,12.314,0,0,0,12.187-10.781Z" transform="translate(0 -287.938)" fill="#12263f"/>
  <path id="Path_104114" data-name="Path 104114" d="M36.2,70.105H114.32a4.6,4.6,0,0,1,4.688,4.688v54.219h-87.5V74.792A4.806,4.806,0,0,1,36.2,70.105Z" transform="translate(-25.258 -56.199)" fill="#e1e6e8"/>
  <path id="Path_104115" data-name="Path 104115" d="M112.693,124.258h-87.5a1.476,1.476,0,0,1-1.563-1.563V68.477a6.268,6.268,0,0,1,6.25-6.25h78.125a6.268,6.268,0,0,1,6.25,6.25V122.7A1.566,1.566,0,0,1,112.693,124.258Zm-85.937-3.125h84.375V68.477a3.134,3.134,0,0,0-3.125-3.125H29.881a3.134,3.134,0,0,0-3.125,3.125v52.656Z" transform="translate(-18.943 -49.883)" fill="#12263f"/>
  <rect id="Rectangle_31911" data-name="Rectangle 31911" width="75" height="46.406" transform="translate(12.537 20)" fill="#fff"/>
  <g id="Group_92349" data-name="Group 92349" transform="translate(39.687 78.281)">
    <rect id="Rectangle_31912" data-name="Rectangle 31912" width="3.125" height="3.125" fill="#ffa726"/>
    <rect id="Rectangle_31913" data-name="Rectangle 31913" width="3.125" height="3.125" transform="translate(8.75)" fill="#ffa726"/>
    <rect id="Rectangle_31914" data-name="Rectangle 31914" width="3.125" height="3.125" transform="translate(17.5)" fill="#ffa726"/>
  </g>
  <path id="Path_104116" data-name="Path 104116" d="M9.241,30.83A20.655,20.655,0,0,1,4.1,24.6a15.416,15.416,0,0,1-1.712-7.16A15.627,15.627,0,0,1,4.329,9.8a18.229,18.229,0,0,1,2.2-3.15A25.018,25.018,0,0,1,9.325,3.9l1.959,1.959a17.321,17.321,0,0,0-4.13,5.328A13.674,13.674,0,0,0,5.773,17.2a14.356,14.356,0,0,0,1.381,6.152,16.652,16.652,0,0,0,4.13,5.391ZM16.3,15.805V13.071H28.423v2.734Zm0,5.553V18.624H28.423v2.734ZM35.555,3.9A19.876,19.876,0,0,1,40.7,10.1a15.645,15.645,0,0,1,1.691,7.181,15.643,15.643,0,0,1-.507,4.045,16.592,16.592,0,0,1-1.416,3.594,17.62,17.62,0,0,1-2.178,3.164A23.686,23.686,0,0,1,35.5,30.83l-1.973-1.959a17.173,17.173,0,0,0,4.144-5.342A13.763,13.763,0,0,0,39.05,17.5a14.372,14.372,0,0,0-1.381-6.145,16.692,16.692,0,0,0-4.144-5.412Z" transform="translate(27.609 26.177)" fill="#12263f"/>
</svg>
