<svg xmlns="http://www.w3.org/2000/svg" width="190" height="67.407" viewBox="0 0 190 67.407">
  <g id="t1-ic-12" transform="translate(-180 -6934)">
    <g id="Group_92369" data-name="Group 92369">
      <path id="Path_104432" data-name="Path 104432" d="M11,9H179a11,11,0,0,1,11,11V39a11,11,0,0,1-11,11H11A11,11,0,0,1,0,39V20A11,11,0,0,1,11,9Z" transform="translate(180 6951.407)" fill="#ffefd7"/>
      <g id="Group_92367" data-name="Group 92367" transform="translate(1163.625 3980.349)">
        <path id="Trazado_104082" data-name="Trazado 104082" d="M-839.051,3019.443H-938.2a3.815,3.815,0,0,1-3.814-3.814h0v-46.554h106.777v46.554a3.815,3.815,0,0,1-3.814,3.814Z" fill="#ffca28"/>
        <g id="Group_92366" data-name="Group 92366">
          <path id="Path_104422" data-name="Path 104422" d="M-927.277,2989.162a6.212,6.212,0,0,0-.908-.2,6.936,6.936,0,0,0-1.074-.083,2.343,2.343,0,0,0-.7.1,1.433,1.433,0,0,0-.556.318,1.49,1.49,0,0,0-.369.551,2.175,2.175,0,0,0-.135.813v1.425h3.467v1.651h-3.467v5.909h-2.138v-5.909h-2.563v-1.651h2.563v-1.338a4.263,4.263,0,0,1,.274-1.612,2.833,2.833,0,0,1,.773-1.1,3.12,3.12,0,0,1,1.2-.63,5.757,5.757,0,0,1,1.573-.2,7.726,7.726,0,0,1,1.09.074c.345.049.665.109.961.178Z" fill="#12263f"/>
          <path id="Path_104423" data-name="Path 104423" d="M-917.466,2995.158a5.873,5.873,0,0,1-.3,1.908,4.215,4.215,0,0,1-.852,1.481,3.755,3.755,0,0,1-1.364.956,4.725,4.725,0,0,1-1.842.339,5.02,5.02,0,0,1-1.755-.287,3.405,3.405,0,0,1-1.313-.856,3.781,3.781,0,0,1-.825-1.425,6.281,6.281,0,0,1-.287-1.994,5.78,5.78,0,0,1,.3-1.912,4.148,4.148,0,0,1,.86-1.468,3.814,3.814,0,0,1,1.369-.943,4.731,4.731,0,0,1,1.825-.335,4.987,4.987,0,0,1,1.764.291,3.421,3.421,0,0,1,1.312.865,3.786,3.786,0,0,1,.821,1.421A6.2,6.2,0,0,1-917.466,2995.158Zm-2.208.052a3.419,3.419,0,0,0-.517-2.063,1.783,1.783,0,0,0-1.525-.691,1.922,1.922,0,0,0-.947.217,1.833,1.833,0,0,0-.643.595,2.658,2.658,0,0,0-.369.882,4.7,4.7,0,0,0-.118,1.078,3.3,3.3,0,0,0,.556,2.081,1.84,1.84,0,0,0,1.521.7,1.892,1.892,0,0,0,.921-.213,1.73,1.73,0,0,0,.635-.591,2.851,2.851,0,0,0,.365-.891A4.783,4.783,0,0,0-919.674,2995.21Z" fill="#12263f"/>
          <path id="Path_104424" data-name="Path 104424" d="M-909.95,2994.246a3.916,3.916,0,0,0-.047-.843,1.628,1.628,0,0,0-.209-.574.9.9,0,0,0-.352-.33,1.059,1.059,0,0,0-.478-.1,1.6,1.6,0,0,0-.969.387,5.567,5.567,0,0,0-1.1,1.273v5.587h-2.173v-8.829h1.921l.078,1.286a3.536,3.536,0,0,1,.491-.608,3.108,3.108,0,0,1,.608-.465,2.9,2.9,0,0,1,.743-.3,3.641,3.641,0,0,1,.895-.1,2.9,2.9,0,0,1,1.187.23,2.251,2.251,0,0,1,.869.683,3.006,3.006,0,0,1,.521,1.134,5.836,5.836,0,0,1,.143,1.577Z" fill="#12263f"/>
          <path id="Path_104425" data-name="Path 104425" d="M-900.522,3001.511h-2.059l6.065-14.148h2.068Z" fill="#12263f"/>
          <path id="Path_104426" data-name="Path 104426" d="M-881.118,2999.642h-2.355l-.939-2.8-.287-.973-.286,1-.9,2.772h-2.364l-1.251-8.829h2.016l.634,4.988.148,1.365.356-1.226.887-2.685h1.616l.947,2.668.409,1.26.165-1.4.53-4.971h1.92Z" fill="#12263f"/>
          <path id="Path_104427" data-name="Path 104427" d="M-873.315,2999.642v-5.753q0-1.45-1.077-1.451a1.538,1.538,0,0,0-1.03.435,7.463,7.463,0,0,0-1.038,1.182v5.587h-2.121v-12.279h2.121v3.024l-.1,1.6a6.1,6.1,0,0,1,.548-.577,2.963,2.963,0,0,1,.6-.431,2.953,2.953,0,0,1,.7-.265,3.531,3.531,0,0,1,.825-.091,2.913,2.913,0,0,1,1.182.222,2.275,2.275,0,0,1,.843.625,2.688,2.688,0,0,1,.508.974,4.445,4.445,0,0,1,.17,1.273v5.926Z" fill="#12263f"/>
          <path id="Path_104428" data-name="Path 104428" d="M-865.946,2992.464h-2.494v-1.651h4.667v7.178h2.546v1.651h-7.517v-1.651h2.8Zm2.347-4.067a1.384,1.384,0,0,1-.1.539,1.317,1.317,0,0,1-.291.439,1.392,1.392,0,0,1-.439.3,1.372,1.372,0,0,1-.547.108,1.408,1.408,0,0,1-.552-.108,1.378,1.378,0,0,1-.443-.3,1.317,1.317,0,0,1-.291-.439,1.385,1.385,0,0,1-.1-.539,1.385,1.385,0,0,1,.1-.538,1.364,1.364,0,0,1,.291-.443,1.328,1.328,0,0,1,.443-.3,1.391,1.391,0,0,1,.552-.109,1.356,1.356,0,0,1,.547.109,1.341,1.341,0,0,1,.439.3,1.364,1.364,0,0,1,.291.443A1.385,1.385,0,0,1-863.6,2988.4Z" fill="#12263f"/>
          <path id="Path_104429" data-name="Path 104429" d="M-856.161,2989.014h-2.494v-1.651h4.667v10.628h2.546v1.651h-7.517v-1.651h2.8Z" fill="#12263f"/>
          <path id="Path_104430" data-name="Path 104430" d="M-841.536,2994.55c0,.145,0,.333-.013.565s-.021.449-.039.652h-5.8a2.751,2.751,0,0,0,.178,1.025,2.024,2.024,0,0,0,.5.743,2.18,2.18,0,0,0,.783.456,3.109,3.109,0,0,0,1.012.157,10.346,10.346,0,0,0,1.377-.1,11.048,11.048,0,0,0,1.525-.326v1.686q-.339.094-.738.173t-.817.139c-.278.041-.559.071-.843.092s-.559.03-.826.03a5.328,5.328,0,0,1-1.807-.287,3.577,3.577,0,0,1-1.356-.847,3.711,3.711,0,0,1-.851-1.386,5.665,5.665,0,0,1-.3-1.912,6.141,6.141,0,0,1,.3-1.959,4.5,4.5,0,0,1,.834-1.512,3.663,3.663,0,0,1,1.308-.974,4.173,4.173,0,0,1,1.716-.343,4.409,4.409,0,0,1,1.66.291,3.324,3.324,0,0,1,1.208.813,3.479,3.479,0,0,1,.738,1.242A4.767,4.767,0,0,1-841.536,2994.55Zm-2.155-.3a2.542,2.542,0,0,0-.13-.908,1.807,1.807,0,0,0-.378-.639,1.5,1.5,0,0,0-.556-.374,1.892,1.892,0,0,0-.682-.121,1.742,1.742,0,0,0-1.313.534,2.459,2.459,0,0,0-.608,1.508Z" fill="#12263f"/>
        </g>
        <g id="Grupo_92343" data-name="Grupo 92343">
          <path id="Trazado_104083" data-name="Trazado 104083" d="M-835.235,2969.076v46.554a3.815,3.815,0,0,1-3.815,3.813h-4.3a3.815,3.815,0,0,0,3.815-3.813h0v-46.554Z" fill="#ffa726"/>
        </g>
        <g id="Grupo_92344" data-name="Grupo 92344">
          <path id="Trazado_104084" data-name="Trazado 104084" d="M-835.236,2969.075H-942.015v-10a3.814,3.814,0,0,1,3.814-3.814h99.149a3.814,3.814,0,0,1,3.814,3.814h0Z" fill="#4dd0e1"/>
        </g>
        <g id="Grupo_92345" data-name="Grupo 92345">
          <path id="Trazado_104085" data-name="Trazado 104085" d="M-835.235,2959.076v10h-4.3v-10a3.814,3.814,0,0,0-3.815-3.813h4.3a3.814,3.814,0,0,1,3.815,3.813Z" fill="#039be5"/>
        </g>
        <path id="Path_104431" data-name="Path 104431" d="M-839.05,2953.655v0h-23.045a1.611,1.611,0,0,0-1.611,1.611,1.611,1.611,0,0,0,1.611,1.611h23.045a2.205,2.205,0,0,1,2.2,2.2v8.388l-103.552-.018v-8.363a2.205,2.205,0,0,1,2.2-2.2h68.55a1.611,1.611,0,0,0,1.611-1.611,1.611,1.611,0,0,0-1.611-1.611H-938.2a5.431,5.431,0,0,0-5.426,5.422v56.553a5.431,5.431,0,0,0,5.425,5.425h99.149a5.432,5.432,0,0,0,5.426-5.428v-56.55A5.43,5.43,0,0,0-839.05,2953.655Zm2.2,61.977a2.205,2.205,0,0,1-2.2,2.2h-86.018v-.015H-938.2a2.206,2.206,0,0,1-2.2-2.2v-44.931h103.551Z" fill="#12263f"/>
      </g>
    </g>
  </g>
</svg>
