<svg xmlns="http://www.w3.org/2000/svg" width="190" height="99.587" viewBox="0 0 190 99.587">
  <g id="t1-ic11" transform="translate(-180 -4284)">
    <g id="Group_92368" data-name="Group 92368">
      <rect id="Rectangle_31932" data-name="Rectangle 31932" width="190" height="50" rx="11" transform="translate(180 4333.587)" fill="#ffefd7"/>
      <g id="binary-code" transform="translate(217 4241.083)">
        <g id="Group_92356" data-name="Group 92356" transform="translate(45.304 122.041)">
          <path id="Path_104411" data-name="Path 104411" d="M219.781,389.168H203.122s-1.5,10.949-4.866,16.548h26.391C221.278,400.117,219.781,389.168,219.781,389.168Z" transform="translate(-198.256 -389.168)" fill="#f2f2f2"/>
        </g>
        <g id="Group_92357" data-name="Group 92357" transform="translate(61.955 122.04)">
          <path id="Path_104412" data-name="Path 104412" d="M280.859,405.716h-4.874c-3.37-5.6-4.867-16.55-4.867-16.55h4.874S277.491,400.115,280.859,405.716Z" transform="translate(-271.118 -389.166)" fill="#cdd6df"/>
        </g>
        <g id="Group_92358" data-name="Group 92358" transform="translate(1.714 44.631)">
          <path id="Path_104413" data-name="Path 104413" d="M116.7,127.826H11.875A4.375,4.375,0,0,1,7.5,123.451V54.791a4.375,4.375,0,0,1,4.375-4.375H116.7a4.375,4.375,0,0,1,4.375,4.375v68.66A4.375,4.375,0,0,1,116.7,127.826Z" transform="translate(-7.5 -50.416)" fill="#f2f2f2"/>
        </g>
        <g id="Group_92359" data-name="Group 92359" transform="translate(1.714 110.708)">
          <path id="Path_104414" data-name="Path 104414" d="M116.7,350.909H11.875A4.375,4.375,0,0,1,7.5,346.533v-6.957H121.072v6.957A4.375,4.375,0,0,1,116.7,350.909Z" transform="translate(-7.5 -339.576)" fill="#4dd0e1"/>
        </g>
        <g id="Group_92360" data-name="Group 92360" transform="translate(106.341 44.629)">
          <path id="Path_104415" data-name="Path 104415" d="M474.3,54.787v68.659a4.376,4.376,0,0,1-4.376,4.376h-4.57a4.376,4.376,0,0,0,4.376-4.376V54.787a4.377,4.377,0,0,0-4.376-4.376h4.57A4.377,4.377,0,0,1,474.3,54.787Z" transform="translate(-465.358 -50.411)" fill="#f2f2f2"/>
        </g>
        <g id="Group_92361" data-name="Group 92361" transform="translate(106.341 110.709)">
          <path id="Path_104416" data-name="Path 104416" d="M474.3,339.581v6.955a4.376,4.376,0,0,1-4.376,4.376h-4.57a4.376,4.376,0,0,0,4.376-4.376v-6.955Z" transform="translate(-465.358 -339.581)" fill="#039be5"/>
        </g>
        <g id="Group_92362" data-name="Group 92362" transform="translate(9.429 52.516)">
          <path id="Path_104417" data-name="Path 104417" d="M139.4,143.117H41.26V87.236a2.311,2.311,0,0,1,2.311-2.311h93.52a2.312,2.312,0,0,1,2.311,2.311v55.88Z" transform="translate(-41.26 -84.925)" fill="#f8f6f6"/>
        </g>
        <g id="Group_92363" data-name="Group 92363" transform="translate(9.429 52.516)">
          <path id="Path_104418" data-name="Path 104418" d="M139.4,143.117H41.26V87.236a2.311,2.311,0,0,1,2.311-2.311h93.52a2.312,2.312,0,0,1,2.311,2.311v55.88Z" transform="translate(-41.26 -84.925)" fill="#ffca28"/>
        </g>
        <g id="Group_92364" data-name="Group 92364" transform="translate(100.59 52.517)">
          <path id="Path_104419" data-name="Path 104419" d="M447.171,87.238V143.12H442.5V87.238a2.312,2.312,0,0,0-2.312-2.31h4.67A2.311,2.311,0,0,1,447.171,87.238Z" transform="translate(-440.191 -84.928)" fill="#ffa726"/>
        </g>
        <g id="Group_92365" data-name="Group 92365" transform="translate(0 42.917)">
          <path id="Path_104420" data-name="Path 104420" d="M110.911,42.917H6.089A6.1,6.1,0,0,0,0,49.006v68.66a6.1,6.1,0,0,0,6.089,6.089h42.07c-.114.648-.259,1.424-.436,2.284a1.714,1.714,0,1,0,3.357.692c.244-1.182.428-2.208.558-2.976H65.361a62.348,62.348,0,0,0,3.553,13.121H48.086q.427-.99.829-2.124a1.714,1.714,0,0,0-3.231-1.145,26.1,26.1,0,0,1-1.386,3.268H34.776a1.714,1.714,0,1,0,0,3.427H82.224a1.714,1.714,0,1,0,0-3.427H72.7c-2.049-3.941-3.313-10.028-3.858-13.121h42.068A6.1,6.1,0,0,0,117,117.665V49.006A6.1,6.1,0,0,0,110.911,42.917Zm2.662,74.748a2.665,2.665,0,0,1-2.662,2.662H6.089a2.665,2.665,0,0,1-2.662-2.662v-5.244H113.572v5.244Zm0-8.671h-4.288V54.828A4.03,4.03,0,0,0,105.26,50.8H92.2a1.714,1.714,0,0,0,0,3.427H105.26a.6.6,0,0,1,.6.6v54.167H11.142V54.828a.6.6,0,0,1,.6-.6H84.174a1.714,1.714,0,1,0,0-3.427H11.74a4.03,4.03,0,0,0-4.025,4.025v54.167H3.427V49.006a2.665,2.665,0,0,1,2.662-2.662H110.911a2.664,2.664,0,0,1,2.662,2.662Z" transform="translate(0 -42.917)" fill="#12263f"/>
        </g>
      </g>
      <path id="Path_104421" data-name="Path 104421" d="M15.62,5.4a1.178,1.178,0,0,1-.088.455,1.128,1.128,0,0,1-.246.371,1.178,1.178,0,0,1-.371.25,1.156,1.156,0,0,1-.462.092,1.182,1.182,0,0,1-.466-.092,1.167,1.167,0,0,1-.374-.25,1.128,1.128,0,0,1-.246-.371,1.191,1.191,0,0,1,.246-1.285,1.138,1.138,0,0,1,.374-.253,1.182,1.182,0,0,1,.466-.092,1.148,1.148,0,0,1,.833.345,1.176,1.176,0,0,1,.334.83ZM13.638,8.831H11.531V7.436h3.942V13.5h2.151v1.395h-6.35V13.5h2.364ZM26.191,6.041a5.238,5.238,0,0,0-.767-.173,5.836,5.836,0,0,0-.907-.07,1.969,1.969,0,0,0-.587.084,1.209,1.209,0,0,0-.47.268,1.27,1.27,0,0,0-.312.466,1.84,1.84,0,0,0-.114.686v1.2h2.929V9.9H23.034v4.992H21.228V9.9H19.063V8.508h2.166V7.377a3.611,3.611,0,0,1,.231-1.362,2.4,2.4,0,0,1,.653-.932,2.639,2.639,0,0,1,1.017-.532,4.86,4.86,0,0,1,1.329-.169,6.515,6.515,0,0,1,.921.062q.437.062.811.15ZM33.1,16.472h-1.74L36.483,4.522H38.23ZM50.358,12.7a2.014,2.014,0,0,1-.283,1.09,2.238,2.238,0,0,1-.749.734,3.426,3.426,0,0,1-1.057.411,5.668,5.668,0,0,1-1.208.128,12.889,12.889,0,0,1-1.483-.077,9.854,9.854,0,0,1-1.248-.224V13.147a6.9,6.9,0,0,0,1.376.415,7.056,7.056,0,0,0,1.3.128,1.978,1.978,0,0,0,1.053-.224.671.671,0,0,0,.349-.584.652.652,0,0,0-.073-.308.76.76,0,0,0-.275-.268,3.089,3.089,0,0,0-.569-.264q-.367-.136-.962-.3a6.253,6.253,0,0,1-.965-.349,2.49,2.49,0,0,1-.686-.459,1.715,1.715,0,0,1-.407-.613,2.25,2.25,0,0,1-.136-.818,1.867,1.867,0,0,1,.206-.859,2.043,2.043,0,0,1,.613-.708,3.14,3.14,0,0,1,1.017-.481,5.15,5.15,0,0,1,1.424-.176,9.414,9.414,0,0,1,1.248.073q.543.073.962.161V8.97a7.65,7.65,0,0,0-1.2-.29A7.473,7.473,0,0,0,47.488,8.6a1.723,1.723,0,0,0-.885.2.612.612,0,0,0-.334.551.664.664,0,0,0,.066.3A.7.7,0,0,0,46.6,9.9a3.16,3.16,0,0,0,.543.261q.349.136.921.3a7.063,7.063,0,0,1,1.086.393,2.569,2.569,0,0,1,.708.473,1.556,1.556,0,0,1,.385.6A2.34,2.34,0,0,1,50.358,12.7Zm8.236,2.195H56.605l-.793-2.364-.242-.822-.242.844-.763,2.342h-2L51.511,7.436h1.7l.536,4.214.125,1.152.3-1.035L54.924,9.5h1.365l.8,2.254.345,1.064.139-1.182.448-4.2h1.622Zm6.533-9.5a1.178,1.178,0,0,1-.088.455,1.129,1.129,0,0,1-.246.371,1.178,1.178,0,0,1-.371.25,1.156,1.156,0,0,1-.462.092,1.182,1.182,0,0,1-.466-.092,1.167,1.167,0,0,1-.374-.25,1.129,1.129,0,0,1-.246-.371,1.191,1.191,0,0,1,.246-1.285,1.138,1.138,0,0,1,.374-.253,1.182,1.182,0,0,1,.466-.092,1.148,1.148,0,0,1,.833.345,1.176,1.176,0,0,1,.334.83ZM63.146,8.831H61.039V7.436h3.942V13.5h2.151v1.395h-6.35V13.5h2.364Zm12.009,5.99q-.484.11-.976.176a7.016,7.016,0,0,1-.932.066,4.585,4.585,0,0,1-1.266-.154,2.2,2.2,0,0,1-.881-.47,1.868,1.868,0,0,1-.514-.8,3.644,3.644,0,0,1-.165-1.164V8.831h-2V7.436h2V5.527l1.835-.477V7.436h2.9V8.831h-2.9V12.34a1.4,1.4,0,0,0,.294.965,1.27,1.27,0,0,0,.984.327,4.962,4.962,0,0,0,.859-.073q.418-.073.763-.169Zm8.148-.213a5.6,5.6,0,0,1-1.094.316,6.6,6.6,0,0,1-1.182.1,4.884,4.884,0,0,1-1.593-.242,3.171,3.171,0,0,1-1.2-.719,3.131,3.131,0,0,1-.752-1.182,4.686,4.686,0,0,1-.261-1.63,4.444,4.444,0,0,1,.283-1.622,3.548,3.548,0,0,1,.8-1.241A3.512,3.512,0,0,1,79.541,7.6a4.445,4.445,0,0,1,1.611-.279,8.139,8.139,0,0,1,1.222.077,6.872,6.872,0,0,1,.892.195V9.33a4.492,4.492,0,0,0-.987-.352,4.426,4.426,0,0,0-1.009-.125,2.265,2.265,0,0,0-.9.169,1.876,1.876,0,0,0-.668.47,2.034,2.034,0,0,0-.415.73,2.968,2.968,0,0,0-.143.943,2.812,2.812,0,0,0,.154.962,2.044,2.044,0,0,0,.437.723,1.887,1.887,0,0,0,.679.455,2.362,2.362,0,0,0,.881.158,3.947,3.947,0,0,0,.5-.033,4.863,4.863,0,0,0,.521-.1q.261-.062.514-.143a5.047,5.047,0,0,0,.473-.176Zm6.68.286v-4.86q0-1.226-.91-1.226a1.3,1.3,0,0,0-.87.367,6.342,6.342,0,0,0-.877,1v4.72H85.535V4.522h1.791V7.076l-.088,1.351a5.236,5.236,0,0,1,.462-.488,2.5,2.5,0,0,1,.507-.363,2.453,2.453,0,0,1,.587-.224,2.94,2.94,0,0,1,.7-.077,2.464,2.464,0,0,1,1,.187,1.926,1.926,0,0,1,.712.529,2.269,2.269,0,0,1,.429.822,3.763,3.763,0,0,1,.143,1.075v5.006Z" transform="translate(223.476 4315.011)" fill="#12263f"/>
    </g>
  </g>
</svg>
