<svg xmlns="http://www.w3.org/2000/svg" width="50" height="49.805" viewBox="0 0 50 49.805">
  <g id="t1-ic2" transform="translate(0 -1)">
    <path id="Path_104045" data-name="Path 104045" d="M45.605,1H4.395A4.4,4.4,0,0,0,0,5.395V46.41A4.4,4.4,0,0,0,4.395,50.8H45.605A4.4,4.4,0,0,0,50,46.41V5.395A4.4,4.4,0,0,0,45.605,1ZM4.395,3.93H45.605A1.467,1.467,0,0,1,47.07,5.395v7.324H2.93V5.395A1.467,1.467,0,0,1,4.395,3.93ZM45.605,47.875H4.395A1.467,1.467,0,0,1,2.93,46.41V15.648H47.07V46.41A1.467,1.467,0,0,1,45.605,47.875Z" fill="#ffa726"/>
    <path id="Path_104046" data-name="Path 104046" d="M206.827,196.115a1.465,1.465,0,0,0-1.923.769l-8.789,20.508a1.465,1.465,0,0,0,2.693,1.154l8.789-20.508A1.465,1.465,0,0,0,206.827,196.115Z" transform="translate(-176.856 -175.954)" fill="#ffa726"/>
    <path id="Path_104047" data-name="Path 104047" d="M85.936,241.549a1.465,1.465,0,0,0-2.059-.229l-7.324,5.859a1.465,1.465,0,0,0,0,2.288l7.324,5.859a1.465,1.465,0,1,0,1.83-2.288l-5.894-4.716,5.894-4.716a1.465,1.465,0,0,0,.229-2.059Z" transform="translate(-68.582 -216.562)" fill="#ffa726"/>
    <path id="Path_104048" data-name="Path 104048" d="M340.7,247.179l-7.324-5.859a1.465,1.465,0,1,0-1.83,2.288l5.894,4.716-5.894,4.716a1.465,1.465,0,1,0,1.83,2.288l7.324-5.859A1.465,1.465,0,0,0,340.7,247.179Z" transform="translate(-298.675 -216.561)" fill="#ffa726"/>
    <circle id="Ellipse_4081" data-name="Ellipse 4081" cx="1.465" cy="1.465" r="1.465" transform="translate(5.957 6.859)" fill="#ffa726"/>
    <circle id="Ellipse_4082" data-name="Ellipse 4082" cx="1.465" cy="1.465" r="1.465" transform="translate(11.816 6.859)" fill="#ffa726"/>
    <circle id="Ellipse_4083" data-name="Ellipse 4083" cx="1.465" cy="1.465" r="1.465" transform="translate(17.676 6.859)" fill="#ffa726"/>
    <path id="Path_104049" data-name="Path 104049" d="M332.465,63.93h8.789a1.465,1.465,0,0,0,0-2.93h-8.789a1.465,1.465,0,0,0,0,2.93Z" transform="translate(-298.676 -54.141)" fill="#ffa726"/>
  </g>
</svg>
