<svg xmlns="http://www.w3.org/2000/svg" width="110" height="97.423" viewBox="0 0 110 97.423">
  <g id="t1-ic7" transform="translate(0 -29.271)">
    <g id="Group_92342" data-name="Group 92342" transform="translate(1.611 44.695)">
      <path id="Path_104082" data-name="Path 104082" d="M110.463,181.451H11.314A3.814,3.814,0,0,1,7.5,177.637V101.064H114.277v76.573a3.814,3.814,0,0,1-3.814,3.814Z" transform="translate(-7.5 -101.064)" fill="#f8f6f6"/>
    </g>
    <g id="Group_92343" data-name="Group 92343" transform="translate(100.278 44.696)">
      <path id="Path_104083" data-name="Path 104083" d="M474.86,101.067V177.64a3.814,3.814,0,0,1-3.815,3.813h-4.3a3.814,3.814,0,0,0,3.815-3.813V101.067Z" transform="translate(-466.748 -101.067)" fill="#ebebeb"/>
    </g>
    <g id="Group_92344" data-name="Group 92344" transform="translate(1.612 30.882)">
      <path id="Path_104084" data-name="Path 104084" d="M114.279,50.583H7.5v-10a3.814,3.814,0,0,1,3.814-3.814h99.149a3.814,3.814,0,0,1,3.814,3.814Z" transform="translate(-7.502 -36.77)" fill="#4dd0e1"/>
    </g>
    <g id="Group_92345" data-name="Group 92345" transform="translate(100.278 30.883)">
      <path id="Path_104085" data-name="Path 104085" d="M474.86,40.587v10h-4.3v-10a3.814,3.814,0,0,0-3.815-3.813h4.3A3.814,3.814,0,0,1,474.86,40.587Z" transform="translate(-466.748 -36.774)" fill="#039be5"/>
    </g>
    <g id="Group_92346" data-name="Group 92346" transform="translate(1.611 44.674)">
      <path id="Path_104086" data-name="Path 104086" d="M39.524,100.965v80.388H11.314A3.815,3.815,0,0,1,7.5,177.538V100.965Z" transform="translate(-7.499 -100.965)" fill="#ffca28"/>
    </g>
    <g id="Group_92347" data-name="Group 92347" transform="translate(29.552 44.674)">
      <path id="Path_104087" data-name="Path 104087" d="M137.553,100.967h4.084v80.388h-4.084Z" transform="translate(-137.553 -100.967)" fill="#ffa726"/>
    </g>
    <g id="Group_92348" data-name="Group 92348" transform="translate(0 29.271)">
      <path id="Path_104088" data-name="Path 104088" d="M104.575,29.271H81.53a1.611,1.611,0,1,0,0,3.222h23.045a2.205,2.205,0,0,1,2.2,2.2v8.388L3.223,43.063V34.7a2.205,2.205,0,0,1,2.2-2.2H73.973a1.611,1.611,0,1,0,0-3.222H5.426A5.431,5.431,0,0,0,0,34.7v86.55s0,.006,0,.008v.014a5.431,5.431,0,0,0,5.425,5.425h99.149A5.431,5.431,0,0,0,110,121.269V34.7a5.431,5.431,0,0,0-5.425-5.425Zm2.2,92a2.205,2.205,0,0,1-2.2,2.2H35.248V75.9a1.611,1.611,0,0,0-3.222,0v47.556H5.427a2.206,2.206,0,0,1-2.2-2.2V46.306h28.8V68.512a1.611,1.611,0,1,0,3.222,0V46.306h71.529Z" transform="translate(0 -29.271)" fill="#12263f"/>
      <path id="Path_104089" data-name="Path 104089" d="M52.962,130.229H47.488a1.611,1.611,0,1,0,0,3.222h5.474a1.611,1.611,0,0,0,0-3.222Z" transform="translate(-36.021 -108.539)" fill="#12263f"/>
      <path id="Path_104090" data-name="Path 104090" d="M52.962,167.81H47.488a1.611,1.611,0,1,0,0,3.222h5.474a1.611,1.611,0,0,0,0-3.222Z" transform="translate(-36.021 -138.046)" fill="#12263f"/>
      <path id="Path_104091" data-name="Path 104091" d="M52.962,205.39H47.488a1.611,1.611,0,1,0,0,3.222h5.474a1.611,1.611,0,1,0,0-3.222Z" transform="translate(-36.021 -167.552)" fill="#12263f"/>
      <path id="Path_104092" data-name="Path 104092" d="M52.962,242.97H47.488a1.611,1.611,0,1,0,0,3.222h5.474a1.611,1.611,0,1,0,0-3.222Z" transform="translate(-36.021 -197.058)" fill="#12263f"/>
      <path id="Path_104093" data-name="Path 104093" d="M52.962,280.551H47.488a1.611,1.611,0,0,0,0,3.222h5.474a1.611,1.611,0,0,0,0-3.222Z" transform="translate(-36.021 -226.565)" fill="#12263f"/>
      <path id="Path_104094" data-name="Path 104094" d="M52.962,318.131H47.488a1.611,1.611,0,0,0,0,3.222h5.474a1.611,1.611,0,0,0,0-3.222Z" transform="translate(-36.021 -256.071)" fill="#12263f"/>
      <path id="Path_104095" data-name="Path 104095" d="M52.962,355.711H47.488a1.611,1.611,0,0,0,0,3.222h5.474a1.611,1.611,0,1,0,0-3.222Z" transform="translate(-36.021 -285.577)" fill="#12263f"/>
      <path id="Path_104096" data-name="Path 104096" d="M52.962,393.292H47.488a1.611,1.611,0,1,0,0,3.222h5.474a1.611,1.611,0,1,0,0-3.222Z" transform="translate(-36.021 -315.084)" fill="#12263f"/>
      <path id="Path_104097" data-name="Path 104097" d="M52.962,430.872H47.488a1.611,1.611,0,1,0,0,3.222h5.474a1.611,1.611,0,0,0,0-3.222Z" transform="translate(-36.021 -344.591)" fill="#12263f"/>
      <path id="Path_104098" data-name="Path 104098" d="M235.685,149.485a1.61,1.61,0,0,0,2.093-.9l6.423-16.148a1.611,1.611,0,1,0-2.994-1.191l-6.423,16.148A1.611,1.611,0,0,0,235.685,149.485Z" transform="translate(-184.251 -108.539)" fill="#12263f"/>
      <path id="Path_104099" data-name="Path 104099" d="M293.877,151.436a1.61,1.61,0,0,0,2.2-.587l4.313-7.446a1.611,1.611,0,0,0-.014-1.639l-4.313-7.154a1.611,1.611,0,1,0-2.759,1.664l3.821,6.338-3.836,6.622a1.611,1.611,0,0,0,.587,2.2Z" transform="translate(-230.109 -111.367)" fill="#12263f"/>
      <path id="Path_104100" data-name="Path 104100" d="M190.617,150.85a1.611,1.611,0,1,0,2.788-1.615l-3.836-6.622,3.821-6.338a1.611,1.611,0,0,0-2.759-1.664l-4.313,7.154a1.612,1.612,0,0,0-.014,1.639Z" transform="translate(-146.108 -111.368)" fill="#12263f"/>
      <path id="Path_104101" data-name="Path 104101" d="M187.7,246.193h36.562a1.611,1.611,0,0,0,0-3.222H187.7a1.611,1.611,0,0,0,0,3.222Z" transform="translate(-146.107 -197.059)" fill="#12263f"/>
      <path id="Path_104102" data-name="Path 104102" d="M187.7,283.773h7.141a1.611,1.611,0,1,0,0-3.222H187.7a1.611,1.611,0,0,0,0,3.222Z" transform="translate(-146.107 -226.565)" fill="#12263f"/>
      <path id="Path_104103" data-name="Path 104103" d="M267.268,280.551h-7.141a1.611,1.611,0,0,0,0,3.222h7.141a1.611,1.611,0,0,0,0-3.222Z" transform="translate(-202.975 -226.565)" fill="#12263f"/>
      <path id="Path_104104" data-name="Path 104104" d="M308.027,321.353h7.141a1.611,1.611,0,1,0,0-3.222h-7.141a1.611,1.611,0,0,0,0,3.222Z" transform="translate(-240.584 -256.071)" fill="#12263f"/>
      <path id="Path_104105" data-name="Path 104105" d="M315.167,393.292h-7.141a1.611,1.611,0,1,0,0,3.222h7.141a1.611,1.611,0,0,0,0-3.222Z" transform="translate(-240.584 -315.084)" fill="#12263f"/>
      <path id="Path_104106" data-name="Path 104106" d="M187.7,434.1h19.131a1.611,1.611,0,1,0,0-3.222H187.7a1.611,1.611,0,0,0,0,3.222Z" transform="translate(-146.107 -344.591)" fill="#12263f"/>
      <path id="Path_104107" data-name="Path 104107" d="M187.7,321.353h19.131a1.611,1.611,0,1,0,0-3.222H187.7a1.611,1.611,0,1,0,0,3.222Z" transform="translate(-146.107 -256.071)" fill="#12263f"/>
      <path id="Path_104108" data-name="Path 104108" d="M372.544,321.353h19.131a1.611,1.611,0,0,0,0-3.222H372.544a1.611,1.611,0,0,0,0,3.222Z" transform="translate(-291.24 -256.071)" fill="#12263f"/>
      <path id="Path_104109" data-name="Path 104109" d="M187.7,358.934h4.313a1.611,1.611,0,1,0,0-3.222H187.7a1.611,1.611,0,1,0,0,3.222Z" transform="translate(-146.107 -285.578)" fill="#12263f"/>
      <path id="Path_104110" data-name="Path 104110" d="M272.85,355.711H238.012a1.611,1.611,0,1,0,0,3.222H272.85a1.611,1.611,0,0,0,0-3.222Z" transform="translate(-185.612 -285.577)" fill="#12263f"/>
      <path id="Path_104111" data-name="Path 104111" d="M187.7,396.514h19.131a1.611,1.611,0,0,0,0-3.222H187.7a1.611,1.611,0,0,0,0,3.222Z" transform="translate(-146.107 -315.084)" fill="#12263f"/>
    </g>
  </g>
</svg>
