<svg xmlns="http://www.w3.org/2000/svg" width="181" height="182" viewBox="0 0 181 182">
  <g id="t3-i3" transform="translate(-967 -797)">
    <ellipse id="Ellipse_4052" data-name="Ellipse 4052" cx="90.5" cy="91" rx="90.5" ry="91" transform="translate(967 797)" fill="#fff"/>
    <g id="nube" transform="translate(1002 832.607)">
      <g id="Group_92271" data-name="Group 92271" transform="translate(34.375 86.846)">
        <rect id="Rectangle_31884" data-name="Rectangle 31884" width="40.391" height="3.438" transform="translate(0 14.781)" fill="#12263f"/>
        <rect id="Rectangle_31885" data-name="Rectangle 31885" width="3.438" height="16.5" transform="translate(17.703)" fill="#12263f"/>
      </g>
      <path id="Path_103994" data-name="Path 103994" d="M94.846,40.584c4.469-8.078-1.891-17.7-11.516-17.7a13.308,13.308,0,0,0-6.875,1.891c-1.031-9.281-9.281-16.5-19.25-16.5s-18.047,7.047-19.25,15.984a11.611,11.611,0,0,0-6.016-1.547c-6.531,0-11.687,4.984-11.687,11a10.418,10.418,0,0,0,1.891,6.016c-7.906.344-14.265,6.531-14.265,14.094,0,7.734,6.7,14.094,14.953,14.094H99.486c8.25,0,14.953-6.359,14.953-14.094C114.439,44.365,104.471,37.49,94.846,40.584Z" transform="translate(-6.158 -6.16)" fill="#fff"/>
      <path id="Path_103995" data-name="Path 103995" d="M93.328,63.471H16.672C7.562,63.471,0,56.424,0,47.659,0,40.1,5.672,33.737,13.234,32.19a11.1,11.1,0,0,1-.859-4.641c0-7.047,6.016-12.719,13.406-12.719a15.786,15.786,0,0,1,4.812.859C32.828,6.752,41.25.393,51.219.393S69.609,6.924,71.844,15.862a14.887,14.887,0,0,1,5.5-1.031,14.426,14.426,0,0,1,12.719,7.047,12.873,12.873,0,0,1,1.547,9.969c.688,0,1.2-.172,1.891-.172,9.109,0,16.672,7.047,16.672,15.813C110,56.424,102.609,63.471,93.328,63.471Zm-67.547-45.2c-5.5,0-9.969,4.125-9.969,9.281a8.557,8.557,0,0,0,1.547,4.984,2.035,2.035,0,0,1,.172,1.719,2.5,2.5,0,0,1-1.547,1.031c-7.047.344-12.547,5.672-12.547,12.375,0,6.875,6.016,12.375,13.234,12.375H93.328c7.219,0,13.234-5.5,13.234-12.375s-5.844-12.375-13.234-12.375a11.555,11.555,0,0,0-4.125.688,1.94,1.94,0,0,1-1.891-.516,1.563,1.563,0,0,1-.172-1.891,9.544,9.544,0,0,0-.172-9.8,11.251,11.251,0,0,0-9.8-5.5,12.541,12.541,0,0,0-6.016,1.547,1.555,1.555,0,0,1-1.719,0,1.531,1.531,0,0,1-.859-1.375c-1.031-8.422-8.594-14.781-17.7-14.781-8.766.172-16.328,6.359-17.359,14.781a1.753,1.753,0,0,1-.859,1.375,2.384,2.384,0,0,1-1.547,0A10.532,10.532,0,0,0,25.781,18.268Z" fill="#12263f"/>
      <path id="Path_103996" data-name="Path 103996" d="M140.559,36.458c1.031-7.219-5.156-13.75-12.891-13.75a13.307,13.307,0,0,0-6.875,1.891c-1.031-9.109-9.281-16.328-19.25-16.328S83.5,15.318,82.293,24.255a11.611,11.611,0,0,0-6.016-1.547c-6.531,0-11.687,4.984-11.687,11a13.277,13.277,0,0,0,.344,2.578" transform="translate(-50.496 -6.159)" fill="#e1e6e8"/>
      <path id="Path_103997" data-name="Path 103997" d="M58.776,32.634a2.069,2.069,0,0,1-1.719-1.2,9.518,9.518,0,0,1-.344-3.094c0-7.047,6.016-12.719,13.406-12.719a15.786,15.786,0,0,1,4.812.859c2.234-8.937,10.656-15.3,20.625-15.3s18.391,6.531,20.625,15.469a14.887,14.887,0,0,1,5.5-1.031A15.751,15.751,0,0,1,133.026,20.6a13.312,13.312,0,0,1,3.266,10.656,1.727,1.727,0,0,1-3.438-.344,10.177,10.177,0,0,0-2.406-7.906,11.811,11.811,0,0,0-8.766-3.781,12.541,12.541,0,0,0-6.016,1.547,1.555,1.555,0,0,1-1.719,0,1.531,1.531,0,0,1-.859-1.375c-1.031-8.422-8.594-14.781-17.7-14.781-8.937-.172-16.5,6.016-17.531,14.437A1.753,1.753,0,0,1,77,20.431a2.384,2.384,0,0,1-1.547,0,11.018,11.018,0,0,0-5.156-1.375c-5.5,0-9.969,4.125-9.969,9.281a11.838,11.838,0,0,0,.344,2.234,1.767,1.767,0,0,1-1.2,2.062Z" transform="translate(-44.339 -0.616)" fill="#12263f"/>
      <path id="Path_103998" data-name="Path 103998" d="M154.736,194.954H92.346a4.183,4.183,0,0,0-4.125,4.125v13.578a4.183,4.183,0,0,0,4.125,4.125h62.39a4.183,4.183,0,0,0,4.125-4.125V199.079A4.182,4.182,0,0,0,154.736,194.954Z" transform="translate(-68.971 -152.108)" fill="#039be5"/>
      <path id="Path_103999" data-name="Path 103999" d="M148.578,213.129H86.188a5.8,5.8,0,0,1-5.844-5.844V193.707a5.8,5.8,0,0,1,5.844-5.844h62.39a5.8,5.8,0,0,1,5.844,5.844v13.578A5.906,5.906,0,0,1,148.578,213.129Zm-62.39-22a2.35,2.35,0,0,0-2.406,2.406v13.578a2.35,2.35,0,0,0,2.406,2.406h62.39a2.35,2.35,0,0,0,2.406-2.406V193.535a2.35,2.35,0,0,0-2.406-2.406Z" transform="translate(-62.813 -146.564)" fill="#12263f"/>
      <rect id="Rectangle_31886" data-name="Rectangle 31886" width="59.64" height="10.828" transform="translate(24.75 48.518)" fill="#fff"/>
      <path id="Path_104000" data-name="Path 104000" d="M154.736,295.778H92.346a4.183,4.183,0,0,0-4.125,4.125v13.578a4.183,4.183,0,0,0,4.125,4.125h62.39a4.183,4.183,0,0,0,4.125-4.125V299.9A4.183,4.183,0,0,0,154.736,295.778Z" transform="translate(-68.971 -230.932)" fill="#039be5"/>
      <path id="Path_104001" data-name="Path 104001" d="M148.578,313.954H86.188a5.8,5.8,0,0,1-5.844-5.844V294.532a5.8,5.8,0,0,1,5.844-5.844h62.39a5.8,5.8,0,0,1,5.844,5.844V308.11A5.906,5.906,0,0,1,148.578,313.954Zm-62.39-22a2.35,2.35,0,0,0-2.406,2.406v13.578a2.35,2.35,0,0,0,2.406,2.406h62.39a2.35,2.35,0,0,0,2.406-2.406V294.36a2.35,2.35,0,0,0-2.406-2.406Z" transform="translate(-62.813 -225.389)" fill="#12263f"/>
      <rect id="Rectangle_31887" data-name="Rectangle 31887" width="59.64" height="10.828" transform="translate(24.75 70.346)" fill="#fff"/>
      <g id="Group_92272" data-name="Group 92272" transform="translate(28.359 51.612)">
        <circle id="Ellipse_4059" data-name="Ellipse 4059" cx="2.234" cy="2.234" r="2.234" transform="translate(0 22)" fill="#ffa726"/>
        <circle id="Ellipse_4060" data-name="Ellipse 4060" cx="2.234" cy="2.234" r="2.234" fill="#ffa726"/>
        <circle id="Ellipse_4061" data-name="Ellipse 4061" cx="2.234" cy="2.234" r="2.234" transform="translate(8.937 22)" fill="#ffa726"/>
        <circle id="Ellipse_4062" data-name="Ellipse 4062" cx="2.234" cy="2.234" r="2.234" transform="translate(8.937)" fill="#ffa726"/>
        <circle id="Ellipse_4063" data-name="Ellipse 4063" cx="2.234" cy="2.234" r="2.234" transform="translate(17.875 22)" fill="#ffa726"/>
        <circle id="Ellipse_4064" data-name="Ellipse 4064" cx="2.234" cy="2.234" r="2.234" transform="translate(17.875)" fill="#ffa726"/>
      </g>
      <circle id="Ellipse_4065" data-name="Ellipse 4065" cx="5.328" cy="5.328" r="5.328" transform="translate(48.469 98.018)" fill="#fff"/>
      <g id="Group_92273" data-name="Group 92273" transform="translate(38.5 20.159)">
        <path id="Path_104002" data-name="Path 104002" d="M221.3,454.021a7.078,7.078,0,0,1-7.047-7.047,7.047,7.047,0,1,1,14.094,0A7.078,7.078,0,0,1,221.3,454.021Zm0-10.828a3.631,3.631,0,0,0-3.609,3.609,3.609,3.609,0,0,0,7.219,0A3.631,3.631,0,0,0,221.3,443.192Z" transform="translate(-206.003 -363.786)" fill="#12263f"/>
        <rect id="Rectangle_31888" data-name="Rectangle 31888" width="3.438" height="3.438" fill="#12263f"/>
        <rect id="Rectangle_31889" data-name="Rectangle 31889" width="3.438" height="3.438" transform="translate(10.484)" fill="#12263f"/>
        <rect id="Rectangle_31890" data-name="Rectangle 31890" width="3.438" height="3.438" transform="translate(21.141)" fill="#12263f"/>
      </g>
    </g>
  </g>
</svg>
